G04 EAGLE Gerber RS-274X export*
G75*
%MOMM*%
%FSLAX34Y34*%
%LPD*%
%INSoldermask Top*%
%IPPOS*%
%AMOC8*
5,1,8,0,0,1.08239X$1,22.5*%
G01*
%ADD10C,0.225400*%
%ADD11C,0.229050*%
%ADD12C,0.231750*%
%ADD13C,0.228853*%
%ADD14C,0.232700*%
%ADD15C,3.175000*%
%ADD16C,1.127000*%
%ADD17R,1.200000X2.200000*%
%ADD18C,0.577000*%
%ADD19R,1.534156X3.495038*%
%ADD20C,1.927000*%
%ADD21C,0.225588*%
%ADD22C,0.223519*%
%ADD23C,0.227428*%
%ADD24C,2.159000*%
%ADD25C,0.231559*%
%ADD26C,0.226312*%
%ADD27C,0.223409*%
%ADD28C,0.225369*%
%ADD29C,0.230578*%
%ADD30C,0.777000*%
%ADD31C,0.222250*%
%ADD32C,0.228600*%
%ADD33C,0.977000*%
%ADD34C,2.006600*%

G36*
X60304Y456254D02*
X60304Y456254D01*
X60307Y456251D01*
X61429Y456406D01*
X61434Y456411D01*
X61438Y456408D01*
X62509Y456779D01*
X62513Y456785D01*
X62518Y456783D01*
X63495Y457356D01*
X63498Y457362D01*
X63503Y457361D01*
X64350Y458114D01*
X64352Y458121D01*
X64357Y458121D01*
X65041Y459024D01*
X65041Y459031D01*
X65046Y459032D01*
X65541Y460051D01*
X65539Y460058D01*
X65544Y460060D01*
X65831Y461157D01*
X65829Y461161D01*
X65831Y461162D01*
X65829Y461164D01*
X65832Y461166D01*
X65899Y462297D01*
X65897Y462301D01*
X65899Y462303D01*
X65832Y463434D01*
X65827Y463439D01*
X65831Y463443D01*
X65544Y464540D01*
X65538Y464544D01*
X65541Y464549D01*
X65046Y465568D01*
X65040Y465571D01*
X65041Y465576D01*
X64357Y466479D01*
X64350Y466481D01*
X64350Y466486D01*
X63503Y467239D01*
X63496Y467239D01*
X63495Y467244D01*
X62518Y467817D01*
X62511Y467816D01*
X62509Y467821D01*
X61438Y468192D01*
X61432Y468189D01*
X61429Y468194D01*
X60307Y468349D01*
X60302Y468346D01*
X60300Y468349D01*
X48300Y468349D01*
X48295Y468346D01*
X48292Y468349D01*
X47025Y468144D01*
X47019Y468138D01*
X47015Y468141D01*
X45825Y467659D01*
X45821Y467652D01*
X45815Y467654D01*
X44762Y466920D01*
X44760Y466912D01*
X44754Y466913D01*
X43891Y465963D01*
X43890Y465954D01*
X43885Y465954D01*
X43255Y464835D01*
X43256Y464827D01*
X43250Y464825D01*
X42885Y463595D01*
X42888Y463587D01*
X42883Y463584D01*
X42801Y462303D01*
X42804Y462299D01*
X42801Y462297D01*
X42883Y461016D01*
X42889Y461010D01*
X42885Y461005D01*
X43250Y459775D01*
X43257Y459770D01*
X43255Y459765D01*
X43885Y458646D01*
X43892Y458643D01*
X43891Y458637D01*
X44754Y457687D01*
X44762Y457686D01*
X44762Y457680D01*
X45815Y456946D01*
X45823Y456946D01*
X45825Y456941D01*
X47015Y456459D01*
X47022Y456461D01*
X47025Y456456D01*
X48292Y456251D01*
X48297Y456254D01*
X48300Y456251D01*
X60300Y456251D01*
X60304Y456254D01*
G37*
G36*
X60304Y369854D02*
X60304Y369854D01*
X60307Y369851D01*
X61429Y370006D01*
X61434Y370011D01*
X61438Y370008D01*
X62509Y370379D01*
X62513Y370385D01*
X62518Y370383D01*
X63495Y370956D01*
X63498Y370962D01*
X63503Y370961D01*
X64350Y371714D01*
X64352Y371721D01*
X64357Y371721D01*
X65041Y372624D01*
X65041Y372631D01*
X65046Y372632D01*
X65541Y373651D01*
X65539Y373658D01*
X65544Y373660D01*
X65831Y374757D01*
X65829Y374761D01*
X65831Y374762D01*
X65829Y374764D01*
X65832Y374766D01*
X65899Y375897D01*
X65897Y375901D01*
X65899Y375903D01*
X65832Y377034D01*
X65827Y377039D01*
X65831Y377043D01*
X65544Y378140D01*
X65538Y378144D01*
X65541Y378149D01*
X65046Y379168D01*
X65040Y379171D01*
X65041Y379176D01*
X64357Y380079D01*
X64350Y380081D01*
X64350Y380086D01*
X63503Y380839D01*
X63496Y380839D01*
X63495Y380844D01*
X62518Y381417D01*
X62511Y381416D01*
X62509Y381421D01*
X61438Y381792D01*
X61432Y381789D01*
X61429Y381794D01*
X60307Y381949D01*
X60302Y381946D01*
X60300Y381949D01*
X48300Y381949D01*
X48295Y381946D01*
X48292Y381949D01*
X47025Y381744D01*
X47019Y381738D01*
X47015Y381741D01*
X45825Y381259D01*
X45821Y381252D01*
X45815Y381254D01*
X44762Y380520D01*
X44760Y380512D01*
X44754Y380513D01*
X43891Y379563D01*
X43890Y379554D01*
X43885Y379554D01*
X43255Y378435D01*
X43256Y378427D01*
X43250Y378425D01*
X42885Y377195D01*
X42888Y377187D01*
X42883Y377184D01*
X42801Y375903D01*
X42804Y375899D01*
X42801Y375897D01*
X42883Y374616D01*
X42889Y374610D01*
X42885Y374605D01*
X43250Y373375D01*
X43257Y373370D01*
X43255Y373365D01*
X43885Y372246D01*
X43892Y372243D01*
X43891Y372237D01*
X44754Y371287D01*
X44762Y371286D01*
X44762Y371280D01*
X45815Y370546D01*
X45823Y370546D01*
X45825Y370541D01*
X47015Y370059D01*
X47022Y370061D01*
X47025Y370056D01*
X48292Y369851D01*
X48297Y369854D01*
X48300Y369851D01*
X60300Y369851D01*
X60304Y369854D01*
G37*
G36*
X15503Y456253D02*
X15503Y456253D01*
X15505Y456251D01*
X16681Y456362D01*
X16686Y456367D01*
X16690Y456364D01*
X17822Y456702D01*
X17826Y456708D01*
X17831Y456706D01*
X18875Y457258D01*
X18878Y457265D01*
X18883Y457263D01*
X19799Y458009D01*
X19800Y458016D01*
X19806Y458016D01*
X20559Y458926D01*
X20559Y458933D01*
X20564Y458934D01*
X21125Y459973D01*
X21124Y459978D01*
X21128Y459980D01*
X21127Y459981D01*
X21129Y459982D01*
X21476Y461111D01*
X21476Y461112D01*
X21477Y461113D01*
X21474Y461117D01*
X21478Y461120D01*
X21599Y462295D01*
X21595Y462302D01*
X21599Y462306D01*
X21442Y463646D01*
X21437Y463652D01*
X21440Y463657D01*
X20989Y464928D01*
X20982Y464933D01*
X20984Y464938D01*
X20262Y466077D01*
X20254Y466080D01*
X20255Y466086D01*
X19297Y467036D01*
X19289Y467037D01*
X19288Y467043D01*
X18143Y467756D01*
X18135Y467755D01*
X18133Y467761D01*
X16857Y468201D01*
X16850Y468199D01*
X16847Y468203D01*
X15505Y468349D01*
X15502Y468347D01*
X15500Y468349D01*
X9500Y468349D01*
X9497Y468347D01*
X9494Y468349D01*
X8165Y468194D01*
X8159Y468188D01*
X8155Y468191D01*
X6894Y467744D01*
X6889Y467737D01*
X6884Y467739D01*
X5754Y467022D01*
X5751Y467015D01*
X5745Y467016D01*
X4803Y466066D01*
X4802Y466057D01*
X4796Y466057D01*
X4089Y464921D01*
X4090Y464913D01*
X4084Y464911D01*
X3648Y463646D01*
X3650Y463638D01*
X3645Y463636D01*
X3501Y462305D01*
X3505Y462299D01*
X3501Y462295D01*
X3611Y461129D01*
X3616Y461124D01*
X3613Y461120D01*
X3948Y459997D01*
X3954Y459993D01*
X3952Y459989D01*
X4500Y458953D01*
X4506Y458950D01*
X4505Y458945D01*
X5244Y458037D01*
X5251Y458035D01*
X5251Y458030D01*
X6153Y457283D01*
X6161Y457283D01*
X6161Y457278D01*
X7192Y456721D01*
X7199Y456722D01*
X7201Y456717D01*
X8320Y456373D01*
X8327Y456375D01*
X8330Y456371D01*
X9495Y456251D01*
X9498Y456253D01*
X9500Y456251D01*
X15500Y456251D01*
X15503Y456253D01*
G37*
G36*
X15503Y369853D02*
X15503Y369853D01*
X15505Y369851D01*
X16681Y369962D01*
X16686Y369967D01*
X16690Y369964D01*
X17822Y370302D01*
X17826Y370308D01*
X17831Y370306D01*
X18875Y370858D01*
X18878Y370865D01*
X18883Y370863D01*
X19799Y371609D01*
X19800Y371616D01*
X19806Y371616D01*
X20559Y372526D01*
X20559Y372533D01*
X20564Y372534D01*
X21125Y373573D01*
X21124Y373578D01*
X21128Y373580D01*
X21127Y373581D01*
X21129Y373582D01*
X21476Y374711D01*
X21476Y374712D01*
X21477Y374713D01*
X21474Y374717D01*
X21478Y374720D01*
X21599Y375895D01*
X21595Y375902D01*
X21599Y375906D01*
X21442Y377246D01*
X21437Y377252D01*
X21440Y377257D01*
X20989Y378528D01*
X20982Y378533D01*
X20984Y378538D01*
X20262Y379677D01*
X20254Y379680D01*
X20255Y379686D01*
X19297Y380636D01*
X19289Y380637D01*
X19288Y380643D01*
X18143Y381356D01*
X18135Y381355D01*
X18133Y381361D01*
X16857Y381801D01*
X16850Y381799D01*
X16847Y381803D01*
X15505Y381949D01*
X15502Y381947D01*
X15500Y381949D01*
X9500Y381949D01*
X9497Y381947D01*
X9494Y381949D01*
X8165Y381794D01*
X8159Y381788D01*
X8155Y381791D01*
X6894Y381344D01*
X6889Y381337D01*
X6884Y381339D01*
X5754Y380622D01*
X5751Y380615D01*
X5745Y380616D01*
X4803Y379666D01*
X4802Y379657D01*
X4796Y379657D01*
X4089Y378521D01*
X4090Y378513D01*
X4084Y378511D01*
X3648Y377246D01*
X3650Y377238D01*
X3645Y377236D01*
X3501Y375905D01*
X3505Y375899D01*
X3501Y375895D01*
X3611Y374729D01*
X3616Y374724D01*
X3613Y374720D01*
X3948Y373597D01*
X3954Y373593D01*
X3952Y373589D01*
X4500Y372553D01*
X4506Y372550D01*
X4505Y372545D01*
X5244Y371637D01*
X5251Y371635D01*
X5251Y371630D01*
X6153Y370883D01*
X6161Y370883D01*
X6161Y370878D01*
X7192Y370321D01*
X7199Y370322D01*
X7201Y370317D01*
X8320Y369973D01*
X8327Y369975D01*
X8330Y369971D01*
X9495Y369851D01*
X9498Y369853D01*
X9500Y369851D01*
X15500Y369851D01*
X15503Y369853D01*
G37*
D10*
X329502Y218122D02*
X329502Y228138D01*
X338518Y228138D01*
X338518Y218122D01*
X329502Y218122D01*
X329502Y220263D02*
X338518Y220263D01*
X338518Y222404D02*
X329502Y222404D01*
X329502Y224545D02*
X338518Y224545D01*
X338518Y226686D02*
X329502Y226686D01*
X329502Y211138D02*
X329502Y201122D01*
X329502Y211138D02*
X338518Y211138D01*
X338518Y201122D01*
X329502Y201122D01*
X329502Y203263D02*
X338518Y203263D01*
X338518Y205404D02*
X329502Y205404D01*
X329502Y207545D02*
X338518Y207545D01*
X338518Y209686D02*
X329502Y209686D01*
X292908Y418528D02*
X282892Y418528D01*
X292908Y418528D02*
X292908Y409512D01*
X282892Y409512D01*
X282892Y418528D01*
X282892Y411653D02*
X292908Y411653D01*
X292908Y413794D02*
X282892Y413794D01*
X282892Y415935D02*
X292908Y415935D01*
X292908Y418076D02*
X282892Y418076D01*
X275908Y418528D02*
X265892Y418528D01*
X275908Y418528D02*
X275908Y409512D01*
X265892Y409512D01*
X265892Y418528D01*
X265892Y411653D02*
X275908Y411653D01*
X275908Y413794D02*
X265892Y413794D01*
X265892Y415935D02*
X275908Y415935D01*
X275908Y418076D02*
X265892Y418076D01*
X566882Y361252D02*
X576898Y361252D01*
X566882Y361252D02*
X566882Y370268D01*
X576898Y370268D01*
X576898Y361252D01*
X576898Y363393D02*
X566882Y363393D01*
X566882Y365534D02*
X576898Y365534D01*
X576898Y367675D02*
X566882Y367675D01*
X566882Y369816D02*
X576898Y369816D01*
X583882Y361252D02*
X593898Y361252D01*
X583882Y361252D02*
X583882Y370268D01*
X593898Y370268D01*
X593898Y361252D01*
X593898Y363393D02*
X583882Y363393D01*
X583882Y365534D02*
X593898Y365534D01*
X593898Y367675D02*
X583882Y367675D01*
X583882Y369816D02*
X593898Y369816D01*
X292908Y302958D02*
X282892Y302958D01*
X292908Y302958D02*
X292908Y293942D01*
X282892Y293942D01*
X282892Y302958D01*
X282892Y296083D02*
X292908Y296083D01*
X292908Y298224D02*
X282892Y298224D01*
X282892Y300365D02*
X292908Y300365D01*
X292908Y302506D02*
X282892Y302506D01*
X275908Y302958D02*
X265892Y302958D01*
X275908Y302958D02*
X275908Y293942D01*
X265892Y293942D01*
X265892Y302958D01*
X265892Y296083D02*
X275908Y296083D01*
X275908Y298224D02*
X265892Y298224D01*
X265892Y300365D02*
X275908Y300365D01*
X275908Y302506D02*
X265892Y302506D01*
X351092Y271878D02*
X351092Y261862D01*
X351092Y271878D02*
X360108Y271878D01*
X360108Y261862D01*
X351092Y261862D01*
X351092Y264003D02*
X360108Y264003D01*
X360108Y266144D02*
X351092Y266144D01*
X351092Y268285D02*
X360108Y268285D01*
X360108Y270426D02*
X351092Y270426D01*
X351092Y254878D02*
X351092Y244862D01*
X351092Y254878D02*
X360108Y254878D01*
X360108Y244862D01*
X351092Y244862D01*
X351092Y247003D02*
X360108Y247003D01*
X360108Y249144D02*
X351092Y249144D01*
X351092Y251285D02*
X360108Y251285D01*
X360108Y253426D02*
X351092Y253426D01*
D11*
X210710Y167510D02*
X210710Y152530D01*
X210710Y167510D02*
X223690Y167510D01*
X223690Y152530D01*
X210710Y152530D01*
X210710Y154706D02*
X223690Y154706D01*
X223690Y156882D02*
X210710Y156882D01*
X210710Y159058D02*
X223690Y159058D01*
X223690Y161234D02*
X210710Y161234D01*
X210710Y163410D02*
X223690Y163410D01*
X223690Y165586D02*
X210710Y165586D01*
X182710Y167510D02*
X182710Y152530D01*
X182710Y167510D02*
X195690Y167510D01*
X195690Y152530D01*
X182710Y152530D01*
X182710Y154706D02*
X195690Y154706D01*
X195690Y156882D02*
X182710Y156882D01*
X182710Y159058D02*
X195690Y159058D01*
X195690Y161234D02*
X182710Y161234D01*
X182710Y163410D02*
X195690Y163410D01*
X195690Y165586D02*
X182710Y165586D01*
D10*
X98108Y282512D02*
X88092Y282512D01*
X88092Y291528D01*
X98108Y291528D01*
X98108Y282512D01*
X98108Y284653D02*
X88092Y284653D01*
X88092Y286794D02*
X98108Y286794D01*
X98108Y288935D02*
X88092Y288935D01*
X88092Y291076D02*
X98108Y291076D01*
X105092Y282512D02*
X115108Y282512D01*
X105092Y282512D02*
X105092Y291528D01*
X115108Y291528D01*
X115108Y282512D01*
X115108Y284653D02*
X105092Y284653D01*
X105092Y286794D02*
X115108Y286794D01*
X115108Y288935D02*
X105092Y288935D01*
X105092Y291076D02*
X115108Y291076D01*
D11*
X222390Y122310D02*
X222390Y93330D01*
X209410Y93330D01*
X209410Y122310D01*
X222390Y122310D01*
X222390Y95506D02*
X209410Y95506D01*
X209410Y97682D02*
X222390Y97682D01*
X222390Y99858D02*
X209410Y99858D01*
X209410Y102034D02*
X222390Y102034D01*
X222390Y104210D02*
X209410Y104210D01*
X209410Y106386D02*
X222390Y106386D01*
X222390Y108562D02*
X209410Y108562D01*
X209410Y110738D02*
X222390Y110738D01*
X222390Y112914D02*
X209410Y112914D01*
X209410Y115090D02*
X222390Y115090D01*
X222390Y117266D02*
X209410Y117266D01*
X209410Y119442D02*
X222390Y119442D01*
X222390Y121618D02*
X209410Y121618D01*
X222390Y74310D02*
X222390Y45330D01*
X209410Y45330D01*
X209410Y74310D01*
X222390Y74310D01*
X222390Y47506D02*
X209410Y47506D01*
X209410Y49682D02*
X222390Y49682D01*
X222390Y51858D02*
X209410Y51858D01*
X209410Y54034D02*
X222390Y54034D01*
X222390Y56210D02*
X209410Y56210D01*
X209410Y58386D02*
X222390Y58386D01*
X222390Y60562D02*
X209410Y60562D01*
X209410Y62738D02*
X222390Y62738D01*
X222390Y64914D02*
X209410Y64914D01*
X209410Y67090D02*
X222390Y67090D01*
X222390Y69266D02*
X209410Y69266D01*
X209410Y71442D02*
X222390Y71442D01*
X222390Y73618D02*
X209410Y73618D01*
D10*
X33592Y296862D02*
X33592Y306878D01*
X42608Y306878D01*
X42608Y296862D01*
X33592Y296862D01*
X33592Y299003D02*
X42608Y299003D01*
X42608Y301144D02*
X33592Y301144D01*
X33592Y303285D02*
X42608Y303285D01*
X42608Y305426D02*
X33592Y305426D01*
X33592Y289878D02*
X33592Y279862D01*
X33592Y289878D02*
X42608Y289878D01*
X42608Y279862D01*
X33592Y279862D01*
X33592Y282003D02*
X42608Y282003D01*
X42608Y284144D02*
X33592Y284144D01*
X33592Y286285D02*
X42608Y286285D01*
X42608Y288426D02*
X33592Y288426D01*
D12*
X49524Y300664D02*
X49524Y307616D01*
X57476Y307616D01*
X57476Y300664D01*
X49524Y300664D01*
X49524Y302866D02*
X57476Y302866D01*
X57476Y305068D02*
X49524Y305068D01*
X49524Y307270D02*
X57476Y307270D01*
X49524Y288616D02*
X49524Y281664D01*
X49524Y288616D02*
X57476Y288616D01*
X57476Y281664D01*
X49524Y281664D01*
X49524Y283866D02*
X57476Y283866D01*
X57476Y286068D02*
X49524Y286068D01*
X49524Y288270D02*
X57476Y288270D01*
X70524Y291164D02*
X70524Y298116D01*
X78476Y298116D01*
X78476Y291164D01*
X70524Y291164D01*
X70524Y293366D02*
X78476Y293366D01*
X78476Y295568D02*
X70524Y295568D01*
X70524Y297770D02*
X78476Y297770D01*
D10*
X265892Y314262D02*
X275908Y314262D01*
X265892Y314262D02*
X265892Y323278D01*
X275908Y323278D01*
X275908Y314262D01*
X275908Y316403D02*
X265892Y316403D01*
X265892Y318544D02*
X275908Y318544D01*
X275908Y320685D02*
X265892Y320685D01*
X265892Y322826D02*
X275908Y322826D01*
X282892Y314262D02*
X292908Y314262D01*
X282892Y314262D02*
X282892Y323278D01*
X292908Y323278D01*
X292908Y314262D01*
X292908Y316403D02*
X282892Y316403D01*
X282892Y318544D02*
X292908Y318544D01*
X292908Y320685D02*
X282892Y320685D01*
X282892Y322826D02*
X292908Y322826D01*
X31288Y325818D02*
X21272Y325818D01*
X31288Y325818D02*
X31288Y316802D01*
X21272Y316802D01*
X21272Y325818D01*
X21272Y318943D02*
X31288Y318943D01*
X31288Y321084D02*
X21272Y321084D01*
X21272Y323225D02*
X31288Y323225D01*
X31288Y325366D02*
X21272Y325366D01*
X14288Y325818D02*
X4272Y325818D01*
X14288Y325818D02*
X14288Y316802D01*
X4272Y316802D01*
X4272Y325818D01*
X4272Y318943D02*
X14288Y318943D01*
X14288Y321084D02*
X4272Y321084D01*
X4272Y323225D02*
X14288Y323225D01*
X14288Y325366D02*
X4272Y325366D01*
D13*
X117855Y223773D02*
X117855Y212599D01*
X96521Y212599D01*
X96521Y223773D01*
X117855Y223773D01*
X117855Y214774D02*
X96521Y214774D01*
X96521Y216949D02*
X117855Y216949D01*
X117855Y219124D02*
X96521Y219124D01*
X96521Y221299D02*
X117855Y221299D01*
X117855Y223474D02*
X96521Y223474D01*
X117855Y235713D02*
X117855Y246887D01*
X117855Y235713D02*
X96521Y235713D01*
X96521Y246887D01*
X117855Y246887D01*
X117855Y237888D02*
X96521Y237888D01*
X96521Y240063D02*
X117855Y240063D01*
X117855Y242238D02*
X96521Y242238D01*
X96521Y244413D02*
X117855Y244413D01*
X117855Y246588D02*
X96521Y246588D01*
X117855Y258827D02*
X117855Y270001D01*
X117855Y258827D02*
X96521Y258827D01*
X96521Y270001D01*
X117855Y270001D01*
X117855Y261002D02*
X96521Y261002D01*
X96521Y263177D02*
X117855Y263177D01*
X117855Y265352D02*
X96521Y265352D01*
X96521Y267527D02*
X117855Y267527D01*
X117855Y269702D02*
X96521Y269702D01*
D14*
X55682Y258772D02*
X55682Y223828D01*
X34738Y223828D01*
X34738Y258772D01*
X55682Y258772D01*
X55682Y226039D02*
X34738Y226039D01*
X34738Y228250D02*
X55682Y228250D01*
X55682Y230461D02*
X34738Y230461D01*
X34738Y232672D02*
X55682Y232672D01*
X55682Y234883D02*
X34738Y234883D01*
X34738Y237094D02*
X55682Y237094D01*
X55682Y239305D02*
X34738Y239305D01*
X34738Y241516D02*
X55682Y241516D01*
X55682Y243727D02*
X34738Y243727D01*
X34738Y245938D02*
X55682Y245938D01*
X55682Y248149D02*
X34738Y248149D01*
X34738Y250360D02*
X55682Y250360D01*
X55682Y252571D02*
X34738Y252571D01*
X34738Y254782D02*
X55682Y254782D01*
X55682Y256993D02*
X34738Y256993D01*
D10*
X136842Y202628D02*
X146858Y202628D01*
X146858Y193612D01*
X136842Y193612D01*
X136842Y202628D01*
X136842Y195753D02*
X146858Y195753D01*
X146858Y197894D02*
X136842Y197894D01*
X136842Y200035D02*
X146858Y200035D01*
X146858Y202176D02*
X136842Y202176D01*
X129858Y202628D02*
X119842Y202628D01*
X129858Y202628D02*
X129858Y193612D01*
X119842Y193612D01*
X119842Y202628D01*
X119842Y195753D02*
X129858Y195753D01*
X129858Y197894D02*
X119842Y197894D01*
X119842Y200035D02*
X129858Y200035D01*
X129858Y202176D02*
X119842Y202176D01*
X119842Y219012D02*
X129858Y219012D01*
X119842Y219012D02*
X119842Y228028D01*
X129858Y228028D01*
X129858Y219012D01*
X129858Y221153D02*
X119842Y221153D01*
X119842Y223294D02*
X129858Y223294D01*
X129858Y225435D02*
X119842Y225435D01*
X119842Y227576D02*
X129858Y227576D01*
X136842Y219012D02*
X146858Y219012D01*
X136842Y219012D02*
X136842Y228028D01*
X146858Y228028D01*
X146858Y219012D01*
X146858Y221153D02*
X136842Y221153D01*
X136842Y223294D02*
X146858Y223294D01*
X146858Y225435D02*
X136842Y225435D01*
X136842Y227576D02*
X146858Y227576D01*
D15*
X139700Y50800D03*
X660400Y101600D03*
X660400Y381000D03*
X152400Y533400D03*
D16*
X660400Y139700D03*
X114300Y546100D03*
D10*
X98108Y297752D02*
X88092Y297752D01*
X88092Y306768D01*
X98108Y306768D01*
X98108Y297752D01*
X98108Y299893D02*
X88092Y299893D01*
X88092Y302034D02*
X98108Y302034D01*
X98108Y304175D02*
X88092Y304175D01*
X88092Y306316D02*
X98108Y306316D01*
X105092Y297752D02*
X115108Y297752D01*
X105092Y297752D02*
X105092Y306768D01*
X115108Y306768D01*
X115108Y297752D01*
X115108Y299893D02*
X105092Y299893D01*
X105092Y302034D02*
X115108Y302034D01*
X115108Y304175D02*
X105092Y304175D01*
X105092Y306316D02*
X115108Y306316D01*
D11*
X114190Y322710D02*
X114190Y337690D01*
X127170Y337690D01*
X127170Y322710D01*
X114190Y322710D01*
X114190Y324886D02*
X127170Y324886D01*
X127170Y327062D02*
X114190Y327062D01*
X114190Y329238D02*
X127170Y329238D01*
X127170Y331414D02*
X114190Y331414D01*
X114190Y333590D02*
X127170Y333590D01*
X127170Y335766D02*
X114190Y335766D01*
X86190Y337690D02*
X86190Y322710D01*
X86190Y337690D02*
X99170Y337690D01*
X99170Y322710D01*
X86190Y322710D01*
X86190Y324886D02*
X99170Y324886D01*
X99170Y327062D02*
X86190Y327062D01*
X86190Y329238D02*
X99170Y329238D01*
X99170Y331414D02*
X86190Y331414D01*
X86190Y333590D02*
X99170Y333590D01*
X99170Y335766D02*
X86190Y335766D01*
D10*
X335852Y507392D02*
X335852Y526408D01*
X344868Y526408D01*
X344868Y507392D01*
X335852Y507392D01*
X335852Y509533D02*
X344868Y509533D01*
X344868Y511674D02*
X335852Y511674D01*
X335852Y513815D02*
X344868Y513815D01*
X344868Y515956D02*
X335852Y515956D01*
X335852Y518097D02*
X344868Y518097D01*
X344868Y520238D02*
X335852Y520238D01*
X335852Y522379D02*
X344868Y522379D01*
X344868Y524520D02*
X335852Y524520D01*
X285052Y526408D02*
X285052Y507392D01*
X285052Y526408D02*
X294068Y526408D01*
X294068Y507392D01*
X285052Y507392D01*
X285052Y509533D02*
X294068Y509533D01*
X294068Y511674D02*
X285052Y511674D01*
X285052Y513815D02*
X294068Y513815D01*
X294068Y515956D02*
X285052Y515956D01*
X285052Y518097D02*
X294068Y518097D01*
X294068Y520238D02*
X285052Y520238D01*
X285052Y522379D02*
X294068Y522379D01*
X294068Y524520D02*
X285052Y524520D01*
X234252Y526408D02*
X234252Y507392D01*
X234252Y526408D02*
X243268Y526408D01*
X243268Y507392D01*
X234252Y507392D01*
X234252Y509533D02*
X243268Y509533D01*
X243268Y511674D02*
X234252Y511674D01*
X234252Y513815D02*
X243268Y513815D01*
X243268Y515956D02*
X234252Y515956D01*
X234252Y518097D02*
X243268Y518097D01*
X243268Y520238D02*
X234252Y520238D01*
X234252Y522379D02*
X243268Y522379D01*
X243268Y524520D02*
X234252Y524520D01*
X361252Y540392D02*
X361252Y559408D01*
X370268Y559408D01*
X370268Y540392D01*
X361252Y540392D01*
X361252Y542533D02*
X370268Y542533D01*
X370268Y544674D02*
X361252Y544674D01*
X361252Y546815D02*
X370268Y546815D01*
X370268Y548956D02*
X361252Y548956D01*
X361252Y551097D02*
X370268Y551097D01*
X370268Y553238D02*
X361252Y553238D01*
X361252Y555379D02*
X370268Y555379D01*
X370268Y557520D02*
X361252Y557520D01*
X310452Y559408D02*
X310452Y540392D01*
X310452Y559408D02*
X319468Y559408D01*
X319468Y540392D01*
X310452Y540392D01*
X310452Y542533D02*
X319468Y542533D01*
X319468Y544674D02*
X310452Y544674D01*
X310452Y546815D02*
X319468Y546815D01*
X319468Y548956D02*
X310452Y548956D01*
X310452Y551097D02*
X319468Y551097D01*
X319468Y553238D02*
X310452Y553238D01*
X310452Y555379D02*
X319468Y555379D01*
X319468Y557520D02*
X310452Y557520D01*
X259652Y559408D02*
X259652Y540392D01*
X259652Y559408D02*
X268668Y559408D01*
X268668Y540392D01*
X259652Y540392D01*
X259652Y542533D02*
X268668Y542533D01*
X268668Y544674D02*
X259652Y544674D01*
X259652Y546815D02*
X268668Y546815D01*
X268668Y548956D02*
X259652Y548956D01*
X259652Y551097D02*
X268668Y551097D01*
X268668Y553238D02*
X259652Y553238D01*
X259652Y555379D02*
X268668Y555379D01*
X268668Y557520D02*
X259652Y557520D01*
X208852Y559408D02*
X208852Y540392D01*
X208852Y559408D02*
X217868Y559408D01*
X217868Y540392D01*
X208852Y540392D01*
X208852Y542533D02*
X217868Y542533D01*
X217868Y544674D02*
X208852Y544674D01*
X208852Y546815D02*
X217868Y546815D01*
X217868Y548956D02*
X208852Y548956D01*
X208852Y551097D02*
X217868Y551097D01*
X217868Y553238D02*
X208852Y553238D01*
X208852Y555379D02*
X217868Y555379D01*
X217868Y557520D02*
X208852Y557520D01*
X192468Y559408D02*
X192468Y540392D01*
X183452Y540392D01*
X183452Y559408D01*
X192468Y559408D01*
X192468Y542533D02*
X183452Y542533D01*
X183452Y544674D02*
X192468Y544674D01*
X192468Y546815D02*
X183452Y546815D01*
X183452Y548956D02*
X192468Y548956D01*
X192468Y551097D02*
X183452Y551097D01*
X183452Y553238D02*
X192468Y553238D01*
X192468Y555379D02*
X183452Y555379D01*
X183452Y557520D02*
X192468Y557520D01*
X217868Y526408D02*
X217868Y507392D01*
X208852Y507392D01*
X208852Y526408D01*
X217868Y526408D01*
X217868Y509533D02*
X208852Y509533D01*
X208852Y511674D02*
X217868Y511674D01*
X217868Y513815D02*
X208852Y513815D01*
X208852Y515956D02*
X217868Y515956D01*
X217868Y518097D02*
X208852Y518097D01*
X208852Y520238D02*
X217868Y520238D01*
X217868Y522379D02*
X208852Y522379D01*
X208852Y524520D02*
X217868Y524520D01*
X243268Y540392D02*
X243268Y559408D01*
X243268Y540392D02*
X234252Y540392D01*
X234252Y559408D01*
X243268Y559408D01*
X243268Y542533D02*
X234252Y542533D01*
X234252Y544674D02*
X243268Y544674D01*
X243268Y546815D02*
X234252Y546815D01*
X234252Y548956D02*
X243268Y548956D01*
X243268Y551097D02*
X234252Y551097D01*
X234252Y553238D02*
X243268Y553238D01*
X243268Y555379D02*
X234252Y555379D01*
X234252Y557520D02*
X243268Y557520D01*
X268668Y526408D02*
X268668Y507392D01*
X259652Y507392D01*
X259652Y526408D01*
X268668Y526408D01*
X268668Y509533D02*
X259652Y509533D01*
X259652Y511674D02*
X268668Y511674D01*
X268668Y513815D02*
X259652Y513815D01*
X259652Y515956D02*
X268668Y515956D01*
X268668Y518097D02*
X259652Y518097D01*
X259652Y520238D02*
X268668Y520238D01*
X268668Y522379D02*
X259652Y522379D01*
X259652Y524520D02*
X268668Y524520D01*
X294068Y540392D02*
X294068Y559408D01*
X294068Y540392D02*
X285052Y540392D01*
X285052Y559408D01*
X294068Y559408D01*
X294068Y542533D02*
X285052Y542533D01*
X285052Y544674D02*
X294068Y544674D01*
X294068Y546815D02*
X285052Y546815D01*
X285052Y548956D02*
X294068Y548956D01*
X294068Y551097D02*
X285052Y551097D01*
X285052Y553238D02*
X294068Y553238D01*
X294068Y555379D02*
X285052Y555379D01*
X285052Y557520D02*
X294068Y557520D01*
X319468Y526408D02*
X319468Y507392D01*
X310452Y507392D01*
X310452Y526408D01*
X319468Y526408D01*
X319468Y509533D02*
X310452Y509533D01*
X310452Y511674D02*
X319468Y511674D01*
X319468Y513815D02*
X310452Y513815D01*
X310452Y515956D02*
X319468Y515956D01*
X319468Y518097D02*
X310452Y518097D01*
X310452Y520238D02*
X319468Y520238D01*
X319468Y522379D02*
X310452Y522379D01*
X310452Y524520D02*
X319468Y524520D01*
X344868Y540392D02*
X344868Y559408D01*
X344868Y540392D02*
X335852Y540392D01*
X335852Y559408D01*
X344868Y559408D01*
X344868Y542533D02*
X335852Y542533D01*
X335852Y544674D02*
X344868Y544674D01*
X344868Y546815D02*
X335852Y546815D01*
X335852Y548956D02*
X344868Y548956D01*
X344868Y551097D02*
X335852Y551097D01*
X335852Y553238D02*
X344868Y553238D01*
X344868Y555379D02*
X335852Y555379D01*
X335852Y557520D02*
X344868Y557520D01*
X361252Y526408D02*
X361252Y507392D01*
X361252Y526408D02*
X370268Y526408D01*
X370268Y507392D01*
X361252Y507392D01*
X361252Y509533D02*
X370268Y509533D01*
X370268Y511674D02*
X361252Y511674D01*
X361252Y513815D02*
X370268Y513815D01*
X370268Y515956D02*
X361252Y515956D01*
X361252Y518097D02*
X370268Y518097D01*
X370268Y520238D02*
X361252Y520238D01*
X361252Y522379D02*
X370268Y522379D01*
X370268Y524520D02*
X361252Y524520D01*
X183452Y526408D02*
X183452Y507392D01*
X183452Y526408D02*
X192468Y526408D01*
X192468Y507392D01*
X183452Y507392D01*
X183452Y509533D02*
X192468Y509533D01*
X192468Y511674D02*
X183452Y511674D01*
X183452Y513815D02*
X192468Y513815D01*
X192468Y515956D02*
X183452Y515956D01*
X183452Y518097D02*
X192468Y518097D01*
X192468Y520238D02*
X183452Y520238D01*
X183452Y522379D02*
X192468Y522379D01*
X192468Y524520D02*
X183452Y524520D01*
X386652Y540392D02*
X386652Y559408D01*
X395668Y559408D01*
X395668Y540392D01*
X386652Y540392D01*
X386652Y542533D02*
X395668Y542533D01*
X395668Y544674D02*
X386652Y544674D01*
X386652Y546815D02*
X395668Y546815D01*
X395668Y548956D02*
X386652Y548956D01*
X386652Y551097D02*
X395668Y551097D01*
X395668Y553238D02*
X386652Y553238D01*
X386652Y555379D02*
X395668Y555379D01*
X395668Y557520D02*
X386652Y557520D01*
X412052Y559408D02*
X412052Y540392D01*
X412052Y559408D02*
X421068Y559408D01*
X421068Y540392D01*
X412052Y540392D01*
X412052Y542533D02*
X421068Y542533D01*
X421068Y544674D02*
X412052Y544674D01*
X412052Y546815D02*
X421068Y546815D01*
X421068Y548956D02*
X412052Y548956D01*
X412052Y551097D02*
X421068Y551097D01*
X421068Y553238D02*
X412052Y553238D01*
X412052Y555379D02*
X421068Y555379D01*
X421068Y557520D02*
X412052Y557520D01*
X386652Y526408D02*
X386652Y507392D01*
X386652Y526408D02*
X395668Y526408D01*
X395668Y507392D01*
X386652Y507392D01*
X386652Y509533D02*
X395668Y509533D01*
X395668Y511674D02*
X386652Y511674D01*
X386652Y513815D02*
X395668Y513815D01*
X395668Y515956D02*
X386652Y515956D01*
X386652Y518097D02*
X395668Y518097D01*
X395668Y520238D02*
X386652Y520238D01*
X386652Y522379D02*
X395668Y522379D01*
X395668Y524520D02*
X386652Y524520D01*
X412052Y526408D02*
X412052Y507392D01*
X412052Y526408D02*
X421068Y526408D01*
X421068Y507392D01*
X412052Y507392D01*
X412052Y509533D02*
X421068Y509533D01*
X421068Y511674D02*
X412052Y511674D01*
X412052Y513815D02*
X421068Y513815D01*
X421068Y515956D02*
X412052Y515956D01*
X412052Y518097D02*
X421068Y518097D01*
X421068Y520238D02*
X412052Y520238D01*
X412052Y522379D02*
X421068Y522379D01*
X421068Y524520D02*
X412052Y524520D01*
D17*
X432000Y67400D03*
X431800Y34400D03*
X457400Y67400D03*
X457200Y34400D03*
X406500Y67400D03*
X406300Y34400D03*
X381200Y67400D03*
X381000Y34400D03*
X355800Y67400D03*
X355600Y34400D03*
X330300Y67400D03*
X330100Y34400D03*
X279600Y67400D03*
X279400Y34400D03*
X305000Y67400D03*
X304800Y34400D03*
D18*
X488025Y236920D02*
X502575Y236920D01*
X502575Y248920D02*
X488025Y248920D01*
X488025Y260920D02*
X502575Y260920D01*
D19*
X495325Y248895D03*
D20*
X647700Y317500D03*
X647700Y292100D03*
D10*
X657742Y300292D02*
X688458Y300292D01*
X657742Y300292D02*
X657742Y309308D01*
X688458Y309308D01*
X688458Y300292D01*
X688458Y302433D02*
X657742Y302433D01*
X657742Y304574D02*
X688458Y304574D01*
X688458Y306715D02*
X657742Y306715D01*
X657742Y308856D02*
X688458Y308856D01*
X637658Y300292D02*
X606942Y300292D01*
X606942Y309308D01*
X637658Y309308D01*
X637658Y300292D01*
X637658Y302433D02*
X606942Y302433D01*
X606942Y304574D02*
X637658Y304574D01*
X637658Y306715D02*
X606942Y306715D01*
X606942Y308856D02*
X637658Y308856D01*
X637658Y274892D02*
X606942Y274892D01*
X606942Y283908D01*
X637658Y283908D01*
X637658Y274892D01*
X637658Y277033D02*
X606942Y277033D01*
X606942Y279174D02*
X637658Y279174D01*
X637658Y281315D02*
X606942Y281315D01*
X606942Y283456D02*
X637658Y283456D01*
X657742Y274892D02*
X688458Y274892D01*
X657742Y274892D02*
X657742Y283908D01*
X688458Y283908D01*
X688458Y274892D01*
X688458Y277033D02*
X657742Y277033D01*
X657742Y279174D02*
X688458Y279174D01*
X688458Y281315D02*
X657742Y281315D01*
X657742Y283456D02*
X688458Y283456D01*
X688458Y325692D02*
X657742Y325692D01*
X657742Y334708D01*
X688458Y334708D01*
X688458Y325692D01*
X688458Y327833D02*
X657742Y327833D01*
X657742Y329974D02*
X688458Y329974D01*
X688458Y332115D02*
X657742Y332115D01*
X657742Y334256D02*
X688458Y334256D01*
X637658Y325692D02*
X606942Y325692D01*
X606942Y334708D01*
X637658Y334708D01*
X637658Y325692D01*
X637658Y327833D02*
X606942Y327833D01*
X606942Y329974D02*
X637658Y329974D01*
X637658Y332115D02*
X606942Y332115D01*
X606942Y334256D02*
X637658Y334256D01*
D11*
X195690Y256410D02*
X195690Y241430D01*
X182710Y241430D01*
X182710Y256410D01*
X195690Y256410D01*
X195690Y243606D02*
X182710Y243606D01*
X182710Y245782D02*
X195690Y245782D01*
X195690Y247958D02*
X182710Y247958D01*
X182710Y250134D02*
X195690Y250134D01*
X195690Y252310D02*
X182710Y252310D01*
X182710Y254486D02*
X195690Y254486D01*
X223690Y256410D02*
X223690Y241430D01*
X210710Y241430D01*
X210710Y256410D01*
X223690Y256410D01*
X223690Y243606D02*
X210710Y243606D01*
X210710Y245782D02*
X223690Y245782D01*
X223690Y247958D02*
X210710Y247958D01*
X210710Y250134D02*
X223690Y250134D01*
X223690Y252310D02*
X210710Y252310D01*
X210710Y254486D02*
X223690Y254486D01*
D21*
X559883Y375763D02*
X570897Y375763D01*
X559883Y375763D02*
X559883Y388777D01*
X570897Y388777D01*
X570897Y375763D01*
X570897Y377906D02*
X559883Y377906D01*
X559883Y380049D02*
X570897Y380049D01*
X570897Y382192D02*
X559883Y382192D01*
X559883Y384335D02*
X570897Y384335D01*
X570897Y386478D02*
X559883Y386478D01*
X559883Y388621D02*
X570897Y388621D01*
X589883Y375763D02*
X600897Y375763D01*
X589883Y375763D02*
X589883Y388777D01*
X600897Y388777D01*
X600897Y375763D01*
X600897Y377906D02*
X589883Y377906D01*
X589883Y380049D02*
X600897Y380049D01*
X600897Y382192D02*
X589883Y382192D01*
X589883Y384335D02*
X600897Y384335D01*
X600897Y386478D02*
X589883Y386478D01*
X589883Y388621D02*
X600897Y388621D01*
X269907Y426563D02*
X258893Y426563D01*
X258893Y439577D01*
X269907Y439577D01*
X269907Y426563D01*
X269907Y428706D02*
X258893Y428706D01*
X258893Y430849D02*
X269907Y430849D01*
X269907Y432992D02*
X258893Y432992D01*
X258893Y435135D02*
X269907Y435135D01*
X269907Y437278D02*
X258893Y437278D01*
X258893Y439421D02*
X269907Y439421D01*
X288893Y426563D02*
X299907Y426563D01*
X288893Y426563D02*
X288893Y439577D01*
X299907Y439577D01*
X299907Y426563D01*
X299907Y428706D02*
X288893Y428706D01*
X288893Y430849D02*
X299907Y430849D01*
X299907Y432992D02*
X288893Y432992D01*
X288893Y435135D02*
X299907Y435135D01*
X299907Y437278D02*
X288893Y437278D01*
X288893Y439421D02*
X299907Y439421D01*
D22*
X153152Y93588D02*
X153152Y81852D01*
X153152Y93588D02*
X166888Y93588D01*
X166888Y81852D01*
X153152Y81852D01*
X153152Y83975D02*
X166888Y83975D01*
X166888Y86098D02*
X153152Y86098D01*
X153152Y88221D02*
X166888Y88221D01*
X166888Y90344D02*
X153152Y90344D01*
X153152Y92467D02*
X166888Y92467D01*
X166888Y124852D02*
X166888Y136588D01*
X166888Y124852D02*
X153152Y124852D01*
X153152Y136588D01*
X166888Y136588D01*
X166888Y126975D02*
X153152Y126975D01*
X153152Y129098D02*
X166888Y129098D01*
X166888Y131221D02*
X153152Y131221D01*
X153152Y133344D02*
X166888Y133344D01*
X166888Y135467D02*
X153152Y135467D01*
D17*
X609800Y550000D03*
X609600Y517000D03*
X635200Y550000D03*
X635000Y517000D03*
X584300Y550000D03*
X584100Y517000D03*
X559000Y550000D03*
X558800Y517000D03*
X533600Y550000D03*
X533400Y517000D03*
X508100Y550000D03*
X507900Y517000D03*
X457400Y550000D03*
X457200Y517000D03*
X482800Y550000D03*
X482600Y517000D03*
D10*
X605092Y43808D02*
X605092Y24792D01*
X605092Y43808D02*
X614108Y43808D01*
X614108Y24792D01*
X605092Y24792D01*
X605092Y26933D02*
X614108Y26933D01*
X614108Y29074D02*
X605092Y29074D01*
X605092Y31215D02*
X614108Y31215D01*
X614108Y33356D02*
X605092Y33356D01*
X605092Y35497D02*
X614108Y35497D01*
X614108Y37638D02*
X605092Y37638D01*
X605092Y39779D02*
X614108Y39779D01*
X614108Y41920D02*
X605092Y41920D01*
X554292Y43808D02*
X554292Y24792D01*
X554292Y43808D02*
X563308Y43808D01*
X563308Y24792D01*
X554292Y24792D01*
X554292Y26933D02*
X563308Y26933D01*
X563308Y29074D02*
X554292Y29074D01*
X554292Y31215D02*
X563308Y31215D01*
X563308Y33356D02*
X554292Y33356D01*
X554292Y35497D02*
X563308Y35497D01*
X563308Y37638D02*
X554292Y37638D01*
X554292Y39779D02*
X563308Y39779D01*
X563308Y41920D02*
X554292Y41920D01*
X503492Y43808D02*
X503492Y24792D01*
X503492Y43808D02*
X512508Y43808D01*
X512508Y24792D01*
X503492Y24792D01*
X503492Y26933D02*
X512508Y26933D01*
X512508Y29074D02*
X503492Y29074D01*
X503492Y31215D02*
X512508Y31215D01*
X512508Y33356D02*
X503492Y33356D01*
X503492Y35497D02*
X512508Y35497D01*
X512508Y37638D02*
X503492Y37638D01*
X503492Y39779D02*
X512508Y39779D01*
X512508Y41920D02*
X503492Y41920D01*
X630492Y57792D02*
X630492Y76808D01*
X639508Y76808D01*
X639508Y57792D01*
X630492Y57792D01*
X630492Y59933D02*
X639508Y59933D01*
X639508Y62074D02*
X630492Y62074D01*
X630492Y64215D02*
X639508Y64215D01*
X639508Y66356D02*
X630492Y66356D01*
X630492Y68497D02*
X639508Y68497D01*
X639508Y70638D02*
X630492Y70638D01*
X630492Y72779D02*
X639508Y72779D01*
X639508Y74920D02*
X630492Y74920D01*
X579692Y76808D02*
X579692Y57792D01*
X579692Y76808D02*
X588708Y76808D01*
X588708Y57792D01*
X579692Y57792D01*
X579692Y59933D02*
X588708Y59933D01*
X588708Y62074D02*
X579692Y62074D01*
X579692Y64215D02*
X588708Y64215D01*
X588708Y66356D02*
X579692Y66356D01*
X579692Y68497D02*
X588708Y68497D01*
X588708Y70638D02*
X579692Y70638D01*
X579692Y72779D02*
X588708Y72779D01*
X588708Y74920D02*
X579692Y74920D01*
X528892Y76808D02*
X528892Y57792D01*
X528892Y76808D02*
X537908Y76808D01*
X537908Y57792D01*
X528892Y57792D01*
X528892Y59933D02*
X537908Y59933D01*
X537908Y62074D02*
X528892Y62074D01*
X528892Y64215D02*
X537908Y64215D01*
X537908Y66356D02*
X528892Y66356D01*
X528892Y68497D02*
X537908Y68497D01*
X537908Y70638D02*
X528892Y70638D01*
X528892Y72779D02*
X537908Y72779D01*
X537908Y74920D02*
X528892Y74920D01*
X512508Y76808D02*
X512508Y57792D01*
X503492Y57792D01*
X503492Y76808D01*
X512508Y76808D01*
X512508Y59933D02*
X503492Y59933D01*
X503492Y62074D02*
X512508Y62074D01*
X512508Y64215D02*
X503492Y64215D01*
X503492Y66356D02*
X512508Y66356D01*
X512508Y68497D02*
X503492Y68497D01*
X503492Y70638D02*
X512508Y70638D01*
X512508Y72779D02*
X503492Y72779D01*
X503492Y74920D02*
X512508Y74920D01*
X537908Y43808D02*
X537908Y24792D01*
X528892Y24792D01*
X528892Y43808D01*
X537908Y43808D01*
X537908Y26933D02*
X528892Y26933D01*
X528892Y29074D02*
X537908Y29074D01*
X537908Y31215D02*
X528892Y31215D01*
X528892Y33356D02*
X537908Y33356D01*
X537908Y35497D02*
X528892Y35497D01*
X528892Y37638D02*
X537908Y37638D01*
X537908Y39779D02*
X528892Y39779D01*
X528892Y41920D02*
X537908Y41920D01*
X563308Y57792D02*
X563308Y76808D01*
X563308Y57792D02*
X554292Y57792D01*
X554292Y76808D01*
X563308Y76808D01*
X563308Y59933D02*
X554292Y59933D01*
X554292Y62074D02*
X563308Y62074D01*
X563308Y64215D02*
X554292Y64215D01*
X554292Y66356D02*
X563308Y66356D01*
X563308Y68497D02*
X554292Y68497D01*
X554292Y70638D02*
X563308Y70638D01*
X563308Y72779D02*
X554292Y72779D01*
X554292Y74920D02*
X563308Y74920D01*
X588708Y43808D02*
X588708Y24792D01*
X579692Y24792D01*
X579692Y43808D01*
X588708Y43808D01*
X588708Y26933D02*
X579692Y26933D01*
X579692Y29074D02*
X588708Y29074D01*
X588708Y31215D02*
X579692Y31215D01*
X579692Y33356D02*
X588708Y33356D01*
X588708Y35497D02*
X579692Y35497D01*
X579692Y37638D02*
X588708Y37638D01*
X588708Y39779D02*
X579692Y39779D01*
X579692Y41920D02*
X588708Y41920D01*
X614108Y57792D02*
X614108Y76808D01*
X614108Y57792D02*
X605092Y57792D01*
X605092Y76808D01*
X614108Y76808D01*
X614108Y59933D02*
X605092Y59933D01*
X605092Y62074D02*
X614108Y62074D01*
X614108Y64215D02*
X605092Y64215D01*
X605092Y66356D02*
X614108Y66356D01*
X614108Y68497D02*
X605092Y68497D01*
X605092Y70638D02*
X614108Y70638D01*
X614108Y72779D02*
X605092Y72779D01*
X605092Y74920D02*
X614108Y74920D01*
X639508Y43808D02*
X639508Y24792D01*
X630492Y24792D01*
X630492Y43808D01*
X639508Y43808D01*
X639508Y26933D02*
X630492Y26933D01*
X630492Y29074D02*
X639508Y29074D01*
X639508Y31215D02*
X630492Y31215D01*
X630492Y33356D02*
X639508Y33356D01*
X639508Y35497D02*
X630492Y35497D01*
X630492Y37638D02*
X639508Y37638D01*
X639508Y39779D02*
X630492Y39779D01*
X630492Y41920D02*
X639508Y41920D01*
D23*
X33818Y157262D02*
X6822Y157262D01*
X6822Y180258D01*
X33818Y180258D01*
X33818Y157262D01*
X33818Y159422D02*
X6822Y159422D01*
X6822Y161582D02*
X33818Y161582D01*
X33818Y163742D02*
X6822Y163742D01*
X6822Y165902D02*
X33818Y165902D01*
X33818Y168062D02*
X6822Y168062D01*
X6822Y170222D02*
X33818Y170222D01*
X33818Y172382D02*
X6822Y172382D01*
X6822Y174542D02*
X33818Y174542D01*
X33818Y176702D02*
X6822Y176702D01*
X6822Y178862D02*
X33818Y178862D01*
X33818Y43262D02*
X6822Y43262D01*
X6822Y66258D01*
X33818Y66258D01*
X33818Y43262D01*
X33818Y45422D02*
X6822Y45422D01*
X6822Y47582D02*
X33818Y47582D01*
X33818Y49742D02*
X6822Y49742D01*
X6822Y51902D02*
X33818Y51902D01*
X33818Y54062D02*
X6822Y54062D01*
X6822Y56222D02*
X33818Y56222D01*
X33818Y58382D02*
X6822Y58382D01*
X6822Y60542D02*
X33818Y60542D01*
X33818Y62702D02*
X6822Y62702D01*
X6822Y64862D02*
X33818Y64862D01*
X67822Y157262D02*
X94818Y157262D01*
X67822Y157262D02*
X67822Y180258D01*
X94818Y180258D01*
X94818Y157262D01*
X94818Y159422D02*
X67822Y159422D01*
X67822Y161582D02*
X94818Y161582D01*
X94818Y163742D02*
X67822Y163742D01*
X67822Y165902D02*
X94818Y165902D01*
X94818Y168062D02*
X67822Y168062D01*
X67822Y170222D02*
X94818Y170222D01*
X94818Y172382D02*
X67822Y172382D01*
X67822Y174542D02*
X94818Y174542D01*
X94818Y176702D02*
X67822Y176702D01*
X67822Y178862D02*
X94818Y178862D01*
X94818Y43262D02*
X67822Y43262D01*
X67822Y66258D01*
X94818Y66258D01*
X94818Y43262D01*
X94818Y45422D02*
X67822Y45422D01*
X67822Y47582D02*
X94818Y47582D01*
X94818Y49742D02*
X67822Y49742D01*
X67822Y51902D02*
X94818Y51902D01*
X94818Y54062D02*
X67822Y54062D01*
X67822Y56222D02*
X94818Y56222D01*
X94818Y58382D02*
X67822Y58382D01*
X67822Y60542D02*
X94818Y60542D01*
X94818Y62702D02*
X67822Y62702D01*
X67822Y64862D02*
X94818Y64862D01*
D24*
X20320Y111760D03*
X66040Y111760D03*
D25*
X606587Y181023D02*
X606587Y186977D01*
X606587Y181023D02*
X600633Y181023D01*
X600633Y186977D01*
X606587Y186977D01*
X606587Y183223D02*
X600633Y183223D01*
X600633Y185423D02*
X606587Y185423D01*
X606587Y194023D02*
X606587Y199977D01*
X606587Y194023D02*
X600633Y194023D01*
X600633Y199977D01*
X606587Y199977D01*
X606587Y196223D02*
X600633Y196223D01*
X600633Y198423D02*
X606587Y198423D01*
X588087Y193477D02*
X588087Y187523D01*
X582133Y187523D01*
X582133Y193477D01*
X588087Y193477D01*
X588087Y189723D02*
X582133Y189723D01*
X582133Y191923D02*
X588087Y191923D01*
D10*
X597852Y220408D02*
X607868Y220408D01*
X607868Y211392D01*
X597852Y211392D01*
X597852Y220408D01*
X597852Y213533D02*
X607868Y213533D01*
X607868Y215674D02*
X597852Y215674D01*
X597852Y217815D02*
X607868Y217815D01*
X607868Y219956D02*
X597852Y219956D01*
X590868Y220408D02*
X580852Y220408D01*
X590868Y220408D02*
X590868Y211392D01*
X580852Y211392D01*
X580852Y220408D01*
X580852Y213533D02*
X590868Y213533D01*
X590868Y215674D02*
X580852Y215674D01*
X580852Y217815D02*
X590868Y217815D01*
X590868Y219956D02*
X580852Y219956D01*
X597852Y169608D02*
X607868Y169608D01*
X607868Y160592D01*
X597852Y160592D01*
X597852Y169608D01*
X597852Y162733D02*
X607868Y162733D01*
X607868Y164874D02*
X597852Y164874D01*
X597852Y167015D02*
X607868Y167015D01*
X607868Y169156D02*
X597852Y169156D01*
X590868Y169608D02*
X580852Y169608D01*
X590868Y169608D02*
X590868Y160592D01*
X580852Y160592D01*
X580852Y169608D01*
X580852Y162733D02*
X590868Y162733D01*
X590868Y164874D02*
X580852Y164874D01*
X580852Y167015D02*
X590868Y167015D01*
X590868Y169156D02*
X580852Y169156D01*
D26*
X467880Y202898D02*
X456172Y202898D01*
X467880Y202898D02*
X467880Y198302D01*
X456172Y198302D01*
X456172Y202898D01*
X456172Y200452D02*
X467880Y200452D01*
X467880Y202602D02*
X456172Y202602D01*
X456172Y210898D02*
X467880Y210898D01*
X467880Y206302D01*
X456172Y206302D01*
X456172Y210898D01*
X456172Y208452D02*
X467880Y208452D01*
X467880Y210602D02*
X456172Y210602D01*
X456172Y218898D02*
X467880Y218898D01*
X467880Y214302D01*
X456172Y214302D01*
X456172Y218898D01*
X456172Y216452D02*
X467880Y216452D01*
X467880Y218602D02*
X456172Y218602D01*
X456172Y226898D02*
X467880Y226898D01*
X467880Y222302D01*
X456172Y222302D01*
X456172Y226898D01*
X456172Y224452D02*
X467880Y224452D01*
X467880Y226602D02*
X456172Y226602D01*
X456172Y234898D02*
X467880Y234898D01*
X467880Y230302D01*
X456172Y230302D01*
X456172Y234898D01*
X456172Y232452D02*
X467880Y232452D01*
X467880Y234602D02*
X456172Y234602D01*
X456172Y242898D02*
X467880Y242898D01*
X467880Y238302D01*
X456172Y238302D01*
X456172Y242898D01*
X456172Y240452D02*
X467880Y240452D01*
X467880Y242602D02*
X456172Y242602D01*
X456172Y250898D02*
X467880Y250898D01*
X467880Y246302D01*
X456172Y246302D01*
X456172Y250898D01*
X456172Y248452D02*
X467880Y248452D01*
X467880Y250602D02*
X456172Y250602D01*
X456172Y258898D02*
X467880Y258898D01*
X467880Y254302D01*
X456172Y254302D01*
X456172Y258898D01*
X456172Y256452D02*
X467880Y256452D01*
X467880Y258602D02*
X456172Y258602D01*
X449398Y277380D02*
X444802Y277380D01*
X449398Y277380D02*
X449398Y265672D01*
X444802Y265672D01*
X444802Y277380D01*
X444802Y267822D02*
X449398Y267822D01*
X449398Y269972D02*
X444802Y269972D01*
X444802Y272122D02*
X449398Y272122D01*
X449398Y274272D02*
X444802Y274272D01*
X444802Y276422D02*
X449398Y276422D01*
X441398Y277380D02*
X436802Y277380D01*
X441398Y277380D02*
X441398Y265672D01*
X436802Y265672D01*
X436802Y277380D01*
X436802Y267822D02*
X441398Y267822D01*
X441398Y269972D02*
X436802Y269972D01*
X436802Y272122D02*
X441398Y272122D01*
X441398Y274272D02*
X436802Y274272D01*
X436802Y276422D02*
X441398Y276422D01*
X433398Y277380D02*
X428802Y277380D01*
X433398Y277380D02*
X433398Y265672D01*
X428802Y265672D01*
X428802Y277380D01*
X428802Y267822D02*
X433398Y267822D01*
X433398Y269972D02*
X428802Y269972D01*
X428802Y272122D02*
X433398Y272122D01*
X433398Y274272D02*
X428802Y274272D01*
X428802Y276422D02*
X433398Y276422D01*
X425398Y277380D02*
X420802Y277380D01*
X425398Y277380D02*
X425398Y265672D01*
X420802Y265672D01*
X420802Y277380D01*
X420802Y267822D02*
X425398Y267822D01*
X425398Y269972D02*
X420802Y269972D01*
X420802Y272122D02*
X425398Y272122D01*
X425398Y274272D02*
X420802Y274272D01*
X420802Y276422D02*
X425398Y276422D01*
X417398Y277380D02*
X412802Y277380D01*
X417398Y277380D02*
X417398Y265672D01*
X412802Y265672D01*
X412802Y277380D01*
X412802Y267822D02*
X417398Y267822D01*
X417398Y269972D02*
X412802Y269972D01*
X412802Y272122D02*
X417398Y272122D01*
X417398Y274272D02*
X412802Y274272D01*
X412802Y276422D02*
X417398Y276422D01*
X409398Y277380D02*
X404802Y277380D01*
X409398Y277380D02*
X409398Y265672D01*
X404802Y265672D01*
X404802Y277380D01*
X404802Y267822D02*
X409398Y267822D01*
X409398Y269972D02*
X404802Y269972D01*
X404802Y272122D02*
X409398Y272122D01*
X409398Y274272D02*
X404802Y274272D01*
X404802Y276422D02*
X409398Y276422D01*
X401398Y277380D02*
X396802Y277380D01*
X401398Y277380D02*
X401398Y265672D01*
X396802Y265672D01*
X396802Y277380D01*
X396802Y267822D02*
X401398Y267822D01*
X401398Y269972D02*
X396802Y269972D01*
X396802Y272122D02*
X401398Y272122D01*
X401398Y274272D02*
X396802Y274272D01*
X396802Y276422D02*
X401398Y276422D01*
X393398Y277380D02*
X388802Y277380D01*
X393398Y277380D02*
X393398Y265672D01*
X388802Y265672D01*
X388802Y277380D01*
X388802Y267822D02*
X393398Y267822D01*
X393398Y269972D02*
X388802Y269972D01*
X388802Y272122D02*
X393398Y272122D01*
X393398Y274272D02*
X388802Y274272D01*
X388802Y276422D02*
X393398Y276422D01*
X382028Y258898D02*
X370320Y258898D01*
X382028Y258898D02*
X382028Y254302D01*
X370320Y254302D01*
X370320Y258898D01*
X370320Y256452D02*
X382028Y256452D01*
X382028Y258602D02*
X370320Y258602D01*
X370320Y250898D02*
X382028Y250898D01*
X382028Y246302D01*
X370320Y246302D01*
X370320Y250898D01*
X370320Y248452D02*
X382028Y248452D01*
X382028Y250602D02*
X370320Y250602D01*
X370320Y242898D02*
X382028Y242898D01*
X382028Y238302D01*
X370320Y238302D01*
X370320Y242898D01*
X370320Y240452D02*
X382028Y240452D01*
X382028Y242602D02*
X370320Y242602D01*
X370320Y234898D02*
X382028Y234898D01*
X382028Y230302D01*
X370320Y230302D01*
X370320Y234898D01*
X370320Y232452D02*
X382028Y232452D01*
X382028Y234602D02*
X370320Y234602D01*
X370320Y226898D02*
X382028Y226898D01*
X382028Y222302D01*
X370320Y222302D01*
X370320Y226898D01*
X370320Y224452D02*
X382028Y224452D01*
X382028Y226602D02*
X370320Y226602D01*
X370320Y218898D02*
X382028Y218898D01*
X382028Y214302D01*
X370320Y214302D01*
X370320Y218898D01*
X370320Y216452D02*
X382028Y216452D01*
X382028Y218602D02*
X370320Y218602D01*
X370320Y210898D02*
X382028Y210898D01*
X382028Y206302D01*
X370320Y206302D01*
X370320Y210898D01*
X370320Y208452D02*
X382028Y208452D01*
X382028Y210602D02*
X370320Y210602D01*
X370320Y202898D02*
X382028Y202898D01*
X382028Y198302D01*
X370320Y198302D01*
X370320Y202898D01*
X370320Y200452D02*
X382028Y200452D01*
X382028Y202602D02*
X370320Y202602D01*
X388802Y191528D02*
X393398Y191528D01*
X393398Y179820D01*
X388802Y179820D01*
X388802Y191528D01*
X388802Y181970D02*
X393398Y181970D01*
X393398Y184120D02*
X388802Y184120D01*
X388802Y186270D02*
X393398Y186270D01*
X393398Y188420D02*
X388802Y188420D01*
X388802Y190570D02*
X393398Y190570D01*
X396802Y191528D02*
X401398Y191528D01*
X401398Y179820D01*
X396802Y179820D01*
X396802Y191528D01*
X396802Y181970D02*
X401398Y181970D01*
X401398Y184120D02*
X396802Y184120D01*
X396802Y186270D02*
X401398Y186270D01*
X401398Y188420D02*
X396802Y188420D01*
X396802Y190570D02*
X401398Y190570D01*
X404802Y191528D02*
X409398Y191528D01*
X409398Y179820D01*
X404802Y179820D01*
X404802Y191528D01*
X404802Y181970D02*
X409398Y181970D01*
X409398Y184120D02*
X404802Y184120D01*
X404802Y186270D02*
X409398Y186270D01*
X409398Y188420D02*
X404802Y188420D01*
X404802Y190570D02*
X409398Y190570D01*
X412802Y191528D02*
X417398Y191528D01*
X417398Y179820D01*
X412802Y179820D01*
X412802Y191528D01*
X412802Y181970D02*
X417398Y181970D01*
X417398Y184120D02*
X412802Y184120D01*
X412802Y186270D02*
X417398Y186270D01*
X417398Y188420D02*
X412802Y188420D01*
X412802Y190570D02*
X417398Y190570D01*
X420802Y191528D02*
X425398Y191528D01*
X425398Y179820D01*
X420802Y179820D01*
X420802Y191528D01*
X420802Y181970D02*
X425398Y181970D01*
X425398Y184120D02*
X420802Y184120D01*
X420802Y186270D02*
X425398Y186270D01*
X425398Y188420D02*
X420802Y188420D01*
X420802Y190570D02*
X425398Y190570D01*
X428802Y191528D02*
X433398Y191528D01*
X433398Y179820D01*
X428802Y179820D01*
X428802Y191528D01*
X428802Y181970D02*
X433398Y181970D01*
X433398Y184120D02*
X428802Y184120D01*
X428802Y186270D02*
X433398Y186270D01*
X433398Y188420D02*
X428802Y188420D01*
X428802Y190570D02*
X433398Y190570D01*
X436802Y191528D02*
X441398Y191528D01*
X441398Y179820D01*
X436802Y179820D01*
X436802Y191528D01*
X436802Y181970D02*
X441398Y181970D01*
X441398Y184120D02*
X436802Y184120D01*
X436802Y186270D02*
X441398Y186270D01*
X441398Y188420D02*
X436802Y188420D01*
X436802Y190570D02*
X441398Y190570D01*
X444802Y191528D02*
X449398Y191528D01*
X449398Y179820D01*
X444802Y179820D01*
X444802Y191528D01*
X444802Y181970D02*
X449398Y181970D01*
X449398Y184120D02*
X444802Y184120D01*
X444802Y186270D02*
X449398Y186270D01*
X449398Y188420D02*
X444802Y188420D01*
X444802Y190570D02*
X449398Y190570D01*
D27*
X184681Y210432D02*
X184681Y214968D01*
X195717Y214968D01*
X195717Y210432D01*
X184681Y210432D01*
X184681Y212554D02*
X195717Y212554D01*
X195717Y214676D02*
X184681Y214676D01*
X184681Y205468D02*
X184681Y200932D01*
X184681Y205468D02*
X195717Y205468D01*
X195717Y200932D01*
X184681Y200932D01*
X184681Y203054D02*
X195717Y203054D01*
X195717Y205176D02*
X184681Y205176D01*
X184681Y195968D02*
X184681Y191432D01*
X184681Y195968D02*
X195717Y195968D01*
X195717Y191432D01*
X184681Y191432D01*
X184681Y193554D02*
X195717Y193554D01*
X195717Y195676D02*
X184681Y195676D01*
X210683Y195968D02*
X210683Y191432D01*
X210683Y195968D02*
X221719Y195968D01*
X221719Y191432D01*
X210683Y191432D01*
X210683Y193554D02*
X221719Y193554D01*
X221719Y195676D02*
X210683Y195676D01*
X210683Y210432D02*
X210683Y214968D01*
X221719Y214968D01*
X221719Y210432D01*
X210683Y210432D01*
X210683Y212554D02*
X221719Y212554D01*
X221719Y214676D02*
X210683Y214676D01*
D10*
X206692Y233108D02*
X216708Y233108D01*
X216708Y224092D01*
X206692Y224092D01*
X206692Y233108D01*
X206692Y226233D02*
X216708Y226233D01*
X216708Y228374D02*
X206692Y228374D01*
X206692Y230515D02*
X216708Y230515D01*
X216708Y232656D02*
X206692Y232656D01*
X199708Y233108D02*
X189692Y233108D01*
X199708Y233108D02*
X199708Y224092D01*
X189692Y224092D01*
X189692Y233108D01*
X189692Y226233D02*
X199708Y226233D01*
X199708Y228374D02*
X189692Y228374D01*
X189692Y230515D02*
X199708Y230515D01*
X199708Y232656D02*
X189692Y232656D01*
X192088Y386652D02*
X182072Y386652D01*
X182072Y395668D01*
X192088Y395668D01*
X192088Y386652D01*
X192088Y388793D02*
X182072Y388793D01*
X182072Y390934D02*
X192088Y390934D01*
X192088Y393075D02*
X182072Y393075D01*
X182072Y395216D02*
X192088Y395216D01*
X199072Y386652D02*
X209088Y386652D01*
X199072Y386652D02*
X199072Y395668D01*
X209088Y395668D01*
X209088Y386652D01*
X209088Y388793D02*
X199072Y388793D01*
X199072Y390934D02*
X209088Y390934D01*
X209088Y393075D02*
X199072Y393075D01*
X199072Y395216D02*
X209088Y395216D01*
D21*
X288893Y362107D02*
X299907Y362107D01*
X299907Y349093D01*
X288893Y349093D01*
X288893Y362107D01*
X288893Y351236D02*
X299907Y351236D01*
X299907Y353379D02*
X288893Y353379D01*
X288893Y355522D02*
X299907Y355522D01*
X299907Y357665D02*
X288893Y357665D01*
X288893Y359808D02*
X299907Y359808D01*
X299907Y361951D02*
X288893Y361951D01*
X269907Y362107D02*
X258893Y362107D01*
X269907Y362107D02*
X269907Y349093D01*
X258893Y349093D01*
X258893Y362107D01*
X258893Y351236D02*
X269907Y351236D01*
X269907Y353379D02*
X258893Y353379D01*
X258893Y355522D02*
X269907Y355522D01*
X269907Y357665D02*
X258893Y357665D01*
X258893Y359808D02*
X269907Y359808D01*
X269907Y361951D02*
X258893Y361951D01*
D10*
X282892Y341058D02*
X292908Y341058D01*
X292908Y332042D01*
X282892Y332042D01*
X282892Y341058D01*
X282892Y334183D02*
X292908Y334183D01*
X292908Y336324D02*
X282892Y336324D01*
X282892Y338465D02*
X292908Y338465D01*
X292908Y340606D02*
X282892Y340606D01*
X275908Y341058D02*
X265892Y341058D01*
X275908Y341058D02*
X275908Y332042D01*
X265892Y332042D01*
X265892Y341058D01*
X265892Y334183D02*
X275908Y334183D01*
X275908Y336324D02*
X265892Y336324D01*
X265892Y338465D02*
X275908Y338465D01*
X275908Y340606D02*
X265892Y340606D01*
X138748Y478092D02*
X128732Y478092D01*
X128732Y487108D01*
X138748Y487108D01*
X138748Y478092D01*
X138748Y480233D02*
X128732Y480233D01*
X128732Y482374D02*
X138748Y482374D01*
X138748Y484515D02*
X128732Y484515D01*
X128732Y486656D02*
X138748Y486656D01*
X145732Y478092D02*
X155748Y478092D01*
X145732Y478092D02*
X145732Y487108D01*
X155748Y487108D01*
X155748Y478092D01*
X155748Y480233D02*
X145732Y480233D01*
X145732Y482374D02*
X155748Y482374D01*
X155748Y484515D02*
X145732Y484515D01*
X145732Y486656D02*
X155748Y486656D01*
X282892Y379158D02*
X292908Y379158D01*
X292908Y370142D01*
X282892Y370142D01*
X282892Y379158D01*
X282892Y372283D02*
X292908Y372283D01*
X292908Y374424D02*
X282892Y374424D01*
X282892Y376565D02*
X292908Y376565D01*
X292908Y378706D02*
X282892Y378706D01*
X275908Y379158D02*
X265892Y379158D01*
X275908Y379158D02*
X275908Y370142D01*
X265892Y370142D01*
X265892Y379158D01*
X265892Y372283D02*
X275908Y372283D01*
X275908Y374424D02*
X265892Y374424D01*
X265892Y376565D02*
X275908Y376565D01*
X275908Y378706D02*
X265892Y378706D01*
D21*
X288893Y400207D02*
X299907Y400207D01*
X299907Y387193D01*
X288893Y387193D01*
X288893Y400207D01*
X288893Y389336D02*
X299907Y389336D01*
X299907Y391479D02*
X288893Y391479D01*
X288893Y393622D02*
X299907Y393622D01*
X299907Y395765D02*
X288893Y395765D01*
X288893Y397908D02*
X299907Y397908D01*
X299907Y400051D02*
X288893Y400051D01*
X269907Y400207D02*
X258893Y400207D01*
X269907Y400207D02*
X269907Y387193D01*
X258893Y387193D01*
X258893Y400207D01*
X258893Y389336D02*
X269907Y389336D01*
X269907Y391479D02*
X258893Y391479D01*
X258893Y393622D02*
X269907Y393622D01*
X269907Y395765D02*
X258893Y395765D01*
X258893Y397908D02*
X269907Y397908D01*
X269907Y400051D02*
X258893Y400051D01*
X681257Y168007D02*
X681257Y156993D01*
X662243Y156993D01*
X662243Y168007D01*
X681257Y168007D01*
X681257Y159136D02*
X662243Y159136D01*
X662243Y161279D02*
X681257Y161279D01*
X681257Y163422D02*
X662243Y163422D01*
X662243Y165565D02*
X681257Y165565D01*
X681257Y167708D02*
X662243Y167708D01*
X681257Y212993D02*
X681257Y224007D01*
X681257Y212993D02*
X662243Y212993D01*
X662243Y224007D01*
X681257Y224007D01*
X681257Y215136D02*
X662243Y215136D01*
X662243Y217279D02*
X681257Y217279D01*
X681257Y219422D02*
X662243Y219422D01*
X662243Y221565D02*
X681257Y221565D01*
X681257Y223708D02*
X662243Y223708D01*
D28*
X641258Y178008D02*
X641258Y172992D01*
X628742Y172992D01*
X628742Y178008D01*
X641258Y178008D01*
X641258Y175133D02*
X628742Y175133D01*
X628742Y177274D02*
X641258Y177274D01*
X641258Y182992D02*
X641258Y188008D01*
X641258Y182992D02*
X628742Y182992D01*
X628742Y188008D01*
X641258Y188008D01*
X641258Y185133D02*
X628742Y185133D01*
X628742Y187274D02*
X641258Y187274D01*
X641258Y192992D02*
X641258Y198008D01*
X641258Y192992D02*
X628742Y192992D01*
X628742Y198008D01*
X641258Y198008D01*
X641258Y195133D02*
X628742Y195133D01*
X628742Y197274D02*
X641258Y197274D01*
X641258Y202992D02*
X641258Y208008D01*
X641258Y202992D02*
X628742Y202992D01*
X628742Y208008D01*
X641258Y208008D01*
X641258Y205133D02*
X628742Y205133D01*
X628742Y207274D02*
X641258Y207274D01*
D25*
X546573Y199977D02*
X546573Y194023D01*
X546573Y199977D02*
X552527Y199977D01*
X552527Y194023D01*
X546573Y194023D01*
X546573Y196223D02*
X552527Y196223D01*
X552527Y198423D02*
X546573Y198423D01*
X546573Y186977D02*
X546573Y181023D01*
X546573Y186977D02*
X552527Y186977D01*
X552527Y181023D01*
X546573Y181023D01*
X546573Y183223D02*
X552527Y183223D01*
X552527Y185423D02*
X546573Y185423D01*
X565073Y187523D02*
X565073Y193477D01*
X571027Y193477D01*
X571027Y187523D01*
X565073Y187523D01*
X565073Y189723D02*
X571027Y189723D01*
X571027Y191923D02*
X565073Y191923D01*
D10*
X555308Y211392D02*
X545292Y211392D01*
X545292Y220408D01*
X555308Y220408D01*
X555308Y211392D01*
X555308Y213533D02*
X545292Y213533D01*
X545292Y215674D02*
X555308Y215674D01*
X555308Y217815D02*
X545292Y217815D01*
X545292Y219956D02*
X555308Y219956D01*
X562292Y211392D02*
X572308Y211392D01*
X562292Y211392D02*
X562292Y220408D01*
X572308Y220408D01*
X572308Y211392D01*
X572308Y213533D02*
X562292Y213533D01*
X562292Y215674D02*
X572308Y215674D01*
X572308Y217815D02*
X562292Y217815D01*
X562292Y219956D02*
X572308Y219956D01*
X555308Y160592D02*
X545292Y160592D01*
X545292Y169608D01*
X555308Y169608D01*
X555308Y160592D01*
X555308Y162733D02*
X545292Y162733D01*
X545292Y164874D02*
X555308Y164874D01*
X555308Y167015D02*
X545292Y167015D01*
X545292Y169156D02*
X555308Y169156D01*
X562292Y160592D02*
X572308Y160592D01*
X562292Y160592D02*
X562292Y169608D01*
X572308Y169608D01*
X572308Y160592D01*
X572308Y162733D02*
X562292Y162733D01*
X562292Y164874D02*
X572308Y164874D01*
X572308Y167015D02*
X562292Y167015D01*
X562292Y169156D02*
X572308Y169156D01*
D29*
X55618Y410618D02*
X55618Y412582D01*
X64582Y412582D01*
X64582Y410618D01*
X55618Y410618D01*
X55618Y415618D02*
X55618Y417582D01*
X64582Y417582D01*
X64582Y415618D01*
X55618Y415618D01*
D28*
X55592Y389358D02*
X55592Y384342D01*
X55592Y389358D02*
X64608Y389358D01*
X64608Y384342D01*
X55592Y384342D01*
X55592Y386483D02*
X64608Y386483D01*
X64608Y388624D02*
X55592Y388624D01*
X55592Y392092D02*
X55592Y397108D01*
X64608Y397108D01*
X64608Y392092D01*
X55592Y392092D01*
X55592Y394233D02*
X64608Y394233D01*
X64608Y396374D02*
X55592Y396374D01*
D29*
X55618Y400618D02*
X55618Y402582D01*
X64582Y402582D01*
X64582Y400618D01*
X55618Y400618D01*
X55618Y405618D02*
X55618Y407582D01*
X64582Y407582D01*
X64582Y405618D01*
X55618Y405618D01*
X64582Y425618D02*
X64582Y427582D01*
X64582Y425618D02*
X55618Y425618D01*
X55618Y427582D01*
X64582Y427582D01*
X64582Y422582D02*
X64582Y420618D01*
X55618Y420618D01*
X55618Y422582D01*
X64582Y422582D01*
D28*
X64608Y448842D02*
X64608Y453858D01*
X64608Y448842D02*
X55592Y448842D01*
X55592Y453858D01*
X64608Y453858D01*
X64608Y450983D02*
X55592Y450983D01*
X55592Y453124D02*
X64608Y453124D01*
X64608Y446108D02*
X64608Y441092D01*
X55592Y441092D01*
X55592Y446108D01*
X64608Y446108D01*
X64608Y443233D02*
X55592Y443233D01*
X55592Y445374D02*
X64608Y445374D01*
D29*
X64582Y437582D02*
X64582Y435618D01*
X55618Y435618D01*
X55618Y437582D01*
X64582Y437582D01*
X64582Y432582D02*
X64582Y430618D01*
X55618Y430618D01*
X55618Y432582D01*
X64582Y432582D01*
D30*
X49050Y448000D03*
X49050Y390200D03*
D10*
X14288Y334582D02*
X4272Y334582D01*
X4272Y343598D01*
X14288Y343598D01*
X14288Y334582D01*
X14288Y336723D02*
X4272Y336723D01*
X4272Y338864D02*
X14288Y338864D01*
X14288Y341005D02*
X4272Y341005D01*
X4272Y343146D02*
X14288Y343146D01*
X21272Y334582D02*
X31288Y334582D01*
X21272Y334582D02*
X21272Y343598D01*
X31288Y343598D01*
X31288Y334582D01*
X31288Y336723D02*
X21272Y336723D01*
X21272Y338864D02*
X31288Y338864D01*
X31288Y341005D02*
X21272Y341005D01*
X21272Y343146D02*
X31288Y343146D01*
X111442Y487108D02*
X121458Y487108D01*
X121458Y478092D01*
X111442Y478092D01*
X111442Y487108D01*
X111442Y480233D02*
X121458Y480233D01*
X121458Y482374D02*
X111442Y482374D01*
X111442Y484515D02*
X121458Y484515D01*
X121458Y486656D02*
X111442Y486656D01*
X104458Y487108D02*
X94442Y487108D01*
X104458Y487108D02*
X104458Y478092D01*
X94442Y478092D01*
X94442Y487108D01*
X94442Y480233D02*
X104458Y480233D01*
X104458Y482374D02*
X94442Y482374D01*
X94442Y484515D02*
X104458Y484515D01*
X104458Y486656D02*
X94442Y486656D01*
D31*
X71596Y498316D02*
X71596Y504984D01*
X85884Y504984D01*
X85884Y498316D01*
X71596Y498316D01*
X71596Y500428D02*
X85884Y500428D01*
X85884Y502540D02*
X71596Y502540D01*
X71596Y504652D02*
X85884Y504652D01*
X15716Y504984D02*
X15716Y498316D01*
X15716Y504984D02*
X30004Y504984D01*
X30004Y498316D01*
X15716Y498316D01*
X15716Y500428D02*
X30004Y500428D01*
X30004Y502540D02*
X15716Y502540D01*
X15716Y504652D02*
X30004Y504652D01*
X71596Y536416D02*
X71596Y543084D01*
X85884Y543084D01*
X85884Y536416D01*
X71596Y536416D01*
X71596Y538528D02*
X85884Y538528D01*
X85884Y540640D02*
X71596Y540640D01*
X71596Y542752D02*
X85884Y542752D01*
X15716Y543084D02*
X15716Y536416D01*
X15716Y543084D02*
X30004Y543084D01*
X30004Y536416D01*
X15716Y536416D01*
X15716Y538528D02*
X30004Y538528D01*
X30004Y540640D02*
X15716Y540640D01*
X15716Y542752D02*
X30004Y542752D01*
D32*
X81788Y361061D02*
X81788Y355727D01*
X81788Y361061D02*
X93472Y361061D01*
X93472Y355727D01*
X81788Y355727D01*
X81788Y357899D02*
X93472Y357899D01*
X93472Y360071D02*
X81788Y360071D01*
X81788Y352933D02*
X81788Y347599D01*
X81788Y352933D02*
X93472Y352933D01*
X93472Y347599D01*
X81788Y347599D01*
X81788Y349771D02*
X93472Y349771D01*
X93472Y351943D02*
X81788Y351943D01*
D10*
X46658Y316692D02*
X37642Y316692D01*
X37642Y343708D01*
X46658Y343708D01*
X46658Y316692D01*
X46658Y318833D02*
X37642Y318833D01*
X37642Y320974D02*
X46658Y320974D01*
X46658Y323115D02*
X37642Y323115D01*
X37642Y325256D02*
X46658Y325256D01*
X46658Y327397D02*
X37642Y327397D01*
X37642Y329538D02*
X46658Y329538D01*
X46658Y331679D02*
X37642Y331679D01*
X37642Y333820D02*
X46658Y333820D01*
X46658Y335961D02*
X37642Y335961D01*
X37642Y338102D02*
X46658Y338102D01*
X46658Y340243D02*
X37642Y340243D01*
X37642Y342384D02*
X46658Y342384D01*
X67642Y316692D02*
X76658Y316692D01*
X67642Y316692D02*
X67642Y343708D01*
X76658Y343708D01*
X76658Y316692D01*
X76658Y318833D02*
X67642Y318833D01*
X67642Y320974D02*
X76658Y320974D01*
X76658Y323115D02*
X67642Y323115D01*
X67642Y325256D02*
X76658Y325256D01*
X76658Y327397D02*
X67642Y327397D01*
X67642Y329538D02*
X76658Y329538D01*
X76658Y331679D02*
X67642Y331679D01*
X67642Y333820D02*
X76658Y333820D01*
X76658Y335961D02*
X67642Y335961D01*
X67642Y338102D02*
X76658Y338102D01*
X76658Y340243D02*
X67642Y340243D01*
X67642Y342384D02*
X76658Y342384D01*
X299892Y200792D02*
X308908Y200792D01*
X299892Y200792D02*
X299892Y211308D01*
X308908Y211308D01*
X308908Y200792D01*
X308908Y202933D02*
X299892Y202933D01*
X299892Y205074D02*
X308908Y205074D01*
X308908Y207215D02*
X299892Y207215D01*
X299892Y209356D02*
X308908Y209356D01*
X283908Y200792D02*
X274892Y200792D01*
X274892Y211308D01*
X283908Y211308D01*
X283908Y200792D01*
X283908Y202933D02*
X274892Y202933D01*
X274892Y205074D02*
X283908Y205074D01*
X283908Y207215D02*
X274892Y207215D01*
X274892Y209356D02*
X283908Y209356D01*
X258908Y200792D02*
X249892Y200792D01*
X249892Y211308D01*
X258908Y211308D01*
X258908Y200792D01*
X258908Y202933D02*
X249892Y202933D01*
X249892Y205074D02*
X258908Y205074D01*
X258908Y207215D02*
X249892Y207215D01*
X249892Y209356D02*
X258908Y209356D01*
X299892Y144292D02*
X308908Y144292D01*
X299892Y144292D02*
X299892Y154808D01*
X308908Y154808D01*
X308908Y144292D01*
X308908Y146433D02*
X299892Y146433D01*
X299892Y148574D02*
X308908Y148574D01*
X308908Y150715D02*
X299892Y150715D01*
X299892Y152856D02*
X308908Y152856D01*
X283908Y144292D02*
X274892Y144292D01*
X274892Y154808D01*
X283908Y154808D01*
X283908Y144292D01*
X283908Y146433D02*
X274892Y146433D01*
X274892Y148574D02*
X283908Y148574D01*
X283908Y150715D02*
X274892Y150715D01*
X274892Y152856D02*
X283908Y152856D01*
X258908Y144292D02*
X249892Y144292D01*
X249892Y154808D01*
X258908Y154808D01*
X258908Y144292D01*
X258908Y146433D02*
X249892Y146433D01*
X249892Y148574D02*
X258908Y148574D01*
X258908Y150715D02*
X249892Y150715D01*
X249892Y152856D02*
X258908Y152856D01*
D33*
X294400Y177800D03*
X264400Y177800D03*
D34*
X187960Y571500D03*
X213360Y571500D03*
X238760Y571500D03*
X264160Y571500D03*
X289560Y571500D03*
X314960Y571500D03*
X340360Y571500D03*
X365760Y571500D03*
X391160Y571500D03*
X416560Y571500D03*
X457200Y12700D03*
X431800Y12700D03*
X406400Y12700D03*
X381000Y12700D03*
X355600Y12700D03*
X330200Y12700D03*
X304800Y12700D03*
X279400Y12700D03*
X508000Y12700D03*
X533400Y12700D03*
X558800Y12700D03*
X584200Y12700D03*
X609600Y12700D03*
X635000Y12700D03*
X635000Y571500D03*
X609600Y571500D03*
X584200Y571500D03*
X558800Y571500D03*
X533400Y571500D03*
X508000Y571500D03*
X482600Y571500D03*
X457200Y571500D03*
X228600Y12700D03*
X254000Y12700D03*
D28*
X174478Y354362D02*
X174478Y359378D01*
X174478Y354362D02*
X163462Y354362D01*
X163462Y359378D01*
X174478Y359378D01*
X174478Y356503D02*
X163462Y356503D01*
X163462Y358644D02*
X174478Y358644D01*
X174478Y367062D02*
X174478Y372078D01*
X174478Y367062D02*
X163462Y367062D01*
X163462Y372078D01*
X174478Y372078D01*
X174478Y369203D02*
X163462Y369203D01*
X163462Y371344D02*
X174478Y371344D01*
X174478Y379762D02*
X174478Y384778D01*
X174478Y379762D02*
X163462Y379762D01*
X163462Y384778D01*
X174478Y384778D01*
X174478Y381903D02*
X163462Y381903D01*
X163462Y384044D02*
X174478Y384044D01*
X174478Y392462D02*
X174478Y397478D01*
X174478Y392462D02*
X163462Y392462D01*
X163462Y397478D01*
X174478Y397478D01*
X174478Y394603D02*
X163462Y394603D01*
X163462Y396744D02*
X174478Y396744D01*
X174478Y405162D02*
X174478Y410178D01*
X174478Y405162D02*
X163462Y405162D01*
X163462Y410178D01*
X174478Y410178D01*
X174478Y407303D02*
X163462Y407303D01*
X163462Y409444D02*
X174478Y409444D01*
X174478Y417862D02*
X174478Y422878D01*
X174478Y417862D02*
X163462Y417862D01*
X163462Y422878D01*
X174478Y422878D01*
X174478Y420003D02*
X163462Y420003D01*
X163462Y422144D02*
X174478Y422144D01*
X174478Y430562D02*
X174478Y435578D01*
X174478Y430562D02*
X163462Y430562D01*
X163462Y435578D01*
X174478Y435578D01*
X174478Y432703D02*
X163462Y432703D01*
X163462Y434844D02*
X174478Y434844D01*
X174478Y443262D02*
X174478Y448278D01*
X174478Y443262D02*
X163462Y443262D01*
X163462Y448278D01*
X174478Y448278D01*
X174478Y445403D02*
X163462Y445403D01*
X163462Y447544D02*
X174478Y447544D01*
X118478Y448278D02*
X118478Y443262D01*
X107462Y443262D01*
X107462Y448278D01*
X118478Y448278D01*
X118478Y445403D02*
X107462Y445403D01*
X107462Y447544D02*
X118478Y447544D01*
X118478Y435578D02*
X118478Y430562D01*
X107462Y430562D01*
X107462Y435578D01*
X118478Y435578D01*
X118478Y432703D02*
X107462Y432703D01*
X107462Y434844D02*
X118478Y434844D01*
X118478Y422878D02*
X118478Y417862D01*
X107462Y417862D01*
X107462Y422878D01*
X118478Y422878D01*
X118478Y420003D02*
X107462Y420003D01*
X107462Y422144D02*
X118478Y422144D01*
X118478Y410178D02*
X118478Y405162D01*
X107462Y405162D01*
X107462Y410178D01*
X118478Y410178D01*
X118478Y407303D02*
X107462Y407303D01*
X107462Y409444D02*
X118478Y409444D01*
X118478Y397478D02*
X118478Y392462D01*
X107462Y392462D01*
X107462Y397478D01*
X118478Y397478D01*
X118478Y394603D02*
X107462Y394603D01*
X107462Y396744D02*
X118478Y396744D01*
X118478Y384778D02*
X118478Y379762D01*
X107462Y379762D01*
X107462Y384778D01*
X118478Y384778D01*
X118478Y381903D02*
X107462Y381903D01*
X107462Y384044D02*
X118478Y384044D01*
X118478Y372078D02*
X118478Y367062D01*
X107462Y367062D01*
X107462Y372078D01*
X118478Y372078D01*
X118478Y369203D02*
X107462Y369203D01*
X107462Y371344D02*
X118478Y371344D01*
X118478Y359378D02*
X118478Y354362D01*
X107462Y354362D01*
X107462Y359378D01*
X118478Y359378D01*
X118478Y356503D02*
X107462Y356503D01*
X107462Y358644D02*
X118478Y358644D01*
D10*
X182072Y457772D02*
X192088Y457772D01*
X182072Y457772D02*
X182072Y466788D01*
X192088Y466788D01*
X192088Y457772D01*
X192088Y459913D02*
X182072Y459913D01*
X182072Y462054D02*
X192088Y462054D01*
X192088Y464195D02*
X182072Y464195D01*
X182072Y466336D02*
X192088Y466336D01*
X199072Y457772D02*
X209088Y457772D01*
X199072Y457772D02*
X199072Y466788D01*
X209088Y466788D01*
X209088Y457772D01*
X209088Y459913D02*
X199072Y459913D01*
X199072Y462054D02*
X209088Y462054D01*
X209088Y464195D02*
X199072Y464195D01*
X199072Y466336D02*
X209088Y466336D01*
X209088Y410908D02*
X199072Y410908D01*
X209088Y410908D02*
X209088Y401892D01*
X199072Y401892D01*
X199072Y410908D01*
X199072Y404033D02*
X209088Y404033D01*
X209088Y406174D02*
X199072Y406174D01*
X199072Y408315D02*
X209088Y408315D01*
X209088Y410456D02*
X199072Y410456D01*
X192088Y410908D02*
X182072Y410908D01*
X192088Y410908D02*
X192088Y401892D01*
X182072Y401892D01*
X182072Y410908D01*
X182072Y404033D02*
X192088Y404033D01*
X192088Y406174D02*
X182072Y406174D01*
X182072Y408315D02*
X192088Y408315D01*
X192088Y410456D02*
X182072Y410456D01*
D21*
X198573Y416833D02*
X198573Y429847D01*
X209587Y429847D01*
X209587Y416833D01*
X198573Y416833D01*
X198573Y418976D02*
X209587Y418976D01*
X209587Y421119D02*
X198573Y421119D01*
X198573Y423262D02*
X209587Y423262D01*
X209587Y425405D02*
X198573Y425405D01*
X198573Y427548D02*
X209587Y427548D01*
X209587Y429691D02*
X198573Y429691D01*
X209587Y438833D02*
X209587Y451847D01*
X209587Y438833D02*
X198573Y438833D01*
X198573Y451847D01*
X209587Y451847D01*
X209587Y440976D02*
X198573Y440976D01*
X198573Y443119D02*
X209587Y443119D01*
X209587Y445262D02*
X198573Y445262D01*
X198573Y447405D02*
X209587Y447405D01*
X209587Y449548D02*
X198573Y449548D01*
X198573Y451691D02*
X209587Y451691D01*
X192587Y451847D02*
X192587Y438833D01*
X181573Y438833D01*
X181573Y451847D01*
X192587Y451847D01*
X192587Y440976D02*
X181573Y440976D01*
X181573Y443119D02*
X192587Y443119D01*
X192587Y445262D02*
X181573Y445262D01*
X181573Y447405D02*
X192587Y447405D01*
X192587Y449548D02*
X181573Y449548D01*
X181573Y451691D02*
X192587Y451691D01*
X181573Y429847D02*
X181573Y416833D01*
X181573Y429847D02*
X192587Y429847D01*
X192587Y416833D01*
X181573Y416833D01*
X181573Y418976D02*
X192587Y418976D01*
X192587Y421119D02*
X181573Y421119D01*
X181573Y423262D02*
X192587Y423262D01*
X192587Y425405D02*
X181573Y425405D01*
X181573Y427548D02*
X192587Y427548D01*
X192587Y429691D02*
X181573Y429691D01*
M02*
