G04 EAGLE Gerber RS-274X export*
G75*
%MOMM*%
%FSLAX34Y34*%
%LPD*%
%IN*%
%IPPOS*%
%AMOC8*
5,1,8,0,0,1.08239X$1,22.5*%
G01*
%ADD10C,0.203200*%
%ADD11C,0.000000*%
%ADD12C,0.600000*%
%ADD13C,0.254000*%


D10*
X0Y584200D02*
X645160Y584200D01*
X660400Y568960D01*
X660400Y429260D02*
X685800Y403860D01*
X685800Y76200D01*
X660400Y50800D01*
X660400Y0D01*
X0Y0D01*
X0Y584200D01*
X660400Y568960D02*
X660400Y429260D01*
D11*
X124460Y50800D02*
X124465Y51174D01*
X124478Y51548D01*
X124501Y51921D01*
X124533Y52294D01*
X124575Y52666D01*
X124625Y53036D01*
X124684Y53405D01*
X124753Y53773D01*
X124830Y54139D01*
X124917Y54503D01*
X125012Y54865D01*
X125116Y55224D01*
X125229Y55581D01*
X125351Y55934D01*
X125481Y56285D01*
X125620Y56632D01*
X125767Y56976D01*
X125923Y57316D01*
X126087Y57652D01*
X126260Y57984D01*
X126440Y58312D01*
X126628Y58635D01*
X126824Y58953D01*
X127028Y59267D01*
X127240Y59575D01*
X127459Y59878D01*
X127686Y60176D01*
X127919Y60468D01*
X128160Y60754D01*
X128408Y61035D01*
X128662Y61309D01*
X128924Y61576D01*
X129191Y61838D01*
X129465Y62092D01*
X129746Y62340D01*
X130032Y62581D01*
X130324Y62814D01*
X130622Y63041D01*
X130925Y63260D01*
X131233Y63472D01*
X131547Y63676D01*
X131865Y63872D01*
X132188Y64060D01*
X132516Y64240D01*
X132848Y64413D01*
X133184Y64577D01*
X133524Y64733D01*
X133868Y64880D01*
X134215Y65019D01*
X134566Y65149D01*
X134919Y65271D01*
X135276Y65384D01*
X135635Y65488D01*
X135997Y65583D01*
X136361Y65670D01*
X136727Y65747D01*
X137095Y65816D01*
X137464Y65875D01*
X137834Y65925D01*
X138206Y65967D01*
X138579Y65999D01*
X138952Y66022D01*
X139326Y66035D01*
X139700Y66040D01*
X140074Y66035D01*
X140448Y66022D01*
X140821Y65999D01*
X141194Y65967D01*
X141566Y65925D01*
X141936Y65875D01*
X142305Y65816D01*
X142673Y65747D01*
X143039Y65670D01*
X143403Y65583D01*
X143765Y65488D01*
X144124Y65384D01*
X144481Y65271D01*
X144834Y65149D01*
X145185Y65019D01*
X145532Y64880D01*
X145876Y64733D01*
X146216Y64577D01*
X146552Y64413D01*
X146884Y64240D01*
X147212Y64060D01*
X147535Y63872D01*
X147853Y63676D01*
X148167Y63472D01*
X148475Y63260D01*
X148778Y63041D01*
X149076Y62814D01*
X149368Y62581D01*
X149654Y62340D01*
X149935Y62092D01*
X150209Y61838D01*
X150476Y61576D01*
X150738Y61309D01*
X150992Y61035D01*
X151240Y60754D01*
X151481Y60468D01*
X151714Y60176D01*
X151941Y59878D01*
X152160Y59575D01*
X152372Y59267D01*
X152576Y58953D01*
X152772Y58635D01*
X152960Y58312D01*
X153140Y57984D01*
X153313Y57652D01*
X153477Y57316D01*
X153633Y56976D01*
X153780Y56632D01*
X153919Y56285D01*
X154049Y55934D01*
X154171Y55581D01*
X154284Y55224D01*
X154388Y54865D01*
X154483Y54503D01*
X154570Y54139D01*
X154647Y53773D01*
X154716Y53405D01*
X154775Y53036D01*
X154825Y52666D01*
X154867Y52294D01*
X154899Y51921D01*
X154922Y51548D01*
X154935Y51174D01*
X154940Y50800D01*
X154935Y50426D01*
X154922Y50052D01*
X154899Y49679D01*
X154867Y49306D01*
X154825Y48934D01*
X154775Y48564D01*
X154716Y48195D01*
X154647Y47827D01*
X154570Y47461D01*
X154483Y47097D01*
X154388Y46735D01*
X154284Y46376D01*
X154171Y46019D01*
X154049Y45666D01*
X153919Y45315D01*
X153780Y44968D01*
X153633Y44624D01*
X153477Y44284D01*
X153313Y43948D01*
X153140Y43616D01*
X152960Y43288D01*
X152772Y42965D01*
X152576Y42647D01*
X152372Y42333D01*
X152160Y42025D01*
X151941Y41722D01*
X151714Y41424D01*
X151481Y41132D01*
X151240Y40846D01*
X150992Y40565D01*
X150738Y40291D01*
X150476Y40024D01*
X150209Y39762D01*
X149935Y39508D01*
X149654Y39260D01*
X149368Y39019D01*
X149076Y38786D01*
X148778Y38559D01*
X148475Y38340D01*
X148167Y38128D01*
X147853Y37924D01*
X147535Y37728D01*
X147212Y37540D01*
X146884Y37360D01*
X146552Y37187D01*
X146216Y37023D01*
X145876Y36867D01*
X145532Y36720D01*
X145185Y36581D01*
X144834Y36451D01*
X144481Y36329D01*
X144124Y36216D01*
X143765Y36112D01*
X143403Y36017D01*
X143039Y35930D01*
X142673Y35853D01*
X142305Y35784D01*
X141936Y35725D01*
X141566Y35675D01*
X141194Y35633D01*
X140821Y35601D01*
X140448Y35578D01*
X140074Y35565D01*
X139700Y35560D01*
X139326Y35565D01*
X138952Y35578D01*
X138579Y35601D01*
X138206Y35633D01*
X137834Y35675D01*
X137464Y35725D01*
X137095Y35784D01*
X136727Y35853D01*
X136361Y35930D01*
X135997Y36017D01*
X135635Y36112D01*
X135276Y36216D01*
X134919Y36329D01*
X134566Y36451D01*
X134215Y36581D01*
X133868Y36720D01*
X133524Y36867D01*
X133184Y37023D01*
X132848Y37187D01*
X132516Y37360D01*
X132188Y37540D01*
X131865Y37728D01*
X131547Y37924D01*
X131233Y38128D01*
X130925Y38340D01*
X130622Y38559D01*
X130324Y38786D01*
X130032Y39019D01*
X129746Y39260D01*
X129465Y39508D01*
X129191Y39762D01*
X128924Y40024D01*
X128662Y40291D01*
X128408Y40565D01*
X128160Y40846D01*
X127919Y41132D01*
X127686Y41424D01*
X127459Y41722D01*
X127240Y42025D01*
X127028Y42333D01*
X126824Y42647D01*
X126628Y42965D01*
X126440Y43288D01*
X126260Y43616D01*
X126087Y43948D01*
X125923Y44284D01*
X125767Y44624D01*
X125620Y44968D01*
X125481Y45315D01*
X125351Y45666D01*
X125229Y46019D01*
X125116Y46376D01*
X125012Y46735D01*
X124917Y47097D01*
X124830Y47461D01*
X124753Y47827D01*
X124684Y48195D01*
X124625Y48564D01*
X124575Y48934D01*
X124533Y49306D01*
X124501Y49679D01*
X124478Y50052D01*
X124465Y50426D01*
X124460Y50800D01*
X645160Y101600D02*
X645165Y101974D01*
X645178Y102348D01*
X645201Y102721D01*
X645233Y103094D01*
X645275Y103466D01*
X645325Y103836D01*
X645384Y104205D01*
X645453Y104573D01*
X645530Y104939D01*
X645617Y105303D01*
X645712Y105665D01*
X645816Y106024D01*
X645929Y106381D01*
X646051Y106734D01*
X646181Y107085D01*
X646320Y107432D01*
X646467Y107776D01*
X646623Y108116D01*
X646787Y108452D01*
X646960Y108784D01*
X647140Y109112D01*
X647328Y109435D01*
X647524Y109753D01*
X647728Y110067D01*
X647940Y110375D01*
X648159Y110678D01*
X648386Y110976D01*
X648619Y111268D01*
X648860Y111554D01*
X649108Y111835D01*
X649362Y112109D01*
X649624Y112376D01*
X649891Y112638D01*
X650165Y112892D01*
X650446Y113140D01*
X650732Y113381D01*
X651024Y113614D01*
X651322Y113841D01*
X651625Y114060D01*
X651933Y114272D01*
X652247Y114476D01*
X652565Y114672D01*
X652888Y114860D01*
X653216Y115040D01*
X653548Y115213D01*
X653884Y115377D01*
X654224Y115533D01*
X654568Y115680D01*
X654915Y115819D01*
X655266Y115949D01*
X655619Y116071D01*
X655976Y116184D01*
X656335Y116288D01*
X656697Y116383D01*
X657061Y116470D01*
X657427Y116547D01*
X657795Y116616D01*
X658164Y116675D01*
X658534Y116725D01*
X658906Y116767D01*
X659279Y116799D01*
X659652Y116822D01*
X660026Y116835D01*
X660400Y116840D01*
X660774Y116835D01*
X661148Y116822D01*
X661521Y116799D01*
X661894Y116767D01*
X662266Y116725D01*
X662636Y116675D01*
X663005Y116616D01*
X663373Y116547D01*
X663739Y116470D01*
X664103Y116383D01*
X664465Y116288D01*
X664824Y116184D01*
X665181Y116071D01*
X665534Y115949D01*
X665885Y115819D01*
X666232Y115680D01*
X666576Y115533D01*
X666916Y115377D01*
X667252Y115213D01*
X667584Y115040D01*
X667912Y114860D01*
X668235Y114672D01*
X668553Y114476D01*
X668867Y114272D01*
X669175Y114060D01*
X669478Y113841D01*
X669776Y113614D01*
X670068Y113381D01*
X670354Y113140D01*
X670635Y112892D01*
X670909Y112638D01*
X671176Y112376D01*
X671438Y112109D01*
X671692Y111835D01*
X671940Y111554D01*
X672181Y111268D01*
X672414Y110976D01*
X672641Y110678D01*
X672860Y110375D01*
X673072Y110067D01*
X673276Y109753D01*
X673472Y109435D01*
X673660Y109112D01*
X673840Y108784D01*
X674013Y108452D01*
X674177Y108116D01*
X674333Y107776D01*
X674480Y107432D01*
X674619Y107085D01*
X674749Y106734D01*
X674871Y106381D01*
X674984Y106024D01*
X675088Y105665D01*
X675183Y105303D01*
X675270Y104939D01*
X675347Y104573D01*
X675416Y104205D01*
X675475Y103836D01*
X675525Y103466D01*
X675567Y103094D01*
X675599Y102721D01*
X675622Y102348D01*
X675635Y101974D01*
X675640Y101600D01*
X675635Y101226D01*
X675622Y100852D01*
X675599Y100479D01*
X675567Y100106D01*
X675525Y99734D01*
X675475Y99364D01*
X675416Y98995D01*
X675347Y98627D01*
X675270Y98261D01*
X675183Y97897D01*
X675088Y97535D01*
X674984Y97176D01*
X674871Y96819D01*
X674749Y96466D01*
X674619Y96115D01*
X674480Y95768D01*
X674333Y95424D01*
X674177Y95084D01*
X674013Y94748D01*
X673840Y94416D01*
X673660Y94088D01*
X673472Y93765D01*
X673276Y93447D01*
X673072Y93133D01*
X672860Y92825D01*
X672641Y92522D01*
X672414Y92224D01*
X672181Y91932D01*
X671940Y91646D01*
X671692Y91365D01*
X671438Y91091D01*
X671176Y90824D01*
X670909Y90562D01*
X670635Y90308D01*
X670354Y90060D01*
X670068Y89819D01*
X669776Y89586D01*
X669478Y89359D01*
X669175Y89140D01*
X668867Y88928D01*
X668553Y88724D01*
X668235Y88528D01*
X667912Y88340D01*
X667584Y88160D01*
X667252Y87987D01*
X666916Y87823D01*
X666576Y87667D01*
X666232Y87520D01*
X665885Y87381D01*
X665534Y87251D01*
X665181Y87129D01*
X664824Y87016D01*
X664465Y86912D01*
X664103Y86817D01*
X663739Y86730D01*
X663373Y86653D01*
X663005Y86584D01*
X662636Y86525D01*
X662266Y86475D01*
X661894Y86433D01*
X661521Y86401D01*
X661148Y86378D01*
X660774Y86365D01*
X660400Y86360D01*
X660026Y86365D01*
X659652Y86378D01*
X659279Y86401D01*
X658906Y86433D01*
X658534Y86475D01*
X658164Y86525D01*
X657795Y86584D01*
X657427Y86653D01*
X657061Y86730D01*
X656697Y86817D01*
X656335Y86912D01*
X655976Y87016D01*
X655619Y87129D01*
X655266Y87251D01*
X654915Y87381D01*
X654568Y87520D01*
X654224Y87667D01*
X653884Y87823D01*
X653548Y87987D01*
X653216Y88160D01*
X652888Y88340D01*
X652565Y88528D01*
X652247Y88724D01*
X651933Y88928D01*
X651625Y89140D01*
X651322Y89359D01*
X651024Y89586D01*
X650732Y89819D01*
X650446Y90060D01*
X650165Y90308D01*
X649891Y90562D01*
X649624Y90824D01*
X649362Y91091D01*
X649108Y91365D01*
X648860Y91646D01*
X648619Y91932D01*
X648386Y92224D01*
X648159Y92522D01*
X647940Y92825D01*
X647728Y93133D01*
X647524Y93447D01*
X647328Y93765D01*
X647140Y94088D01*
X646960Y94416D01*
X646787Y94748D01*
X646623Y95084D01*
X646467Y95424D01*
X646320Y95768D01*
X646181Y96115D01*
X646051Y96466D01*
X645929Y96819D01*
X645816Y97176D01*
X645712Y97535D01*
X645617Y97897D01*
X645530Y98261D01*
X645453Y98627D01*
X645384Y98995D01*
X645325Y99364D01*
X645275Y99734D01*
X645233Y100106D01*
X645201Y100479D01*
X645178Y100852D01*
X645165Y101226D01*
X645160Y101600D01*
X645160Y381000D02*
X645165Y381374D01*
X645178Y381748D01*
X645201Y382121D01*
X645233Y382494D01*
X645275Y382866D01*
X645325Y383236D01*
X645384Y383605D01*
X645453Y383973D01*
X645530Y384339D01*
X645617Y384703D01*
X645712Y385065D01*
X645816Y385424D01*
X645929Y385781D01*
X646051Y386134D01*
X646181Y386485D01*
X646320Y386832D01*
X646467Y387176D01*
X646623Y387516D01*
X646787Y387852D01*
X646960Y388184D01*
X647140Y388512D01*
X647328Y388835D01*
X647524Y389153D01*
X647728Y389467D01*
X647940Y389775D01*
X648159Y390078D01*
X648386Y390376D01*
X648619Y390668D01*
X648860Y390954D01*
X649108Y391235D01*
X649362Y391509D01*
X649624Y391776D01*
X649891Y392038D01*
X650165Y392292D01*
X650446Y392540D01*
X650732Y392781D01*
X651024Y393014D01*
X651322Y393241D01*
X651625Y393460D01*
X651933Y393672D01*
X652247Y393876D01*
X652565Y394072D01*
X652888Y394260D01*
X653216Y394440D01*
X653548Y394613D01*
X653884Y394777D01*
X654224Y394933D01*
X654568Y395080D01*
X654915Y395219D01*
X655266Y395349D01*
X655619Y395471D01*
X655976Y395584D01*
X656335Y395688D01*
X656697Y395783D01*
X657061Y395870D01*
X657427Y395947D01*
X657795Y396016D01*
X658164Y396075D01*
X658534Y396125D01*
X658906Y396167D01*
X659279Y396199D01*
X659652Y396222D01*
X660026Y396235D01*
X660400Y396240D01*
X660774Y396235D01*
X661148Y396222D01*
X661521Y396199D01*
X661894Y396167D01*
X662266Y396125D01*
X662636Y396075D01*
X663005Y396016D01*
X663373Y395947D01*
X663739Y395870D01*
X664103Y395783D01*
X664465Y395688D01*
X664824Y395584D01*
X665181Y395471D01*
X665534Y395349D01*
X665885Y395219D01*
X666232Y395080D01*
X666576Y394933D01*
X666916Y394777D01*
X667252Y394613D01*
X667584Y394440D01*
X667912Y394260D01*
X668235Y394072D01*
X668553Y393876D01*
X668867Y393672D01*
X669175Y393460D01*
X669478Y393241D01*
X669776Y393014D01*
X670068Y392781D01*
X670354Y392540D01*
X670635Y392292D01*
X670909Y392038D01*
X671176Y391776D01*
X671438Y391509D01*
X671692Y391235D01*
X671940Y390954D01*
X672181Y390668D01*
X672414Y390376D01*
X672641Y390078D01*
X672860Y389775D01*
X673072Y389467D01*
X673276Y389153D01*
X673472Y388835D01*
X673660Y388512D01*
X673840Y388184D01*
X674013Y387852D01*
X674177Y387516D01*
X674333Y387176D01*
X674480Y386832D01*
X674619Y386485D01*
X674749Y386134D01*
X674871Y385781D01*
X674984Y385424D01*
X675088Y385065D01*
X675183Y384703D01*
X675270Y384339D01*
X675347Y383973D01*
X675416Y383605D01*
X675475Y383236D01*
X675525Y382866D01*
X675567Y382494D01*
X675599Y382121D01*
X675622Y381748D01*
X675635Y381374D01*
X675640Y381000D01*
X675635Y380626D01*
X675622Y380252D01*
X675599Y379879D01*
X675567Y379506D01*
X675525Y379134D01*
X675475Y378764D01*
X675416Y378395D01*
X675347Y378027D01*
X675270Y377661D01*
X675183Y377297D01*
X675088Y376935D01*
X674984Y376576D01*
X674871Y376219D01*
X674749Y375866D01*
X674619Y375515D01*
X674480Y375168D01*
X674333Y374824D01*
X674177Y374484D01*
X674013Y374148D01*
X673840Y373816D01*
X673660Y373488D01*
X673472Y373165D01*
X673276Y372847D01*
X673072Y372533D01*
X672860Y372225D01*
X672641Y371922D01*
X672414Y371624D01*
X672181Y371332D01*
X671940Y371046D01*
X671692Y370765D01*
X671438Y370491D01*
X671176Y370224D01*
X670909Y369962D01*
X670635Y369708D01*
X670354Y369460D01*
X670068Y369219D01*
X669776Y368986D01*
X669478Y368759D01*
X669175Y368540D01*
X668867Y368328D01*
X668553Y368124D01*
X668235Y367928D01*
X667912Y367740D01*
X667584Y367560D01*
X667252Y367387D01*
X666916Y367223D01*
X666576Y367067D01*
X666232Y366920D01*
X665885Y366781D01*
X665534Y366651D01*
X665181Y366529D01*
X664824Y366416D01*
X664465Y366312D01*
X664103Y366217D01*
X663739Y366130D01*
X663373Y366053D01*
X663005Y365984D01*
X662636Y365925D01*
X662266Y365875D01*
X661894Y365833D01*
X661521Y365801D01*
X661148Y365778D01*
X660774Y365765D01*
X660400Y365760D01*
X660026Y365765D01*
X659652Y365778D01*
X659279Y365801D01*
X658906Y365833D01*
X658534Y365875D01*
X658164Y365925D01*
X657795Y365984D01*
X657427Y366053D01*
X657061Y366130D01*
X656697Y366217D01*
X656335Y366312D01*
X655976Y366416D01*
X655619Y366529D01*
X655266Y366651D01*
X654915Y366781D01*
X654568Y366920D01*
X654224Y367067D01*
X653884Y367223D01*
X653548Y367387D01*
X653216Y367560D01*
X652888Y367740D01*
X652565Y367928D01*
X652247Y368124D01*
X651933Y368328D01*
X651625Y368540D01*
X651322Y368759D01*
X651024Y368986D01*
X650732Y369219D01*
X650446Y369460D01*
X650165Y369708D01*
X649891Y369962D01*
X649624Y370224D01*
X649362Y370491D01*
X649108Y370765D01*
X648860Y371046D01*
X648619Y371332D01*
X648386Y371624D01*
X648159Y371922D01*
X647940Y372225D01*
X647728Y372533D01*
X647524Y372847D01*
X647328Y373165D01*
X647140Y373488D01*
X646960Y373816D01*
X646787Y374148D01*
X646623Y374484D01*
X646467Y374824D01*
X646320Y375168D01*
X646181Y375515D01*
X646051Y375866D01*
X645929Y376219D01*
X645816Y376576D01*
X645712Y376935D01*
X645617Y377297D01*
X645530Y377661D01*
X645453Y378027D01*
X645384Y378395D01*
X645325Y378764D01*
X645275Y379134D01*
X645233Y379506D01*
X645201Y379879D01*
X645178Y380252D01*
X645165Y380626D01*
X645160Y381000D01*
X137160Y533400D02*
X137165Y533774D01*
X137178Y534148D01*
X137201Y534521D01*
X137233Y534894D01*
X137275Y535266D01*
X137325Y535636D01*
X137384Y536005D01*
X137453Y536373D01*
X137530Y536739D01*
X137617Y537103D01*
X137712Y537465D01*
X137816Y537824D01*
X137929Y538181D01*
X138051Y538534D01*
X138181Y538885D01*
X138320Y539232D01*
X138467Y539576D01*
X138623Y539916D01*
X138787Y540252D01*
X138960Y540584D01*
X139140Y540912D01*
X139328Y541235D01*
X139524Y541553D01*
X139728Y541867D01*
X139940Y542175D01*
X140159Y542478D01*
X140386Y542776D01*
X140619Y543068D01*
X140860Y543354D01*
X141108Y543635D01*
X141362Y543909D01*
X141624Y544176D01*
X141891Y544438D01*
X142165Y544692D01*
X142446Y544940D01*
X142732Y545181D01*
X143024Y545414D01*
X143322Y545641D01*
X143625Y545860D01*
X143933Y546072D01*
X144247Y546276D01*
X144565Y546472D01*
X144888Y546660D01*
X145216Y546840D01*
X145548Y547013D01*
X145884Y547177D01*
X146224Y547333D01*
X146568Y547480D01*
X146915Y547619D01*
X147266Y547749D01*
X147619Y547871D01*
X147976Y547984D01*
X148335Y548088D01*
X148697Y548183D01*
X149061Y548270D01*
X149427Y548347D01*
X149795Y548416D01*
X150164Y548475D01*
X150534Y548525D01*
X150906Y548567D01*
X151279Y548599D01*
X151652Y548622D01*
X152026Y548635D01*
X152400Y548640D01*
X152774Y548635D01*
X153148Y548622D01*
X153521Y548599D01*
X153894Y548567D01*
X154266Y548525D01*
X154636Y548475D01*
X155005Y548416D01*
X155373Y548347D01*
X155739Y548270D01*
X156103Y548183D01*
X156465Y548088D01*
X156824Y547984D01*
X157181Y547871D01*
X157534Y547749D01*
X157885Y547619D01*
X158232Y547480D01*
X158576Y547333D01*
X158916Y547177D01*
X159252Y547013D01*
X159584Y546840D01*
X159912Y546660D01*
X160235Y546472D01*
X160553Y546276D01*
X160867Y546072D01*
X161175Y545860D01*
X161478Y545641D01*
X161776Y545414D01*
X162068Y545181D01*
X162354Y544940D01*
X162635Y544692D01*
X162909Y544438D01*
X163176Y544176D01*
X163438Y543909D01*
X163692Y543635D01*
X163940Y543354D01*
X164181Y543068D01*
X164414Y542776D01*
X164641Y542478D01*
X164860Y542175D01*
X165072Y541867D01*
X165276Y541553D01*
X165472Y541235D01*
X165660Y540912D01*
X165840Y540584D01*
X166013Y540252D01*
X166177Y539916D01*
X166333Y539576D01*
X166480Y539232D01*
X166619Y538885D01*
X166749Y538534D01*
X166871Y538181D01*
X166984Y537824D01*
X167088Y537465D01*
X167183Y537103D01*
X167270Y536739D01*
X167347Y536373D01*
X167416Y536005D01*
X167475Y535636D01*
X167525Y535266D01*
X167567Y534894D01*
X167599Y534521D01*
X167622Y534148D01*
X167635Y533774D01*
X167640Y533400D01*
X167635Y533026D01*
X167622Y532652D01*
X167599Y532279D01*
X167567Y531906D01*
X167525Y531534D01*
X167475Y531164D01*
X167416Y530795D01*
X167347Y530427D01*
X167270Y530061D01*
X167183Y529697D01*
X167088Y529335D01*
X166984Y528976D01*
X166871Y528619D01*
X166749Y528266D01*
X166619Y527915D01*
X166480Y527568D01*
X166333Y527224D01*
X166177Y526884D01*
X166013Y526548D01*
X165840Y526216D01*
X165660Y525888D01*
X165472Y525565D01*
X165276Y525247D01*
X165072Y524933D01*
X164860Y524625D01*
X164641Y524322D01*
X164414Y524024D01*
X164181Y523732D01*
X163940Y523446D01*
X163692Y523165D01*
X163438Y522891D01*
X163176Y522624D01*
X162909Y522362D01*
X162635Y522108D01*
X162354Y521860D01*
X162068Y521619D01*
X161776Y521386D01*
X161478Y521159D01*
X161175Y520940D01*
X160867Y520728D01*
X160553Y520524D01*
X160235Y520328D01*
X159912Y520140D01*
X159584Y519960D01*
X159252Y519787D01*
X158916Y519623D01*
X158576Y519467D01*
X158232Y519320D01*
X157885Y519181D01*
X157534Y519051D01*
X157181Y518929D01*
X156824Y518816D01*
X156465Y518712D01*
X156103Y518617D01*
X155739Y518530D01*
X155373Y518453D01*
X155005Y518384D01*
X154636Y518325D01*
X154266Y518275D01*
X153894Y518233D01*
X153521Y518201D01*
X153148Y518178D01*
X152774Y518165D01*
X152400Y518160D01*
X152026Y518165D01*
X151652Y518178D01*
X151279Y518201D01*
X150906Y518233D01*
X150534Y518275D01*
X150164Y518325D01*
X149795Y518384D01*
X149427Y518453D01*
X149061Y518530D01*
X148697Y518617D01*
X148335Y518712D01*
X147976Y518816D01*
X147619Y518929D01*
X147266Y519051D01*
X146915Y519181D01*
X146568Y519320D01*
X146224Y519467D01*
X145884Y519623D01*
X145548Y519787D01*
X145216Y519960D01*
X144888Y520140D01*
X144565Y520328D01*
X144247Y520524D01*
X143933Y520728D01*
X143625Y520940D01*
X143322Y521159D01*
X143024Y521386D01*
X142732Y521619D01*
X142446Y521860D01*
X142165Y522108D01*
X141891Y522362D01*
X141624Y522624D01*
X141362Y522891D01*
X141108Y523165D01*
X140860Y523446D01*
X140619Y523732D01*
X140386Y524024D01*
X140159Y524322D01*
X139940Y524625D01*
X139728Y524933D01*
X139524Y525247D01*
X139328Y525565D01*
X139140Y525888D01*
X138960Y526216D01*
X138787Y526548D01*
X138623Y526884D01*
X138467Y527224D01*
X138320Y527568D01*
X138181Y527915D01*
X138051Y528266D01*
X137929Y528619D01*
X137816Y528976D01*
X137712Y529335D01*
X137617Y529697D01*
X137530Y530061D01*
X137453Y530427D01*
X137384Y530795D01*
X137325Y531164D01*
X137275Y531534D01*
X137233Y531906D01*
X137201Y532279D01*
X137178Y532652D01*
X137165Y533026D01*
X137160Y533400D01*
X638700Y317500D02*
X638703Y317721D01*
X638711Y317942D01*
X638724Y318162D01*
X638743Y318382D01*
X638768Y318602D01*
X638797Y318821D01*
X638833Y319039D01*
X638873Y319256D01*
X638919Y319472D01*
X638970Y319687D01*
X639026Y319900D01*
X639088Y320113D01*
X639154Y320323D01*
X639226Y320532D01*
X639303Y320739D01*
X639385Y320944D01*
X639472Y321147D01*
X639564Y321348D01*
X639661Y321547D01*
X639763Y321743D01*
X639869Y321936D01*
X639980Y322127D01*
X640096Y322315D01*
X640217Y322500D01*
X640342Y322682D01*
X640471Y322861D01*
X640605Y323037D01*
X640743Y323210D01*
X640885Y323379D01*
X641031Y323544D01*
X641182Y323706D01*
X641336Y323864D01*
X641494Y324018D01*
X641656Y324169D01*
X641821Y324315D01*
X641990Y324457D01*
X642163Y324595D01*
X642339Y324729D01*
X642518Y324858D01*
X642700Y324983D01*
X642885Y325104D01*
X643073Y325220D01*
X643264Y325331D01*
X643457Y325437D01*
X643653Y325539D01*
X643852Y325636D01*
X644053Y325728D01*
X644256Y325815D01*
X644461Y325897D01*
X644668Y325974D01*
X644877Y326046D01*
X645087Y326112D01*
X645300Y326174D01*
X645513Y326230D01*
X645728Y326281D01*
X645944Y326327D01*
X646161Y326367D01*
X646379Y326403D01*
X646598Y326432D01*
X646818Y326457D01*
X647038Y326476D01*
X647258Y326489D01*
X647479Y326497D01*
X647700Y326500D01*
X647921Y326497D01*
X648142Y326489D01*
X648362Y326476D01*
X648582Y326457D01*
X648802Y326432D01*
X649021Y326403D01*
X649239Y326367D01*
X649456Y326327D01*
X649672Y326281D01*
X649887Y326230D01*
X650100Y326174D01*
X650313Y326112D01*
X650523Y326046D01*
X650732Y325974D01*
X650939Y325897D01*
X651144Y325815D01*
X651347Y325728D01*
X651548Y325636D01*
X651747Y325539D01*
X651943Y325437D01*
X652136Y325331D01*
X652327Y325220D01*
X652515Y325104D01*
X652700Y324983D01*
X652882Y324858D01*
X653061Y324729D01*
X653237Y324595D01*
X653410Y324457D01*
X653579Y324315D01*
X653744Y324169D01*
X653906Y324018D01*
X654064Y323864D01*
X654218Y323706D01*
X654369Y323544D01*
X654515Y323379D01*
X654657Y323210D01*
X654795Y323037D01*
X654929Y322861D01*
X655058Y322682D01*
X655183Y322500D01*
X655304Y322315D01*
X655420Y322127D01*
X655531Y321936D01*
X655637Y321743D01*
X655739Y321547D01*
X655836Y321348D01*
X655928Y321147D01*
X656015Y320944D01*
X656097Y320739D01*
X656174Y320532D01*
X656246Y320323D01*
X656312Y320113D01*
X656374Y319900D01*
X656430Y319687D01*
X656481Y319472D01*
X656527Y319256D01*
X656567Y319039D01*
X656603Y318821D01*
X656632Y318602D01*
X656657Y318382D01*
X656676Y318162D01*
X656689Y317942D01*
X656697Y317721D01*
X656700Y317500D01*
X656697Y317279D01*
X656689Y317058D01*
X656676Y316838D01*
X656657Y316618D01*
X656632Y316398D01*
X656603Y316179D01*
X656567Y315961D01*
X656527Y315744D01*
X656481Y315528D01*
X656430Y315313D01*
X656374Y315100D01*
X656312Y314887D01*
X656246Y314677D01*
X656174Y314468D01*
X656097Y314261D01*
X656015Y314056D01*
X655928Y313853D01*
X655836Y313652D01*
X655739Y313453D01*
X655637Y313257D01*
X655531Y313064D01*
X655420Y312873D01*
X655304Y312685D01*
X655183Y312500D01*
X655058Y312318D01*
X654929Y312139D01*
X654795Y311963D01*
X654657Y311790D01*
X654515Y311621D01*
X654369Y311456D01*
X654218Y311294D01*
X654064Y311136D01*
X653906Y310982D01*
X653744Y310831D01*
X653579Y310685D01*
X653410Y310543D01*
X653237Y310405D01*
X653061Y310271D01*
X652882Y310142D01*
X652700Y310017D01*
X652515Y309896D01*
X652327Y309780D01*
X652136Y309669D01*
X651943Y309563D01*
X651747Y309461D01*
X651548Y309364D01*
X651347Y309272D01*
X651144Y309185D01*
X650939Y309103D01*
X650732Y309026D01*
X650523Y308954D01*
X650313Y308888D01*
X650100Y308826D01*
X649887Y308770D01*
X649672Y308719D01*
X649456Y308673D01*
X649239Y308633D01*
X649021Y308597D01*
X648802Y308568D01*
X648582Y308543D01*
X648362Y308524D01*
X648142Y308511D01*
X647921Y308503D01*
X647700Y308500D01*
X647479Y308503D01*
X647258Y308511D01*
X647038Y308524D01*
X646818Y308543D01*
X646598Y308568D01*
X646379Y308597D01*
X646161Y308633D01*
X645944Y308673D01*
X645728Y308719D01*
X645513Y308770D01*
X645300Y308826D01*
X645087Y308888D01*
X644877Y308954D01*
X644668Y309026D01*
X644461Y309103D01*
X644256Y309185D01*
X644053Y309272D01*
X643852Y309364D01*
X643653Y309461D01*
X643457Y309563D01*
X643264Y309669D01*
X643073Y309780D01*
X642885Y309896D01*
X642700Y310017D01*
X642518Y310142D01*
X642339Y310271D01*
X642163Y310405D01*
X641990Y310543D01*
X641821Y310685D01*
X641656Y310831D01*
X641494Y310982D01*
X641336Y311136D01*
X641182Y311294D01*
X641031Y311456D01*
X640885Y311621D01*
X640743Y311790D01*
X640605Y311963D01*
X640471Y312139D01*
X640342Y312318D01*
X640217Y312500D01*
X640096Y312685D01*
X639980Y312873D01*
X639869Y313064D01*
X639763Y313257D01*
X639661Y313453D01*
X639564Y313652D01*
X639472Y313853D01*
X639385Y314056D01*
X639303Y314261D01*
X639226Y314468D01*
X639154Y314677D01*
X639088Y314887D01*
X639026Y315100D01*
X638970Y315313D01*
X638919Y315528D01*
X638873Y315744D01*
X638833Y315961D01*
X638797Y316179D01*
X638768Y316398D01*
X638743Y316618D01*
X638724Y316838D01*
X638711Y317058D01*
X638703Y317279D01*
X638700Y317500D01*
X638700Y292100D02*
X638703Y292321D01*
X638711Y292542D01*
X638724Y292762D01*
X638743Y292982D01*
X638768Y293202D01*
X638797Y293421D01*
X638833Y293639D01*
X638873Y293856D01*
X638919Y294072D01*
X638970Y294287D01*
X639026Y294500D01*
X639088Y294713D01*
X639154Y294923D01*
X639226Y295132D01*
X639303Y295339D01*
X639385Y295544D01*
X639472Y295747D01*
X639564Y295948D01*
X639661Y296147D01*
X639763Y296343D01*
X639869Y296536D01*
X639980Y296727D01*
X640096Y296915D01*
X640217Y297100D01*
X640342Y297282D01*
X640471Y297461D01*
X640605Y297637D01*
X640743Y297810D01*
X640885Y297979D01*
X641031Y298144D01*
X641182Y298306D01*
X641336Y298464D01*
X641494Y298618D01*
X641656Y298769D01*
X641821Y298915D01*
X641990Y299057D01*
X642163Y299195D01*
X642339Y299329D01*
X642518Y299458D01*
X642700Y299583D01*
X642885Y299704D01*
X643073Y299820D01*
X643264Y299931D01*
X643457Y300037D01*
X643653Y300139D01*
X643852Y300236D01*
X644053Y300328D01*
X644256Y300415D01*
X644461Y300497D01*
X644668Y300574D01*
X644877Y300646D01*
X645087Y300712D01*
X645300Y300774D01*
X645513Y300830D01*
X645728Y300881D01*
X645944Y300927D01*
X646161Y300967D01*
X646379Y301003D01*
X646598Y301032D01*
X646818Y301057D01*
X647038Y301076D01*
X647258Y301089D01*
X647479Y301097D01*
X647700Y301100D01*
X647921Y301097D01*
X648142Y301089D01*
X648362Y301076D01*
X648582Y301057D01*
X648802Y301032D01*
X649021Y301003D01*
X649239Y300967D01*
X649456Y300927D01*
X649672Y300881D01*
X649887Y300830D01*
X650100Y300774D01*
X650313Y300712D01*
X650523Y300646D01*
X650732Y300574D01*
X650939Y300497D01*
X651144Y300415D01*
X651347Y300328D01*
X651548Y300236D01*
X651747Y300139D01*
X651943Y300037D01*
X652136Y299931D01*
X652327Y299820D01*
X652515Y299704D01*
X652700Y299583D01*
X652882Y299458D01*
X653061Y299329D01*
X653237Y299195D01*
X653410Y299057D01*
X653579Y298915D01*
X653744Y298769D01*
X653906Y298618D01*
X654064Y298464D01*
X654218Y298306D01*
X654369Y298144D01*
X654515Y297979D01*
X654657Y297810D01*
X654795Y297637D01*
X654929Y297461D01*
X655058Y297282D01*
X655183Y297100D01*
X655304Y296915D01*
X655420Y296727D01*
X655531Y296536D01*
X655637Y296343D01*
X655739Y296147D01*
X655836Y295948D01*
X655928Y295747D01*
X656015Y295544D01*
X656097Y295339D01*
X656174Y295132D01*
X656246Y294923D01*
X656312Y294713D01*
X656374Y294500D01*
X656430Y294287D01*
X656481Y294072D01*
X656527Y293856D01*
X656567Y293639D01*
X656603Y293421D01*
X656632Y293202D01*
X656657Y292982D01*
X656676Y292762D01*
X656689Y292542D01*
X656697Y292321D01*
X656700Y292100D01*
X656697Y291879D01*
X656689Y291658D01*
X656676Y291438D01*
X656657Y291218D01*
X656632Y290998D01*
X656603Y290779D01*
X656567Y290561D01*
X656527Y290344D01*
X656481Y290128D01*
X656430Y289913D01*
X656374Y289700D01*
X656312Y289487D01*
X656246Y289277D01*
X656174Y289068D01*
X656097Y288861D01*
X656015Y288656D01*
X655928Y288453D01*
X655836Y288252D01*
X655739Y288053D01*
X655637Y287857D01*
X655531Y287664D01*
X655420Y287473D01*
X655304Y287285D01*
X655183Y287100D01*
X655058Y286918D01*
X654929Y286739D01*
X654795Y286563D01*
X654657Y286390D01*
X654515Y286221D01*
X654369Y286056D01*
X654218Y285894D01*
X654064Y285736D01*
X653906Y285582D01*
X653744Y285431D01*
X653579Y285285D01*
X653410Y285143D01*
X653237Y285005D01*
X653061Y284871D01*
X652882Y284742D01*
X652700Y284617D01*
X652515Y284496D01*
X652327Y284380D01*
X652136Y284269D01*
X651943Y284163D01*
X651747Y284061D01*
X651548Y283964D01*
X651347Y283872D01*
X651144Y283785D01*
X650939Y283703D01*
X650732Y283626D01*
X650523Y283554D01*
X650313Y283488D01*
X650100Y283426D01*
X649887Y283370D01*
X649672Y283319D01*
X649456Y283273D01*
X649239Y283233D01*
X649021Y283197D01*
X648802Y283168D01*
X648582Y283143D01*
X648362Y283124D01*
X648142Y283111D01*
X647921Y283103D01*
X647700Y283100D01*
X647479Y283103D01*
X647258Y283111D01*
X647038Y283124D01*
X646818Y283143D01*
X646598Y283168D01*
X646379Y283197D01*
X646161Y283233D01*
X645944Y283273D01*
X645728Y283319D01*
X645513Y283370D01*
X645300Y283426D01*
X645087Y283488D01*
X644877Y283554D01*
X644668Y283626D01*
X644461Y283703D01*
X644256Y283785D01*
X644053Y283872D01*
X643852Y283964D01*
X643653Y284061D01*
X643457Y284163D01*
X643264Y284269D01*
X643073Y284380D01*
X642885Y284496D01*
X642700Y284617D01*
X642518Y284742D01*
X642339Y284871D01*
X642163Y285005D01*
X641990Y285143D01*
X641821Y285285D01*
X641656Y285431D01*
X641494Y285582D01*
X641336Y285736D01*
X641182Y285894D01*
X641031Y286056D01*
X640885Y286221D01*
X640743Y286390D01*
X640605Y286563D01*
X640471Y286739D01*
X640342Y286918D01*
X640217Y287100D01*
X640096Y287285D01*
X639980Y287473D01*
X639869Y287664D01*
X639763Y287857D01*
X639661Y288053D01*
X639564Y288252D01*
X639472Y288453D01*
X639385Y288656D01*
X639303Y288861D01*
X639226Y289068D01*
X639154Y289277D01*
X639088Y289487D01*
X639026Y289700D01*
X638970Y289913D01*
X638919Y290128D01*
X638873Y290344D01*
X638833Y290561D01*
X638797Y290779D01*
X638768Y290998D01*
X638743Y291218D01*
X638724Y291438D01*
X638711Y291658D01*
X638703Y291879D01*
X638700Y292100D01*
X10160Y111760D02*
X10163Y112009D01*
X10172Y112259D01*
X10188Y112507D01*
X10209Y112756D01*
X10236Y113004D01*
X10270Y113251D01*
X10310Y113497D01*
X10355Y113742D01*
X10407Y113986D01*
X10464Y114229D01*
X10528Y114470D01*
X10597Y114709D01*
X10673Y114947D01*
X10754Y115183D01*
X10841Y115417D01*
X10933Y115648D01*
X11032Y115877D01*
X11135Y116104D01*
X11245Y116328D01*
X11360Y116549D01*
X11480Y116768D01*
X11605Y116983D01*
X11736Y117196D01*
X11872Y117405D01*
X12013Y117610D01*
X12159Y117812D01*
X12310Y118011D01*
X12466Y118205D01*
X12627Y118396D01*
X12792Y118583D01*
X12962Y118766D01*
X13136Y118944D01*
X13314Y119118D01*
X13497Y119288D01*
X13684Y119453D01*
X13875Y119614D01*
X14069Y119770D01*
X14268Y119921D01*
X14470Y120067D01*
X14675Y120208D01*
X14884Y120344D01*
X15097Y120475D01*
X15312Y120600D01*
X15531Y120720D01*
X15752Y120835D01*
X15976Y120945D01*
X16203Y121048D01*
X16432Y121147D01*
X16663Y121239D01*
X16897Y121326D01*
X17133Y121407D01*
X17371Y121483D01*
X17610Y121552D01*
X17851Y121616D01*
X18094Y121673D01*
X18338Y121725D01*
X18583Y121770D01*
X18829Y121810D01*
X19076Y121844D01*
X19324Y121871D01*
X19573Y121892D01*
X19821Y121908D01*
X20071Y121917D01*
X20320Y121920D01*
X20569Y121917D01*
X20819Y121908D01*
X21067Y121892D01*
X21316Y121871D01*
X21564Y121844D01*
X21811Y121810D01*
X22057Y121770D01*
X22302Y121725D01*
X22546Y121673D01*
X22789Y121616D01*
X23030Y121552D01*
X23269Y121483D01*
X23507Y121407D01*
X23743Y121326D01*
X23977Y121239D01*
X24208Y121147D01*
X24437Y121048D01*
X24664Y120945D01*
X24888Y120835D01*
X25109Y120720D01*
X25328Y120600D01*
X25543Y120475D01*
X25756Y120344D01*
X25965Y120208D01*
X26170Y120067D01*
X26372Y119921D01*
X26571Y119770D01*
X26765Y119614D01*
X26956Y119453D01*
X27143Y119288D01*
X27326Y119118D01*
X27504Y118944D01*
X27678Y118766D01*
X27848Y118583D01*
X28013Y118396D01*
X28174Y118205D01*
X28330Y118011D01*
X28481Y117812D01*
X28627Y117610D01*
X28768Y117405D01*
X28904Y117196D01*
X29035Y116983D01*
X29160Y116768D01*
X29280Y116549D01*
X29395Y116328D01*
X29505Y116104D01*
X29608Y115877D01*
X29707Y115648D01*
X29799Y115417D01*
X29886Y115183D01*
X29967Y114947D01*
X30043Y114709D01*
X30112Y114470D01*
X30176Y114229D01*
X30233Y113986D01*
X30285Y113742D01*
X30330Y113497D01*
X30370Y113251D01*
X30404Y113004D01*
X30431Y112756D01*
X30452Y112507D01*
X30468Y112259D01*
X30477Y112009D01*
X30480Y111760D01*
X30477Y111511D01*
X30468Y111261D01*
X30452Y111013D01*
X30431Y110764D01*
X30404Y110516D01*
X30370Y110269D01*
X30330Y110023D01*
X30285Y109778D01*
X30233Y109534D01*
X30176Y109291D01*
X30112Y109050D01*
X30043Y108811D01*
X29967Y108573D01*
X29886Y108337D01*
X29799Y108103D01*
X29707Y107872D01*
X29608Y107643D01*
X29505Y107416D01*
X29395Y107192D01*
X29280Y106971D01*
X29160Y106752D01*
X29035Y106537D01*
X28904Y106324D01*
X28768Y106115D01*
X28627Y105910D01*
X28481Y105708D01*
X28330Y105509D01*
X28174Y105315D01*
X28013Y105124D01*
X27848Y104937D01*
X27678Y104754D01*
X27504Y104576D01*
X27326Y104402D01*
X27143Y104232D01*
X26956Y104067D01*
X26765Y103906D01*
X26571Y103750D01*
X26372Y103599D01*
X26170Y103453D01*
X25965Y103312D01*
X25756Y103176D01*
X25543Y103045D01*
X25328Y102920D01*
X25109Y102800D01*
X24888Y102685D01*
X24664Y102575D01*
X24437Y102472D01*
X24208Y102373D01*
X23977Y102281D01*
X23743Y102194D01*
X23507Y102113D01*
X23269Y102037D01*
X23030Y101968D01*
X22789Y101904D01*
X22546Y101847D01*
X22302Y101795D01*
X22057Y101750D01*
X21811Y101710D01*
X21564Y101676D01*
X21316Y101649D01*
X21067Y101628D01*
X20819Y101612D01*
X20569Y101603D01*
X20320Y101600D01*
X20071Y101603D01*
X19821Y101612D01*
X19573Y101628D01*
X19324Y101649D01*
X19076Y101676D01*
X18829Y101710D01*
X18583Y101750D01*
X18338Y101795D01*
X18094Y101847D01*
X17851Y101904D01*
X17610Y101968D01*
X17371Y102037D01*
X17133Y102113D01*
X16897Y102194D01*
X16663Y102281D01*
X16432Y102373D01*
X16203Y102472D01*
X15976Y102575D01*
X15752Y102685D01*
X15531Y102800D01*
X15312Y102920D01*
X15097Y103045D01*
X14884Y103176D01*
X14675Y103312D01*
X14470Y103453D01*
X14268Y103599D01*
X14069Y103750D01*
X13875Y103906D01*
X13684Y104067D01*
X13497Y104232D01*
X13314Y104402D01*
X13136Y104576D01*
X12962Y104754D01*
X12792Y104937D01*
X12627Y105124D01*
X12466Y105315D01*
X12310Y105509D01*
X12159Y105708D01*
X12013Y105910D01*
X11872Y106115D01*
X11736Y106324D01*
X11605Y106537D01*
X11480Y106752D01*
X11360Y106971D01*
X11245Y107192D01*
X11135Y107416D01*
X11032Y107643D01*
X10933Y107872D01*
X10841Y108103D01*
X10754Y108337D01*
X10673Y108573D01*
X10597Y108811D01*
X10528Y109050D01*
X10464Y109291D01*
X10407Y109534D01*
X10355Y109778D01*
X10310Y110023D01*
X10270Y110269D01*
X10236Y110516D01*
X10209Y110764D01*
X10188Y111013D01*
X10172Y111261D01*
X10163Y111511D01*
X10160Y111760D01*
X55880Y111760D02*
X55883Y112009D01*
X55892Y112259D01*
X55908Y112507D01*
X55929Y112756D01*
X55956Y113004D01*
X55990Y113251D01*
X56030Y113497D01*
X56075Y113742D01*
X56127Y113986D01*
X56184Y114229D01*
X56248Y114470D01*
X56317Y114709D01*
X56393Y114947D01*
X56474Y115183D01*
X56561Y115417D01*
X56653Y115648D01*
X56752Y115877D01*
X56855Y116104D01*
X56965Y116328D01*
X57080Y116549D01*
X57200Y116768D01*
X57325Y116983D01*
X57456Y117196D01*
X57592Y117405D01*
X57733Y117610D01*
X57879Y117812D01*
X58030Y118011D01*
X58186Y118205D01*
X58347Y118396D01*
X58512Y118583D01*
X58682Y118766D01*
X58856Y118944D01*
X59034Y119118D01*
X59217Y119288D01*
X59404Y119453D01*
X59595Y119614D01*
X59789Y119770D01*
X59988Y119921D01*
X60190Y120067D01*
X60395Y120208D01*
X60604Y120344D01*
X60817Y120475D01*
X61032Y120600D01*
X61251Y120720D01*
X61472Y120835D01*
X61696Y120945D01*
X61923Y121048D01*
X62152Y121147D01*
X62383Y121239D01*
X62617Y121326D01*
X62853Y121407D01*
X63091Y121483D01*
X63330Y121552D01*
X63571Y121616D01*
X63814Y121673D01*
X64058Y121725D01*
X64303Y121770D01*
X64549Y121810D01*
X64796Y121844D01*
X65044Y121871D01*
X65293Y121892D01*
X65541Y121908D01*
X65791Y121917D01*
X66040Y121920D01*
X66289Y121917D01*
X66539Y121908D01*
X66787Y121892D01*
X67036Y121871D01*
X67284Y121844D01*
X67531Y121810D01*
X67777Y121770D01*
X68022Y121725D01*
X68266Y121673D01*
X68509Y121616D01*
X68750Y121552D01*
X68989Y121483D01*
X69227Y121407D01*
X69463Y121326D01*
X69697Y121239D01*
X69928Y121147D01*
X70157Y121048D01*
X70384Y120945D01*
X70608Y120835D01*
X70829Y120720D01*
X71048Y120600D01*
X71263Y120475D01*
X71476Y120344D01*
X71685Y120208D01*
X71890Y120067D01*
X72092Y119921D01*
X72291Y119770D01*
X72485Y119614D01*
X72676Y119453D01*
X72863Y119288D01*
X73046Y119118D01*
X73224Y118944D01*
X73398Y118766D01*
X73568Y118583D01*
X73733Y118396D01*
X73894Y118205D01*
X74050Y118011D01*
X74201Y117812D01*
X74347Y117610D01*
X74488Y117405D01*
X74624Y117196D01*
X74755Y116983D01*
X74880Y116768D01*
X75000Y116549D01*
X75115Y116328D01*
X75225Y116104D01*
X75328Y115877D01*
X75427Y115648D01*
X75519Y115417D01*
X75606Y115183D01*
X75687Y114947D01*
X75763Y114709D01*
X75832Y114470D01*
X75896Y114229D01*
X75953Y113986D01*
X76005Y113742D01*
X76050Y113497D01*
X76090Y113251D01*
X76124Y113004D01*
X76151Y112756D01*
X76172Y112507D01*
X76188Y112259D01*
X76197Y112009D01*
X76200Y111760D01*
X76197Y111511D01*
X76188Y111261D01*
X76172Y111013D01*
X76151Y110764D01*
X76124Y110516D01*
X76090Y110269D01*
X76050Y110023D01*
X76005Y109778D01*
X75953Y109534D01*
X75896Y109291D01*
X75832Y109050D01*
X75763Y108811D01*
X75687Y108573D01*
X75606Y108337D01*
X75519Y108103D01*
X75427Y107872D01*
X75328Y107643D01*
X75225Y107416D01*
X75115Y107192D01*
X75000Y106971D01*
X74880Y106752D01*
X74755Y106537D01*
X74624Y106324D01*
X74488Y106115D01*
X74347Y105910D01*
X74201Y105708D01*
X74050Y105509D01*
X73894Y105315D01*
X73733Y105124D01*
X73568Y104937D01*
X73398Y104754D01*
X73224Y104576D01*
X73046Y104402D01*
X72863Y104232D01*
X72676Y104067D01*
X72485Y103906D01*
X72291Y103750D01*
X72092Y103599D01*
X71890Y103453D01*
X71685Y103312D01*
X71476Y103176D01*
X71263Y103045D01*
X71048Y102920D01*
X70829Y102800D01*
X70608Y102685D01*
X70384Y102575D01*
X70157Y102472D01*
X69928Y102373D01*
X69697Y102281D01*
X69463Y102194D01*
X69227Y102113D01*
X68989Y102037D01*
X68750Y101968D01*
X68509Y101904D01*
X68266Y101847D01*
X68022Y101795D01*
X67777Y101750D01*
X67531Y101710D01*
X67284Y101676D01*
X67036Y101649D01*
X66787Y101628D01*
X66539Y101612D01*
X66289Y101603D01*
X66040Y101600D01*
X65791Y101603D01*
X65541Y101612D01*
X65293Y101628D01*
X65044Y101649D01*
X64796Y101676D01*
X64549Y101710D01*
X64303Y101750D01*
X64058Y101795D01*
X63814Y101847D01*
X63571Y101904D01*
X63330Y101968D01*
X63091Y102037D01*
X62853Y102113D01*
X62617Y102194D01*
X62383Y102281D01*
X62152Y102373D01*
X61923Y102472D01*
X61696Y102575D01*
X61472Y102685D01*
X61251Y102800D01*
X61032Y102920D01*
X60817Y103045D01*
X60604Y103176D01*
X60395Y103312D01*
X60190Y103453D01*
X59988Y103599D01*
X59789Y103750D01*
X59595Y103906D01*
X59404Y104067D01*
X59217Y104232D01*
X59034Y104402D01*
X58856Y104576D01*
X58682Y104754D01*
X58512Y104937D01*
X58347Y105124D01*
X58186Y105315D01*
X58030Y105509D01*
X57879Y105708D01*
X57733Y105910D01*
X57592Y106115D01*
X57456Y106324D01*
X57325Y106537D01*
X57200Y106752D01*
X57080Y106971D01*
X56965Y107192D01*
X56855Y107416D01*
X56752Y107643D01*
X56653Y107872D01*
X56561Y108103D01*
X56474Y108337D01*
X56393Y108573D01*
X56317Y108811D01*
X56248Y109050D01*
X56184Y109291D01*
X56127Y109534D01*
X56075Y109778D01*
X56030Y110023D01*
X55990Y110269D01*
X55956Y110516D01*
X55929Y110764D01*
X55908Y111013D01*
X55892Y111261D01*
X55883Y111511D01*
X55880Y111760D01*
X45800Y448000D02*
X45802Y448113D01*
X45808Y448227D01*
X45818Y448340D01*
X45832Y448452D01*
X45849Y448564D01*
X45871Y448676D01*
X45897Y448786D01*
X45926Y448896D01*
X45959Y449004D01*
X45996Y449112D01*
X46037Y449217D01*
X46081Y449322D01*
X46129Y449425D01*
X46180Y449526D01*
X46235Y449625D01*
X46294Y449722D01*
X46356Y449817D01*
X46421Y449910D01*
X46489Y450001D01*
X46560Y450089D01*
X46635Y450175D01*
X46712Y450258D01*
X46792Y450338D01*
X46875Y450415D01*
X46961Y450490D01*
X47049Y450561D01*
X47140Y450629D01*
X47233Y450694D01*
X47328Y450756D01*
X47425Y450815D01*
X47524Y450870D01*
X47625Y450921D01*
X47728Y450969D01*
X47833Y451013D01*
X47938Y451054D01*
X48046Y451091D01*
X48154Y451124D01*
X48264Y451153D01*
X48374Y451179D01*
X48486Y451201D01*
X48598Y451218D01*
X48710Y451232D01*
X48823Y451242D01*
X48937Y451248D01*
X49050Y451250D01*
X49163Y451248D01*
X49277Y451242D01*
X49390Y451232D01*
X49502Y451218D01*
X49614Y451201D01*
X49726Y451179D01*
X49836Y451153D01*
X49946Y451124D01*
X50054Y451091D01*
X50162Y451054D01*
X50267Y451013D01*
X50372Y450969D01*
X50475Y450921D01*
X50576Y450870D01*
X50675Y450815D01*
X50772Y450756D01*
X50867Y450694D01*
X50960Y450629D01*
X51051Y450561D01*
X51139Y450490D01*
X51225Y450415D01*
X51308Y450338D01*
X51388Y450258D01*
X51465Y450175D01*
X51540Y450089D01*
X51611Y450001D01*
X51679Y449910D01*
X51744Y449817D01*
X51806Y449722D01*
X51865Y449625D01*
X51920Y449526D01*
X51971Y449425D01*
X52019Y449322D01*
X52063Y449217D01*
X52104Y449112D01*
X52141Y449004D01*
X52174Y448896D01*
X52203Y448786D01*
X52229Y448676D01*
X52251Y448564D01*
X52268Y448452D01*
X52282Y448340D01*
X52292Y448227D01*
X52298Y448113D01*
X52300Y448000D01*
X52298Y447887D01*
X52292Y447773D01*
X52282Y447660D01*
X52268Y447548D01*
X52251Y447436D01*
X52229Y447324D01*
X52203Y447214D01*
X52174Y447104D01*
X52141Y446996D01*
X52104Y446888D01*
X52063Y446783D01*
X52019Y446678D01*
X51971Y446575D01*
X51920Y446474D01*
X51865Y446375D01*
X51806Y446278D01*
X51744Y446183D01*
X51679Y446090D01*
X51611Y445999D01*
X51540Y445911D01*
X51465Y445825D01*
X51388Y445742D01*
X51308Y445662D01*
X51225Y445585D01*
X51139Y445510D01*
X51051Y445439D01*
X50960Y445371D01*
X50867Y445306D01*
X50772Y445244D01*
X50675Y445185D01*
X50576Y445130D01*
X50475Y445079D01*
X50372Y445031D01*
X50267Y444987D01*
X50162Y444946D01*
X50054Y444909D01*
X49946Y444876D01*
X49836Y444847D01*
X49726Y444821D01*
X49614Y444799D01*
X49502Y444782D01*
X49390Y444768D01*
X49277Y444758D01*
X49163Y444752D01*
X49050Y444750D01*
X48937Y444752D01*
X48823Y444758D01*
X48710Y444768D01*
X48598Y444782D01*
X48486Y444799D01*
X48374Y444821D01*
X48264Y444847D01*
X48154Y444876D01*
X48046Y444909D01*
X47938Y444946D01*
X47833Y444987D01*
X47728Y445031D01*
X47625Y445079D01*
X47524Y445130D01*
X47425Y445185D01*
X47328Y445244D01*
X47233Y445306D01*
X47140Y445371D01*
X47049Y445439D01*
X46961Y445510D01*
X46875Y445585D01*
X46792Y445662D01*
X46712Y445742D01*
X46635Y445825D01*
X46560Y445911D01*
X46489Y445999D01*
X46421Y446090D01*
X46356Y446183D01*
X46294Y446278D01*
X46235Y446375D01*
X46180Y446474D01*
X46129Y446575D01*
X46081Y446678D01*
X46037Y446783D01*
X45996Y446888D01*
X45959Y446996D01*
X45926Y447104D01*
X45897Y447214D01*
X45871Y447324D01*
X45849Y447436D01*
X45832Y447548D01*
X45818Y447660D01*
X45808Y447773D01*
X45802Y447887D01*
X45800Y448000D01*
X45800Y390200D02*
X45802Y390313D01*
X45808Y390427D01*
X45818Y390540D01*
X45832Y390652D01*
X45849Y390764D01*
X45871Y390876D01*
X45897Y390986D01*
X45926Y391096D01*
X45959Y391204D01*
X45996Y391312D01*
X46037Y391417D01*
X46081Y391522D01*
X46129Y391625D01*
X46180Y391726D01*
X46235Y391825D01*
X46294Y391922D01*
X46356Y392017D01*
X46421Y392110D01*
X46489Y392201D01*
X46560Y392289D01*
X46635Y392375D01*
X46712Y392458D01*
X46792Y392538D01*
X46875Y392615D01*
X46961Y392690D01*
X47049Y392761D01*
X47140Y392829D01*
X47233Y392894D01*
X47328Y392956D01*
X47425Y393015D01*
X47524Y393070D01*
X47625Y393121D01*
X47728Y393169D01*
X47833Y393213D01*
X47938Y393254D01*
X48046Y393291D01*
X48154Y393324D01*
X48264Y393353D01*
X48374Y393379D01*
X48486Y393401D01*
X48598Y393418D01*
X48710Y393432D01*
X48823Y393442D01*
X48937Y393448D01*
X49050Y393450D01*
X49163Y393448D01*
X49277Y393442D01*
X49390Y393432D01*
X49502Y393418D01*
X49614Y393401D01*
X49726Y393379D01*
X49836Y393353D01*
X49946Y393324D01*
X50054Y393291D01*
X50162Y393254D01*
X50267Y393213D01*
X50372Y393169D01*
X50475Y393121D01*
X50576Y393070D01*
X50675Y393015D01*
X50772Y392956D01*
X50867Y392894D01*
X50960Y392829D01*
X51051Y392761D01*
X51139Y392690D01*
X51225Y392615D01*
X51308Y392538D01*
X51388Y392458D01*
X51465Y392375D01*
X51540Y392289D01*
X51611Y392201D01*
X51679Y392110D01*
X51744Y392017D01*
X51806Y391922D01*
X51865Y391825D01*
X51920Y391726D01*
X51971Y391625D01*
X52019Y391522D01*
X52063Y391417D01*
X52104Y391312D01*
X52141Y391204D01*
X52174Y391096D01*
X52203Y390986D01*
X52229Y390876D01*
X52251Y390764D01*
X52268Y390652D01*
X52282Y390540D01*
X52292Y390427D01*
X52298Y390313D01*
X52300Y390200D01*
X52298Y390087D01*
X52292Y389973D01*
X52282Y389860D01*
X52268Y389748D01*
X52251Y389636D01*
X52229Y389524D01*
X52203Y389414D01*
X52174Y389304D01*
X52141Y389196D01*
X52104Y389088D01*
X52063Y388983D01*
X52019Y388878D01*
X51971Y388775D01*
X51920Y388674D01*
X51865Y388575D01*
X51806Y388478D01*
X51744Y388383D01*
X51679Y388290D01*
X51611Y388199D01*
X51540Y388111D01*
X51465Y388025D01*
X51388Y387942D01*
X51308Y387862D01*
X51225Y387785D01*
X51139Y387710D01*
X51051Y387639D01*
X50960Y387571D01*
X50867Y387506D01*
X50772Y387444D01*
X50675Y387385D01*
X50576Y387330D01*
X50475Y387279D01*
X50372Y387231D01*
X50267Y387187D01*
X50162Y387146D01*
X50054Y387109D01*
X49946Y387076D01*
X49836Y387047D01*
X49726Y387021D01*
X49614Y386999D01*
X49502Y386982D01*
X49390Y386968D01*
X49277Y386958D01*
X49163Y386952D01*
X49050Y386950D01*
X48937Y386952D01*
X48823Y386958D01*
X48710Y386968D01*
X48598Y386982D01*
X48486Y386999D01*
X48374Y387021D01*
X48264Y387047D01*
X48154Y387076D01*
X48046Y387109D01*
X47938Y387146D01*
X47833Y387187D01*
X47728Y387231D01*
X47625Y387279D01*
X47524Y387330D01*
X47425Y387385D01*
X47328Y387444D01*
X47233Y387506D01*
X47140Y387571D01*
X47049Y387639D01*
X46961Y387710D01*
X46875Y387785D01*
X46792Y387862D01*
X46712Y387942D01*
X46635Y388025D01*
X46560Y388111D01*
X46489Y388199D01*
X46421Y388290D01*
X46356Y388383D01*
X46294Y388478D01*
X46235Y388575D01*
X46180Y388674D01*
X46129Y388775D01*
X46081Y388878D01*
X46037Y388983D01*
X45996Y389088D01*
X45959Y389196D01*
X45926Y389304D01*
X45897Y389414D01*
X45871Y389524D01*
X45849Y389636D01*
X45832Y389748D01*
X45818Y389860D01*
X45808Y389973D01*
X45802Y390087D01*
X45800Y390200D01*
D12*
X48850Y462280D02*
X59850Y462280D01*
X59850Y375920D02*
X48850Y375920D01*
X15700Y462280D02*
X9500Y462280D01*
X9500Y375920D02*
X15700Y375920D01*
D11*
X290150Y177800D02*
X290152Y177930D01*
X290158Y178060D01*
X290168Y178190D01*
X290182Y178320D01*
X290200Y178449D01*
X290222Y178577D01*
X290247Y178705D01*
X290277Y178832D01*
X290311Y178958D01*
X290348Y179082D01*
X290389Y179206D01*
X290434Y179328D01*
X290483Y179449D01*
X290535Y179568D01*
X290591Y179686D01*
X290651Y179802D01*
X290714Y179916D01*
X290781Y180028D01*
X290851Y180137D01*
X290924Y180245D01*
X291000Y180350D01*
X291080Y180453D01*
X291163Y180554D01*
X291249Y180652D01*
X291338Y180747D01*
X291430Y180840D01*
X291524Y180929D01*
X291621Y181016D01*
X291721Y181099D01*
X291824Y181180D01*
X291928Y181257D01*
X292035Y181331D01*
X292145Y181402D01*
X292256Y181470D01*
X292370Y181534D01*
X292485Y181594D01*
X292602Y181651D01*
X292721Y181704D01*
X292842Y181754D01*
X292963Y181800D01*
X293087Y181842D01*
X293211Y181880D01*
X293337Y181915D01*
X293463Y181946D01*
X293591Y181972D01*
X293719Y181995D01*
X293848Y182014D01*
X293977Y182029D01*
X294107Y182040D01*
X294237Y182047D01*
X294367Y182050D01*
X294498Y182049D01*
X294628Y182044D01*
X294758Y182035D01*
X294887Y182022D01*
X295017Y182005D01*
X295145Y181984D01*
X295273Y181959D01*
X295400Y181931D01*
X295526Y181898D01*
X295651Y181862D01*
X295775Y181821D01*
X295898Y181777D01*
X296019Y181730D01*
X296139Y181678D01*
X296257Y181623D01*
X296373Y181564D01*
X296487Y181502D01*
X296600Y181436D01*
X296710Y181367D01*
X296818Y181295D01*
X296924Y181219D01*
X297028Y181140D01*
X297129Y181058D01*
X297228Y180973D01*
X297324Y180885D01*
X297417Y180794D01*
X297507Y180700D01*
X297594Y180603D01*
X297679Y180504D01*
X297760Y180402D01*
X297838Y180298D01*
X297913Y180192D01*
X297985Y180083D01*
X298053Y179972D01*
X298118Y179859D01*
X298179Y179744D01*
X298237Y179627D01*
X298291Y179509D01*
X298342Y179389D01*
X298389Y179267D01*
X298432Y179144D01*
X298471Y179020D01*
X298507Y178895D01*
X298538Y178768D01*
X298566Y178641D01*
X298590Y178513D01*
X298610Y178384D01*
X298626Y178255D01*
X298638Y178125D01*
X298646Y177995D01*
X298650Y177865D01*
X298650Y177735D01*
X298646Y177605D01*
X298638Y177475D01*
X298626Y177345D01*
X298610Y177216D01*
X298590Y177087D01*
X298566Y176959D01*
X298538Y176832D01*
X298507Y176705D01*
X298471Y176580D01*
X298432Y176456D01*
X298389Y176333D01*
X298342Y176211D01*
X298291Y176091D01*
X298237Y175973D01*
X298179Y175856D01*
X298118Y175741D01*
X298053Y175628D01*
X297985Y175517D01*
X297913Y175408D01*
X297838Y175302D01*
X297760Y175198D01*
X297679Y175096D01*
X297594Y174997D01*
X297507Y174900D01*
X297417Y174806D01*
X297324Y174715D01*
X297228Y174627D01*
X297129Y174542D01*
X297028Y174460D01*
X296924Y174381D01*
X296818Y174305D01*
X296710Y174233D01*
X296600Y174164D01*
X296487Y174098D01*
X296373Y174036D01*
X296257Y173977D01*
X296139Y173922D01*
X296019Y173870D01*
X295898Y173823D01*
X295775Y173779D01*
X295651Y173738D01*
X295526Y173702D01*
X295400Y173669D01*
X295273Y173641D01*
X295145Y173616D01*
X295017Y173595D01*
X294887Y173578D01*
X294758Y173565D01*
X294628Y173556D01*
X294498Y173551D01*
X294367Y173550D01*
X294237Y173553D01*
X294107Y173560D01*
X293977Y173571D01*
X293848Y173586D01*
X293719Y173605D01*
X293591Y173628D01*
X293463Y173654D01*
X293337Y173685D01*
X293211Y173720D01*
X293087Y173758D01*
X292963Y173800D01*
X292842Y173846D01*
X292721Y173896D01*
X292602Y173949D01*
X292485Y174006D01*
X292370Y174066D01*
X292256Y174130D01*
X292145Y174198D01*
X292035Y174269D01*
X291928Y174343D01*
X291824Y174420D01*
X291721Y174501D01*
X291621Y174584D01*
X291524Y174671D01*
X291430Y174760D01*
X291338Y174853D01*
X291249Y174948D01*
X291163Y175046D01*
X291080Y175147D01*
X291000Y175250D01*
X290924Y175355D01*
X290851Y175463D01*
X290781Y175572D01*
X290714Y175684D01*
X290651Y175798D01*
X290591Y175914D01*
X290535Y176032D01*
X290483Y176151D01*
X290434Y176272D01*
X290389Y176394D01*
X290348Y176518D01*
X290311Y176642D01*
X290277Y176768D01*
X290247Y176895D01*
X290222Y177023D01*
X290200Y177151D01*
X290182Y177280D01*
X290168Y177410D01*
X290158Y177540D01*
X290152Y177670D01*
X290150Y177800D01*
X260150Y177800D02*
X260152Y177930D01*
X260158Y178060D01*
X260168Y178190D01*
X260182Y178320D01*
X260200Y178449D01*
X260222Y178577D01*
X260247Y178705D01*
X260277Y178832D01*
X260311Y178958D01*
X260348Y179082D01*
X260389Y179206D01*
X260434Y179328D01*
X260483Y179449D01*
X260535Y179568D01*
X260591Y179686D01*
X260651Y179802D01*
X260714Y179916D01*
X260781Y180028D01*
X260851Y180137D01*
X260924Y180245D01*
X261000Y180350D01*
X261080Y180453D01*
X261163Y180554D01*
X261249Y180652D01*
X261338Y180747D01*
X261430Y180840D01*
X261524Y180929D01*
X261621Y181016D01*
X261721Y181099D01*
X261824Y181180D01*
X261928Y181257D01*
X262035Y181331D01*
X262145Y181402D01*
X262256Y181470D01*
X262370Y181534D01*
X262485Y181594D01*
X262602Y181651D01*
X262721Y181704D01*
X262842Y181754D01*
X262963Y181800D01*
X263087Y181842D01*
X263211Y181880D01*
X263337Y181915D01*
X263463Y181946D01*
X263591Y181972D01*
X263719Y181995D01*
X263848Y182014D01*
X263977Y182029D01*
X264107Y182040D01*
X264237Y182047D01*
X264367Y182050D01*
X264498Y182049D01*
X264628Y182044D01*
X264758Y182035D01*
X264887Y182022D01*
X265017Y182005D01*
X265145Y181984D01*
X265273Y181959D01*
X265400Y181931D01*
X265526Y181898D01*
X265651Y181862D01*
X265775Y181821D01*
X265898Y181777D01*
X266019Y181730D01*
X266139Y181678D01*
X266257Y181623D01*
X266373Y181564D01*
X266487Y181502D01*
X266600Y181436D01*
X266710Y181367D01*
X266818Y181295D01*
X266924Y181219D01*
X267028Y181140D01*
X267129Y181058D01*
X267228Y180973D01*
X267324Y180885D01*
X267417Y180794D01*
X267507Y180700D01*
X267594Y180603D01*
X267679Y180504D01*
X267760Y180402D01*
X267838Y180298D01*
X267913Y180192D01*
X267985Y180083D01*
X268053Y179972D01*
X268118Y179859D01*
X268179Y179744D01*
X268237Y179627D01*
X268291Y179509D01*
X268342Y179389D01*
X268389Y179267D01*
X268432Y179144D01*
X268471Y179020D01*
X268507Y178895D01*
X268538Y178768D01*
X268566Y178641D01*
X268590Y178513D01*
X268610Y178384D01*
X268626Y178255D01*
X268638Y178125D01*
X268646Y177995D01*
X268650Y177865D01*
X268650Y177735D01*
X268646Y177605D01*
X268638Y177475D01*
X268626Y177345D01*
X268610Y177216D01*
X268590Y177087D01*
X268566Y176959D01*
X268538Y176832D01*
X268507Y176705D01*
X268471Y176580D01*
X268432Y176456D01*
X268389Y176333D01*
X268342Y176211D01*
X268291Y176091D01*
X268237Y175973D01*
X268179Y175856D01*
X268118Y175741D01*
X268053Y175628D01*
X267985Y175517D01*
X267913Y175408D01*
X267838Y175302D01*
X267760Y175198D01*
X267679Y175096D01*
X267594Y174997D01*
X267507Y174900D01*
X267417Y174806D01*
X267324Y174715D01*
X267228Y174627D01*
X267129Y174542D01*
X267028Y174460D01*
X266924Y174381D01*
X266818Y174305D01*
X266710Y174233D01*
X266600Y174164D01*
X266487Y174098D01*
X266373Y174036D01*
X266257Y173977D01*
X266139Y173922D01*
X266019Y173870D01*
X265898Y173823D01*
X265775Y173779D01*
X265651Y173738D01*
X265526Y173702D01*
X265400Y173669D01*
X265273Y173641D01*
X265145Y173616D01*
X265017Y173595D01*
X264887Y173578D01*
X264758Y173565D01*
X264628Y173556D01*
X264498Y173551D01*
X264367Y173550D01*
X264237Y173553D01*
X264107Y173560D01*
X263977Y173571D01*
X263848Y173586D01*
X263719Y173605D01*
X263591Y173628D01*
X263463Y173654D01*
X263337Y173685D01*
X263211Y173720D01*
X263087Y173758D01*
X262963Y173800D01*
X262842Y173846D01*
X262721Y173896D01*
X262602Y173949D01*
X262485Y174006D01*
X262370Y174066D01*
X262256Y174130D01*
X262145Y174198D01*
X262035Y174269D01*
X261928Y174343D01*
X261824Y174420D01*
X261721Y174501D01*
X261621Y174584D01*
X261524Y174671D01*
X261430Y174760D01*
X261338Y174853D01*
X261249Y174948D01*
X261163Y175046D01*
X261080Y175147D01*
X261000Y175250D01*
X260924Y175355D01*
X260851Y175463D01*
X260781Y175572D01*
X260714Y175684D01*
X260651Y175798D01*
X260591Y175914D01*
X260535Y176032D01*
X260483Y176151D01*
X260434Y176272D01*
X260389Y176394D01*
X260348Y176518D01*
X260311Y176642D01*
X260277Y176768D01*
X260247Y176895D01*
X260222Y177023D01*
X260200Y177151D01*
X260182Y177280D01*
X260168Y177410D01*
X260158Y177540D01*
X260152Y177670D01*
X260150Y177800D01*
D13*
X0Y0D02*
X660400Y0D01*
X660400Y50800D01*
X685800Y76200D01*
X685800Y403860D01*
X660400Y429260D01*
X660400Y568960D01*
X645160Y584200D01*
X0Y584200D01*
X0Y0D01*
X154940Y50256D02*
X154862Y49170D01*
X154707Y48092D01*
X154476Y47029D01*
X154169Y45984D01*
X153789Y44964D01*
X153337Y43974D01*
X152815Y43019D01*
X152226Y42103D01*
X151574Y41231D01*
X150861Y40409D01*
X150091Y39639D01*
X149269Y38926D01*
X148397Y38274D01*
X147481Y37685D01*
X146526Y37163D01*
X145536Y36711D01*
X144516Y36331D01*
X143471Y36024D01*
X142408Y35793D01*
X141330Y35638D01*
X140244Y35560D01*
X139156Y35560D01*
X138070Y35638D01*
X136992Y35793D01*
X135929Y36024D01*
X134884Y36331D01*
X133864Y36711D01*
X132874Y37163D01*
X131919Y37685D01*
X131003Y38274D01*
X130131Y38926D01*
X129309Y39639D01*
X128539Y40409D01*
X127826Y41231D01*
X127174Y42103D01*
X126585Y43019D01*
X126063Y43974D01*
X125611Y44964D01*
X125231Y45984D01*
X124924Y47029D01*
X124693Y48092D01*
X124538Y49170D01*
X124460Y50256D01*
X124460Y51344D01*
X124538Y52430D01*
X124693Y53508D01*
X124924Y54571D01*
X125231Y55616D01*
X125611Y56636D01*
X126063Y57626D01*
X126585Y58581D01*
X127174Y59497D01*
X127826Y60369D01*
X128539Y61191D01*
X129309Y61961D01*
X130131Y62674D01*
X131003Y63326D01*
X131919Y63915D01*
X132874Y64437D01*
X133864Y64889D01*
X134884Y65269D01*
X135929Y65576D01*
X136992Y65807D01*
X138070Y65962D01*
X139156Y66040D01*
X140244Y66040D01*
X141330Y65962D01*
X142408Y65807D01*
X143471Y65576D01*
X144516Y65269D01*
X145536Y64889D01*
X146526Y64437D01*
X147481Y63915D01*
X148397Y63326D01*
X149269Y62674D01*
X150091Y61961D01*
X150861Y61191D01*
X151574Y60369D01*
X152226Y59497D01*
X152815Y58581D01*
X153337Y57626D01*
X153789Y56636D01*
X154169Y55616D01*
X154476Y54571D01*
X154707Y53508D01*
X154862Y52430D01*
X154940Y51344D01*
X154940Y50256D01*
X675640Y101056D02*
X675562Y99970D01*
X675407Y98892D01*
X675176Y97829D01*
X674869Y96784D01*
X674489Y95764D01*
X674037Y94774D01*
X673515Y93819D01*
X672926Y92903D01*
X672274Y92031D01*
X671561Y91209D01*
X670791Y90439D01*
X669969Y89726D01*
X669097Y89074D01*
X668181Y88485D01*
X667226Y87963D01*
X666236Y87511D01*
X665216Y87131D01*
X664171Y86824D01*
X663108Y86593D01*
X662030Y86438D01*
X660944Y86360D01*
X659856Y86360D01*
X658770Y86438D01*
X657692Y86593D01*
X656629Y86824D01*
X655584Y87131D01*
X654564Y87511D01*
X653574Y87963D01*
X652619Y88485D01*
X651703Y89074D01*
X650831Y89726D01*
X650009Y90439D01*
X649239Y91209D01*
X648526Y92031D01*
X647874Y92903D01*
X647285Y93819D01*
X646763Y94774D01*
X646311Y95764D01*
X645931Y96784D01*
X645624Y97829D01*
X645393Y98892D01*
X645238Y99970D01*
X645160Y101056D01*
X645160Y102144D01*
X645238Y103230D01*
X645393Y104308D01*
X645624Y105371D01*
X645931Y106416D01*
X646311Y107436D01*
X646763Y108426D01*
X647285Y109381D01*
X647874Y110297D01*
X648526Y111169D01*
X649239Y111991D01*
X650009Y112761D01*
X650831Y113474D01*
X651703Y114126D01*
X652619Y114715D01*
X653574Y115237D01*
X654564Y115689D01*
X655584Y116069D01*
X656629Y116376D01*
X657692Y116607D01*
X658770Y116762D01*
X659856Y116840D01*
X660944Y116840D01*
X662030Y116762D01*
X663108Y116607D01*
X664171Y116376D01*
X665216Y116069D01*
X666236Y115689D01*
X667226Y115237D01*
X668181Y114715D01*
X669097Y114126D01*
X669969Y113474D01*
X670791Y112761D01*
X671561Y111991D01*
X672274Y111169D01*
X672926Y110297D01*
X673515Y109381D01*
X674037Y108426D01*
X674489Y107436D01*
X674869Y106416D01*
X675176Y105371D01*
X675407Y104308D01*
X675562Y103230D01*
X675640Y102144D01*
X675640Y101056D01*
X675640Y380456D02*
X675562Y379370D01*
X675407Y378292D01*
X675176Y377229D01*
X674869Y376184D01*
X674489Y375164D01*
X674037Y374174D01*
X673515Y373219D01*
X672926Y372303D01*
X672274Y371431D01*
X671561Y370609D01*
X670791Y369839D01*
X669969Y369126D01*
X669097Y368474D01*
X668181Y367885D01*
X667226Y367363D01*
X666236Y366911D01*
X665216Y366531D01*
X664171Y366224D01*
X663108Y365993D01*
X662030Y365838D01*
X660944Y365760D01*
X659856Y365760D01*
X658770Y365838D01*
X657692Y365993D01*
X656629Y366224D01*
X655584Y366531D01*
X654564Y366911D01*
X653574Y367363D01*
X652619Y367885D01*
X651703Y368474D01*
X650831Y369126D01*
X650009Y369839D01*
X649239Y370609D01*
X648526Y371431D01*
X647874Y372303D01*
X647285Y373219D01*
X646763Y374174D01*
X646311Y375164D01*
X645931Y376184D01*
X645624Y377229D01*
X645393Y378292D01*
X645238Y379370D01*
X645160Y380456D01*
X645160Y381544D01*
X645238Y382630D01*
X645393Y383708D01*
X645624Y384771D01*
X645931Y385816D01*
X646311Y386836D01*
X646763Y387826D01*
X647285Y388781D01*
X647874Y389697D01*
X648526Y390569D01*
X649239Y391391D01*
X650009Y392161D01*
X650831Y392874D01*
X651703Y393526D01*
X652619Y394115D01*
X653574Y394637D01*
X654564Y395089D01*
X655584Y395469D01*
X656629Y395776D01*
X657692Y396007D01*
X658770Y396162D01*
X659856Y396240D01*
X660944Y396240D01*
X662030Y396162D01*
X663108Y396007D01*
X664171Y395776D01*
X665216Y395469D01*
X666236Y395089D01*
X667226Y394637D01*
X668181Y394115D01*
X669097Y393526D01*
X669969Y392874D01*
X670791Y392161D01*
X671561Y391391D01*
X672274Y390569D01*
X672926Y389697D01*
X673515Y388781D01*
X674037Y387826D01*
X674489Y386836D01*
X674869Y385816D01*
X675176Y384771D01*
X675407Y383708D01*
X675562Y382630D01*
X675640Y381544D01*
X675640Y380456D01*
X167640Y532856D02*
X167562Y531770D01*
X167407Y530692D01*
X167176Y529629D01*
X166869Y528584D01*
X166489Y527564D01*
X166037Y526574D01*
X165515Y525619D01*
X164926Y524703D01*
X164274Y523831D01*
X163561Y523009D01*
X162791Y522239D01*
X161969Y521526D01*
X161097Y520874D01*
X160181Y520285D01*
X159226Y519763D01*
X158236Y519311D01*
X157216Y518931D01*
X156171Y518624D01*
X155108Y518393D01*
X154030Y518238D01*
X152944Y518160D01*
X151856Y518160D01*
X150770Y518238D01*
X149692Y518393D01*
X148629Y518624D01*
X147584Y518931D01*
X146564Y519311D01*
X145574Y519763D01*
X144619Y520285D01*
X143703Y520874D01*
X142831Y521526D01*
X142009Y522239D01*
X141239Y523009D01*
X140526Y523831D01*
X139874Y524703D01*
X139285Y525619D01*
X138763Y526574D01*
X138311Y527564D01*
X137931Y528584D01*
X137624Y529629D01*
X137393Y530692D01*
X137238Y531770D01*
X137160Y532856D01*
X137160Y533944D01*
X137238Y535030D01*
X137393Y536108D01*
X137624Y537171D01*
X137931Y538216D01*
X138311Y539236D01*
X138763Y540226D01*
X139285Y541181D01*
X139874Y542097D01*
X140526Y542969D01*
X141239Y543791D01*
X142009Y544561D01*
X142831Y545274D01*
X143703Y545926D01*
X144619Y546515D01*
X145574Y547037D01*
X146564Y547489D01*
X147584Y547869D01*
X148629Y548176D01*
X149692Y548407D01*
X150770Y548562D01*
X151856Y548640D01*
X152944Y548640D01*
X154030Y548562D01*
X155108Y548407D01*
X156171Y548176D01*
X157216Y547869D01*
X158236Y547489D01*
X159226Y547037D01*
X160181Y546515D01*
X161097Y545926D01*
X161969Y545274D01*
X162791Y544561D01*
X163561Y543791D01*
X164274Y542969D01*
X164926Y542097D01*
X165515Y541181D01*
X166037Y540226D01*
X166489Y539236D01*
X166869Y538216D01*
X167176Y537171D01*
X167407Y536108D01*
X167562Y535030D01*
X167640Y533944D01*
X167640Y532856D01*
X647307Y308500D02*
X646524Y308569D01*
X645750Y308705D01*
X644991Y308908D01*
X644253Y309177D01*
X643540Y309509D01*
X642860Y309902D01*
X642216Y310353D01*
X641614Y310858D01*
X641058Y311414D01*
X640553Y312016D01*
X640102Y312660D01*
X639709Y313340D01*
X639377Y314053D01*
X639108Y314791D01*
X638905Y315550D01*
X638769Y316324D01*
X638700Y317107D01*
X638700Y317893D01*
X638769Y318676D01*
X638905Y319450D01*
X639108Y320209D01*
X639377Y320947D01*
X639709Y321660D01*
X640102Y322340D01*
X640553Y322984D01*
X641058Y323586D01*
X641614Y324142D01*
X642216Y324647D01*
X642860Y325098D01*
X643540Y325491D01*
X644253Y325823D01*
X644991Y326092D01*
X645750Y326295D01*
X646524Y326432D01*
X647307Y326500D01*
X648093Y326500D01*
X648876Y326432D01*
X649650Y326295D01*
X650409Y326092D01*
X651147Y325823D01*
X651860Y325491D01*
X652540Y325098D01*
X653184Y324647D01*
X653786Y324142D01*
X654342Y323586D01*
X654847Y322984D01*
X655298Y322340D01*
X655691Y321660D01*
X656023Y320947D01*
X656292Y320209D01*
X656495Y319450D01*
X656632Y318676D01*
X656700Y317893D01*
X656700Y317107D01*
X656632Y316324D01*
X656495Y315550D01*
X656292Y314791D01*
X656023Y314053D01*
X655691Y313340D01*
X655298Y312660D01*
X654847Y312016D01*
X654342Y311414D01*
X653786Y310858D01*
X653184Y310353D01*
X652540Y309902D01*
X651860Y309509D01*
X651147Y309177D01*
X650409Y308908D01*
X649650Y308705D01*
X648876Y308569D01*
X648093Y308500D01*
X647307Y308500D01*
X647307Y283100D02*
X646524Y283169D01*
X645750Y283305D01*
X644991Y283508D01*
X644253Y283777D01*
X643540Y284109D01*
X642860Y284502D01*
X642216Y284953D01*
X641614Y285458D01*
X641058Y286014D01*
X640553Y286616D01*
X640102Y287260D01*
X639709Y287940D01*
X639377Y288653D01*
X639108Y289391D01*
X638905Y290150D01*
X638769Y290924D01*
X638700Y291707D01*
X638700Y292493D01*
X638769Y293276D01*
X638905Y294050D01*
X639108Y294809D01*
X639377Y295547D01*
X639709Y296260D01*
X640102Y296940D01*
X640553Y297584D01*
X641058Y298186D01*
X641614Y298742D01*
X642216Y299247D01*
X642860Y299698D01*
X643540Y300091D01*
X644253Y300423D01*
X644991Y300692D01*
X645750Y300895D01*
X646524Y301032D01*
X647307Y301100D01*
X648093Y301100D01*
X648876Y301032D01*
X649650Y300895D01*
X650409Y300692D01*
X651147Y300423D01*
X651860Y300091D01*
X652540Y299698D01*
X653184Y299247D01*
X653786Y298742D01*
X654342Y298186D01*
X654847Y297584D01*
X655298Y296940D01*
X655691Y296260D01*
X656023Y295547D01*
X656292Y294809D01*
X656495Y294050D01*
X656632Y293276D01*
X656700Y292493D01*
X656700Y291707D01*
X656632Y290924D01*
X656495Y290150D01*
X656292Y289391D01*
X656023Y288653D01*
X655691Y287940D01*
X655298Y287260D01*
X654847Y286616D01*
X654342Y286014D01*
X653786Y285458D01*
X653184Y284953D01*
X652540Y284502D01*
X651860Y284109D01*
X651147Y283777D01*
X650409Y283508D01*
X649650Y283305D01*
X648876Y283169D01*
X648093Y283100D01*
X647307Y283100D01*
X30480Y111316D02*
X30403Y110433D01*
X30249Y109559D01*
X30019Y108702D01*
X29716Y107868D01*
X29341Y107064D01*
X28897Y106296D01*
X28388Y105569D01*
X27818Y104889D01*
X27191Y104262D01*
X26511Y103692D01*
X25784Y103183D01*
X25016Y102739D01*
X24212Y102364D01*
X23378Y102061D01*
X22521Y101831D01*
X21647Y101677D01*
X20764Y101600D01*
X19876Y101600D01*
X18993Y101677D01*
X18119Y101831D01*
X17262Y102061D01*
X16428Y102364D01*
X15624Y102739D01*
X14856Y103183D01*
X14129Y103692D01*
X13449Y104262D01*
X12822Y104889D01*
X12252Y105569D01*
X11743Y106296D01*
X11299Y107064D01*
X10924Y107868D01*
X10621Y108702D01*
X10391Y109559D01*
X10237Y110433D01*
X10160Y111316D01*
X10160Y112204D01*
X10237Y113087D01*
X10391Y113961D01*
X10621Y114818D01*
X10924Y115652D01*
X11299Y116456D01*
X11743Y117224D01*
X12252Y117951D01*
X12822Y118631D01*
X13449Y119258D01*
X14129Y119828D01*
X14856Y120337D01*
X15624Y120781D01*
X16428Y121156D01*
X17262Y121459D01*
X18119Y121689D01*
X18993Y121843D01*
X19876Y121920D01*
X20764Y121920D01*
X21647Y121843D01*
X22521Y121689D01*
X23378Y121459D01*
X24212Y121156D01*
X25016Y120781D01*
X25784Y120337D01*
X26511Y119828D01*
X27191Y119258D01*
X27818Y118631D01*
X28388Y117951D01*
X28897Y117224D01*
X29341Y116456D01*
X29716Y115652D01*
X30019Y114818D01*
X30249Y113961D01*
X30403Y113087D01*
X30480Y112204D01*
X30480Y111316D01*
X76200Y111316D02*
X76123Y110433D01*
X75969Y109559D01*
X75739Y108702D01*
X75436Y107868D01*
X75061Y107064D01*
X74617Y106296D01*
X74108Y105569D01*
X73538Y104889D01*
X72911Y104262D01*
X72231Y103692D01*
X71504Y103183D01*
X70736Y102739D01*
X69932Y102364D01*
X69098Y102061D01*
X68241Y101831D01*
X67367Y101677D01*
X66484Y101600D01*
X65596Y101600D01*
X64713Y101677D01*
X63839Y101831D01*
X62982Y102061D01*
X62148Y102364D01*
X61344Y102739D01*
X60576Y103183D01*
X59849Y103692D01*
X59169Y104262D01*
X58542Y104889D01*
X57972Y105569D01*
X57463Y106296D01*
X57019Y107064D01*
X56644Y107868D01*
X56341Y108702D01*
X56111Y109559D01*
X55957Y110433D01*
X55880Y111316D01*
X55880Y112204D01*
X55957Y113087D01*
X56111Y113961D01*
X56341Y114818D01*
X56644Y115652D01*
X57019Y116456D01*
X57463Y117224D01*
X57972Y117951D01*
X58542Y118631D01*
X59169Y119258D01*
X59849Y119828D01*
X60576Y120337D01*
X61344Y120781D01*
X62148Y121156D01*
X62982Y121459D01*
X63839Y121689D01*
X64713Y121843D01*
X65596Y121920D01*
X66484Y121920D01*
X67367Y121843D01*
X68241Y121689D01*
X69098Y121459D01*
X69932Y121156D01*
X70736Y120781D01*
X71504Y120337D01*
X72231Y119828D01*
X72911Y119258D01*
X73538Y118631D01*
X74108Y117951D01*
X74617Y117224D01*
X75061Y116456D01*
X75436Y115652D01*
X75739Y114818D01*
X75969Y113961D01*
X76123Y113087D01*
X76200Y112204D01*
X76200Y111316D01*
X48837Y444750D02*
X48415Y444806D01*
X48003Y444916D01*
X47609Y445079D01*
X47241Y445292D01*
X46903Y445551D01*
X46601Y445853D01*
X46342Y446191D01*
X46129Y446559D01*
X45966Y446953D01*
X45856Y447365D01*
X45800Y447787D01*
X45800Y448213D01*
X45856Y448635D01*
X45966Y449047D01*
X46129Y449441D01*
X46342Y449809D01*
X46601Y450147D01*
X46903Y450449D01*
X47241Y450708D01*
X47609Y450921D01*
X48003Y451084D01*
X48415Y451194D01*
X48837Y451250D01*
X49263Y451250D01*
X49685Y451194D01*
X50097Y451084D01*
X50491Y450921D01*
X50859Y450708D01*
X51197Y450449D01*
X51499Y450147D01*
X51758Y449809D01*
X51971Y449441D01*
X52134Y449047D01*
X52244Y448635D01*
X52300Y448213D01*
X52300Y447787D01*
X52244Y447365D01*
X52134Y446953D01*
X51971Y446559D01*
X51758Y446191D01*
X51499Y445853D01*
X51197Y445551D01*
X50859Y445292D01*
X50491Y445079D01*
X50097Y444916D01*
X49685Y444806D01*
X49263Y444750D01*
X48837Y444750D01*
X48837Y386950D02*
X48415Y387006D01*
X48003Y387116D01*
X47609Y387279D01*
X47241Y387492D01*
X46903Y387751D01*
X46601Y388053D01*
X46342Y388391D01*
X46129Y388759D01*
X45966Y389153D01*
X45856Y389565D01*
X45800Y389987D01*
X45800Y390413D01*
X45856Y390835D01*
X45966Y391247D01*
X46129Y391641D01*
X46342Y392009D01*
X46601Y392347D01*
X46903Y392649D01*
X47241Y392908D01*
X47609Y393121D01*
X48003Y393284D01*
X48415Y393394D01*
X48837Y393450D01*
X49263Y393450D01*
X49685Y393394D01*
X50097Y393284D01*
X50491Y393121D01*
X50859Y392908D01*
X51197Y392649D01*
X51499Y392347D01*
X51758Y392009D01*
X51971Y391641D01*
X52134Y391247D01*
X52244Y390835D01*
X52300Y390413D01*
X52300Y389987D01*
X52244Y389565D01*
X52134Y389153D01*
X51971Y388759D01*
X51758Y388391D01*
X51499Y388053D01*
X51197Y387751D01*
X50859Y387492D01*
X50491Y387279D01*
X50097Y387116D01*
X49685Y387006D01*
X49263Y386950D01*
X48837Y386950D01*
X298650Y177521D02*
X298577Y176969D01*
X298433Y176431D01*
X298220Y175916D01*
X297941Y175434D01*
X297602Y174992D01*
X297208Y174598D01*
X296766Y174259D01*
X296284Y173980D01*
X295769Y173767D01*
X295231Y173623D01*
X294679Y173550D01*
X294121Y173550D01*
X293569Y173623D01*
X293031Y173767D01*
X292516Y173980D01*
X292034Y174259D01*
X291592Y174598D01*
X291198Y174992D01*
X290859Y175434D01*
X290580Y175916D01*
X290367Y176431D01*
X290223Y176969D01*
X290150Y177521D01*
X290150Y178079D01*
X290223Y178631D01*
X290367Y179169D01*
X290580Y179684D01*
X290859Y180166D01*
X291198Y180608D01*
X291592Y181002D01*
X292034Y181341D01*
X292516Y181620D01*
X293031Y181833D01*
X293569Y181977D01*
X294121Y182050D01*
X294679Y182050D01*
X295231Y181977D01*
X295769Y181833D01*
X296284Y181620D01*
X296766Y181341D01*
X297208Y181002D01*
X297602Y180608D01*
X297941Y180166D01*
X298220Y179684D01*
X298433Y179169D01*
X298577Y178631D01*
X298650Y178079D01*
X298650Y177521D01*
X268650Y177521D02*
X268577Y176969D01*
X268433Y176431D01*
X268220Y175916D01*
X267941Y175434D01*
X267602Y174992D01*
X267208Y174598D01*
X266766Y174259D01*
X266284Y173980D01*
X265769Y173767D01*
X265231Y173623D01*
X264679Y173550D01*
X264121Y173550D01*
X263569Y173623D01*
X263031Y173767D01*
X262516Y173980D01*
X262034Y174259D01*
X261592Y174598D01*
X261198Y174992D01*
X260859Y175434D01*
X260580Y175916D01*
X260367Y176431D01*
X260223Y176969D01*
X260150Y177521D01*
X260150Y178079D01*
X260223Y178631D01*
X260367Y179169D01*
X260580Y179684D01*
X260859Y180166D01*
X261198Y180608D01*
X261592Y181002D01*
X262034Y181341D01*
X262516Y181620D01*
X263031Y181833D01*
X263569Y181977D01*
X264121Y182050D01*
X264679Y182050D01*
X265231Y181977D01*
X265769Y181833D01*
X266284Y181620D01*
X266766Y181341D01*
X267208Y181002D01*
X267602Y180608D01*
X267941Y180166D01*
X268220Y179684D01*
X268433Y179169D01*
X268577Y178631D01*
X268650Y178079D01*
X268650Y177521D01*
M02*
