G04 EAGLE Gerber RS-274X export*
G75*
%MOMM*%
%FSLAX34Y34*%
%LPD*%
%INSolderpaste Top*%
%IPPOS*%
%AMOC8*
5,1,8,0,0,1.08239X$1,22.5*%
G01*
%ADD10C,0.100000*%
%ADD11C,0.098000*%
%ADD12C,0.104000*%
%ADD13C,0.097534*%
%ADD14C,0.110000*%
%ADD15R,1.200000X2.200000*%
%ADD16C,0.450000*%
%ADD17C,0.096000*%
%ADD18C,0.101600*%
%ADD19C,0.105000*%
%ADD20C,0.100581*%
%ADD21C,0.099000*%
%ADD22C,0.102000*%
%ADD23C,0.099059*%

G36*
X60305Y370854D02*
X60305Y370854D01*
X60308Y370851D01*
X61403Y371031D01*
X61409Y371037D01*
X61414Y371034D01*
X62442Y371453D01*
X62446Y371460D01*
X62451Y371458D01*
X63360Y372096D01*
X63363Y372103D01*
X63368Y372103D01*
X64112Y372926D01*
X64113Y372934D01*
X64119Y372935D01*
X64661Y373903D01*
X64660Y373912D01*
X64666Y373914D01*
X64979Y374978D01*
X64976Y374986D01*
X64981Y374989D01*
X65049Y376097D01*
X65045Y376104D01*
X65049Y376107D01*
X64879Y377215D01*
X64873Y377221D01*
X64876Y377226D01*
X64464Y378268D01*
X64457Y378272D01*
X64459Y378277D01*
X63825Y379202D01*
X63817Y379204D01*
X63818Y379210D01*
X62995Y379970D01*
X62986Y379971D01*
X62986Y379977D01*
X62014Y380534D01*
X62006Y380533D01*
X62004Y380539D01*
X60932Y380866D01*
X60924Y380863D01*
X60921Y380868D01*
X59804Y380949D01*
X59801Y380948D01*
X59800Y380949D01*
X47800Y380949D01*
X47797Y380947D01*
X47790Y380947D01*
X47789Y380948D01*
X46845Y380729D01*
X46839Y380723D01*
X46834Y380725D01*
X45962Y380302D01*
X45959Y380294D01*
X45953Y380296D01*
X45197Y379689D01*
X45195Y379681D01*
X45189Y379681D01*
X44588Y378921D01*
X44588Y378912D01*
X44582Y378911D01*
X44164Y378036D01*
X44166Y378028D01*
X44161Y378026D01*
X43949Y377080D01*
X43952Y377073D01*
X43947Y377069D01*
X43951Y376100D01*
X43951Y376099D01*
X43970Y375031D01*
X43975Y375024D01*
X43971Y375020D01*
X44227Y373983D01*
X44234Y373978D01*
X44231Y373972D01*
X44712Y373018D01*
X44719Y373015D01*
X44718Y373009D01*
X45399Y372186D01*
X45407Y372184D01*
X45407Y372178D01*
X46254Y371527D01*
X46262Y371527D01*
X46263Y371521D01*
X47234Y371074D01*
X47242Y371076D01*
X47244Y371071D01*
X48290Y370852D01*
X48297Y370855D01*
X48300Y370851D01*
X60300Y370851D01*
X60305Y370854D01*
G37*
G36*
X60305Y457255D02*
X60305Y457255D01*
X60308Y457251D01*
X61414Y457444D01*
X61419Y457449D01*
X61419Y457450D01*
X61424Y457447D01*
X62459Y457880D01*
X62463Y457887D01*
X62468Y457885D01*
X63381Y458538D01*
X63383Y458546D01*
X63389Y458545D01*
X64133Y459384D01*
X64134Y459393D01*
X64139Y459393D01*
X64678Y460377D01*
X64677Y460385D01*
X64678Y460386D01*
X64682Y460387D01*
X64683Y460389D01*
X64865Y461030D01*
X64989Y461466D01*
X64987Y461471D01*
X64989Y461473D01*
X64987Y461475D01*
X64991Y461477D01*
X65049Y462597D01*
X65046Y462602D01*
X65049Y462606D01*
X64931Y463651D01*
X64925Y463657D01*
X64929Y463662D01*
X64581Y464656D01*
X64574Y464660D01*
X64576Y464665D01*
X64016Y465557D01*
X64009Y465560D01*
X64009Y465565D01*
X63265Y466309D01*
X63257Y466311D01*
X63257Y466316D01*
X62365Y466876D01*
X62357Y466876D01*
X62356Y466881D01*
X61362Y467229D01*
X61354Y467226D01*
X61351Y467231D01*
X60306Y467349D01*
X60302Y467347D01*
X60300Y467349D01*
X48300Y467349D01*
X48297Y467347D01*
X48294Y467347D01*
X48292Y467349D01*
X47296Y467191D01*
X47290Y467185D01*
X47285Y467188D01*
X46349Y466813D01*
X46345Y466806D01*
X46339Y466808D01*
X45510Y466234D01*
X45507Y466226D01*
X45502Y466227D01*
X44821Y465483D01*
X44820Y465474D01*
X44814Y465474D01*
X44316Y464597D01*
X44317Y464589D01*
X44312Y464586D01*
X44124Y463962D01*
X44021Y463621D01*
X44022Y463618D01*
X44021Y463617D01*
X44024Y463613D01*
X44019Y463610D01*
X43951Y462603D01*
X43952Y462601D01*
X43951Y462600D01*
X43960Y461519D01*
X43965Y461512D01*
X43961Y461508D01*
X44211Y460456D01*
X44217Y460451D01*
X44214Y460446D01*
X44691Y459476D01*
X44699Y459473D01*
X44697Y459467D01*
X45378Y458628D01*
X45386Y458626D01*
X45386Y458620D01*
X46237Y457954D01*
X46245Y457953D01*
X46246Y457948D01*
X47223Y457487D01*
X47231Y457489D01*
X47234Y457484D01*
X48289Y457252D01*
X48297Y457255D01*
X48300Y457251D01*
X60300Y457251D01*
X60305Y457255D01*
G37*
G36*
X15504Y370854D02*
X15504Y370854D01*
X15506Y370851D01*
X16639Y371001D01*
X16645Y371007D01*
X16650Y371004D01*
X17720Y371402D01*
X17724Y371409D01*
X17730Y371407D01*
X18685Y372034D01*
X18688Y372042D01*
X18693Y372041D01*
X19485Y372864D01*
X19486Y372872D01*
X19492Y372873D01*
X20081Y373852D01*
X20080Y373860D01*
X20085Y373862D01*
X20441Y374947D01*
X20439Y374955D01*
X20443Y374958D01*
X20549Y376095D01*
X20544Y376104D01*
X20548Y376109D01*
X20341Y377246D01*
X20335Y377252D01*
X20338Y377257D01*
X19883Y378319D01*
X19876Y378323D01*
X19878Y378329D01*
X19198Y379264D01*
X19190Y379266D01*
X19191Y379272D01*
X18320Y380032D01*
X18312Y380032D01*
X18311Y380038D01*
X17292Y380585D01*
X17284Y380584D01*
X17282Y380589D01*
X16168Y380896D01*
X16160Y380893D01*
X16157Y380898D01*
X15002Y380949D01*
X15001Y380948D01*
X15000Y380949D01*
X9000Y380949D01*
X8997Y380947D01*
X8992Y380947D01*
X8991Y380948D01*
X7910Y380736D01*
X7905Y380730D01*
X7900Y380733D01*
X6894Y380286D01*
X6890Y380279D01*
X6884Y380281D01*
X6003Y379621D01*
X6000Y379613D01*
X5995Y379613D01*
X5282Y378774D01*
X5282Y378766D01*
X5276Y378765D01*
X4768Y377788D01*
X4769Y377780D01*
X4764Y377778D01*
X4486Y376713D01*
X4489Y376705D01*
X4485Y376702D01*
X4451Y375602D01*
X4455Y375596D01*
X4451Y375593D01*
X4606Y374518D01*
X4612Y374512D01*
X4609Y374507D01*
X4999Y373493D01*
X5006Y373489D01*
X5005Y373483D01*
X5611Y372581D01*
X5619Y372579D01*
X5618Y372573D01*
X6410Y371829D01*
X6418Y371828D01*
X6418Y371822D01*
X7356Y371273D01*
X7364Y371274D01*
X7366Y371268D01*
X8402Y370941D01*
X8410Y370944D01*
X8413Y370939D01*
X9496Y370851D01*
X9499Y370853D01*
X9500Y370851D01*
X15500Y370851D01*
X15504Y370854D01*
G37*
G36*
X15503Y457253D02*
X15503Y457253D01*
X15505Y457251D01*
X16597Y457352D01*
X16603Y457357D01*
X16608Y457354D01*
X17651Y457695D01*
X17656Y457702D01*
X17661Y457700D01*
X18602Y458264D01*
X18605Y458272D01*
X18611Y458271D01*
X19403Y459031D01*
X19404Y459039D01*
X19410Y459040D01*
X20013Y459957D01*
X20012Y459965D01*
X20018Y459967D01*
X20401Y460995D01*
X20399Y461003D01*
X20404Y461006D01*
X20549Y462094D01*
X20545Y462101D01*
X20549Y462105D01*
X20443Y463242D01*
X20438Y463248D01*
X20441Y463253D01*
X20085Y464338D01*
X20078Y464343D01*
X20081Y464348D01*
X19492Y465327D01*
X19484Y465330D01*
X19485Y465336D01*
X18693Y466159D01*
X18685Y466160D01*
X18685Y466166D01*
X17730Y466793D01*
X17722Y466792D01*
X17720Y466798D01*
X16650Y467196D01*
X16642Y467194D01*
X16639Y467199D01*
X15506Y467349D01*
X15503Y467347D01*
X15502Y467347D01*
X15500Y467349D01*
X9500Y467349D01*
X9497Y467347D01*
X9495Y467347D01*
X9494Y467349D01*
X8361Y467199D01*
X8355Y467193D01*
X8350Y467196D01*
X7280Y466798D01*
X7276Y466791D01*
X7270Y466793D01*
X6315Y466166D01*
X6312Y466158D01*
X6307Y466159D01*
X5515Y465336D01*
X5514Y465328D01*
X5508Y465327D01*
X4919Y464348D01*
X4920Y464340D01*
X4915Y464338D01*
X4559Y463253D01*
X4562Y463245D01*
X4557Y463242D01*
X4451Y462105D01*
X4455Y462098D01*
X4451Y462094D01*
X4596Y461006D01*
X4602Y461000D01*
X4599Y460995D01*
X4983Y459967D01*
X4989Y459962D01*
X4988Y459957D01*
X5590Y459040D01*
X5598Y459037D01*
X5597Y459031D01*
X6389Y458271D01*
X6397Y458270D01*
X6398Y458264D01*
X7339Y457700D01*
X7347Y457701D01*
X7349Y457695D01*
X8392Y457354D01*
X8400Y457356D01*
X8403Y457352D01*
X9496Y457251D01*
X9498Y457253D01*
X9500Y457251D01*
X15500Y457251D01*
X15503Y457253D01*
G37*
D10*
X329510Y218130D02*
X329510Y228130D01*
X338510Y228130D01*
X338510Y218130D01*
X329510Y218130D01*
X329510Y219080D02*
X338510Y219080D01*
X338510Y220030D02*
X329510Y220030D01*
X329510Y220980D02*
X338510Y220980D01*
X338510Y221930D02*
X329510Y221930D01*
X329510Y222880D02*
X338510Y222880D01*
X338510Y223830D02*
X329510Y223830D01*
X329510Y224780D02*
X338510Y224780D01*
X338510Y225730D02*
X329510Y225730D01*
X329510Y226680D02*
X338510Y226680D01*
X338510Y227630D02*
X329510Y227630D01*
X329510Y211130D02*
X329510Y201130D01*
X329510Y211130D02*
X338510Y211130D01*
X338510Y201130D01*
X329510Y201130D01*
X329510Y202080D02*
X338510Y202080D01*
X338510Y203030D02*
X329510Y203030D01*
X329510Y203980D02*
X338510Y203980D01*
X338510Y204930D02*
X329510Y204930D01*
X329510Y205880D02*
X338510Y205880D01*
X338510Y206830D02*
X329510Y206830D01*
X329510Y207780D02*
X338510Y207780D01*
X338510Y208730D02*
X329510Y208730D01*
X329510Y209680D02*
X338510Y209680D01*
X338510Y210630D02*
X329510Y210630D01*
X292900Y418520D02*
X282900Y418520D01*
X292900Y418520D02*
X292900Y409520D01*
X282900Y409520D01*
X282900Y418520D01*
X282900Y410470D02*
X292900Y410470D01*
X292900Y411420D02*
X282900Y411420D01*
X282900Y412370D02*
X292900Y412370D01*
X292900Y413320D02*
X282900Y413320D01*
X282900Y414270D02*
X292900Y414270D01*
X292900Y415220D02*
X282900Y415220D01*
X282900Y416170D02*
X292900Y416170D01*
X292900Y417120D02*
X282900Y417120D01*
X282900Y418070D02*
X292900Y418070D01*
X275900Y418520D02*
X265900Y418520D01*
X275900Y418520D02*
X275900Y409520D01*
X265900Y409520D01*
X265900Y418520D01*
X265900Y410470D02*
X275900Y410470D01*
X275900Y411420D02*
X265900Y411420D01*
X265900Y412370D02*
X275900Y412370D01*
X275900Y413320D02*
X265900Y413320D01*
X265900Y414270D02*
X275900Y414270D01*
X275900Y415220D02*
X265900Y415220D01*
X265900Y416170D02*
X275900Y416170D01*
X275900Y417120D02*
X265900Y417120D01*
X265900Y418070D02*
X275900Y418070D01*
X566890Y361260D02*
X576890Y361260D01*
X566890Y361260D02*
X566890Y370260D01*
X576890Y370260D01*
X576890Y361260D01*
X576890Y362210D02*
X566890Y362210D01*
X566890Y363160D02*
X576890Y363160D01*
X576890Y364110D02*
X566890Y364110D01*
X566890Y365060D02*
X576890Y365060D01*
X576890Y366010D02*
X566890Y366010D01*
X566890Y366960D02*
X576890Y366960D01*
X576890Y367910D02*
X566890Y367910D01*
X566890Y368860D02*
X576890Y368860D01*
X576890Y369810D02*
X566890Y369810D01*
X583890Y361260D02*
X593890Y361260D01*
X583890Y361260D02*
X583890Y370260D01*
X593890Y370260D01*
X593890Y361260D01*
X593890Y362210D02*
X583890Y362210D01*
X583890Y363160D02*
X593890Y363160D01*
X593890Y364110D02*
X583890Y364110D01*
X583890Y365060D02*
X593890Y365060D01*
X593890Y366010D02*
X583890Y366010D01*
X583890Y366960D02*
X593890Y366960D01*
X593890Y367910D02*
X583890Y367910D01*
X583890Y368860D02*
X593890Y368860D01*
X593890Y369810D02*
X583890Y369810D01*
X292900Y302950D02*
X282900Y302950D01*
X292900Y302950D02*
X292900Y293950D01*
X282900Y293950D01*
X282900Y302950D01*
X282900Y294900D02*
X292900Y294900D01*
X292900Y295850D02*
X282900Y295850D01*
X282900Y296800D02*
X292900Y296800D01*
X292900Y297750D02*
X282900Y297750D01*
X282900Y298700D02*
X292900Y298700D01*
X292900Y299650D02*
X282900Y299650D01*
X282900Y300600D02*
X292900Y300600D01*
X292900Y301550D02*
X282900Y301550D01*
X282900Y302500D02*
X292900Y302500D01*
X275900Y302950D02*
X265900Y302950D01*
X275900Y302950D02*
X275900Y293950D01*
X265900Y293950D01*
X265900Y302950D01*
X265900Y294900D02*
X275900Y294900D01*
X275900Y295850D02*
X265900Y295850D01*
X265900Y296800D02*
X275900Y296800D01*
X275900Y297750D02*
X265900Y297750D01*
X265900Y298700D02*
X275900Y298700D01*
X275900Y299650D02*
X265900Y299650D01*
X265900Y300600D02*
X275900Y300600D01*
X275900Y301550D02*
X265900Y301550D01*
X265900Y302500D02*
X275900Y302500D01*
X351100Y271870D02*
X351100Y261870D01*
X351100Y271870D02*
X360100Y271870D01*
X360100Y261870D01*
X351100Y261870D01*
X351100Y262820D02*
X360100Y262820D01*
X360100Y263770D02*
X351100Y263770D01*
X351100Y264720D02*
X360100Y264720D01*
X360100Y265670D02*
X351100Y265670D01*
X351100Y266620D02*
X360100Y266620D01*
X360100Y267570D02*
X351100Y267570D01*
X351100Y268520D02*
X360100Y268520D01*
X360100Y269470D02*
X351100Y269470D01*
X351100Y270420D02*
X360100Y270420D01*
X360100Y271370D02*
X351100Y271370D01*
X351100Y254870D02*
X351100Y244870D01*
X351100Y254870D02*
X360100Y254870D01*
X360100Y244870D01*
X351100Y244870D01*
X351100Y245820D02*
X360100Y245820D01*
X360100Y246770D02*
X351100Y246770D01*
X351100Y247720D02*
X360100Y247720D01*
X360100Y248670D02*
X351100Y248670D01*
X351100Y249620D02*
X360100Y249620D01*
X360100Y250570D02*
X351100Y250570D01*
X351100Y251520D02*
X360100Y251520D01*
X360100Y252470D02*
X351100Y252470D01*
X351100Y253420D02*
X360100Y253420D01*
X360100Y254370D02*
X351100Y254370D01*
D11*
X210690Y167530D02*
X210690Y152510D01*
X210690Y167530D02*
X223710Y167530D01*
X223710Y152510D01*
X210690Y152510D01*
X210690Y153441D02*
X223710Y153441D01*
X223710Y154372D02*
X210690Y154372D01*
X210690Y155303D02*
X223710Y155303D01*
X223710Y156234D02*
X210690Y156234D01*
X210690Y157165D02*
X223710Y157165D01*
X223710Y158096D02*
X210690Y158096D01*
X210690Y159027D02*
X223710Y159027D01*
X223710Y159958D02*
X210690Y159958D01*
X210690Y160889D02*
X223710Y160889D01*
X223710Y161820D02*
X210690Y161820D01*
X210690Y162751D02*
X223710Y162751D01*
X223710Y163682D02*
X210690Y163682D01*
X210690Y164613D02*
X223710Y164613D01*
X223710Y165544D02*
X210690Y165544D01*
X210690Y166475D02*
X223710Y166475D01*
X223710Y167406D02*
X210690Y167406D01*
X182690Y167530D02*
X182690Y152510D01*
X182690Y167530D02*
X195710Y167530D01*
X195710Y152510D01*
X182690Y152510D01*
X182690Y153441D02*
X195710Y153441D01*
X195710Y154372D02*
X182690Y154372D01*
X182690Y155303D02*
X195710Y155303D01*
X195710Y156234D02*
X182690Y156234D01*
X182690Y157165D02*
X195710Y157165D01*
X195710Y158096D02*
X182690Y158096D01*
X182690Y159027D02*
X195710Y159027D01*
X195710Y159958D02*
X182690Y159958D01*
X182690Y160889D02*
X195710Y160889D01*
X195710Y161820D02*
X182690Y161820D01*
X182690Y162751D02*
X195710Y162751D01*
X195710Y163682D02*
X182690Y163682D01*
X182690Y164613D02*
X195710Y164613D01*
X195710Y165544D02*
X182690Y165544D01*
X182690Y166475D02*
X195710Y166475D01*
X195710Y167406D02*
X182690Y167406D01*
D10*
X98100Y282520D02*
X88100Y282520D01*
X88100Y291520D01*
X98100Y291520D01*
X98100Y282520D01*
X98100Y283470D02*
X88100Y283470D01*
X88100Y284420D02*
X98100Y284420D01*
X98100Y285370D02*
X88100Y285370D01*
X88100Y286320D02*
X98100Y286320D01*
X98100Y287270D02*
X88100Y287270D01*
X88100Y288220D02*
X98100Y288220D01*
X98100Y289170D02*
X88100Y289170D01*
X88100Y290120D02*
X98100Y290120D01*
X98100Y291070D02*
X88100Y291070D01*
X105100Y282520D02*
X115100Y282520D01*
X105100Y282520D02*
X105100Y291520D01*
X115100Y291520D01*
X115100Y282520D01*
X115100Y283470D02*
X105100Y283470D01*
X105100Y284420D02*
X115100Y284420D01*
X115100Y285370D02*
X105100Y285370D01*
X105100Y286320D02*
X115100Y286320D01*
X115100Y287270D02*
X105100Y287270D01*
X105100Y288220D02*
X115100Y288220D01*
X115100Y289170D02*
X105100Y289170D01*
X105100Y290120D02*
X115100Y290120D01*
X115100Y291070D02*
X105100Y291070D01*
D11*
X222410Y122330D02*
X222410Y93310D01*
X209390Y93310D01*
X209390Y122330D01*
X222410Y122330D01*
X222410Y94241D02*
X209390Y94241D01*
X209390Y95172D02*
X222410Y95172D01*
X222410Y96103D02*
X209390Y96103D01*
X209390Y97034D02*
X222410Y97034D01*
X222410Y97965D02*
X209390Y97965D01*
X209390Y98896D02*
X222410Y98896D01*
X222410Y99827D02*
X209390Y99827D01*
X209390Y100758D02*
X222410Y100758D01*
X222410Y101689D02*
X209390Y101689D01*
X209390Y102620D02*
X222410Y102620D01*
X222410Y103551D02*
X209390Y103551D01*
X209390Y104482D02*
X222410Y104482D01*
X222410Y105413D02*
X209390Y105413D01*
X209390Y106344D02*
X222410Y106344D01*
X222410Y107275D02*
X209390Y107275D01*
X209390Y108206D02*
X222410Y108206D01*
X222410Y109137D02*
X209390Y109137D01*
X209390Y110068D02*
X222410Y110068D01*
X222410Y110999D02*
X209390Y110999D01*
X209390Y111930D02*
X222410Y111930D01*
X222410Y112861D02*
X209390Y112861D01*
X209390Y113792D02*
X222410Y113792D01*
X222410Y114723D02*
X209390Y114723D01*
X209390Y115654D02*
X222410Y115654D01*
X222410Y116585D02*
X209390Y116585D01*
X209390Y117516D02*
X222410Y117516D01*
X222410Y118447D02*
X209390Y118447D01*
X209390Y119378D02*
X222410Y119378D01*
X222410Y120309D02*
X209390Y120309D01*
X209390Y121240D02*
X222410Y121240D01*
X222410Y122171D02*
X209390Y122171D01*
X222410Y74330D02*
X222410Y45310D01*
X209390Y45310D01*
X209390Y74330D01*
X222410Y74330D01*
X222410Y46241D02*
X209390Y46241D01*
X209390Y47172D02*
X222410Y47172D01*
X222410Y48103D02*
X209390Y48103D01*
X209390Y49034D02*
X222410Y49034D01*
X222410Y49965D02*
X209390Y49965D01*
X209390Y50896D02*
X222410Y50896D01*
X222410Y51827D02*
X209390Y51827D01*
X209390Y52758D02*
X222410Y52758D01*
X222410Y53689D02*
X209390Y53689D01*
X209390Y54620D02*
X222410Y54620D01*
X222410Y55551D02*
X209390Y55551D01*
X209390Y56482D02*
X222410Y56482D01*
X222410Y57413D02*
X209390Y57413D01*
X209390Y58344D02*
X222410Y58344D01*
X222410Y59275D02*
X209390Y59275D01*
X209390Y60206D02*
X222410Y60206D01*
X222410Y61137D02*
X209390Y61137D01*
X209390Y62068D02*
X222410Y62068D01*
X222410Y62999D02*
X209390Y62999D01*
X209390Y63930D02*
X222410Y63930D01*
X222410Y64861D02*
X209390Y64861D01*
X209390Y65792D02*
X222410Y65792D01*
X222410Y66723D02*
X209390Y66723D01*
X209390Y67654D02*
X222410Y67654D01*
X222410Y68585D02*
X209390Y68585D01*
X209390Y69516D02*
X222410Y69516D01*
X222410Y70447D02*
X209390Y70447D01*
X209390Y71378D02*
X222410Y71378D01*
X222410Y72309D02*
X209390Y72309D01*
X209390Y73240D02*
X222410Y73240D01*
X222410Y74171D02*
X209390Y74171D01*
D10*
X33600Y296870D02*
X33600Y306870D01*
X42600Y306870D01*
X42600Y296870D01*
X33600Y296870D01*
X33600Y297820D02*
X42600Y297820D01*
X42600Y298770D02*
X33600Y298770D01*
X33600Y299720D02*
X42600Y299720D01*
X42600Y300670D02*
X33600Y300670D01*
X33600Y301620D02*
X42600Y301620D01*
X42600Y302570D02*
X33600Y302570D01*
X33600Y303520D02*
X42600Y303520D01*
X42600Y304470D02*
X33600Y304470D01*
X33600Y305420D02*
X42600Y305420D01*
X42600Y306370D02*
X33600Y306370D01*
X33600Y289870D02*
X33600Y279870D01*
X33600Y289870D02*
X42600Y289870D01*
X42600Y279870D01*
X33600Y279870D01*
X33600Y280820D02*
X42600Y280820D01*
X42600Y281770D02*
X33600Y281770D01*
X33600Y282720D02*
X42600Y282720D01*
X42600Y283670D02*
X33600Y283670D01*
X33600Y284620D02*
X42600Y284620D01*
X42600Y285570D02*
X33600Y285570D01*
X33600Y286520D02*
X42600Y286520D01*
X42600Y287470D02*
X33600Y287470D01*
X33600Y288420D02*
X42600Y288420D01*
X42600Y289370D02*
X33600Y289370D01*
D12*
X49520Y300660D02*
X49520Y307620D01*
X57480Y307620D01*
X57480Y300660D01*
X49520Y300660D01*
X49520Y301648D02*
X57480Y301648D01*
X57480Y302636D02*
X49520Y302636D01*
X49520Y303624D02*
X57480Y303624D01*
X57480Y304612D02*
X49520Y304612D01*
X49520Y305600D02*
X57480Y305600D01*
X57480Y306588D02*
X49520Y306588D01*
X49520Y307576D02*
X57480Y307576D01*
X49520Y288620D02*
X49520Y281660D01*
X49520Y288620D02*
X57480Y288620D01*
X57480Y281660D01*
X49520Y281660D01*
X49520Y282648D02*
X57480Y282648D01*
X57480Y283636D02*
X49520Y283636D01*
X49520Y284624D02*
X57480Y284624D01*
X57480Y285612D02*
X49520Y285612D01*
X49520Y286600D02*
X57480Y286600D01*
X57480Y287588D02*
X49520Y287588D01*
X49520Y288576D02*
X57480Y288576D01*
X70520Y291160D02*
X70520Y298120D01*
X78480Y298120D01*
X78480Y291160D01*
X70520Y291160D01*
X70520Y292148D02*
X78480Y292148D01*
X78480Y293136D02*
X70520Y293136D01*
X70520Y294124D02*
X78480Y294124D01*
X78480Y295112D02*
X70520Y295112D01*
X70520Y296100D02*
X78480Y296100D01*
X78480Y297088D02*
X70520Y297088D01*
X70520Y298076D02*
X78480Y298076D01*
D10*
X265900Y314270D02*
X275900Y314270D01*
X265900Y314270D02*
X265900Y323270D01*
X275900Y323270D01*
X275900Y314270D01*
X275900Y315220D02*
X265900Y315220D01*
X265900Y316170D02*
X275900Y316170D01*
X275900Y317120D02*
X265900Y317120D01*
X265900Y318070D02*
X275900Y318070D01*
X275900Y319020D02*
X265900Y319020D01*
X265900Y319970D02*
X275900Y319970D01*
X275900Y320920D02*
X265900Y320920D01*
X265900Y321870D02*
X275900Y321870D01*
X275900Y322820D02*
X265900Y322820D01*
X282900Y314270D02*
X292900Y314270D01*
X282900Y314270D02*
X282900Y323270D01*
X292900Y323270D01*
X292900Y314270D01*
X292900Y315220D02*
X282900Y315220D01*
X282900Y316170D02*
X292900Y316170D01*
X292900Y317120D02*
X282900Y317120D01*
X282900Y318070D02*
X292900Y318070D01*
X292900Y319020D02*
X282900Y319020D01*
X282900Y319970D02*
X292900Y319970D01*
X292900Y320920D02*
X282900Y320920D01*
X282900Y321870D02*
X292900Y321870D01*
X292900Y322820D02*
X282900Y322820D01*
X31280Y325810D02*
X21280Y325810D01*
X31280Y325810D02*
X31280Y316810D01*
X21280Y316810D01*
X21280Y325810D01*
X21280Y317760D02*
X31280Y317760D01*
X31280Y318710D02*
X21280Y318710D01*
X21280Y319660D02*
X31280Y319660D01*
X31280Y320610D02*
X21280Y320610D01*
X21280Y321560D02*
X31280Y321560D01*
X31280Y322510D02*
X21280Y322510D01*
X21280Y323460D02*
X31280Y323460D01*
X31280Y324410D02*
X21280Y324410D01*
X21280Y325360D02*
X31280Y325360D01*
X14280Y325810D02*
X4280Y325810D01*
X14280Y325810D02*
X14280Y316810D01*
X4280Y316810D01*
X4280Y325810D01*
X4280Y317760D02*
X14280Y317760D01*
X14280Y318710D02*
X4280Y318710D01*
X4280Y319660D02*
X14280Y319660D01*
X14280Y320610D02*
X4280Y320610D01*
X4280Y321560D02*
X14280Y321560D01*
X14280Y322510D02*
X4280Y322510D01*
X4280Y323460D02*
X14280Y323460D01*
X14280Y324410D02*
X4280Y324410D01*
X4280Y325360D02*
X14280Y325360D01*
D13*
X117877Y223795D02*
X117877Y212577D01*
X96499Y212577D01*
X96499Y223795D01*
X117877Y223795D01*
X117877Y213503D02*
X96499Y213503D01*
X96499Y214429D02*
X117877Y214429D01*
X117877Y215355D02*
X96499Y215355D01*
X96499Y216281D02*
X117877Y216281D01*
X117877Y217207D02*
X96499Y217207D01*
X96499Y218133D02*
X117877Y218133D01*
X117877Y219059D02*
X96499Y219059D01*
X96499Y219985D02*
X117877Y219985D01*
X117877Y220911D02*
X96499Y220911D01*
X96499Y221837D02*
X117877Y221837D01*
X117877Y222763D02*
X96499Y222763D01*
X96499Y223689D02*
X117877Y223689D01*
X117877Y235691D02*
X117877Y246909D01*
X117877Y235691D02*
X96499Y235691D01*
X96499Y246909D01*
X117877Y246909D01*
X117877Y236617D02*
X96499Y236617D01*
X96499Y237543D02*
X117877Y237543D01*
X117877Y238469D02*
X96499Y238469D01*
X96499Y239395D02*
X117877Y239395D01*
X117877Y240321D02*
X96499Y240321D01*
X96499Y241247D02*
X117877Y241247D01*
X117877Y242173D02*
X96499Y242173D01*
X96499Y243099D02*
X117877Y243099D01*
X117877Y244025D02*
X96499Y244025D01*
X96499Y244951D02*
X117877Y244951D01*
X117877Y245877D02*
X96499Y245877D01*
X96499Y246803D02*
X117877Y246803D01*
X117877Y258805D02*
X117877Y270023D01*
X117877Y258805D02*
X96499Y258805D01*
X96499Y270023D01*
X117877Y270023D01*
X117877Y259731D02*
X96499Y259731D01*
X96499Y260657D02*
X117877Y260657D01*
X117877Y261583D02*
X96499Y261583D01*
X96499Y262509D02*
X117877Y262509D01*
X117877Y263435D02*
X96499Y263435D01*
X96499Y264361D02*
X117877Y264361D01*
X117877Y265287D02*
X96499Y265287D01*
X96499Y266213D02*
X117877Y266213D01*
X117877Y267139D02*
X96499Y267139D01*
X96499Y268065D02*
X117877Y268065D01*
X117877Y268991D02*
X96499Y268991D01*
X96499Y269917D02*
X117877Y269917D01*
D14*
X55660Y258750D02*
X55660Y223850D01*
X34760Y223850D01*
X34760Y258750D01*
X55660Y258750D01*
X55660Y224895D02*
X34760Y224895D01*
X34760Y225940D02*
X55660Y225940D01*
X55660Y226985D02*
X34760Y226985D01*
X34760Y228030D02*
X55660Y228030D01*
X55660Y229075D02*
X34760Y229075D01*
X34760Y230120D02*
X55660Y230120D01*
X55660Y231165D02*
X34760Y231165D01*
X34760Y232210D02*
X55660Y232210D01*
X55660Y233255D02*
X34760Y233255D01*
X34760Y234300D02*
X55660Y234300D01*
X55660Y235345D02*
X34760Y235345D01*
X34760Y236390D02*
X55660Y236390D01*
X55660Y237435D02*
X34760Y237435D01*
X34760Y238480D02*
X55660Y238480D01*
X55660Y239525D02*
X34760Y239525D01*
X34760Y240570D02*
X55660Y240570D01*
X55660Y241615D02*
X34760Y241615D01*
X34760Y242660D02*
X55660Y242660D01*
X55660Y243705D02*
X34760Y243705D01*
X34760Y244750D02*
X55660Y244750D01*
X55660Y245795D02*
X34760Y245795D01*
X34760Y246840D02*
X55660Y246840D01*
X55660Y247885D02*
X34760Y247885D01*
X34760Y248930D02*
X55660Y248930D01*
X55660Y249975D02*
X34760Y249975D01*
X34760Y251020D02*
X55660Y251020D01*
X55660Y252065D02*
X34760Y252065D01*
X34760Y253110D02*
X55660Y253110D01*
X55660Y254155D02*
X34760Y254155D01*
X34760Y255200D02*
X55660Y255200D01*
X55660Y256245D02*
X34760Y256245D01*
X34760Y257290D02*
X55660Y257290D01*
X55660Y258335D02*
X34760Y258335D01*
D10*
X136850Y202620D02*
X146850Y202620D01*
X146850Y193620D01*
X136850Y193620D01*
X136850Y202620D01*
X136850Y194570D02*
X146850Y194570D01*
X146850Y195520D02*
X136850Y195520D01*
X136850Y196470D02*
X146850Y196470D01*
X146850Y197420D02*
X136850Y197420D01*
X136850Y198370D02*
X146850Y198370D01*
X146850Y199320D02*
X136850Y199320D01*
X136850Y200270D02*
X146850Y200270D01*
X146850Y201220D02*
X136850Y201220D01*
X136850Y202170D02*
X146850Y202170D01*
X129850Y202620D02*
X119850Y202620D01*
X129850Y202620D02*
X129850Y193620D01*
X119850Y193620D01*
X119850Y202620D01*
X119850Y194570D02*
X129850Y194570D01*
X129850Y195520D02*
X119850Y195520D01*
X119850Y196470D02*
X129850Y196470D01*
X129850Y197420D02*
X119850Y197420D01*
X119850Y198370D02*
X129850Y198370D01*
X129850Y199320D02*
X119850Y199320D01*
X119850Y200270D02*
X129850Y200270D01*
X129850Y201220D02*
X119850Y201220D01*
X119850Y202170D02*
X129850Y202170D01*
X129850Y219020D02*
X119850Y219020D01*
X119850Y228020D01*
X129850Y228020D01*
X129850Y219020D01*
X129850Y219970D02*
X119850Y219970D01*
X119850Y220920D02*
X129850Y220920D01*
X129850Y221870D02*
X119850Y221870D01*
X119850Y222820D02*
X129850Y222820D01*
X129850Y223770D02*
X119850Y223770D01*
X119850Y224720D02*
X129850Y224720D01*
X129850Y225670D02*
X119850Y225670D01*
X119850Y226620D02*
X129850Y226620D01*
X129850Y227570D02*
X119850Y227570D01*
X136850Y219020D02*
X146850Y219020D01*
X136850Y219020D02*
X136850Y228020D01*
X146850Y228020D01*
X146850Y219020D01*
X146850Y219970D02*
X136850Y219970D01*
X136850Y220920D02*
X146850Y220920D01*
X146850Y221870D02*
X136850Y221870D01*
X136850Y222820D02*
X146850Y222820D01*
X146850Y223770D02*
X136850Y223770D01*
X136850Y224720D02*
X146850Y224720D01*
X146850Y225670D02*
X136850Y225670D01*
X136850Y226620D02*
X146850Y226620D01*
X146850Y227570D02*
X136850Y227570D01*
X98100Y297760D02*
X88100Y297760D01*
X88100Y306760D01*
X98100Y306760D01*
X98100Y297760D01*
X98100Y298710D02*
X88100Y298710D01*
X88100Y299660D02*
X98100Y299660D01*
X98100Y300610D02*
X88100Y300610D01*
X88100Y301560D02*
X98100Y301560D01*
X98100Y302510D02*
X88100Y302510D01*
X88100Y303460D02*
X98100Y303460D01*
X98100Y304410D02*
X88100Y304410D01*
X88100Y305360D02*
X98100Y305360D01*
X98100Y306310D02*
X88100Y306310D01*
X105100Y297760D02*
X115100Y297760D01*
X105100Y297760D02*
X105100Y306760D01*
X115100Y306760D01*
X115100Y297760D01*
X115100Y298710D02*
X105100Y298710D01*
X105100Y299660D02*
X115100Y299660D01*
X115100Y300610D02*
X105100Y300610D01*
X105100Y301560D02*
X115100Y301560D01*
X115100Y302510D02*
X105100Y302510D01*
X105100Y303460D02*
X115100Y303460D01*
X115100Y304410D02*
X105100Y304410D01*
X105100Y305360D02*
X115100Y305360D01*
X115100Y306310D02*
X105100Y306310D01*
D11*
X114170Y322690D02*
X114170Y337710D01*
X127190Y337710D01*
X127190Y322690D01*
X114170Y322690D01*
X114170Y323621D02*
X127190Y323621D01*
X127190Y324552D02*
X114170Y324552D01*
X114170Y325483D02*
X127190Y325483D01*
X127190Y326414D02*
X114170Y326414D01*
X114170Y327345D02*
X127190Y327345D01*
X127190Y328276D02*
X114170Y328276D01*
X114170Y329207D02*
X127190Y329207D01*
X127190Y330138D02*
X114170Y330138D01*
X114170Y331069D02*
X127190Y331069D01*
X127190Y332000D02*
X114170Y332000D01*
X114170Y332931D02*
X127190Y332931D01*
X127190Y333862D02*
X114170Y333862D01*
X114170Y334793D02*
X127190Y334793D01*
X127190Y335724D02*
X114170Y335724D01*
X114170Y336655D02*
X127190Y336655D01*
X127190Y337586D02*
X114170Y337586D01*
X86170Y337710D02*
X86170Y322690D01*
X86170Y337710D02*
X99190Y337710D01*
X99190Y322690D01*
X86170Y322690D01*
X86170Y323621D02*
X99190Y323621D01*
X99190Y324552D02*
X86170Y324552D01*
X86170Y325483D02*
X99190Y325483D01*
X99190Y326414D02*
X86170Y326414D01*
X86170Y327345D02*
X99190Y327345D01*
X99190Y328276D02*
X86170Y328276D01*
X86170Y329207D02*
X99190Y329207D01*
X99190Y330138D02*
X86170Y330138D01*
X86170Y331069D02*
X99190Y331069D01*
X99190Y332000D02*
X86170Y332000D01*
X86170Y332931D02*
X99190Y332931D01*
X99190Y333862D02*
X86170Y333862D01*
X86170Y334793D02*
X99190Y334793D01*
X99190Y335724D02*
X86170Y335724D01*
X86170Y336655D02*
X99190Y336655D01*
X99190Y337586D02*
X86170Y337586D01*
D10*
X335860Y507400D02*
X335860Y526400D01*
X344860Y526400D01*
X344860Y507400D01*
X335860Y507400D01*
X335860Y508350D02*
X344860Y508350D01*
X344860Y509300D02*
X335860Y509300D01*
X335860Y510250D02*
X344860Y510250D01*
X344860Y511200D02*
X335860Y511200D01*
X335860Y512150D02*
X344860Y512150D01*
X344860Y513100D02*
X335860Y513100D01*
X335860Y514050D02*
X344860Y514050D01*
X344860Y515000D02*
X335860Y515000D01*
X335860Y515950D02*
X344860Y515950D01*
X344860Y516900D02*
X335860Y516900D01*
X335860Y517850D02*
X344860Y517850D01*
X344860Y518800D02*
X335860Y518800D01*
X335860Y519750D02*
X344860Y519750D01*
X344860Y520700D02*
X335860Y520700D01*
X335860Y521650D02*
X344860Y521650D01*
X344860Y522600D02*
X335860Y522600D01*
X335860Y523550D02*
X344860Y523550D01*
X344860Y524500D02*
X335860Y524500D01*
X335860Y525450D02*
X344860Y525450D01*
X344860Y526400D02*
X335860Y526400D01*
X285060Y526400D02*
X285060Y507400D01*
X285060Y526400D02*
X294060Y526400D01*
X294060Y507400D01*
X285060Y507400D01*
X285060Y508350D02*
X294060Y508350D01*
X294060Y509300D02*
X285060Y509300D01*
X285060Y510250D02*
X294060Y510250D01*
X294060Y511200D02*
X285060Y511200D01*
X285060Y512150D02*
X294060Y512150D01*
X294060Y513100D02*
X285060Y513100D01*
X285060Y514050D02*
X294060Y514050D01*
X294060Y515000D02*
X285060Y515000D01*
X285060Y515950D02*
X294060Y515950D01*
X294060Y516900D02*
X285060Y516900D01*
X285060Y517850D02*
X294060Y517850D01*
X294060Y518800D02*
X285060Y518800D01*
X285060Y519750D02*
X294060Y519750D01*
X294060Y520700D02*
X285060Y520700D01*
X285060Y521650D02*
X294060Y521650D01*
X294060Y522600D02*
X285060Y522600D01*
X285060Y523550D02*
X294060Y523550D01*
X294060Y524500D02*
X285060Y524500D01*
X285060Y525450D02*
X294060Y525450D01*
X294060Y526400D02*
X285060Y526400D01*
X234260Y526400D02*
X234260Y507400D01*
X234260Y526400D02*
X243260Y526400D01*
X243260Y507400D01*
X234260Y507400D01*
X234260Y508350D02*
X243260Y508350D01*
X243260Y509300D02*
X234260Y509300D01*
X234260Y510250D02*
X243260Y510250D01*
X243260Y511200D02*
X234260Y511200D01*
X234260Y512150D02*
X243260Y512150D01*
X243260Y513100D02*
X234260Y513100D01*
X234260Y514050D02*
X243260Y514050D01*
X243260Y515000D02*
X234260Y515000D01*
X234260Y515950D02*
X243260Y515950D01*
X243260Y516900D02*
X234260Y516900D01*
X234260Y517850D02*
X243260Y517850D01*
X243260Y518800D02*
X234260Y518800D01*
X234260Y519750D02*
X243260Y519750D01*
X243260Y520700D02*
X234260Y520700D01*
X234260Y521650D02*
X243260Y521650D01*
X243260Y522600D02*
X234260Y522600D01*
X234260Y523550D02*
X243260Y523550D01*
X243260Y524500D02*
X234260Y524500D01*
X234260Y525450D02*
X243260Y525450D01*
X243260Y526400D02*
X234260Y526400D01*
X361260Y540400D02*
X361260Y559400D01*
X370260Y559400D01*
X370260Y540400D01*
X361260Y540400D01*
X361260Y541350D02*
X370260Y541350D01*
X370260Y542300D02*
X361260Y542300D01*
X361260Y543250D02*
X370260Y543250D01*
X370260Y544200D02*
X361260Y544200D01*
X361260Y545150D02*
X370260Y545150D01*
X370260Y546100D02*
X361260Y546100D01*
X361260Y547050D02*
X370260Y547050D01*
X370260Y548000D02*
X361260Y548000D01*
X361260Y548950D02*
X370260Y548950D01*
X370260Y549900D02*
X361260Y549900D01*
X361260Y550850D02*
X370260Y550850D01*
X370260Y551800D02*
X361260Y551800D01*
X361260Y552750D02*
X370260Y552750D01*
X370260Y553700D02*
X361260Y553700D01*
X361260Y554650D02*
X370260Y554650D01*
X370260Y555600D02*
X361260Y555600D01*
X361260Y556550D02*
X370260Y556550D01*
X370260Y557500D02*
X361260Y557500D01*
X361260Y558450D02*
X370260Y558450D01*
X370260Y559400D02*
X361260Y559400D01*
X310460Y559400D02*
X310460Y540400D01*
X310460Y559400D02*
X319460Y559400D01*
X319460Y540400D01*
X310460Y540400D01*
X310460Y541350D02*
X319460Y541350D01*
X319460Y542300D02*
X310460Y542300D01*
X310460Y543250D02*
X319460Y543250D01*
X319460Y544200D02*
X310460Y544200D01*
X310460Y545150D02*
X319460Y545150D01*
X319460Y546100D02*
X310460Y546100D01*
X310460Y547050D02*
X319460Y547050D01*
X319460Y548000D02*
X310460Y548000D01*
X310460Y548950D02*
X319460Y548950D01*
X319460Y549900D02*
X310460Y549900D01*
X310460Y550850D02*
X319460Y550850D01*
X319460Y551800D02*
X310460Y551800D01*
X310460Y552750D02*
X319460Y552750D01*
X319460Y553700D02*
X310460Y553700D01*
X310460Y554650D02*
X319460Y554650D01*
X319460Y555600D02*
X310460Y555600D01*
X310460Y556550D02*
X319460Y556550D01*
X319460Y557500D02*
X310460Y557500D01*
X310460Y558450D02*
X319460Y558450D01*
X319460Y559400D02*
X310460Y559400D01*
X259660Y559400D02*
X259660Y540400D01*
X259660Y559400D02*
X268660Y559400D01*
X268660Y540400D01*
X259660Y540400D01*
X259660Y541350D02*
X268660Y541350D01*
X268660Y542300D02*
X259660Y542300D01*
X259660Y543250D02*
X268660Y543250D01*
X268660Y544200D02*
X259660Y544200D01*
X259660Y545150D02*
X268660Y545150D01*
X268660Y546100D02*
X259660Y546100D01*
X259660Y547050D02*
X268660Y547050D01*
X268660Y548000D02*
X259660Y548000D01*
X259660Y548950D02*
X268660Y548950D01*
X268660Y549900D02*
X259660Y549900D01*
X259660Y550850D02*
X268660Y550850D01*
X268660Y551800D02*
X259660Y551800D01*
X259660Y552750D02*
X268660Y552750D01*
X268660Y553700D02*
X259660Y553700D01*
X259660Y554650D02*
X268660Y554650D01*
X268660Y555600D02*
X259660Y555600D01*
X259660Y556550D02*
X268660Y556550D01*
X268660Y557500D02*
X259660Y557500D01*
X259660Y558450D02*
X268660Y558450D01*
X268660Y559400D02*
X259660Y559400D01*
X208860Y559400D02*
X208860Y540400D01*
X208860Y559400D02*
X217860Y559400D01*
X217860Y540400D01*
X208860Y540400D01*
X208860Y541350D02*
X217860Y541350D01*
X217860Y542300D02*
X208860Y542300D01*
X208860Y543250D02*
X217860Y543250D01*
X217860Y544200D02*
X208860Y544200D01*
X208860Y545150D02*
X217860Y545150D01*
X217860Y546100D02*
X208860Y546100D01*
X208860Y547050D02*
X217860Y547050D01*
X217860Y548000D02*
X208860Y548000D01*
X208860Y548950D02*
X217860Y548950D01*
X217860Y549900D02*
X208860Y549900D01*
X208860Y550850D02*
X217860Y550850D01*
X217860Y551800D02*
X208860Y551800D01*
X208860Y552750D02*
X217860Y552750D01*
X217860Y553700D02*
X208860Y553700D01*
X208860Y554650D02*
X217860Y554650D01*
X217860Y555600D02*
X208860Y555600D01*
X208860Y556550D02*
X217860Y556550D01*
X217860Y557500D02*
X208860Y557500D01*
X208860Y558450D02*
X217860Y558450D01*
X217860Y559400D02*
X208860Y559400D01*
X192460Y559400D02*
X192460Y540400D01*
X183460Y540400D01*
X183460Y559400D01*
X192460Y559400D01*
X192460Y541350D02*
X183460Y541350D01*
X183460Y542300D02*
X192460Y542300D01*
X192460Y543250D02*
X183460Y543250D01*
X183460Y544200D02*
X192460Y544200D01*
X192460Y545150D02*
X183460Y545150D01*
X183460Y546100D02*
X192460Y546100D01*
X192460Y547050D02*
X183460Y547050D01*
X183460Y548000D02*
X192460Y548000D01*
X192460Y548950D02*
X183460Y548950D01*
X183460Y549900D02*
X192460Y549900D01*
X192460Y550850D02*
X183460Y550850D01*
X183460Y551800D02*
X192460Y551800D01*
X192460Y552750D02*
X183460Y552750D01*
X183460Y553700D02*
X192460Y553700D01*
X192460Y554650D02*
X183460Y554650D01*
X183460Y555600D02*
X192460Y555600D01*
X192460Y556550D02*
X183460Y556550D01*
X183460Y557500D02*
X192460Y557500D01*
X192460Y558450D02*
X183460Y558450D01*
X183460Y559400D02*
X192460Y559400D01*
X217860Y526400D02*
X217860Y507400D01*
X208860Y507400D01*
X208860Y526400D01*
X217860Y526400D01*
X217860Y508350D02*
X208860Y508350D01*
X208860Y509300D02*
X217860Y509300D01*
X217860Y510250D02*
X208860Y510250D01*
X208860Y511200D02*
X217860Y511200D01*
X217860Y512150D02*
X208860Y512150D01*
X208860Y513100D02*
X217860Y513100D01*
X217860Y514050D02*
X208860Y514050D01*
X208860Y515000D02*
X217860Y515000D01*
X217860Y515950D02*
X208860Y515950D01*
X208860Y516900D02*
X217860Y516900D01*
X217860Y517850D02*
X208860Y517850D01*
X208860Y518800D02*
X217860Y518800D01*
X217860Y519750D02*
X208860Y519750D01*
X208860Y520700D02*
X217860Y520700D01*
X217860Y521650D02*
X208860Y521650D01*
X208860Y522600D02*
X217860Y522600D01*
X217860Y523550D02*
X208860Y523550D01*
X208860Y524500D02*
X217860Y524500D01*
X217860Y525450D02*
X208860Y525450D01*
X208860Y526400D02*
X217860Y526400D01*
X243260Y540400D02*
X243260Y559400D01*
X243260Y540400D02*
X234260Y540400D01*
X234260Y559400D01*
X243260Y559400D01*
X243260Y541350D02*
X234260Y541350D01*
X234260Y542300D02*
X243260Y542300D01*
X243260Y543250D02*
X234260Y543250D01*
X234260Y544200D02*
X243260Y544200D01*
X243260Y545150D02*
X234260Y545150D01*
X234260Y546100D02*
X243260Y546100D01*
X243260Y547050D02*
X234260Y547050D01*
X234260Y548000D02*
X243260Y548000D01*
X243260Y548950D02*
X234260Y548950D01*
X234260Y549900D02*
X243260Y549900D01*
X243260Y550850D02*
X234260Y550850D01*
X234260Y551800D02*
X243260Y551800D01*
X243260Y552750D02*
X234260Y552750D01*
X234260Y553700D02*
X243260Y553700D01*
X243260Y554650D02*
X234260Y554650D01*
X234260Y555600D02*
X243260Y555600D01*
X243260Y556550D02*
X234260Y556550D01*
X234260Y557500D02*
X243260Y557500D01*
X243260Y558450D02*
X234260Y558450D01*
X234260Y559400D02*
X243260Y559400D01*
X268660Y526400D02*
X268660Y507400D01*
X259660Y507400D01*
X259660Y526400D01*
X268660Y526400D01*
X268660Y508350D02*
X259660Y508350D01*
X259660Y509300D02*
X268660Y509300D01*
X268660Y510250D02*
X259660Y510250D01*
X259660Y511200D02*
X268660Y511200D01*
X268660Y512150D02*
X259660Y512150D01*
X259660Y513100D02*
X268660Y513100D01*
X268660Y514050D02*
X259660Y514050D01*
X259660Y515000D02*
X268660Y515000D01*
X268660Y515950D02*
X259660Y515950D01*
X259660Y516900D02*
X268660Y516900D01*
X268660Y517850D02*
X259660Y517850D01*
X259660Y518800D02*
X268660Y518800D01*
X268660Y519750D02*
X259660Y519750D01*
X259660Y520700D02*
X268660Y520700D01*
X268660Y521650D02*
X259660Y521650D01*
X259660Y522600D02*
X268660Y522600D01*
X268660Y523550D02*
X259660Y523550D01*
X259660Y524500D02*
X268660Y524500D01*
X268660Y525450D02*
X259660Y525450D01*
X259660Y526400D02*
X268660Y526400D01*
X294060Y540400D02*
X294060Y559400D01*
X294060Y540400D02*
X285060Y540400D01*
X285060Y559400D01*
X294060Y559400D01*
X294060Y541350D02*
X285060Y541350D01*
X285060Y542300D02*
X294060Y542300D01*
X294060Y543250D02*
X285060Y543250D01*
X285060Y544200D02*
X294060Y544200D01*
X294060Y545150D02*
X285060Y545150D01*
X285060Y546100D02*
X294060Y546100D01*
X294060Y547050D02*
X285060Y547050D01*
X285060Y548000D02*
X294060Y548000D01*
X294060Y548950D02*
X285060Y548950D01*
X285060Y549900D02*
X294060Y549900D01*
X294060Y550850D02*
X285060Y550850D01*
X285060Y551800D02*
X294060Y551800D01*
X294060Y552750D02*
X285060Y552750D01*
X285060Y553700D02*
X294060Y553700D01*
X294060Y554650D02*
X285060Y554650D01*
X285060Y555600D02*
X294060Y555600D01*
X294060Y556550D02*
X285060Y556550D01*
X285060Y557500D02*
X294060Y557500D01*
X294060Y558450D02*
X285060Y558450D01*
X285060Y559400D02*
X294060Y559400D01*
X319460Y526400D02*
X319460Y507400D01*
X310460Y507400D01*
X310460Y526400D01*
X319460Y526400D01*
X319460Y508350D02*
X310460Y508350D01*
X310460Y509300D02*
X319460Y509300D01*
X319460Y510250D02*
X310460Y510250D01*
X310460Y511200D02*
X319460Y511200D01*
X319460Y512150D02*
X310460Y512150D01*
X310460Y513100D02*
X319460Y513100D01*
X319460Y514050D02*
X310460Y514050D01*
X310460Y515000D02*
X319460Y515000D01*
X319460Y515950D02*
X310460Y515950D01*
X310460Y516900D02*
X319460Y516900D01*
X319460Y517850D02*
X310460Y517850D01*
X310460Y518800D02*
X319460Y518800D01*
X319460Y519750D02*
X310460Y519750D01*
X310460Y520700D02*
X319460Y520700D01*
X319460Y521650D02*
X310460Y521650D01*
X310460Y522600D02*
X319460Y522600D01*
X319460Y523550D02*
X310460Y523550D01*
X310460Y524500D02*
X319460Y524500D01*
X319460Y525450D02*
X310460Y525450D01*
X310460Y526400D02*
X319460Y526400D01*
X344860Y540400D02*
X344860Y559400D01*
X344860Y540400D02*
X335860Y540400D01*
X335860Y559400D01*
X344860Y559400D01*
X344860Y541350D02*
X335860Y541350D01*
X335860Y542300D02*
X344860Y542300D01*
X344860Y543250D02*
X335860Y543250D01*
X335860Y544200D02*
X344860Y544200D01*
X344860Y545150D02*
X335860Y545150D01*
X335860Y546100D02*
X344860Y546100D01*
X344860Y547050D02*
X335860Y547050D01*
X335860Y548000D02*
X344860Y548000D01*
X344860Y548950D02*
X335860Y548950D01*
X335860Y549900D02*
X344860Y549900D01*
X344860Y550850D02*
X335860Y550850D01*
X335860Y551800D02*
X344860Y551800D01*
X344860Y552750D02*
X335860Y552750D01*
X335860Y553700D02*
X344860Y553700D01*
X344860Y554650D02*
X335860Y554650D01*
X335860Y555600D02*
X344860Y555600D01*
X344860Y556550D02*
X335860Y556550D01*
X335860Y557500D02*
X344860Y557500D01*
X344860Y558450D02*
X335860Y558450D01*
X335860Y559400D02*
X344860Y559400D01*
X361260Y526400D02*
X361260Y507400D01*
X361260Y526400D02*
X370260Y526400D01*
X370260Y507400D01*
X361260Y507400D01*
X361260Y508350D02*
X370260Y508350D01*
X370260Y509300D02*
X361260Y509300D01*
X361260Y510250D02*
X370260Y510250D01*
X370260Y511200D02*
X361260Y511200D01*
X361260Y512150D02*
X370260Y512150D01*
X370260Y513100D02*
X361260Y513100D01*
X361260Y514050D02*
X370260Y514050D01*
X370260Y515000D02*
X361260Y515000D01*
X361260Y515950D02*
X370260Y515950D01*
X370260Y516900D02*
X361260Y516900D01*
X361260Y517850D02*
X370260Y517850D01*
X370260Y518800D02*
X361260Y518800D01*
X361260Y519750D02*
X370260Y519750D01*
X370260Y520700D02*
X361260Y520700D01*
X361260Y521650D02*
X370260Y521650D01*
X370260Y522600D02*
X361260Y522600D01*
X361260Y523550D02*
X370260Y523550D01*
X370260Y524500D02*
X361260Y524500D01*
X361260Y525450D02*
X370260Y525450D01*
X370260Y526400D02*
X361260Y526400D01*
X183460Y526400D02*
X183460Y507400D01*
X183460Y526400D02*
X192460Y526400D01*
X192460Y507400D01*
X183460Y507400D01*
X183460Y508350D02*
X192460Y508350D01*
X192460Y509300D02*
X183460Y509300D01*
X183460Y510250D02*
X192460Y510250D01*
X192460Y511200D02*
X183460Y511200D01*
X183460Y512150D02*
X192460Y512150D01*
X192460Y513100D02*
X183460Y513100D01*
X183460Y514050D02*
X192460Y514050D01*
X192460Y515000D02*
X183460Y515000D01*
X183460Y515950D02*
X192460Y515950D01*
X192460Y516900D02*
X183460Y516900D01*
X183460Y517850D02*
X192460Y517850D01*
X192460Y518800D02*
X183460Y518800D01*
X183460Y519750D02*
X192460Y519750D01*
X192460Y520700D02*
X183460Y520700D01*
X183460Y521650D02*
X192460Y521650D01*
X192460Y522600D02*
X183460Y522600D01*
X183460Y523550D02*
X192460Y523550D01*
X192460Y524500D02*
X183460Y524500D01*
X183460Y525450D02*
X192460Y525450D01*
X192460Y526400D02*
X183460Y526400D01*
X386660Y540400D02*
X386660Y559400D01*
X395660Y559400D01*
X395660Y540400D01*
X386660Y540400D01*
X386660Y541350D02*
X395660Y541350D01*
X395660Y542300D02*
X386660Y542300D01*
X386660Y543250D02*
X395660Y543250D01*
X395660Y544200D02*
X386660Y544200D01*
X386660Y545150D02*
X395660Y545150D01*
X395660Y546100D02*
X386660Y546100D01*
X386660Y547050D02*
X395660Y547050D01*
X395660Y548000D02*
X386660Y548000D01*
X386660Y548950D02*
X395660Y548950D01*
X395660Y549900D02*
X386660Y549900D01*
X386660Y550850D02*
X395660Y550850D01*
X395660Y551800D02*
X386660Y551800D01*
X386660Y552750D02*
X395660Y552750D01*
X395660Y553700D02*
X386660Y553700D01*
X386660Y554650D02*
X395660Y554650D01*
X395660Y555600D02*
X386660Y555600D01*
X386660Y556550D02*
X395660Y556550D01*
X395660Y557500D02*
X386660Y557500D01*
X386660Y558450D02*
X395660Y558450D01*
X395660Y559400D02*
X386660Y559400D01*
X412060Y559400D02*
X412060Y540400D01*
X412060Y559400D02*
X421060Y559400D01*
X421060Y540400D01*
X412060Y540400D01*
X412060Y541350D02*
X421060Y541350D01*
X421060Y542300D02*
X412060Y542300D01*
X412060Y543250D02*
X421060Y543250D01*
X421060Y544200D02*
X412060Y544200D01*
X412060Y545150D02*
X421060Y545150D01*
X421060Y546100D02*
X412060Y546100D01*
X412060Y547050D02*
X421060Y547050D01*
X421060Y548000D02*
X412060Y548000D01*
X412060Y548950D02*
X421060Y548950D01*
X421060Y549900D02*
X412060Y549900D01*
X412060Y550850D02*
X421060Y550850D01*
X421060Y551800D02*
X412060Y551800D01*
X412060Y552750D02*
X421060Y552750D01*
X421060Y553700D02*
X412060Y553700D01*
X412060Y554650D02*
X421060Y554650D01*
X421060Y555600D02*
X412060Y555600D01*
X412060Y556550D02*
X421060Y556550D01*
X421060Y557500D02*
X412060Y557500D01*
X412060Y558450D02*
X421060Y558450D01*
X421060Y559400D02*
X412060Y559400D01*
X386660Y526400D02*
X386660Y507400D01*
X386660Y526400D02*
X395660Y526400D01*
X395660Y507400D01*
X386660Y507400D01*
X386660Y508350D02*
X395660Y508350D01*
X395660Y509300D02*
X386660Y509300D01*
X386660Y510250D02*
X395660Y510250D01*
X395660Y511200D02*
X386660Y511200D01*
X386660Y512150D02*
X395660Y512150D01*
X395660Y513100D02*
X386660Y513100D01*
X386660Y514050D02*
X395660Y514050D01*
X395660Y515000D02*
X386660Y515000D01*
X386660Y515950D02*
X395660Y515950D01*
X395660Y516900D02*
X386660Y516900D01*
X386660Y517850D02*
X395660Y517850D01*
X395660Y518800D02*
X386660Y518800D01*
X386660Y519750D02*
X395660Y519750D01*
X395660Y520700D02*
X386660Y520700D01*
X386660Y521650D02*
X395660Y521650D01*
X395660Y522600D02*
X386660Y522600D01*
X386660Y523550D02*
X395660Y523550D01*
X395660Y524500D02*
X386660Y524500D01*
X386660Y525450D02*
X395660Y525450D01*
X395660Y526400D02*
X386660Y526400D01*
X412060Y526400D02*
X412060Y507400D01*
X412060Y526400D02*
X421060Y526400D01*
X421060Y507400D01*
X412060Y507400D01*
X412060Y508350D02*
X421060Y508350D01*
X421060Y509300D02*
X412060Y509300D01*
X412060Y510250D02*
X421060Y510250D01*
X421060Y511200D02*
X412060Y511200D01*
X412060Y512150D02*
X421060Y512150D01*
X421060Y513100D02*
X412060Y513100D01*
X412060Y514050D02*
X421060Y514050D01*
X421060Y515000D02*
X412060Y515000D01*
X412060Y515950D02*
X421060Y515950D01*
X421060Y516900D02*
X412060Y516900D01*
X412060Y517850D02*
X421060Y517850D01*
X421060Y518800D02*
X412060Y518800D01*
X412060Y519750D02*
X421060Y519750D01*
X421060Y520700D02*
X412060Y520700D01*
X412060Y521650D02*
X421060Y521650D01*
X421060Y522600D02*
X412060Y522600D01*
X412060Y523550D02*
X421060Y523550D01*
X421060Y524500D02*
X412060Y524500D01*
X412060Y525450D02*
X421060Y525450D01*
X421060Y526400D02*
X412060Y526400D01*
D15*
X432000Y67400D03*
X431800Y34400D03*
X457400Y67400D03*
X457200Y34400D03*
X406500Y67400D03*
X406300Y34400D03*
X381200Y67400D03*
X381000Y34400D03*
X355800Y67400D03*
X355600Y34400D03*
X330300Y67400D03*
X330100Y34400D03*
X279600Y67400D03*
X279400Y34400D03*
X305000Y67400D03*
X304800Y34400D03*
D16*
X488025Y236920D02*
X502575Y236920D01*
X502575Y248920D02*
X488025Y248920D01*
X488025Y260920D02*
X502575Y260920D01*
D10*
X657750Y300300D02*
X688450Y300300D01*
X657750Y300300D02*
X657750Y309300D01*
X688450Y309300D01*
X688450Y300300D01*
X688450Y301250D02*
X657750Y301250D01*
X657750Y302200D02*
X688450Y302200D01*
X688450Y303150D02*
X657750Y303150D01*
X657750Y304100D02*
X688450Y304100D01*
X688450Y305050D02*
X657750Y305050D01*
X657750Y306000D02*
X688450Y306000D01*
X688450Y306950D02*
X657750Y306950D01*
X657750Y307900D02*
X688450Y307900D01*
X688450Y308850D02*
X657750Y308850D01*
X637650Y300300D02*
X606950Y300300D01*
X606950Y309300D01*
X637650Y309300D01*
X637650Y300300D01*
X637650Y301250D02*
X606950Y301250D01*
X606950Y302200D02*
X637650Y302200D01*
X637650Y303150D02*
X606950Y303150D01*
X606950Y304100D02*
X637650Y304100D01*
X637650Y305050D02*
X606950Y305050D01*
X606950Y306000D02*
X637650Y306000D01*
X637650Y306950D02*
X606950Y306950D01*
X606950Y307900D02*
X637650Y307900D01*
X637650Y308850D02*
X606950Y308850D01*
X606950Y274900D02*
X637650Y274900D01*
X606950Y274900D02*
X606950Y283900D01*
X637650Y283900D01*
X637650Y274900D01*
X637650Y275850D02*
X606950Y275850D01*
X606950Y276800D02*
X637650Y276800D01*
X637650Y277750D02*
X606950Y277750D01*
X606950Y278700D02*
X637650Y278700D01*
X637650Y279650D02*
X606950Y279650D01*
X606950Y280600D02*
X637650Y280600D01*
X637650Y281550D02*
X606950Y281550D01*
X606950Y282500D02*
X637650Y282500D01*
X637650Y283450D02*
X606950Y283450D01*
X657750Y274900D02*
X688450Y274900D01*
X657750Y274900D02*
X657750Y283900D01*
X688450Y283900D01*
X688450Y274900D01*
X688450Y275850D02*
X657750Y275850D01*
X657750Y276800D02*
X688450Y276800D01*
X688450Y277750D02*
X657750Y277750D01*
X657750Y278700D02*
X688450Y278700D01*
X688450Y279650D02*
X657750Y279650D01*
X657750Y280600D02*
X688450Y280600D01*
X688450Y281550D02*
X657750Y281550D01*
X657750Y282500D02*
X688450Y282500D01*
X688450Y283450D02*
X657750Y283450D01*
X657750Y325700D02*
X688450Y325700D01*
X657750Y325700D02*
X657750Y334700D01*
X688450Y334700D01*
X688450Y325700D01*
X688450Y326650D02*
X657750Y326650D01*
X657750Y327600D02*
X688450Y327600D01*
X688450Y328550D02*
X657750Y328550D01*
X657750Y329500D02*
X688450Y329500D01*
X688450Y330450D02*
X657750Y330450D01*
X657750Y331400D02*
X688450Y331400D01*
X688450Y332350D02*
X657750Y332350D01*
X657750Y333300D02*
X688450Y333300D01*
X688450Y334250D02*
X657750Y334250D01*
X637650Y325700D02*
X606950Y325700D01*
X606950Y334700D01*
X637650Y334700D01*
X637650Y325700D01*
X637650Y326650D02*
X606950Y326650D01*
X606950Y327600D02*
X637650Y327600D01*
X637650Y328550D02*
X606950Y328550D01*
X606950Y329500D02*
X637650Y329500D01*
X637650Y330450D02*
X606950Y330450D01*
X606950Y331400D02*
X637650Y331400D01*
X637650Y332350D02*
X606950Y332350D01*
X606950Y333300D02*
X637650Y333300D01*
X637650Y334250D02*
X606950Y334250D01*
D11*
X195710Y256430D02*
X195710Y241410D01*
X182690Y241410D01*
X182690Y256430D01*
X195710Y256430D01*
X195710Y242341D02*
X182690Y242341D01*
X182690Y243272D02*
X195710Y243272D01*
X195710Y244203D02*
X182690Y244203D01*
X182690Y245134D02*
X195710Y245134D01*
X195710Y246065D02*
X182690Y246065D01*
X182690Y246996D02*
X195710Y246996D01*
X195710Y247927D02*
X182690Y247927D01*
X182690Y248858D02*
X195710Y248858D01*
X195710Y249789D02*
X182690Y249789D01*
X182690Y250720D02*
X195710Y250720D01*
X195710Y251651D02*
X182690Y251651D01*
X182690Y252582D02*
X195710Y252582D01*
X195710Y253513D02*
X182690Y253513D01*
X182690Y254444D02*
X195710Y254444D01*
X195710Y255375D02*
X182690Y255375D01*
X182690Y256306D02*
X195710Y256306D01*
X223710Y256430D02*
X223710Y241410D01*
X210690Y241410D01*
X210690Y256430D01*
X223710Y256430D01*
X223710Y242341D02*
X210690Y242341D01*
X210690Y243272D02*
X223710Y243272D01*
X223710Y244203D02*
X210690Y244203D01*
X210690Y245134D02*
X223710Y245134D01*
X223710Y246065D02*
X210690Y246065D01*
X210690Y246996D02*
X223710Y246996D01*
X223710Y247927D02*
X210690Y247927D01*
X210690Y248858D02*
X223710Y248858D01*
X223710Y249789D02*
X210690Y249789D01*
X210690Y250720D02*
X223710Y250720D01*
X223710Y251651D02*
X210690Y251651D01*
X210690Y252582D02*
X223710Y252582D01*
X223710Y253513D02*
X210690Y253513D01*
X210690Y254444D02*
X223710Y254444D01*
X223710Y255375D02*
X210690Y255375D01*
X210690Y256306D02*
X223710Y256306D01*
D17*
X559870Y375750D02*
X570910Y375750D01*
X559870Y375750D02*
X559870Y388790D01*
X570910Y388790D01*
X570910Y375750D01*
X570910Y376662D02*
X559870Y376662D01*
X559870Y377574D02*
X570910Y377574D01*
X570910Y378486D02*
X559870Y378486D01*
X559870Y379398D02*
X570910Y379398D01*
X570910Y380310D02*
X559870Y380310D01*
X559870Y381222D02*
X570910Y381222D01*
X570910Y382134D02*
X559870Y382134D01*
X559870Y383046D02*
X570910Y383046D01*
X570910Y383958D02*
X559870Y383958D01*
X559870Y384870D02*
X570910Y384870D01*
X570910Y385782D02*
X559870Y385782D01*
X559870Y386694D02*
X570910Y386694D01*
X570910Y387606D02*
X559870Y387606D01*
X559870Y388518D02*
X570910Y388518D01*
X589870Y375750D02*
X600910Y375750D01*
X589870Y375750D02*
X589870Y388790D01*
X600910Y388790D01*
X600910Y375750D01*
X600910Y376662D02*
X589870Y376662D01*
X589870Y377574D02*
X600910Y377574D01*
X600910Y378486D02*
X589870Y378486D01*
X589870Y379398D02*
X600910Y379398D01*
X600910Y380310D02*
X589870Y380310D01*
X589870Y381222D02*
X600910Y381222D01*
X600910Y382134D02*
X589870Y382134D01*
X589870Y383046D02*
X600910Y383046D01*
X600910Y383958D02*
X589870Y383958D01*
X589870Y384870D02*
X600910Y384870D01*
X600910Y385782D02*
X589870Y385782D01*
X589870Y386694D02*
X600910Y386694D01*
X600910Y387606D02*
X589870Y387606D01*
X589870Y388518D02*
X600910Y388518D01*
X269920Y426550D02*
X258880Y426550D01*
X258880Y439590D01*
X269920Y439590D01*
X269920Y426550D01*
X269920Y427462D02*
X258880Y427462D01*
X258880Y428374D02*
X269920Y428374D01*
X269920Y429286D02*
X258880Y429286D01*
X258880Y430198D02*
X269920Y430198D01*
X269920Y431110D02*
X258880Y431110D01*
X258880Y432022D02*
X269920Y432022D01*
X269920Y432934D02*
X258880Y432934D01*
X258880Y433846D02*
X269920Y433846D01*
X269920Y434758D02*
X258880Y434758D01*
X258880Y435670D02*
X269920Y435670D01*
X269920Y436582D02*
X258880Y436582D01*
X258880Y437494D02*
X269920Y437494D01*
X269920Y438406D02*
X258880Y438406D01*
X258880Y439318D02*
X269920Y439318D01*
X288880Y426550D02*
X299920Y426550D01*
X288880Y426550D02*
X288880Y439590D01*
X299920Y439590D01*
X299920Y426550D01*
X299920Y427462D02*
X288880Y427462D01*
X288880Y428374D02*
X299920Y428374D01*
X299920Y429286D02*
X288880Y429286D01*
X288880Y430198D02*
X299920Y430198D01*
X299920Y431110D02*
X288880Y431110D01*
X288880Y432022D02*
X299920Y432022D01*
X299920Y432934D02*
X288880Y432934D01*
X288880Y433846D02*
X299920Y433846D01*
X299920Y434758D02*
X288880Y434758D01*
X288880Y435670D02*
X299920Y435670D01*
X299920Y436582D02*
X288880Y436582D01*
X288880Y437494D02*
X299920Y437494D01*
X299920Y438406D02*
X288880Y438406D01*
X288880Y439318D02*
X299920Y439318D01*
D18*
X153178Y93562D02*
X153178Y81878D01*
X153178Y93562D02*
X166862Y93562D01*
X166862Y81878D01*
X153178Y81878D01*
X153178Y82843D02*
X166862Y82843D01*
X166862Y83808D02*
X153178Y83808D01*
X153178Y84773D02*
X166862Y84773D01*
X166862Y85738D02*
X153178Y85738D01*
X153178Y86703D02*
X166862Y86703D01*
X166862Y87668D02*
X153178Y87668D01*
X153178Y88633D02*
X166862Y88633D01*
X166862Y89598D02*
X153178Y89598D01*
X153178Y90563D02*
X166862Y90563D01*
X166862Y91528D02*
X153178Y91528D01*
X153178Y92493D02*
X166862Y92493D01*
X166862Y93458D02*
X153178Y93458D01*
X166862Y124878D02*
X166862Y136562D01*
X166862Y124878D02*
X153178Y124878D01*
X153178Y136562D01*
X166862Y136562D01*
X166862Y125843D02*
X153178Y125843D01*
X153178Y126808D02*
X166862Y126808D01*
X166862Y127773D02*
X153178Y127773D01*
X153178Y128738D02*
X166862Y128738D01*
X166862Y129703D02*
X153178Y129703D01*
X153178Y130668D02*
X166862Y130668D01*
X166862Y131633D02*
X153178Y131633D01*
X153178Y132598D02*
X166862Y132598D01*
X166862Y133563D02*
X153178Y133563D01*
X153178Y134528D02*
X166862Y134528D01*
X166862Y135493D02*
X153178Y135493D01*
X153178Y136458D02*
X166862Y136458D01*
D15*
X609800Y550000D03*
X609600Y517000D03*
X635200Y550000D03*
X635000Y517000D03*
X584300Y550000D03*
X584100Y517000D03*
X559000Y550000D03*
X558800Y517000D03*
X533600Y550000D03*
X533400Y517000D03*
X508100Y550000D03*
X507900Y517000D03*
X457400Y550000D03*
X457200Y517000D03*
X482800Y550000D03*
X482600Y517000D03*
D10*
X605100Y43800D02*
X605100Y24800D01*
X605100Y43800D02*
X614100Y43800D01*
X614100Y24800D01*
X605100Y24800D01*
X605100Y25750D02*
X614100Y25750D01*
X614100Y26700D02*
X605100Y26700D01*
X605100Y27650D02*
X614100Y27650D01*
X614100Y28600D02*
X605100Y28600D01*
X605100Y29550D02*
X614100Y29550D01*
X614100Y30500D02*
X605100Y30500D01*
X605100Y31450D02*
X614100Y31450D01*
X614100Y32400D02*
X605100Y32400D01*
X605100Y33350D02*
X614100Y33350D01*
X614100Y34300D02*
X605100Y34300D01*
X605100Y35250D02*
X614100Y35250D01*
X614100Y36200D02*
X605100Y36200D01*
X605100Y37150D02*
X614100Y37150D01*
X614100Y38100D02*
X605100Y38100D01*
X605100Y39050D02*
X614100Y39050D01*
X614100Y40000D02*
X605100Y40000D01*
X605100Y40950D02*
X614100Y40950D01*
X614100Y41900D02*
X605100Y41900D01*
X605100Y42850D02*
X614100Y42850D01*
X614100Y43800D02*
X605100Y43800D01*
X554300Y43800D02*
X554300Y24800D01*
X554300Y43800D02*
X563300Y43800D01*
X563300Y24800D01*
X554300Y24800D01*
X554300Y25750D02*
X563300Y25750D01*
X563300Y26700D02*
X554300Y26700D01*
X554300Y27650D02*
X563300Y27650D01*
X563300Y28600D02*
X554300Y28600D01*
X554300Y29550D02*
X563300Y29550D01*
X563300Y30500D02*
X554300Y30500D01*
X554300Y31450D02*
X563300Y31450D01*
X563300Y32400D02*
X554300Y32400D01*
X554300Y33350D02*
X563300Y33350D01*
X563300Y34300D02*
X554300Y34300D01*
X554300Y35250D02*
X563300Y35250D01*
X563300Y36200D02*
X554300Y36200D01*
X554300Y37150D02*
X563300Y37150D01*
X563300Y38100D02*
X554300Y38100D01*
X554300Y39050D02*
X563300Y39050D01*
X563300Y40000D02*
X554300Y40000D01*
X554300Y40950D02*
X563300Y40950D01*
X563300Y41900D02*
X554300Y41900D01*
X554300Y42850D02*
X563300Y42850D01*
X563300Y43800D02*
X554300Y43800D01*
X503500Y43800D02*
X503500Y24800D01*
X503500Y43800D02*
X512500Y43800D01*
X512500Y24800D01*
X503500Y24800D01*
X503500Y25750D02*
X512500Y25750D01*
X512500Y26700D02*
X503500Y26700D01*
X503500Y27650D02*
X512500Y27650D01*
X512500Y28600D02*
X503500Y28600D01*
X503500Y29550D02*
X512500Y29550D01*
X512500Y30500D02*
X503500Y30500D01*
X503500Y31450D02*
X512500Y31450D01*
X512500Y32400D02*
X503500Y32400D01*
X503500Y33350D02*
X512500Y33350D01*
X512500Y34300D02*
X503500Y34300D01*
X503500Y35250D02*
X512500Y35250D01*
X512500Y36200D02*
X503500Y36200D01*
X503500Y37150D02*
X512500Y37150D01*
X512500Y38100D02*
X503500Y38100D01*
X503500Y39050D02*
X512500Y39050D01*
X512500Y40000D02*
X503500Y40000D01*
X503500Y40950D02*
X512500Y40950D01*
X512500Y41900D02*
X503500Y41900D01*
X503500Y42850D02*
X512500Y42850D01*
X512500Y43800D02*
X503500Y43800D01*
X630500Y57800D02*
X630500Y76800D01*
X639500Y76800D01*
X639500Y57800D01*
X630500Y57800D01*
X630500Y58750D02*
X639500Y58750D01*
X639500Y59700D02*
X630500Y59700D01*
X630500Y60650D02*
X639500Y60650D01*
X639500Y61600D02*
X630500Y61600D01*
X630500Y62550D02*
X639500Y62550D01*
X639500Y63500D02*
X630500Y63500D01*
X630500Y64450D02*
X639500Y64450D01*
X639500Y65400D02*
X630500Y65400D01*
X630500Y66350D02*
X639500Y66350D01*
X639500Y67300D02*
X630500Y67300D01*
X630500Y68250D02*
X639500Y68250D01*
X639500Y69200D02*
X630500Y69200D01*
X630500Y70150D02*
X639500Y70150D01*
X639500Y71100D02*
X630500Y71100D01*
X630500Y72050D02*
X639500Y72050D01*
X639500Y73000D02*
X630500Y73000D01*
X630500Y73950D02*
X639500Y73950D01*
X639500Y74900D02*
X630500Y74900D01*
X630500Y75850D02*
X639500Y75850D01*
X639500Y76800D02*
X630500Y76800D01*
X579700Y76800D02*
X579700Y57800D01*
X579700Y76800D02*
X588700Y76800D01*
X588700Y57800D01*
X579700Y57800D01*
X579700Y58750D02*
X588700Y58750D01*
X588700Y59700D02*
X579700Y59700D01*
X579700Y60650D02*
X588700Y60650D01*
X588700Y61600D02*
X579700Y61600D01*
X579700Y62550D02*
X588700Y62550D01*
X588700Y63500D02*
X579700Y63500D01*
X579700Y64450D02*
X588700Y64450D01*
X588700Y65400D02*
X579700Y65400D01*
X579700Y66350D02*
X588700Y66350D01*
X588700Y67300D02*
X579700Y67300D01*
X579700Y68250D02*
X588700Y68250D01*
X588700Y69200D02*
X579700Y69200D01*
X579700Y70150D02*
X588700Y70150D01*
X588700Y71100D02*
X579700Y71100D01*
X579700Y72050D02*
X588700Y72050D01*
X588700Y73000D02*
X579700Y73000D01*
X579700Y73950D02*
X588700Y73950D01*
X588700Y74900D02*
X579700Y74900D01*
X579700Y75850D02*
X588700Y75850D01*
X588700Y76800D02*
X579700Y76800D01*
X528900Y76800D02*
X528900Y57800D01*
X528900Y76800D02*
X537900Y76800D01*
X537900Y57800D01*
X528900Y57800D01*
X528900Y58750D02*
X537900Y58750D01*
X537900Y59700D02*
X528900Y59700D01*
X528900Y60650D02*
X537900Y60650D01*
X537900Y61600D02*
X528900Y61600D01*
X528900Y62550D02*
X537900Y62550D01*
X537900Y63500D02*
X528900Y63500D01*
X528900Y64450D02*
X537900Y64450D01*
X537900Y65400D02*
X528900Y65400D01*
X528900Y66350D02*
X537900Y66350D01*
X537900Y67300D02*
X528900Y67300D01*
X528900Y68250D02*
X537900Y68250D01*
X537900Y69200D02*
X528900Y69200D01*
X528900Y70150D02*
X537900Y70150D01*
X537900Y71100D02*
X528900Y71100D01*
X528900Y72050D02*
X537900Y72050D01*
X537900Y73000D02*
X528900Y73000D01*
X528900Y73950D02*
X537900Y73950D01*
X537900Y74900D02*
X528900Y74900D01*
X528900Y75850D02*
X537900Y75850D01*
X537900Y76800D02*
X528900Y76800D01*
X512500Y76800D02*
X512500Y57800D01*
X503500Y57800D01*
X503500Y76800D01*
X512500Y76800D01*
X512500Y58750D02*
X503500Y58750D01*
X503500Y59700D02*
X512500Y59700D01*
X512500Y60650D02*
X503500Y60650D01*
X503500Y61600D02*
X512500Y61600D01*
X512500Y62550D02*
X503500Y62550D01*
X503500Y63500D02*
X512500Y63500D01*
X512500Y64450D02*
X503500Y64450D01*
X503500Y65400D02*
X512500Y65400D01*
X512500Y66350D02*
X503500Y66350D01*
X503500Y67300D02*
X512500Y67300D01*
X512500Y68250D02*
X503500Y68250D01*
X503500Y69200D02*
X512500Y69200D01*
X512500Y70150D02*
X503500Y70150D01*
X503500Y71100D02*
X512500Y71100D01*
X512500Y72050D02*
X503500Y72050D01*
X503500Y73000D02*
X512500Y73000D01*
X512500Y73950D02*
X503500Y73950D01*
X503500Y74900D02*
X512500Y74900D01*
X512500Y75850D02*
X503500Y75850D01*
X503500Y76800D02*
X512500Y76800D01*
X537900Y43800D02*
X537900Y24800D01*
X528900Y24800D01*
X528900Y43800D01*
X537900Y43800D01*
X537900Y25750D02*
X528900Y25750D01*
X528900Y26700D02*
X537900Y26700D01*
X537900Y27650D02*
X528900Y27650D01*
X528900Y28600D02*
X537900Y28600D01*
X537900Y29550D02*
X528900Y29550D01*
X528900Y30500D02*
X537900Y30500D01*
X537900Y31450D02*
X528900Y31450D01*
X528900Y32400D02*
X537900Y32400D01*
X537900Y33350D02*
X528900Y33350D01*
X528900Y34300D02*
X537900Y34300D01*
X537900Y35250D02*
X528900Y35250D01*
X528900Y36200D02*
X537900Y36200D01*
X537900Y37150D02*
X528900Y37150D01*
X528900Y38100D02*
X537900Y38100D01*
X537900Y39050D02*
X528900Y39050D01*
X528900Y40000D02*
X537900Y40000D01*
X537900Y40950D02*
X528900Y40950D01*
X528900Y41900D02*
X537900Y41900D01*
X537900Y42850D02*
X528900Y42850D01*
X528900Y43800D02*
X537900Y43800D01*
X563300Y57800D02*
X563300Y76800D01*
X563300Y57800D02*
X554300Y57800D01*
X554300Y76800D01*
X563300Y76800D01*
X563300Y58750D02*
X554300Y58750D01*
X554300Y59700D02*
X563300Y59700D01*
X563300Y60650D02*
X554300Y60650D01*
X554300Y61600D02*
X563300Y61600D01*
X563300Y62550D02*
X554300Y62550D01*
X554300Y63500D02*
X563300Y63500D01*
X563300Y64450D02*
X554300Y64450D01*
X554300Y65400D02*
X563300Y65400D01*
X563300Y66350D02*
X554300Y66350D01*
X554300Y67300D02*
X563300Y67300D01*
X563300Y68250D02*
X554300Y68250D01*
X554300Y69200D02*
X563300Y69200D01*
X563300Y70150D02*
X554300Y70150D01*
X554300Y71100D02*
X563300Y71100D01*
X563300Y72050D02*
X554300Y72050D01*
X554300Y73000D02*
X563300Y73000D01*
X563300Y73950D02*
X554300Y73950D01*
X554300Y74900D02*
X563300Y74900D01*
X563300Y75850D02*
X554300Y75850D01*
X554300Y76800D02*
X563300Y76800D01*
X588700Y43800D02*
X588700Y24800D01*
X579700Y24800D01*
X579700Y43800D01*
X588700Y43800D01*
X588700Y25750D02*
X579700Y25750D01*
X579700Y26700D02*
X588700Y26700D01*
X588700Y27650D02*
X579700Y27650D01*
X579700Y28600D02*
X588700Y28600D01*
X588700Y29550D02*
X579700Y29550D01*
X579700Y30500D02*
X588700Y30500D01*
X588700Y31450D02*
X579700Y31450D01*
X579700Y32400D02*
X588700Y32400D01*
X588700Y33350D02*
X579700Y33350D01*
X579700Y34300D02*
X588700Y34300D01*
X588700Y35250D02*
X579700Y35250D01*
X579700Y36200D02*
X588700Y36200D01*
X588700Y37150D02*
X579700Y37150D01*
X579700Y38100D02*
X588700Y38100D01*
X588700Y39050D02*
X579700Y39050D01*
X579700Y40000D02*
X588700Y40000D01*
X588700Y40950D02*
X579700Y40950D01*
X579700Y41900D02*
X588700Y41900D01*
X588700Y42850D02*
X579700Y42850D01*
X579700Y43800D02*
X588700Y43800D01*
X614100Y57800D02*
X614100Y76800D01*
X614100Y57800D02*
X605100Y57800D01*
X605100Y76800D01*
X614100Y76800D01*
X614100Y58750D02*
X605100Y58750D01*
X605100Y59700D02*
X614100Y59700D01*
X614100Y60650D02*
X605100Y60650D01*
X605100Y61600D02*
X614100Y61600D01*
X614100Y62550D02*
X605100Y62550D01*
X605100Y63500D02*
X614100Y63500D01*
X614100Y64450D02*
X605100Y64450D01*
X605100Y65400D02*
X614100Y65400D01*
X614100Y66350D02*
X605100Y66350D01*
X605100Y67300D02*
X614100Y67300D01*
X614100Y68250D02*
X605100Y68250D01*
X605100Y69200D02*
X614100Y69200D01*
X614100Y70150D02*
X605100Y70150D01*
X605100Y71100D02*
X614100Y71100D01*
X614100Y72050D02*
X605100Y72050D01*
X605100Y73000D02*
X614100Y73000D01*
X614100Y73950D02*
X605100Y73950D01*
X605100Y74900D02*
X614100Y74900D01*
X614100Y75850D02*
X605100Y75850D01*
X605100Y76800D02*
X614100Y76800D01*
X639500Y43800D02*
X639500Y24800D01*
X630500Y24800D01*
X630500Y43800D01*
X639500Y43800D01*
X639500Y25750D02*
X630500Y25750D01*
X630500Y26700D02*
X639500Y26700D01*
X639500Y27650D02*
X630500Y27650D01*
X630500Y28600D02*
X639500Y28600D01*
X639500Y29550D02*
X630500Y29550D01*
X630500Y30500D02*
X639500Y30500D01*
X639500Y31450D02*
X630500Y31450D01*
X630500Y32400D02*
X639500Y32400D01*
X639500Y33350D02*
X630500Y33350D01*
X630500Y34300D02*
X639500Y34300D01*
X639500Y35250D02*
X630500Y35250D01*
X630500Y36200D02*
X639500Y36200D01*
X639500Y37150D02*
X630500Y37150D01*
X630500Y38100D02*
X639500Y38100D01*
X639500Y39050D02*
X630500Y39050D01*
X630500Y40000D02*
X639500Y40000D01*
X639500Y40950D02*
X630500Y40950D01*
X630500Y41900D02*
X639500Y41900D01*
X639500Y42850D02*
X630500Y42850D01*
X630500Y43800D02*
X639500Y43800D01*
D17*
X33840Y157240D02*
X6800Y157240D01*
X6800Y180280D01*
X33840Y180280D01*
X33840Y157240D01*
X33840Y158152D02*
X6800Y158152D01*
X6800Y159064D02*
X33840Y159064D01*
X33840Y159976D02*
X6800Y159976D01*
X6800Y160888D02*
X33840Y160888D01*
X33840Y161800D02*
X6800Y161800D01*
X6800Y162712D02*
X33840Y162712D01*
X33840Y163624D02*
X6800Y163624D01*
X6800Y164536D02*
X33840Y164536D01*
X33840Y165448D02*
X6800Y165448D01*
X6800Y166360D02*
X33840Y166360D01*
X33840Y167272D02*
X6800Y167272D01*
X6800Y168184D02*
X33840Y168184D01*
X33840Y169096D02*
X6800Y169096D01*
X6800Y170008D02*
X33840Y170008D01*
X33840Y170920D02*
X6800Y170920D01*
X6800Y171832D02*
X33840Y171832D01*
X33840Y172744D02*
X6800Y172744D01*
X6800Y173656D02*
X33840Y173656D01*
X33840Y174568D02*
X6800Y174568D01*
X6800Y175480D02*
X33840Y175480D01*
X33840Y176392D02*
X6800Y176392D01*
X6800Y177304D02*
X33840Y177304D01*
X33840Y178216D02*
X6800Y178216D01*
X6800Y179128D02*
X33840Y179128D01*
X33840Y180040D02*
X6800Y180040D01*
X6800Y43240D02*
X33840Y43240D01*
X6800Y43240D02*
X6800Y66280D01*
X33840Y66280D01*
X33840Y43240D01*
X33840Y44152D02*
X6800Y44152D01*
X6800Y45064D02*
X33840Y45064D01*
X33840Y45976D02*
X6800Y45976D01*
X6800Y46888D02*
X33840Y46888D01*
X33840Y47800D02*
X6800Y47800D01*
X6800Y48712D02*
X33840Y48712D01*
X33840Y49624D02*
X6800Y49624D01*
X6800Y50536D02*
X33840Y50536D01*
X33840Y51448D02*
X6800Y51448D01*
X6800Y52360D02*
X33840Y52360D01*
X33840Y53272D02*
X6800Y53272D01*
X6800Y54184D02*
X33840Y54184D01*
X33840Y55096D02*
X6800Y55096D01*
X6800Y56008D02*
X33840Y56008D01*
X33840Y56920D02*
X6800Y56920D01*
X6800Y57832D02*
X33840Y57832D01*
X33840Y58744D02*
X6800Y58744D01*
X6800Y59656D02*
X33840Y59656D01*
X33840Y60568D02*
X6800Y60568D01*
X6800Y61480D02*
X33840Y61480D01*
X33840Y62392D02*
X6800Y62392D01*
X6800Y63304D02*
X33840Y63304D01*
X33840Y64216D02*
X6800Y64216D01*
X6800Y65128D02*
X33840Y65128D01*
X33840Y66040D02*
X6800Y66040D01*
X67800Y157240D02*
X94840Y157240D01*
X67800Y157240D02*
X67800Y180280D01*
X94840Y180280D01*
X94840Y157240D01*
X94840Y158152D02*
X67800Y158152D01*
X67800Y159064D02*
X94840Y159064D01*
X94840Y159976D02*
X67800Y159976D01*
X67800Y160888D02*
X94840Y160888D01*
X94840Y161800D02*
X67800Y161800D01*
X67800Y162712D02*
X94840Y162712D01*
X94840Y163624D02*
X67800Y163624D01*
X67800Y164536D02*
X94840Y164536D01*
X94840Y165448D02*
X67800Y165448D01*
X67800Y166360D02*
X94840Y166360D01*
X94840Y167272D02*
X67800Y167272D01*
X67800Y168184D02*
X94840Y168184D01*
X94840Y169096D02*
X67800Y169096D01*
X67800Y170008D02*
X94840Y170008D01*
X94840Y170920D02*
X67800Y170920D01*
X67800Y171832D02*
X94840Y171832D01*
X94840Y172744D02*
X67800Y172744D01*
X67800Y173656D02*
X94840Y173656D01*
X94840Y174568D02*
X67800Y174568D01*
X67800Y175480D02*
X94840Y175480D01*
X94840Y176392D02*
X67800Y176392D01*
X67800Y177304D02*
X94840Y177304D01*
X94840Y178216D02*
X67800Y178216D01*
X67800Y179128D02*
X94840Y179128D01*
X94840Y180040D02*
X67800Y180040D01*
X67800Y43240D02*
X94840Y43240D01*
X67800Y43240D02*
X67800Y66280D01*
X94840Y66280D01*
X94840Y43240D01*
X94840Y44152D02*
X67800Y44152D01*
X67800Y45064D02*
X94840Y45064D01*
X94840Y45976D02*
X67800Y45976D01*
X67800Y46888D02*
X94840Y46888D01*
X94840Y47800D02*
X67800Y47800D01*
X67800Y48712D02*
X94840Y48712D01*
X94840Y49624D02*
X67800Y49624D01*
X67800Y50536D02*
X94840Y50536D01*
X94840Y51448D02*
X67800Y51448D01*
X67800Y52360D02*
X94840Y52360D01*
X94840Y53272D02*
X67800Y53272D01*
X67800Y54184D02*
X94840Y54184D01*
X94840Y55096D02*
X67800Y55096D01*
X67800Y56008D02*
X94840Y56008D01*
X94840Y56920D02*
X67800Y56920D01*
X67800Y57832D02*
X94840Y57832D01*
X94840Y58744D02*
X67800Y58744D01*
X67800Y59656D02*
X94840Y59656D01*
X94840Y60568D02*
X67800Y60568D01*
X67800Y61480D02*
X94840Y61480D01*
X94840Y62392D02*
X67800Y62392D01*
X67800Y63304D02*
X94840Y63304D01*
X94840Y64216D02*
X67800Y64216D01*
X67800Y65128D02*
X94840Y65128D01*
X94840Y66040D02*
X67800Y66040D01*
D19*
X606585Y181025D02*
X606585Y186975D01*
X606585Y181025D02*
X600635Y181025D01*
X600635Y186975D01*
X606585Y186975D01*
X606585Y182022D02*
X600635Y182022D01*
X600635Y183019D02*
X606585Y183019D01*
X606585Y184016D02*
X600635Y184016D01*
X600635Y185013D02*
X606585Y185013D01*
X606585Y186010D02*
X600635Y186010D01*
X606585Y194025D02*
X606585Y199975D01*
X606585Y194025D02*
X600635Y194025D01*
X600635Y199975D01*
X606585Y199975D01*
X606585Y195022D02*
X600635Y195022D01*
X600635Y196019D02*
X606585Y196019D01*
X606585Y197016D02*
X600635Y197016D01*
X600635Y198013D02*
X606585Y198013D01*
X606585Y199010D02*
X600635Y199010D01*
X588085Y193475D02*
X588085Y187525D01*
X582135Y187525D01*
X582135Y193475D01*
X588085Y193475D01*
X588085Y188522D02*
X582135Y188522D01*
X582135Y189519D02*
X588085Y189519D01*
X588085Y190516D02*
X582135Y190516D01*
X582135Y191513D02*
X588085Y191513D01*
X588085Y192510D02*
X582135Y192510D01*
D10*
X597860Y220400D02*
X607860Y220400D01*
X607860Y211400D01*
X597860Y211400D01*
X597860Y220400D01*
X597860Y212350D02*
X607860Y212350D01*
X607860Y213300D02*
X597860Y213300D01*
X597860Y214250D02*
X607860Y214250D01*
X607860Y215200D02*
X597860Y215200D01*
X597860Y216150D02*
X607860Y216150D01*
X607860Y217100D02*
X597860Y217100D01*
X597860Y218050D02*
X607860Y218050D01*
X607860Y219000D02*
X597860Y219000D01*
X597860Y219950D02*
X607860Y219950D01*
X590860Y220400D02*
X580860Y220400D01*
X590860Y220400D02*
X590860Y211400D01*
X580860Y211400D01*
X580860Y220400D01*
X580860Y212350D02*
X590860Y212350D01*
X590860Y213300D02*
X580860Y213300D01*
X580860Y214250D02*
X590860Y214250D01*
X590860Y215200D02*
X580860Y215200D01*
X580860Y216150D02*
X590860Y216150D01*
X590860Y217100D02*
X580860Y217100D01*
X580860Y218050D02*
X590860Y218050D01*
X590860Y219000D02*
X580860Y219000D01*
X580860Y219950D02*
X590860Y219950D01*
X597860Y169600D02*
X607860Y169600D01*
X607860Y160600D01*
X597860Y160600D01*
X597860Y169600D01*
X597860Y161550D02*
X607860Y161550D01*
X607860Y162500D02*
X597860Y162500D01*
X597860Y163450D02*
X607860Y163450D01*
X607860Y164400D02*
X597860Y164400D01*
X597860Y165350D02*
X607860Y165350D01*
X607860Y166300D02*
X597860Y166300D01*
X597860Y167250D02*
X607860Y167250D01*
X607860Y168200D02*
X597860Y168200D01*
X597860Y169150D02*
X607860Y169150D01*
X590860Y169600D02*
X580860Y169600D01*
X590860Y169600D02*
X590860Y160600D01*
X580860Y160600D01*
X580860Y169600D01*
X580860Y161550D02*
X590860Y161550D01*
X590860Y162500D02*
X580860Y162500D01*
X580860Y163450D02*
X590860Y163450D01*
X590860Y164400D02*
X580860Y164400D01*
X580860Y165350D02*
X590860Y165350D01*
X590860Y166300D02*
X580860Y166300D01*
X580860Y167250D02*
X590860Y167250D01*
X590860Y168200D02*
X580860Y168200D01*
X580860Y169150D02*
X590860Y169150D01*
D20*
X467873Y202891D02*
X456179Y202891D01*
X467873Y202891D02*
X467873Y198309D01*
X456179Y198309D01*
X456179Y202891D01*
X456179Y199265D02*
X467873Y199265D01*
X467873Y200221D02*
X456179Y200221D01*
X456179Y201177D02*
X467873Y201177D01*
X467873Y202133D02*
X456179Y202133D01*
X456179Y210891D02*
X467873Y210891D01*
X467873Y206309D01*
X456179Y206309D01*
X456179Y210891D01*
X456179Y207265D02*
X467873Y207265D01*
X467873Y208221D02*
X456179Y208221D01*
X456179Y209177D02*
X467873Y209177D01*
X467873Y210133D02*
X456179Y210133D01*
X456179Y218891D02*
X467873Y218891D01*
X467873Y214309D01*
X456179Y214309D01*
X456179Y218891D01*
X456179Y215265D02*
X467873Y215265D01*
X467873Y216221D02*
X456179Y216221D01*
X456179Y217177D02*
X467873Y217177D01*
X467873Y218133D02*
X456179Y218133D01*
X456179Y226891D02*
X467873Y226891D01*
X467873Y222309D01*
X456179Y222309D01*
X456179Y226891D01*
X456179Y223265D02*
X467873Y223265D01*
X467873Y224221D02*
X456179Y224221D01*
X456179Y225177D02*
X467873Y225177D01*
X467873Y226133D02*
X456179Y226133D01*
X456179Y234891D02*
X467873Y234891D01*
X467873Y230309D01*
X456179Y230309D01*
X456179Y234891D01*
X456179Y231265D02*
X467873Y231265D01*
X467873Y232221D02*
X456179Y232221D01*
X456179Y233177D02*
X467873Y233177D01*
X467873Y234133D02*
X456179Y234133D01*
X456179Y242891D02*
X467873Y242891D01*
X467873Y238309D01*
X456179Y238309D01*
X456179Y242891D01*
X456179Y239265D02*
X467873Y239265D01*
X467873Y240221D02*
X456179Y240221D01*
X456179Y241177D02*
X467873Y241177D01*
X467873Y242133D02*
X456179Y242133D01*
X456179Y250891D02*
X467873Y250891D01*
X467873Y246309D01*
X456179Y246309D01*
X456179Y250891D01*
X456179Y247265D02*
X467873Y247265D01*
X467873Y248221D02*
X456179Y248221D01*
X456179Y249177D02*
X467873Y249177D01*
X467873Y250133D02*
X456179Y250133D01*
X456179Y258891D02*
X467873Y258891D01*
X467873Y254309D01*
X456179Y254309D01*
X456179Y258891D01*
X456179Y255265D02*
X467873Y255265D01*
X467873Y256221D02*
X456179Y256221D01*
X456179Y257177D02*
X467873Y257177D01*
X467873Y258133D02*
X456179Y258133D01*
X449391Y277373D02*
X444809Y277373D01*
X449391Y277373D02*
X449391Y265679D01*
X444809Y265679D01*
X444809Y277373D01*
X444809Y266635D02*
X449391Y266635D01*
X449391Y267591D02*
X444809Y267591D01*
X444809Y268547D02*
X449391Y268547D01*
X449391Y269503D02*
X444809Y269503D01*
X444809Y270459D02*
X449391Y270459D01*
X449391Y271415D02*
X444809Y271415D01*
X444809Y272371D02*
X449391Y272371D01*
X449391Y273327D02*
X444809Y273327D01*
X444809Y274283D02*
X449391Y274283D01*
X449391Y275239D02*
X444809Y275239D01*
X444809Y276195D02*
X449391Y276195D01*
X449391Y277151D02*
X444809Y277151D01*
X441391Y277373D02*
X436809Y277373D01*
X441391Y277373D02*
X441391Y265679D01*
X436809Y265679D01*
X436809Y277373D01*
X436809Y266635D02*
X441391Y266635D01*
X441391Y267591D02*
X436809Y267591D01*
X436809Y268547D02*
X441391Y268547D01*
X441391Y269503D02*
X436809Y269503D01*
X436809Y270459D02*
X441391Y270459D01*
X441391Y271415D02*
X436809Y271415D01*
X436809Y272371D02*
X441391Y272371D01*
X441391Y273327D02*
X436809Y273327D01*
X436809Y274283D02*
X441391Y274283D01*
X441391Y275239D02*
X436809Y275239D01*
X436809Y276195D02*
X441391Y276195D01*
X441391Y277151D02*
X436809Y277151D01*
X433391Y277373D02*
X428809Y277373D01*
X433391Y277373D02*
X433391Y265679D01*
X428809Y265679D01*
X428809Y277373D01*
X428809Y266635D02*
X433391Y266635D01*
X433391Y267591D02*
X428809Y267591D01*
X428809Y268547D02*
X433391Y268547D01*
X433391Y269503D02*
X428809Y269503D01*
X428809Y270459D02*
X433391Y270459D01*
X433391Y271415D02*
X428809Y271415D01*
X428809Y272371D02*
X433391Y272371D01*
X433391Y273327D02*
X428809Y273327D01*
X428809Y274283D02*
X433391Y274283D01*
X433391Y275239D02*
X428809Y275239D01*
X428809Y276195D02*
X433391Y276195D01*
X433391Y277151D02*
X428809Y277151D01*
X425391Y277373D02*
X420809Y277373D01*
X425391Y277373D02*
X425391Y265679D01*
X420809Y265679D01*
X420809Y277373D01*
X420809Y266635D02*
X425391Y266635D01*
X425391Y267591D02*
X420809Y267591D01*
X420809Y268547D02*
X425391Y268547D01*
X425391Y269503D02*
X420809Y269503D01*
X420809Y270459D02*
X425391Y270459D01*
X425391Y271415D02*
X420809Y271415D01*
X420809Y272371D02*
X425391Y272371D01*
X425391Y273327D02*
X420809Y273327D01*
X420809Y274283D02*
X425391Y274283D01*
X425391Y275239D02*
X420809Y275239D01*
X420809Y276195D02*
X425391Y276195D01*
X425391Y277151D02*
X420809Y277151D01*
X417391Y277373D02*
X412809Y277373D01*
X417391Y277373D02*
X417391Y265679D01*
X412809Y265679D01*
X412809Y277373D01*
X412809Y266635D02*
X417391Y266635D01*
X417391Y267591D02*
X412809Y267591D01*
X412809Y268547D02*
X417391Y268547D01*
X417391Y269503D02*
X412809Y269503D01*
X412809Y270459D02*
X417391Y270459D01*
X417391Y271415D02*
X412809Y271415D01*
X412809Y272371D02*
X417391Y272371D01*
X417391Y273327D02*
X412809Y273327D01*
X412809Y274283D02*
X417391Y274283D01*
X417391Y275239D02*
X412809Y275239D01*
X412809Y276195D02*
X417391Y276195D01*
X417391Y277151D02*
X412809Y277151D01*
X409391Y277373D02*
X404809Y277373D01*
X409391Y277373D02*
X409391Y265679D01*
X404809Y265679D01*
X404809Y277373D01*
X404809Y266635D02*
X409391Y266635D01*
X409391Y267591D02*
X404809Y267591D01*
X404809Y268547D02*
X409391Y268547D01*
X409391Y269503D02*
X404809Y269503D01*
X404809Y270459D02*
X409391Y270459D01*
X409391Y271415D02*
X404809Y271415D01*
X404809Y272371D02*
X409391Y272371D01*
X409391Y273327D02*
X404809Y273327D01*
X404809Y274283D02*
X409391Y274283D01*
X409391Y275239D02*
X404809Y275239D01*
X404809Y276195D02*
X409391Y276195D01*
X409391Y277151D02*
X404809Y277151D01*
X401391Y277373D02*
X396809Y277373D01*
X401391Y277373D02*
X401391Y265679D01*
X396809Y265679D01*
X396809Y277373D01*
X396809Y266635D02*
X401391Y266635D01*
X401391Y267591D02*
X396809Y267591D01*
X396809Y268547D02*
X401391Y268547D01*
X401391Y269503D02*
X396809Y269503D01*
X396809Y270459D02*
X401391Y270459D01*
X401391Y271415D02*
X396809Y271415D01*
X396809Y272371D02*
X401391Y272371D01*
X401391Y273327D02*
X396809Y273327D01*
X396809Y274283D02*
X401391Y274283D01*
X401391Y275239D02*
X396809Y275239D01*
X396809Y276195D02*
X401391Y276195D01*
X401391Y277151D02*
X396809Y277151D01*
X393391Y277373D02*
X388809Y277373D01*
X393391Y277373D02*
X393391Y265679D01*
X388809Y265679D01*
X388809Y277373D01*
X388809Y266635D02*
X393391Y266635D01*
X393391Y267591D02*
X388809Y267591D01*
X388809Y268547D02*
X393391Y268547D01*
X393391Y269503D02*
X388809Y269503D01*
X388809Y270459D02*
X393391Y270459D01*
X393391Y271415D02*
X388809Y271415D01*
X388809Y272371D02*
X393391Y272371D01*
X393391Y273327D02*
X388809Y273327D01*
X388809Y274283D02*
X393391Y274283D01*
X393391Y275239D02*
X388809Y275239D01*
X388809Y276195D02*
X393391Y276195D01*
X393391Y277151D02*
X388809Y277151D01*
X382021Y258891D02*
X370327Y258891D01*
X382021Y258891D02*
X382021Y254309D01*
X370327Y254309D01*
X370327Y258891D01*
X370327Y255265D02*
X382021Y255265D01*
X382021Y256221D02*
X370327Y256221D01*
X370327Y257177D02*
X382021Y257177D01*
X382021Y258133D02*
X370327Y258133D01*
X370327Y250891D02*
X382021Y250891D01*
X382021Y246309D01*
X370327Y246309D01*
X370327Y250891D01*
X370327Y247265D02*
X382021Y247265D01*
X382021Y248221D02*
X370327Y248221D01*
X370327Y249177D02*
X382021Y249177D01*
X382021Y250133D02*
X370327Y250133D01*
X370327Y242891D02*
X382021Y242891D01*
X382021Y238309D01*
X370327Y238309D01*
X370327Y242891D01*
X370327Y239265D02*
X382021Y239265D01*
X382021Y240221D02*
X370327Y240221D01*
X370327Y241177D02*
X382021Y241177D01*
X382021Y242133D02*
X370327Y242133D01*
X370327Y234891D02*
X382021Y234891D01*
X382021Y230309D01*
X370327Y230309D01*
X370327Y234891D01*
X370327Y231265D02*
X382021Y231265D01*
X382021Y232221D02*
X370327Y232221D01*
X370327Y233177D02*
X382021Y233177D01*
X382021Y234133D02*
X370327Y234133D01*
X370327Y226891D02*
X382021Y226891D01*
X382021Y222309D01*
X370327Y222309D01*
X370327Y226891D01*
X370327Y223265D02*
X382021Y223265D01*
X382021Y224221D02*
X370327Y224221D01*
X370327Y225177D02*
X382021Y225177D01*
X382021Y226133D02*
X370327Y226133D01*
X370327Y218891D02*
X382021Y218891D01*
X382021Y214309D01*
X370327Y214309D01*
X370327Y218891D01*
X370327Y215265D02*
X382021Y215265D01*
X382021Y216221D02*
X370327Y216221D01*
X370327Y217177D02*
X382021Y217177D01*
X382021Y218133D02*
X370327Y218133D01*
X370327Y210891D02*
X382021Y210891D01*
X382021Y206309D01*
X370327Y206309D01*
X370327Y210891D01*
X370327Y207265D02*
X382021Y207265D01*
X382021Y208221D02*
X370327Y208221D01*
X370327Y209177D02*
X382021Y209177D01*
X382021Y210133D02*
X370327Y210133D01*
X370327Y202891D02*
X382021Y202891D01*
X382021Y198309D01*
X370327Y198309D01*
X370327Y202891D01*
X370327Y199265D02*
X382021Y199265D01*
X382021Y200221D02*
X370327Y200221D01*
X370327Y201177D02*
X382021Y201177D01*
X382021Y202133D02*
X370327Y202133D01*
X388809Y191521D02*
X393391Y191521D01*
X393391Y179827D01*
X388809Y179827D01*
X388809Y191521D01*
X388809Y180783D02*
X393391Y180783D01*
X393391Y181739D02*
X388809Y181739D01*
X388809Y182695D02*
X393391Y182695D01*
X393391Y183651D02*
X388809Y183651D01*
X388809Y184607D02*
X393391Y184607D01*
X393391Y185563D02*
X388809Y185563D01*
X388809Y186519D02*
X393391Y186519D01*
X393391Y187475D02*
X388809Y187475D01*
X388809Y188431D02*
X393391Y188431D01*
X393391Y189387D02*
X388809Y189387D01*
X388809Y190343D02*
X393391Y190343D01*
X393391Y191299D02*
X388809Y191299D01*
X396809Y191521D02*
X401391Y191521D01*
X401391Y179827D01*
X396809Y179827D01*
X396809Y191521D01*
X396809Y180783D02*
X401391Y180783D01*
X401391Y181739D02*
X396809Y181739D01*
X396809Y182695D02*
X401391Y182695D01*
X401391Y183651D02*
X396809Y183651D01*
X396809Y184607D02*
X401391Y184607D01*
X401391Y185563D02*
X396809Y185563D01*
X396809Y186519D02*
X401391Y186519D01*
X401391Y187475D02*
X396809Y187475D01*
X396809Y188431D02*
X401391Y188431D01*
X401391Y189387D02*
X396809Y189387D01*
X396809Y190343D02*
X401391Y190343D01*
X401391Y191299D02*
X396809Y191299D01*
X404809Y191521D02*
X409391Y191521D01*
X409391Y179827D01*
X404809Y179827D01*
X404809Y191521D01*
X404809Y180783D02*
X409391Y180783D01*
X409391Y181739D02*
X404809Y181739D01*
X404809Y182695D02*
X409391Y182695D01*
X409391Y183651D02*
X404809Y183651D01*
X404809Y184607D02*
X409391Y184607D01*
X409391Y185563D02*
X404809Y185563D01*
X404809Y186519D02*
X409391Y186519D01*
X409391Y187475D02*
X404809Y187475D01*
X404809Y188431D02*
X409391Y188431D01*
X409391Y189387D02*
X404809Y189387D01*
X404809Y190343D02*
X409391Y190343D01*
X409391Y191299D02*
X404809Y191299D01*
X412809Y191521D02*
X417391Y191521D01*
X417391Y179827D01*
X412809Y179827D01*
X412809Y191521D01*
X412809Y180783D02*
X417391Y180783D01*
X417391Y181739D02*
X412809Y181739D01*
X412809Y182695D02*
X417391Y182695D01*
X417391Y183651D02*
X412809Y183651D01*
X412809Y184607D02*
X417391Y184607D01*
X417391Y185563D02*
X412809Y185563D01*
X412809Y186519D02*
X417391Y186519D01*
X417391Y187475D02*
X412809Y187475D01*
X412809Y188431D02*
X417391Y188431D01*
X417391Y189387D02*
X412809Y189387D01*
X412809Y190343D02*
X417391Y190343D01*
X417391Y191299D02*
X412809Y191299D01*
X420809Y191521D02*
X425391Y191521D01*
X425391Y179827D01*
X420809Y179827D01*
X420809Y191521D01*
X420809Y180783D02*
X425391Y180783D01*
X425391Y181739D02*
X420809Y181739D01*
X420809Y182695D02*
X425391Y182695D01*
X425391Y183651D02*
X420809Y183651D01*
X420809Y184607D02*
X425391Y184607D01*
X425391Y185563D02*
X420809Y185563D01*
X420809Y186519D02*
X425391Y186519D01*
X425391Y187475D02*
X420809Y187475D01*
X420809Y188431D02*
X425391Y188431D01*
X425391Y189387D02*
X420809Y189387D01*
X420809Y190343D02*
X425391Y190343D01*
X425391Y191299D02*
X420809Y191299D01*
X428809Y191521D02*
X433391Y191521D01*
X433391Y179827D01*
X428809Y179827D01*
X428809Y191521D01*
X428809Y180783D02*
X433391Y180783D01*
X433391Y181739D02*
X428809Y181739D01*
X428809Y182695D02*
X433391Y182695D01*
X433391Y183651D02*
X428809Y183651D01*
X428809Y184607D02*
X433391Y184607D01*
X433391Y185563D02*
X428809Y185563D01*
X428809Y186519D02*
X433391Y186519D01*
X433391Y187475D02*
X428809Y187475D01*
X428809Y188431D02*
X433391Y188431D01*
X433391Y189387D02*
X428809Y189387D01*
X428809Y190343D02*
X433391Y190343D01*
X433391Y191299D02*
X428809Y191299D01*
X436809Y191521D02*
X441391Y191521D01*
X441391Y179827D01*
X436809Y179827D01*
X436809Y191521D01*
X436809Y180783D02*
X441391Y180783D01*
X441391Y181739D02*
X436809Y181739D01*
X436809Y182695D02*
X441391Y182695D01*
X441391Y183651D02*
X436809Y183651D01*
X436809Y184607D02*
X441391Y184607D01*
X441391Y185563D02*
X436809Y185563D01*
X436809Y186519D02*
X441391Y186519D01*
X441391Y187475D02*
X436809Y187475D01*
X436809Y188431D02*
X441391Y188431D01*
X441391Y189387D02*
X436809Y189387D01*
X436809Y190343D02*
X441391Y190343D01*
X441391Y191299D02*
X436809Y191299D01*
X444809Y191521D02*
X449391Y191521D01*
X449391Y179827D01*
X444809Y179827D01*
X444809Y191521D01*
X444809Y180783D02*
X449391Y180783D01*
X449391Y181739D02*
X444809Y181739D01*
X444809Y182695D02*
X449391Y182695D01*
X449391Y183651D02*
X444809Y183651D01*
X444809Y184607D02*
X449391Y184607D01*
X449391Y185563D02*
X444809Y185563D01*
X444809Y186519D02*
X449391Y186519D01*
X449391Y187475D02*
X444809Y187475D01*
X444809Y188431D02*
X449391Y188431D01*
X449391Y189387D02*
X444809Y189387D01*
X444809Y190343D02*
X449391Y190343D01*
X449391Y191299D02*
X444809Y191299D01*
D21*
X184694Y210445D02*
X184694Y214955D01*
X195704Y214955D01*
X195704Y210445D01*
X184694Y210445D01*
X184694Y211385D02*
X195704Y211385D01*
X195704Y212325D02*
X184694Y212325D01*
X184694Y213265D02*
X195704Y213265D01*
X195704Y214205D02*
X184694Y214205D01*
X184694Y205455D02*
X184694Y200945D01*
X184694Y205455D02*
X195704Y205455D01*
X195704Y200945D01*
X184694Y200945D01*
X184694Y201885D02*
X195704Y201885D01*
X195704Y202825D02*
X184694Y202825D01*
X184694Y203765D02*
X195704Y203765D01*
X195704Y204705D02*
X184694Y204705D01*
X184694Y195955D02*
X184694Y191445D01*
X184694Y195955D02*
X195704Y195955D01*
X195704Y191445D01*
X184694Y191445D01*
X184694Y192385D02*
X195704Y192385D01*
X195704Y193325D02*
X184694Y193325D01*
X184694Y194265D02*
X195704Y194265D01*
X195704Y195205D02*
X184694Y195205D01*
X210696Y195955D02*
X210696Y191445D01*
X210696Y195955D02*
X221706Y195955D01*
X221706Y191445D01*
X210696Y191445D01*
X210696Y192385D02*
X221706Y192385D01*
X221706Y193325D02*
X210696Y193325D01*
X210696Y194265D02*
X221706Y194265D01*
X221706Y195205D02*
X210696Y195205D01*
X210696Y210445D02*
X210696Y214955D01*
X221706Y214955D01*
X221706Y210445D01*
X210696Y210445D01*
X210696Y211385D02*
X221706Y211385D01*
X221706Y212325D02*
X210696Y212325D01*
X210696Y213265D02*
X221706Y213265D01*
X221706Y214205D02*
X210696Y214205D01*
D10*
X206700Y233100D02*
X216700Y233100D01*
X216700Y224100D01*
X206700Y224100D01*
X206700Y233100D01*
X206700Y225050D02*
X216700Y225050D01*
X216700Y226000D02*
X206700Y226000D01*
X206700Y226950D02*
X216700Y226950D01*
X216700Y227900D02*
X206700Y227900D01*
X206700Y228850D02*
X216700Y228850D01*
X216700Y229800D02*
X206700Y229800D01*
X206700Y230750D02*
X216700Y230750D01*
X216700Y231700D02*
X206700Y231700D01*
X206700Y232650D02*
X216700Y232650D01*
X199700Y233100D02*
X189700Y233100D01*
X199700Y233100D02*
X199700Y224100D01*
X189700Y224100D01*
X189700Y233100D01*
X189700Y225050D02*
X199700Y225050D01*
X199700Y226000D02*
X189700Y226000D01*
X189700Y226950D02*
X199700Y226950D01*
X199700Y227900D02*
X189700Y227900D01*
X189700Y228850D02*
X199700Y228850D01*
X199700Y229800D02*
X189700Y229800D01*
X189700Y230750D02*
X199700Y230750D01*
X199700Y231700D02*
X189700Y231700D01*
X189700Y232650D02*
X199700Y232650D01*
X192080Y386660D02*
X182080Y386660D01*
X182080Y395660D01*
X192080Y395660D01*
X192080Y386660D01*
X192080Y387610D02*
X182080Y387610D01*
X182080Y388560D02*
X192080Y388560D01*
X192080Y389510D02*
X182080Y389510D01*
X182080Y390460D02*
X192080Y390460D01*
X192080Y391410D02*
X182080Y391410D01*
X182080Y392360D02*
X192080Y392360D01*
X192080Y393310D02*
X182080Y393310D01*
X182080Y394260D02*
X192080Y394260D01*
X192080Y395210D02*
X182080Y395210D01*
X199080Y386660D02*
X209080Y386660D01*
X199080Y386660D02*
X199080Y395660D01*
X209080Y395660D01*
X209080Y386660D01*
X209080Y387610D02*
X199080Y387610D01*
X199080Y388560D02*
X209080Y388560D01*
X209080Y389510D02*
X199080Y389510D01*
X199080Y390460D02*
X209080Y390460D01*
X209080Y391410D02*
X199080Y391410D01*
X199080Y392360D02*
X209080Y392360D01*
X209080Y393310D02*
X199080Y393310D01*
X199080Y394260D02*
X209080Y394260D01*
X209080Y395210D02*
X199080Y395210D01*
D17*
X288880Y362120D02*
X299920Y362120D01*
X299920Y349080D01*
X288880Y349080D01*
X288880Y362120D01*
X288880Y349992D02*
X299920Y349992D01*
X299920Y350904D02*
X288880Y350904D01*
X288880Y351816D02*
X299920Y351816D01*
X299920Y352728D02*
X288880Y352728D01*
X288880Y353640D02*
X299920Y353640D01*
X299920Y354552D02*
X288880Y354552D01*
X288880Y355464D02*
X299920Y355464D01*
X299920Y356376D02*
X288880Y356376D01*
X288880Y357288D02*
X299920Y357288D01*
X299920Y358200D02*
X288880Y358200D01*
X288880Y359112D02*
X299920Y359112D01*
X299920Y360024D02*
X288880Y360024D01*
X288880Y360936D02*
X299920Y360936D01*
X299920Y361848D02*
X288880Y361848D01*
X269920Y362120D02*
X258880Y362120D01*
X269920Y362120D02*
X269920Y349080D01*
X258880Y349080D01*
X258880Y362120D01*
X258880Y349992D02*
X269920Y349992D01*
X269920Y350904D02*
X258880Y350904D01*
X258880Y351816D02*
X269920Y351816D01*
X269920Y352728D02*
X258880Y352728D01*
X258880Y353640D02*
X269920Y353640D01*
X269920Y354552D02*
X258880Y354552D01*
X258880Y355464D02*
X269920Y355464D01*
X269920Y356376D02*
X258880Y356376D01*
X258880Y357288D02*
X269920Y357288D01*
X269920Y358200D02*
X258880Y358200D01*
X258880Y359112D02*
X269920Y359112D01*
X269920Y360024D02*
X258880Y360024D01*
X258880Y360936D02*
X269920Y360936D01*
X269920Y361848D02*
X258880Y361848D01*
D10*
X282900Y341050D02*
X292900Y341050D01*
X292900Y332050D01*
X282900Y332050D01*
X282900Y341050D01*
X282900Y333000D02*
X292900Y333000D01*
X292900Y333950D02*
X282900Y333950D01*
X282900Y334900D02*
X292900Y334900D01*
X292900Y335850D02*
X282900Y335850D01*
X282900Y336800D02*
X292900Y336800D01*
X292900Y337750D02*
X282900Y337750D01*
X282900Y338700D02*
X292900Y338700D01*
X292900Y339650D02*
X282900Y339650D01*
X282900Y340600D02*
X292900Y340600D01*
X275900Y341050D02*
X265900Y341050D01*
X275900Y341050D02*
X275900Y332050D01*
X265900Y332050D01*
X265900Y341050D01*
X265900Y333000D02*
X275900Y333000D01*
X275900Y333950D02*
X265900Y333950D01*
X265900Y334900D02*
X275900Y334900D01*
X275900Y335850D02*
X265900Y335850D01*
X265900Y336800D02*
X275900Y336800D01*
X275900Y337750D02*
X265900Y337750D01*
X265900Y338700D02*
X275900Y338700D01*
X275900Y339650D02*
X265900Y339650D01*
X265900Y340600D02*
X275900Y340600D01*
X138740Y478100D02*
X128740Y478100D01*
X128740Y487100D01*
X138740Y487100D01*
X138740Y478100D01*
X138740Y479050D02*
X128740Y479050D01*
X128740Y480000D02*
X138740Y480000D01*
X138740Y480950D02*
X128740Y480950D01*
X128740Y481900D02*
X138740Y481900D01*
X138740Y482850D02*
X128740Y482850D01*
X128740Y483800D02*
X138740Y483800D01*
X138740Y484750D02*
X128740Y484750D01*
X128740Y485700D02*
X138740Y485700D01*
X138740Y486650D02*
X128740Y486650D01*
X145740Y478100D02*
X155740Y478100D01*
X145740Y478100D02*
X145740Y487100D01*
X155740Y487100D01*
X155740Y478100D01*
X155740Y479050D02*
X145740Y479050D01*
X145740Y480000D02*
X155740Y480000D01*
X155740Y480950D02*
X145740Y480950D01*
X145740Y481900D02*
X155740Y481900D01*
X155740Y482850D02*
X145740Y482850D01*
X145740Y483800D02*
X155740Y483800D01*
X155740Y484750D02*
X145740Y484750D01*
X145740Y485700D02*
X155740Y485700D01*
X155740Y486650D02*
X145740Y486650D01*
X282900Y379150D02*
X292900Y379150D01*
X292900Y370150D01*
X282900Y370150D01*
X282900Y379150D01*
X282900Y371100D02*
X292900Y371100D01*
X292900Y372050D02*
X282900Y372050D01*
X282900Y373000D02*
X292900Y373000D01*
X292900Y373950D02*
X282900Y373950D01*
X282900Y374900D02*
X292900Y374900D01*
X292900Y375850D02*
X282900Y375850D01*
X282900Y376800D02*
X292900Y376800D01*
X292900Y377750D02*
X282900Y377750D01*
X282900Y378700D02*
X292900Y378700D01*
X275900Y379150D02*
X265900Y379150D01*
X275900Y379150D02*
X275900Y370150D01*
X265900Y370150D01*
X265900Y379150D01*
X265900Y371100D02*
X275900Y371100D01*
X275900Y372050D02*
X265900Y372050D01*
X265900Y373000D02*
X275900Y373000D01*
X275900Y373950D02*
X265900Y373950D01*
X265900Y374900D02*
X275900Y374900D01*
X275900Y375850D02*
X265900Y375850D01*
X265900Y376800D02*
X275900Y376800D01*
X275900Y377750D02*
X265900Y377750D01*
X265900Y378700D02*
X275900Y378700D01*
D17*
X288880Y400220D02*
X299920Y400220D01*
X299920Y387180D01*
X288880Y387180D01*
X288880Y400220D01*
X288880Y388092D02*
X299920Y388092D01*
X299920Y389004D02*
X288880Y389004D01*
X288880Y389916D02*
X299920Y389916D01*
X299920Y390828D02*
X288880Y390828D01*
X288880Y391740D02*
X299920Y391740D01*
X299920Y392652D02*
X288880Y392652D01*
X288880Y393564D02*
X299920Y393564D01*
X299920Y394476D02*
X288880Y394476D01*
X288880Y395388D02*
X299920Y395388D01*
X299920Y396300D02*
X288880Y396300D01*
X288880Y397212D02*
X299920Y397212D01*
X299920Y398124D02*
X288880Y398124D01*
X288880Y399036D02*
X299920Y399036D01*
X299920Y399948D02*
X288880Y399948D01*
X269920Y400220D02*
X258880Y400220D01*
X269920Y400220D02*
X269920Y387180D01*
X258880Y387180D01*
X258880Y400220D01*
X258880Y388092D02*
X269920Y388092D01*
X269920Y389004D02*
X258880Y389004D01*
X258880Y389916D02*
X269920Y389916D01*
X269920Y390828D02*
X258880Y390828D01*
X258880Y391740D02*
X269920Y391740D01*
X269920Y392652D02*
X258880Y392652D01*
X258880Y393564D02*
X269920Y393564D01*
X269920Y394476D02*
X258880Y394476D01*
X258880Y395388D02*
X269920Y395388D01*
X269920Y396300D02*
X258880Y396300D01*
X258880Y397212D02*
X269920Y397212D01*
X269920Y398124D02*
X258880Y398124D01*
X258880Y399036D02*
X269920Y399036D01*
X269920Y399948D02*
X258880Y399948D01*
X681270Y168020D02*
X681270Y156980D01*
X662230Y156980D01*
X662230Y168020D01*
X681270Y168020D01*
X681270Y157892D02*
X662230Y157892D01*
X662230Y158804D02*
X681270Y158804D01*
X681270Y159716D02*
X662230Y159716D01*
X662230Y160628D02*
X681270Y160628D01*
X681270Y161540D02*
X662230Y161540D01*
X662230Y162452D02*
X681270Y162452D01*
X681270Y163364D02*
X662230Y163364D01*
X662230Y164276D02*
X681270Y164276D01*
X681270Y165188D02*
X662230Y165188D01*
X662230Y166100D02*
X681270Y166100D01*
X681270Y167012D02*
X662230Y167012D01*
X662230Y167924D02*
X681270Y167924D01*
X681270Y212980D02*
X681270Y224020D01*
X681270Y212980D02*
X662230Y212980D01*
X662230Y224020D01*
X681270Y224020D01*
X681270Y213892D02*
X662230Y213892D01*
X662230Y214804D02*
X681270Y214804D01*
X681270Y215716D02*
X662230Y215716D01*
X662230Y216628D02*
X681270Y216628D01*
X681270Y217540D02*
X662230Y217540D01*
X662230Y218452D02*
X681270Y218452D01*
X681270Y219364D02*
X662230Y219364D01*
X662230Y220276D02*
X681270Y220276D01*
X681270Y221188D02*
X662230Y221188D01*
X662230Y222100D02*
X681270Y222100D01*
X681270Y223012D02*
X662230Y223012D01*
X662230Y223924D02*
X681270Y223924D01*
D22*
X641240Y177990D02*
X641240Y173010D01*
X628760Y173010D01*
X628760Y177990D01*
X641240Y177990D01*
X641240Y173979D02*
X628760Y173979D01*
X628760Y174948D02*
X641240Y174948D01*
X641240Y175917D02*
X628760Y175917D01*
X628760Y176886D02*
X641240Y176886D01*
X641240Y177855D02*
X628760Y177855D01*
X641240Y183010D02*
X641240Y187990D01*
X641240Y183010D02*
X628760Y183010D01*
X628760Y187990D01*
X641240Y187990D01*
X641240Y183979D02*
X628760Y183979D01*
X628760Y184948D02*
X641240Y184948D01*
X641240Y185917D02*
X628760Y185917D01*
X628760Y186886D02*
X641240Y186886D01*
X641240Y187855D02*
X628760Y187855D01*
X641240Y193010D02*
X641240Y197990D01*
X641240Y193010D02*
X628760Y193010D01*
X628760Y197990D01*
X641240Y197990D01*
X641240Y193979D02*
X628760Y193979D01*
X628760Y194948D02*
X641240Y194948D01*
X641240Y195917D02*
X628760Y195917D01*
X628760Y196886D02*
X641240Y196886D01*
X641240Y197855D02*
X628760Y197855D01*
X641240Y203010D02*
X641240Y207990D01*
X641240Y203010D02*
X628760Y203010D01*
X628760Y207990D01*
X641240Y207990D01*
X641240Y203979D02*
X628760Y203979D01*
X628760Y204948D02*
X641240Y204948D01*
X641240Y205917D02*
X628760Y205917D01*
X628760Y206886D02*
X641240Y206886D01*
X641240Y207855D02*
X628760Y207855D01*
D19*
X546575Y199975D02*
X546575Y194025D01*
X546575Y199975D02*
X552525Y199975D01*
X552525Y194025D01*
X546575Y194025D01*
X546575Y195022D02*
X552525Y195022D01*
X552525Y196019D02*
X546575Y196019D01*
X546575Y197016D02*
X552525Y197016D01*
X552525Y198013D02*
X546575Y198013D01*
X546575Y199010D02*
X552525Y199010D01*
X546575Y186975D02*
X546575Y181025D01*
X546575Y186975D02*
X552525Y186975D01*
X552525Y181025D01*
X546575Y181025D01*
X546575Y182022D02*
X552525Y182022D01*
X552525Y183019D02*
X546575Y183019D01*
X546575Y184016D02*
X552525Y184016D01*
X552525Y185013D02*
X546575Y185013D01*
X546575Y186010D02*
X552525Y186010D01*
X565075Y187525D02*
X565075Y193475D01*
X571025Y193475D01*
X571025Y187525D01*
X565075Y187525D01*
X565075Y188522D02*
X571025Y188522D01*
X571025Y189519D02*
X565075Y189519D01*
X565075Y190516D02*
X571025Y190516D01*
X571025Y191513D02*
X565075Y191513D01*
X565075Y192510D02*
X571025Y192510D01*
D10*
X555300Y211400D02*
X545300Y211400D01*
X545300Y220400D01*
X555300Y220400D01*
X555300Y211400D01*
X555300Y212350D02*
X545300Y212350D01*
X545300Y213300D02*
X555300Y213300D01*
X555300Y214250D02*
X545300Y214250D01*
X545300Y215200D02*
X555300Y215200D01*
X555300Y216150D02*
X545300Y216150D01*
X545300Y217100D02*
X555300Y217100D01*
X555300Y218050D02*
X545300Y218050D01*
X545300Y219000D02*
X555300Y219000D01*
X555300Y219950D02*
X545300Y219950D01*
X562300Y211400D02*
X572300Y211400D01*
X562300Y211400D02*
X562300Y220400D01*
X572300Y220400D01*
X572300Y211400D01*
X572300Y212350D02*
X562300Y212350D01*
X562300Y213300D02*
X572300Y213300D01*
X572300Y214250D02*
X562300Y214250D01*
X562300Y215200D02*
X572300Y215200D01*
X572300Y216150D02*
X562300Y216150D01*
X562300Y217100D02*
X572300Y217100D01*
X572300Y218050D02*
X562300Y218050D01*
X562300Y219000D02*
X572300Y219000D01*
X572300Y219950D02*
X562300Y219950D01*
X555300Y160600D02*
X545300Y160600D01*
X545300Y169600D01*
X555300Y169600D01*
X555300Y160600D01*
X555300Y161550D02*
X545300Y161550D01*
X545300Y162500D02*
X555300Y162500D01*
X555300Y163450D02*
X545300Y163450D01*
X545300Y164400D02*
X555300Y164400D01*
X555300Y165350D02*
X545300Y165350D01*
X545300Y166300D02*
X555300Y166300D01*
X555300Y167250D02*
X545300Y167250D01*
X545300Y168200D02*
X555300Y168200D01*
X555300Y169150D02*
X545300Y169150D01*
X562300Y160600D02*
X572300Y160600D01*
X562300Y160600D02*
X562300Y169600D01*
X572300Y169600D01*
X572300Y160600D01*
X572300Y161550D02*
X562300Y161550D01*
X562300Y162500D02*
X572300Y162500D01*
X572300Y163450D02*
X562300Y163450D01*
X562300Y164400D02*
X572300Y164400D01*
X572300Y165350D02*
X562300Y165350D01*
X562300Y166300D02*
X572300Y166300D01*
X572300Y167250D02*
X562300Y167250D01*
X562300Y168200D02*
X572300Y168200D01*
X572300Y169150D02*
X562300Y169150D01*
D22*
X55610Y410610D02*
X55610Y412590D01*
X64590Y412590D01*
X64590Y410610D01*
X55610Y410610D01*
X55610Y411579D02*
X64590Y411579D01*
X64590Y412548D02*
X55610Y412548D01*
X55610Y415610D02*
X55610Y417590D01*
X64590Y417590D01*
X64590Y415610D01*
X55610Y415610D01*
X55610Y416579D02*
X64590Y416579D01*
X64590Y417548D02*
X55610Y417548D01*
X55610Y389340D02*
X55610Y384360D01*
X55610Y389340D02*
X64590Y389340D01*
X64590Y384360D01*
X55610Y384360D01*
X55610Y385329D02*
X64590Y385329D01*
X64590Y386298D02*
X55610Y386298D01*
X55610Y387267D02*
X64590Y387267D01*
X64590Y388236D02*
X55610Y388236D01*
X55610Y389205D02*
X64590Y389205D01*
X55610Y392110D02*
X55610Y397090D01*
X64590Y397090D01*
X64590Y392110D01*
X55610Y392110D01*
X55610Y393079D02*
X64590Y393079D01*
X64590Y394048D02*
X55610Y394048D01*
X55610Y395017D02*
X64590Y395017D01*
X64590Y395986D02*
X55610Y395986D01*
X55610Y396955D02*
X64590Y396955D01*
X55610Y400610D02*
X55610Y402590D01*
X64590Y402590D01*
X64590Y400610D01*
X55610Y400610D01*
X55610Y401579D02*
X64590Y401579D01*
X64590Y402548D02*
X55610Y402548D01*
X55610Y405610D02*
X55610Y407590D01*
X64590Y407590D01*
X64590Y405610D01*
X55610Y405610D01*
X55610Y406579D02*
X64590Y406579D01*
X64590Y407548D02*
X55610Y407548D01*
X64590Y425610D02*
X64590Y427590D01*
X64590Y425610D02*
X55610Y425610D01*
X55610Y427590D01*
X64590Y427590D01*
X64590Y426579D02*
X55610Y426579D01*
X55610Y427548D02*
X64590Y427548D01*
X64590Y422590D02*
X64590Y420610D01*
X55610Y420610D01*
X55610Y422590D01*
X64590Y422590D01*
X64590Y421579D02*
X55610Y421579D01*
X55610Y422548D02*
X64590Y422548D01*
X64590Y448860D02*
X64590Y453840D01*
X64590Y448860D02*
X55610Y448860D01*
X55610Y453840D01*
X64590Y453840D01*
X64590Y449829D02*
X55610Y449829D01*
X55610Y450798D02*
X64590Y450798D01*
X64590Y451767D02*
X55610Y451767D01*
X55610Y452736D02*
X64590Y452736D01*
X64590Y453705D02*
X55610Y453705D01*
X64590Y446090D02*
X64590Y441110D01*
X55610Y441110D01*
X55610Y446090D01*
X64590Y446090D01*
X64590Y442079D02*
X55610Y442079D01*
X55610Y443048D02*
X64590Y443048D01*
X64590Y444017D02*
X55610Y444017D01*
X55610Y444986D02*
X64590Y444986D01*
X64590Y445955D02*
X55610Y445955D01*
X64590Y437590D02*
X64590Y435610D01*
X55610Y435610D01*
X55610Y437590D01*
X64590Y437590D01*
X64590Y436579D02*
X55610Y436579D01*
X55610Y437548D02*
X64590Y437548D01*
X64590Y432590D02*
X64590Y430610D01*
X55610Y430610D01*
X55610Y432590D01*
X64590Y432590D01*
X64590Y431579D02*
X55610Y431579D01*
X55610Y432548D02*
X64590Y432548D01*
D10*
X14280Y334590D02*
X4280Y334590D01*
X4280Y343590D01*
X14280Y343590D01*
X14280Y334590D01*
X14280Y335540D02*
X4280Y335540D01*
X4280Y336490D02*
X14280Y336490D01*
X14280Y337440D02*
X4280Y337440D01*
X4280Y338390D02*
X14280Y338390D01*
X14280Y339340D02*
X4280Y339340D01*
X4280Y340290D02*
X14280Y340290D01*
X14280Y341240D02*
X4280Y341240D01*
X4280Y342190D02*
X14280Y342190D01*
X14280Y343140D02*
X4280Y343140D01*
X21280Y334590D02*
X31280Y334590D01*
X21280Y334590D02*
X21280Y343590D01*
X31280Y343590D01*
X31280Y334590D01*
X31280Y335540D02*
X21280Y335540D01*
X21280Y336490D02*
X31280Y336490D01*
X31280Y337440D02*
X21280Y337440D01*
X21280Y338390D02*
X31280Y338390D01*
X31280Y339340D02*
X21280Y339340D01*
X21280Y340290D02*
X31280Y340290D01*
X31280Y341240D02*
X21280Y341240D01*
X21280Y342190D02*
X31280Y342190D01*
X31280Y343140D02*
X21280Y343140D01*
X111450Y487100D02*
X121450Y487100D01*
X121450Y478100D01*
X111450Y478100D01*
X111450Y487100D01*
X111450Y479050D02*
X121450Y479050D01*
X121450Y480000D02*
X111450Y480000D01*
X111450Y480950D02*
X121450Y480950D01*
X121450Y481900D02*
X111450Y481900D01*
X111450Y482850D02*
X121450Y482850D01*
X121450Y483800D02*
X111450Y483800D01*
X111450Y484750D02*
X121450Y484750D01*
X121450Y485700D02*
X111450Y485700D01*
X111450Y486650D02*
X121450Y486650D01*
X104450Y487100D02*
X94450Y487100D01*
X104450Y487100D02*
X104450Y478100D01*
X94450Y478100D01*
X94450Y487100D01*
X94450Y479050D02*
X104450Y479050D01*
X104450Y480000D02*
X94450Y480000D01*
X94450Y480950D02*
X104450Y480950D01*
X104450Y481900D02*
X94450Y481900D01*
X94450Y482850D02*
X104450Y482850D01*
X104450Y483800D02*
X94450Y483800D01*
X94450Y484750D02*
X104450Y484750D01*
X104450Y485700D02*
X94450Y485700D01*
X94450Y486650D02*
X104450Y486650D01*
D23*
X71615Y498335D02*
X71615Y504965D01*
X85865Y504965D01*
X85865Y498335D01*
X71615Y498335D01*
X71615Y499276D02*
X85865Y499276D01*
X85865Y500217D02*
X71615Y500217D01*
X71615Y501158D02*
X85865Y501158D01*
X85865Y502099D02*
X71615Y502099D01*
X71615Y503040D02*
X85865Y503040D01*
X85865Y503981D02*
X71615Y503981D01*
X71615Y504922D02*
X85865Y504922D01*
X15735Y504965D02*
X15735Y498335D01*
X15735Y504965D02*
X29985Y504965D01*
X29985Y498335D01*
X15735Y498335D01*
X15735Y499276D02*
X29985Y499276D01*
X29985Y500217D02*
X15735Y500217D01*
X15735Y501158D02*
X29985Y501158D01*
X29985Y502099D02*
X15735Y502099D01*
X15735Y503040D02*
X29985Y503040D01*
X29985Y503981D02*
X15735Y503981D01*
X15735Y504922D02*
X29985Y504922D01*
X71615Y536435D02*
X71615Y543065D01*
X85865Y543065D01*
X85865Y536435D01*
X71615Y536435D01*
X71615Y537376D02*
X85865Y537376D01*
X85865Y538317D02*
X71615Y538317D01*
X71615Y539258D02*
X85865Y539258D01*
X85865Y540199D02*
X71615Y540199D01*
X71615Y541140D02*
X85865Y541140D01*
X85865Y542081D02*
X71615Y542081D01*
X71615Y543022D02*
X85865Y543022D01*
X15735Y543065D02*
X15735Y536435D01*
X15735Y543065D02*
X29985Y543065D01*
X29985Y536435D01*
X15735Y536435D01*
X15735Y537376D02*
X29985Y537376D01*
X29985Y538317D02*
X15735Y538317D01*
X15735Y539258D02*
X29985Y539258D01*
X29985Y540199D02*
X15735Y540199D01*
X15735Y541140D02*
X29985Y541140D01*
X29985Y542081D02*
X15735Y542081D01*
X15735Y543022D02*
X29985Y543022D01*
D10*
X37650Y316700D02*
X46650Y316700D01*
X37650Y316700D02*
X37650Y343700D01*
X46650Y343700D01*
X46650Y316700D01*
X46650Y317650D02*
X37650Y317650D01*
X37650Y318600D02*
X46650Y318600D01*
X46650Y319550D02*
X37650Y319550D01*
X37650Y320500D02*
X46650Y320500D01*
X46650Y321450D02*
X37650Y321450D01*
X37650Y322400D02*
X46650Y322400D01*
X46650Y323350D02*
X37650Y323350D01*
X37650Y324300D02*
X46650Y324300D01*
X46650Y325250D02*
X37650Y325250D01*
X37650Y326200D02*
X46650Y326200D01*
X46650Y327150D02*
X37650Y327150D01*
X37650Y328100D02*
X46650Y328100D01*
X46650Y329050D02*
X37650Y329050D01*
X37650Y330000D02*
X46650Y330000D01*
X46650Y330950D02*
X37650Y330950D01*
X37650Y331900D02*
X46650Y331900D01*
X46650Y332850D02*
X37650Y332850D01*
X37650Y333800D02*
X46650Y333800D01*
X46650Y334750D02*
X37650Y334750D01*
X37650Y335700D02*
X46650Y335700D01*
X46650Y336650D02*
X37650Y336650D01*
X37650Y337600D02*
X46650Y337600D01*
X46650Y338550D02*
X37650Y338550D01*
X37650Y339500D02*
X46650Y339500D01*
X46650Y340450D02*
X37650Y340450D01*
X37650Y341400D02*
X46650Y341400D01*
X46650Y342350D02*
X37650Y342350D01*
X37650Y343300D02*
X46650Y343300D01*
X67650Y316700D02*
X76650Y316700D01*
X67650Y316700D02*
X67650Y343700D01*
X76650Y343700D01*
X76650Y316700D01*
X76650Y317650D02*
X67650Y317650D01*
X67650Y318600D02*
X76650Y318600D01*
X76650Y319550D02*
X67650Y319550D01*
X67650Y320500D02*
X76650Y320500D01*
X76650Y321450D02*
X67650Y321450D01*
X67650Y322400D02*
X76650Y322400D01*
X76650Y323350D02*
X67650Y323350D01*
X67650Y324300D02*
X76650Y324300D01*
X76650Y325250D02*
X67650Y325250D01*
X67650Y326200D02*
X76650Y326200D01*
X76650Y327150D02*
X67650Y327150D01*
X67650Y328100D02*
X76650Y328100D01*
X76650Y329050D02*
X67650Y329050D01*
X67650Y330000D02*
X76650Y330000D01*
X76650Y330950D02*
X67650Y330950D01*
X67650Y331900D02*
X76650Y331900D01*
X76650Y332850D02*
X67650Y332850D01*
X67650Y333800D02*
X76650Y333800D01*
X76650Y334750D02*
X67650Y334750D01*
X67650Y335700D02*
X76650Y335700D01*
X76650Y336650D02*
X67650Y336650D01*
X67650Y337600D02*
X76650Y337600D01*
X76650Y338550D02*
X67650Y338550D01*
X67650Y339500D02*
X76650Y339500D01*
X76650Y340450D02*
X67650Y340450D01*
X67650Y341400D02*
X76650Y341400D01*
X76650Y342350D02*
X67650Y342350D01*
X67650Y343300D02*
X76650Y343300D01*
X299900Y200800D02*
X308900Y200800D01*
X299900Y200800D02*
X299900Y211300D01*
X308900Y211300D01*
X308900Y200800D01*
X308900Y201750D02*
X299900Y201750D01*
X299900Y202700D02*
X308900Y202700D01*
X308900Y203650D02*
X299900Y203650D01*
X299900Y204600D02*
X308900Y204600D01*
X308900Y205550D02*
X299900Y205550D01*
X299900Y206500D02*
X308900Y206500D01*
X308900Y207450D02*
X299900Y207450D01*
X299900Y208400D02*
X308900Y208400D01*
X308900Y209350D02*
X299900Y209350D01*
X299900Y210300D02*
X308900Y210300D01*
X308900Y211250D02*
X299900Y211250D01*
X283900Y200800D02*
X274900Y200800D01*
X274900Y211300D01*
X283900Y211300D01*
X283900Y200800D01*
X283900Y201750D02*
X274900Y201750D01*
X274900Y202700D02*
X283900Y202700D01*
X283900Y203650D02*
X274900Y203650D01*
X274900Y204600D02*
X283900Y204600D01*
X283900Y205550D02*
X274900Y205550D01*
X274900Y206500D02*
X283900Y206500D01*
X283900Y207450D02*
X274900Y207450D01*
X274900Y208400D02*
X283900Y208400D01*
X283900Y209350D02*
X274900Y209350D01*
X274900Y210300D02*
X283900Y210300D01*
X283900Y211250D02*
X274900Y211250D01*
X258900Y200800D02*
X249900Y200800D01*
X249900Y211300D01*
X258900Y211300D01*
X258900Y200800D01*
X258900Y201750D02*
X249900Y201750D01*
X249900Y202700D02*
X258900Y202700D01*
X258900Y203650D02*
X249900Y203650D01*
X249900Y204600D02*
X258900Y204600D01*
X258900Y205550D02*
X249900Y205550D01*
X249900Y206500D02*
X258900Y206500D01*
X258900Y207450D02*
X249900Y207450D01*
X249900Y208400D02*
X258900Y208400D01*
X258900Y209350D02*
X249900Y209350D01*
X249900Y210300D02*
X258900Y210300D01*
X258900Y211250D02*
X249900Y211250D01*
X299900Y144300D02*
X308900Y144300D01*
X299900Y144300D02*
X299900Y154800D01*
X308900Y154800D01*
X308900Y144300D01*
X308900Y145250D02*
X299900Y145250D01*
X299900Y146200D02*
X308900Y146200D01*
X308900Y147150D02*
X299900Y147150D01*
X299900Y148100D02*
X308900Y148100D01*
X308900Y149050D02*
X299900Y149050D01*
X299900Y150000D02*
X308900Y150000D01*
X308900Y150950D02*
X299900Y150950D01*
X299900Y151900D02*
X308900Y151900D01*
X308900Y152850D02*
X299900Y152850D01*
X299900Y153800D02*
X308900Y153800D01*
X308900Y154750D02*
X299900Y154750D01*
X283900Y144300D02*
X274900Y144300D01*
X274900Y154800D01*
X283900Y154800D01*
X283900Y144300D01*
X283900Y145250D02*
X274900Y145250D01*
X274900Y146200D02*
X283900Y146200D01*
X283900Y147150D02*
X274900Y147150D01*
X274900Y148100D02*
X283900Y148100D01*
X283900Y149050D02*
X274900Y149050D01*
X274900Y150000D02*
X283900Y150000D01*
X283900Y150950D02*
X274900Y150950D01*
X274900Y151900D02*
X283900Y151900D01*
X283900Y152850D02*
X274900Y152850D01*
X274900Y153800D02*
X283900Y153800D01*
X283900Y154750D02*
X274900Y154750D01*
X258900Y144300D02*
X249900Y144300D01*
X249900Y154800D01*
X258900Y154800D01*
X258900Y144300D01*
X258900Y145250D02*
X249900Y145250D01*
X249900Y146200D02*
X258900Y146200D01*
X258900Y147150D02*
X249900Y147150D01*
X249900Y148100D02*
X258900Y148100D01*
X258900Y149050D02*
X249900Y149050D01*
X249900Y150000D02*
X258900Y150000D01*
X258900Y150950D02*
X249900Y150950D01*
X249900Y151900D02*
X258900Y151900D01*
X258900Y152850D02*
X249900Y152850D01*
X249900Y153800D02*
X258900Y153800D01*
X258900Y154750D02*
X249900Y154750D01*
D22*
X174460Y354380D02*
X174460Y359360D01*
X174460Y354380D02*
X163480Y354380D01*
X163480Y359360D01*
X174460Y359360D01*
X174460Y355349D02*
X163480Y355349D01*
X163480Y356318D02*
X174460Y356318D01*
X174460Y357287D02*
X163480Y357287D01*
X163480Y358256D02*
X174460Y358256D01*
X174460Y359225D02*
X163480Y359225D01*
X174460Y367080D02*
X174460Y372060D01*
X174460Y367080D02*
X163480Y367080D01*
X163480Y372060D01*
X174460Y372060D01*
X174460Y368049D02*
X163480Y368049D01*
X163480Y369018D02*
X174460Y369018D01*
X174460Y369987D02*
X163480Y369987D01*
X163480Y370956D02*
X174460Y370956D01*
X174460Y371925D02*
X163480Y371925D01*
X174460Y379780D02*
X174460Y384760D01*
X174460Y379780D02*
X163480Y379780D01*
X163480Y384760D01*
X174460Y384760D01*
X174460Y380749D02*
X163480Y380749D01*
X163480Y381718D02*
X174460Y381718D01*
X174460Y382687D02*
X163480Y382687D01*
X163480Y383656D02*
X174460Y383656D01*
X174460Y384625D02*
X163480Y384625D01*
X174460Y392480D02*
X174460Y397460D01*
X174460Y392480D02*
X163480Y392480D01*
X163480Y397460D01*
X174460Y397460D01*
X174460Y393449D02*
X163480Y393449D01*
X163480Y394418D02*
X174460Y394418D01*
X174460Y395387D02*
X163480Y395387D01*
X163480Y396356D02*
X174460Y396356D01*
X174460Y397325D02*
X163480Y397325D01*
X174460Y405180D02*
X174460Y410160D01*
X174460Y405180D02*
X163480Y405180D01*
X163480Y410160D01*
X174460Y410160D01*
X174460Y406149D02*
X163480Y406149D01*
X163480Y407118D02*
X174460Y407118D01*
X174460Y408087D02*
X163480Y408087D01*
X163480Y409056D02*
X174460Y409056D01*
X174460Y410025D02*
X163480Y410025D01*
X174460Y417880D02*
X174460Y422860D01*
X174460Y417880D02*
X163480Y417880D01*
X163480Y422860D01*
X174460Y422860D01*
X174460Y418849D02*
X163480Y418849D01*
X163480Y419818D02*
X174460Y419818D01*
X174460Y420787D02*
X163480Y420787D01*
X163480Y421756D02*
X174460Y421756D01*
X174460Y422725D02*
X163480Y422725D01*
X174460Y430580D02*
X174460Y435560D01*
X174460Y430580D02*
X163480Y430580D01*
X163480Y435560D01*
X174460Y435560D01*
X174460Y431549D02*
X163480Y431549D01*
X163480Y432518D02*
X174460Y432518D01*
X174460Y433487D02*
X163480Y433487D01*
X163480Y434456D02*
X174460Y434456D01*
X174460Y435425D02*
X163480Y435425D01*
X174460Y443280D02*
X174460Y448260D01*
X174460Y443280D02*
X163480Y443280D01*
X163480Y448260D01*
X174460Y448260D01*
X174460Y444249D02*
X163480Y444249D01*
X163480Y445218D02*
X174460Y445218D01*
X174460Y446187D02*
X163480Y446187D01*
X163480Y447156D02*
X174460Y447156D01*
X174460Y448125D02*
X163480Y448125D01*
X118460Y448260D02*
X118460Y443280D01*
X107480Y443280D01*
X107480Y448260D01*
X118460Y448260D01*
X118460Y444249D02*
X107480Y444249D01*
X107480Y445218D02*
X118460Y445218D01*
X118460Y446187D02*
X107480Y446187D01*
X107480Y447156D02*
X118460Y447156D01*
X118460Y448125D02*
X107480Y448125D01*
X118460Y435560D02*
X118460Y430580D01*
X107480Y430580D01*
X107480Y435560D01*
X118460Y435560D01*
X118460Y431549D02*
X107480Y431549D01*
X107480Y432518D02*
X118460Y432518D01*
X118460Y433487D02*
X107480Y433487D01*
X107480Y434456D02*
X118460Y434456D01*
X118460Y435425D02*
X107480Y435425D01*
X118460Y422860D02*
X118460Y417880D01*
X107480Y417880D01*
X107480Y422860D01*
X118460Y422860D01*
X118460Y418849D02*
X107480Y418849D01*
X107480Y419818D02*
X118460Y419818D01*
X118460Y420787D02*
X107480Y420787D01*
X107480Y421756D02*
X118460Y421756D01*
X118460Y422725D02*
X107480Y422725D01*
X118460Y410160D02*
X118460Y405180D01*
X107480Y405180D01*
X107480Y410160D01*
X118460Y410160D01*
X118460Y406149D02*
X107480Y406149D01*
X107480Y407118D02*
X118460Y407118D01*
X118460Y408087D02*
X107480Y408087D01*
X107480Y409056D02*
X118460Y409056D01*
X118460Y410025D02*
X107480Y410025D01*
X118460Y397460D02*
X118460Y392480D01*
X107480Y392480D01*
X107480Y397460D01*
X118460Y397460D01*
X118460Y393449D02*
X107480Y393449D01*
X107480Y394418D02*
X118460Y394418D01*
X118460Y395387D02*
X107480Y395387D01*
X107480Y396356D02*
X118460Y396356D01*
X118460Y397325D02*
X107480Y397325D01*
X118460Y384760D02*
X118460Y379780D01*
X107480Y379780D01*
X107480Y384760D01*
X118460Y384760D01*
X118460Y380749D02*
X107480Y380749D01*
X107480Y381718D02*
X118460Y381718D01*
X118460Y382687D02*
X107480Y382687D01*
X107480Y383656D02*
X118460Y383656D01*
X118460Y384625D02*
X107480Y384625D01*
X118460Y372060D02*
X118460Y367080D01*
X107480Y367080D01*
X107480Y372060D01*
X118460Y372060D01*
X118460Y368049D02*
X107480Y368049D01*
X107480Y369018D02*
X118460Y369018D01*
X118460Y369987D02*
X107480Y369987D01*
X107480Y370956D02*
X118460Y370956D01*
X118460Y371925D02*
X107480Y371925D01*
X118460Y359360D02*
X118460Y354380D01*
X107480Y354380D01*
X107480Y359360D01*
X118460Y359360D01*
X118460Y355349D02*
X107480Y355349D01*
X107480Y356318D02*
X118460Y356318D01*
X118460Y357287D02*
X107480Y357287D01*
X107480Y358256D02*
X118460Y358256D01*
X118460Y359225D02*
X107480Y359225D01*
D10*
X182080Y457780D02*
X192080Y457780D01*
X182080Y457780D02*
X182080Y466780D01*
X192080Y466780D01*
X192080Y457780D01*
X192080Y458730D02*
X182080Y458730D01*
X182080Y459680D02*
X192080Y459680D01*
X192080Y460630D02*
X182080Y460630D01*
X182080Y461580D02*
X192080Y461580D01*
X192080Y462530D02*
X182080Y462530D01*
X182080Y463480D02*
X192080Y463480D01*
X192080Y464430D02*
X182080Y464430D01*
X182080Y465380D02*
X192080Y465380D01*
X192080Y466330D02*
X182080Y466330D01*
X199080Y457780D02*
X209080Y457780D01*
X199080Y457780D02*
X199080Y466780D01*
X209080Y466780D01*
X209080Y457780D01*
X209080Y458730D02*
X199080Y458730D01*
X199080Y459680D02*
X209080Y459680D01*
X209080Y460630D02*
X199080Y460630D01*
X199080Y461580D02*
X209080Y461580D01*
X209080Y462530D02*
X199080Y462530D01*
X199080Y463480D02*
X209080Y463480D01*
X209080Y464430D02*
X199080Y464430D01*
X199080Y465380D02*
X209080Y465380D01*
X209080Y466330D02*
X199080Y466330D01*
X199080Y410900D02*
X209080Y410900D01*
X209080Y401900D01*
X199080Y401900D01*
X199080Y410900D01*
X199080Y402850D02*
X209080Y402850D01*
X209080Y403800D02*
X199080Y403800D01*
X199080Y404750D02*
X209080Y404750D01*
X209080Y405700D02*
X199080Y405700D01*
X199080Y406650D02*
X209080Y406650D01*
X209080Y407600D02*
X199080Y407600D01*
X199080Y408550D02*
X209080Y408550D01*
X209080Y409500D02*
X199080Y409500D01*
X199080Y410450D02*
X209080Y410450D01*
X192080Y410900D02*
X182080Y410900D01*
X192080Y410900D02*
X192080Y401900D01*
X182080Y401900D01*
X182080Y410900D01*
X182080Y402850D02*
X192080Y402850D01*
X192080Y403800D02*
X182080Y403800D01*
X182080Y404750D02*
X192080Y404750D01*
X192080Y405700D02*
X182080Y405700D01*
X182080Y406650D02*
X192080Y406650D01*
X192080Y407600D02*
X182080Y407600D01*
X182080Y408550D02*
X192080Y408550D01*
X192080Y409500D02*
X182080Y409500D01*
X182080Y410450D02*
X192080Y410450D01*
D17*
X198560Y416820D02*
X198560Y429860D01*
X209600Y429860D01*
X209600Y416820D01*
X198560Y416820D01*
X198560Y417732D02*
X209600Y417732D01*
X209600Y418644D02*
X198560Y418644D01*
X198560Y419556D02*
X209600Y419556D01*
X209600Y420468D02*
X198560Y420468D01*
X198560Y421380D02*
X209600Y421380D01*
X209600Y422292D02*
X198560Y422292D01*
X198560Y423204D02*
X209600Y423204D01*
X209600Y424116D02*
X198560Y424116D01*
X198560Y425028D02*
X209600Y425028D01*
X209600Y425940D02*
X198560Y425940D01*
X198560Y426852D02*
X209600Y426852D01*
X209600Y427764D02*
X198560Y427764D01*
X198560Y428676D02*
X209600Y428676D01*
X209600Y429588D02*
X198560Y429588D01*
X209600Y438820D02*
X209600Y451860D01*
X209600Y438820D02*
X198560Y438820D01*
X198560Y451860D01*
X209600Y451860D01*
X209600Y439732D02*
X198560Y439732D01*
X198560Y440644D02*
X209600Y440644D01*
X209600Y441556D02*
X198560Y441556D01*
X198560Y442468D02*
X209600Y442468D01*
X209600Y443380D02*
X198560Y443380D01*
X198560Y444292D02*
X209600Y444292D01*
X209600Y445204D02*
X198560Y445204D01*
X198560Y446116D02*
X209600Y446116D01*
X209600Y447028D02*
X198560Y447028D01*
X198560Y447940D02*
X209600Y447940D01*
X209600Y448852D02*
X198560Y448852D01*
X198560Y449764D02*
X209600Y449764D01*
X209600Y450676D02*
X198560Y450676D01*
X198560Y451588D02*
X209600Y451588D01*
X192600Y451860D02*
X192600Y438820D01*
X181560Y438820D01*
X181560Y451860D01*
X192600Y451860D01*
X192600Y439732D02*
X181560Y439732D01*
X181560Y440644D02*
X192600Y440644D01*
X192600Y441556D02*
X181560Y441556D01*
X181560Y442468D02*
X192600Y442468D01*
X192600Y443380D02*
X181560Y443380D01*
X181560Y444292D02*
X192600Y444292D01*
X192600Y445204D02*
X181560Y445204D01*
X181560Y446116D02*
X192600Y446116D01*
X192600Y447028D02*
X181560Y447028D01*
X181560Y447940D02*
X192600Y447940D01*
X192600Y448852D02*
X181560Y448852D01*
X181560Y449764D02*
X192600Y449764D01*
X192600Y450676D02*
X181560Y450676D01*
X181560Y451588D02*
X192600Y451588D01*
X181560Y429860D02*
X181560Y416820D01*
X181560Y429860D02*
X192600Y429860D01*
X192600Y416820D01*
X181560Y416820D01*
X181560Y417732D02*
X192600Y417732D01*
X192600Y418644D02*
X181560Y418644D01*
X181560Y419556D02*
X192600Y419556D01*
X192600Y420468D02*
X181560Y420468D01*
X181560Y421380D02*
X192600Y421380D01*
X192600Y422292D02*
X181560Y422292D01*
X181560Y423204D02*
X192600Y423204D01*
X192600Y424116D02*
X181560Y424116D01*
X181560Y425028D02*
X192600Y425028D01*
X192600Y425940D02*
X181560Y425940D01*
X181560Y426852D02*
X192600Y426852D01*
X192600Y427764D02*
X181560Y427764D01*
X181560Y428676D02*
X192600Y428676D01*
X192600Y429588D02*
X181560Y429588D01*
M02*
