M48
;GenerationSoftware,Autodesk,EAGLE,9.6.2*%
;CreationDate,2021-04-19T22:51:30Z*%
FMAT,2
ICI,OFF
METRIC,TZ,000.000
T8C0.381
T7C0.400
T6C0.650
T5C0.850
T4C1.016
T3C1.800
T2C2.032
T1C3.048
%
G90
M71
T1
X13970Y5080
X66040Y10160
X66040Y38100
X15240Y53340
T2
X6604Y11176
X2032Y11176
T3
X64770Y29210
X64770Y31750
T4
X25400Y1270
X58420Y57150
X38100Y1270
X55880Y57150
X53340Y57150
X50800Y57150
X48260Y57150
X45720Y57150
X22860Y1270
X18796Y57150
X21336Y57150
X23876Y57150
X26416Y57150
X28956Y57150
X31496Y57150
X34036Y57150
X36576Y57150
X39116Y57150
X41656Y57150
X45720Y1270
X43180Y1270
X40640Y1270
X35560Y1270
X33020Y1270
X30480Y1270
X27940Y1270
X50800Y1270
X53340Y1270
X55880Y1270
X58420Y1270
X60960Y1270
X63500Y1270
X63500Y57150
X60960Y57150
T5
X29440Y17780
X26440Y17780
T6
X4905Y44800
X4905Y39020
T7
X1255Y46228
X1255Y37592
X5435Y37592
X5435Y46228
T8
X20320Y20320
X22860Y20320
X22860Y21717
X22860Y18542
X20320Y18415
X17145Y24892
X16256Y48260
X3810Y3810
X3810Y7620
X1143Y3556
X21590Y3810
X64770Y15240
X66802Y17780
X44450Y5080
X39370Y5080
X35560Y22479
X34290Y25146
X1905Y39243
X1270Y35560
X7239Y37973
X7493Y37084
X7239Y45593
X8382Y45466
X26670Y45593
X33401Y28575
X34290Y11430
X24130Y22860
X66040Y19050
X29197Y9131
X41897Y9131
X7874Y44323
X7937Y38926
X4953Y5969
X5080Y26809
X47771Y22460
X55880Y25400
X67310Y33020
X40640Y24130
X31496Y26035
X57658Y17780
X25781Y37465
X25590Y30416
X25781Y33655
X13374Y46863
X12890Y35624
X2413Y45593
X4699Y42291
X8001Y40132
X8001Y42672
X62230Y15240
X53340Y17780
X42310Y20809
X32385Y26797
X29210Y27940
X62230Y27940
X52070Y16510
X55880Y24130
X25273Y42799
X34290Y24003
X34290Y18923
X33274Y13843
X26162Y13208
X24003Y11049
X34671Y12827
X27432Y12573
X25019Y10160
X21590Y36957
X62230Y53340
X22733Y39370
X59690Y53340
X43688Y20606
X46990Y28067
X26416Y44704
X59690Y5207
X53340Y16510
X59690Y10160
X25146Y44831
X62230Y5080
X62230Y10160
X39497Y29083
X67310Y30480
X37338Y29972
X62230Y33020
X37617Y27457
X62230Y30480
X2540Y24269
X5080Y21729
X2540Y22364
X2540Y26174
X36830Y5080
X17272Y20574
X31750Y5080
X5080Y52070
X64770Y41910
X40640Y20320
X889Y29083
X47752Y21082
X41910Y5080
X27686Y53340
X43434Y23495
X49530Y27940
X35687Y27940
X1270Y7620
X29210Y46990
X67310Y24130
X17780Y22860
X17399Y17780
X67310Y27940
X6731Y36703
X13970Y32385
X15240Y35560
X12700Y29210
X8890Y52070
X35560Y17780
X39370Y22352
X7620Y46355
M30