G04 EAGLE Gerber RS-274X export*
G75*
%MOMM*%
%FSLAX34Y34*%
%LPD*%
%INSoldermask Bottom*%
%IPPOS*%
%AMOC8*
5,1,8,0,0,1.08239X$1,22.5*%
G01*
%ADD10C,3.175000*%
%ADD11C,1.927000*%
%ADD12C,1.397000*%
%ADD13C,2.159000*%
%ADD14C,0.777000*%
%ADD15C,0.228344*%
%ADD16C,0.225938*%
%ADD17C,0.977000*%
%ADD18C,2.006600*%
%ADD19C,1.127000*%
%ADD20C,1.270000*%
%ADD21C,1.627000*%

G36*
X3476690Y714387D02*
X3476690Y714387D01*
X3476756Y714389D01*
X3476799Y714407D01*
X3476846Y714415D01*
X3476903Y714449D01*
X3476963Y714474D01*
X3476998Y714505D01*
X3477039Y714530D01*
X3477081Y714581D01*
X3477129Y714625D01*
X3477151Y714667D01*
X3477180Y714704D01*
X3477201Y714766D01*
X3477232Y714825D01*
X3477240Y714879D01*
X3477252Y714916D01*
X3477251Y714956D01*
X3477259Y715010D01*
X3477259Y717550D01*
X3477248Y717615D01*
X3477246Y717681D01*
X3477228Y717724D01*
X3477220Y717771D01*
X3477186Y717828D01*
X3477161Y717888D01*
X3477130Y717923D01*
X3477105Y717964D01*
X3477054Y718006D01*
X3477010Y718054D01*
X3476968Y718076D01*
X3476931Y718105D01*
X3476869Y718126D01*
X3476810Y718157D01*
X3476756Y718165D01*
X3476719Y718177D01*
X3476679Y718176D01*
X3476625Y718184D01*
X3472815Y718184D01*
X3472750Y718173D01*
X3472684Y718171D01*
X3472641Y718153D01*
X3472594Y718145D01*
X3472537Y718111D01*
X3472477Y718086D01*
X3472442Y718055D01*
X3472401Y718030D01*
X3472360Y717979D01*
X3472311Y717935D01*
X3472289Y717893D01*
X3472260Y717856D01*
X3472239Y717794D01*
X3472208Y717735D01*
X3472200Y717681D01*
X3472188Y717644D01*
X3472188Y717641D01*
X3472189Y717604D01*
X3472181Y717550D01*
X3472181Y715010D01*
X3472192Y714945D01*
X3472194Y714879D01*
X3472212Y714836D01*
X3472220Y714789D01*
X3472254Y714732D01*
X3472279Y714672D01*
X3472310Y714637D01*
X3472335Y714596D01*
X3472386Y714555D01*
X3472430Y714506D01*
X3472472Y714484D01*
X3472509Y714455D01*
X3472571Y714434D01*
X3472630Y714403D01*
X3472684Y714395D01*
X3472721Y714383D01*
X3472761Y714384D01*
X3472815Y714376D01*
X3476625Y714376D01*
X3476690Y714387D01*
G37*
G36*
X1289750Y714387D02*
X1289750Y714387D01*
X1289816Y714389D01*
X1289859Y714407D01*
X1289906Y714415D01*
X1289963Y714449D01*
X1290023Y714474D01*
X1290058Y714505D01*
X1290099Y714530D01*
X1290141Y714581D01*
X1290189Y714625D01*
X1290211Y714667D01*
X1290240Y714704D01*
X1290261Y714766D01*
X1290292Y714825D01*
X1290300Y714879D01*
X1290312Y714916D01*
X1290311Y714956D01*
X1290319Y715010D01*
X1290319Y717550D01*
X1290308Y717615D01*
X1290306Y717681D01*
X1290288Y717724D01*
X1290280Y717771D01*
X1290246Y717828D01*
X1290221Y717888D01*
X1290190Y717923D01*
X1290165Y717964D01*
X1290114Y718006D01*
X1290070Y718054D01*
X1290028Y718076D01*
X1289991Y718105D01*
X1289929Y718126D01*
X1289870Y718157D01*
X1289816Y718165D01*
X1289779Y718177D01*
X1289739Y718176D01*
X1289685Y718184D01*
X1285875Y718184D01*
X1285810Y718173D01*
X1285744Y718171D01*
X1285701Y718153D01*
X1285654Y718145D01*
X1285597Y718111D01*
X1285537Y718086D01*
X1285502Y718055D01*
X1285461Y718030D01*
X1285420Y717979D01*
X1285371Y717935D01*
X1285349Y717893D01*
X1285320Y717856D01*
X1285299Y717794D01*
X1285268Y717735D01*
X1285260Y717681D01*
X1285248Y717644D01*
X1285248Y717641D01*
X1285249Y717604D01*
X1285241Y717550D01*
X1285241Y715010D01*
X1285252Y714945D01*
X1285254Y714879D01*
X1285272Y714836D01*
X1285280Y714789D01*
X1285314Y714732D01*
X1285339Y714672D01*
X1285370Y714637D01*
X1285395Y714596D01*
X1285446Y714555D01*
X1285490Y714506D01*
X1285532Y714484D01*
X1285569Y714455D01*
X1285631Y714434D01*
X1285690Y714403D01*
X1285744Y714395D01*
X1285781Y714383D01*
X1285821Y714384D01*
X1285875Y714376D01*
X1289685Y714376D01*
X1289750Y714387D01*
G37*
G36*
X611570Y714387D02*
X611570Y714387D01*
X611636Y714389D01*
X611679Y714407D01*
X611726Y714415D01*
X611783Y714449D01*
X611843Y714474D01*
X611878Y714505D01*
X611919Y714530D01*
X611961Y714581D01*
X612009Y714625D01*
X612031Y714667D01*
X612060Y714704D01*
X612081Y714766D01*
X612112Y714825D01*
X612120Y714879D01*
X612132Y714916D01*
X612131Y714956D01*
X612139Y715010D01*
X612139Y717550D01*
X612128Y717615D01*
X612126Y717681D01*
X612108Y717724D01*
X612100Y717771D01*
X612066Y717828D01*
X612041Y717888D01*
X612010Y717923D01*
X611985Y717964D01*
X611934Y718006D01*
X611890Y718054D01*
X611848Y718076D01*
X611811Y718105D01*
X611749Y718126D01*
X611690Y718157D01*
X611636Y718165D01*
X611599Y718177D01*
X611559Y718176D01*
X611505Y718184D01*
X607695Y718184D01*
X607630Y718173D01*
X607564Y718171D01*
X607521Y718153D01*
X607474Y718145D01*
X607417Y718111D01*
X607357Y718086D01*
X607322Y718055D01*
X607281Y718030D01*
X607240Y717979D01*
X607191Y717935D01*
X607169Y717893D01*
X607140Y717856D01*
X607119Y717794D01*
X607088Y717735D01*
X607080Y717681D01*
X607068Y717644D01*
X607068Y717641D01*
X607069Y717604D01*
X607061Y717550D01*
X607061Y715010D01*
X607072Y714945D01*
X607074Y714879D01*
X607092Y714836D01*
X607100Y714789D01*
X607134Y714732D01*
X607159Y714672D01*
X607190Y714637D01*
X607215Y714596D01*
X607266Y714555D01*
X607310Y714506D01*
X607352Y714484D01*
X607389Y714455D01*
X607451Y714434D01*
X607510Y714403D01*
X607564Y714395D01*
X607601Y714383D01*
X607641Y714384D01*
X607695Y714376D01*
X611505Y714376D01*
X611570Y714387D01*
G37*
G36*
X1327850Y714387D02*
X1327850Y714387D01*
X1327916Y714389D01*
X1327959Y714407D01*
X1328006Y714415D01*
X1328063Y714449D01*
X1328123Y714474D01*
X1328158Y714505D01*
X1328199Y714530D01*
X1328241Y714581D01*
X1328289Y714625D01*
X1328311Y714667D01*
X1328340Y714704D01*
X1328361Y714766D01*
X1328392Y714825D01*
X1328400Y714879D01*
X1328412Y714916D01*
X1328411Y714956D01*
X1328419Y715010D01*
X1328419Y717550D01*
X1328408Y717615D01*
X1328406Y717681D01*
X1328388Y717724D01*
X1328380Y717771D01*
X1328346Y717828D01*
X1328321Y717888D01*
X1328290Y717923D01*
X1328265Y717964D01*
X1328214Y718006D01*
X1328170Y718054D01*
X1328128Y718076D01*
X1328091Y718105D01*
X1328029Y718126D01*
X1327970Y718157D01*
X1327916Y718165D01*
X1327879Y718177D01*
X1327839Y718176D01*
X1327785Y718184D01*
X1323975Y718184D01*
X1323910Y718173D01*
X1323844Y718171D01*
X1323801Y718153D01*
X1323754Y718145D01*
X1323697Y718111D01*
X1323637Y718086D01*
X1323602Y718055D01*
X1323561Y718030D01*
X1323520Y717979D01*
X1323471Y717935D01*
X1323449Y717893D01*
X1323420Y717856D01*
X1323399Y717794D01*
X1323368Y717735D01*
X1323360Y717681D01*
X1323348Y717644D01*
X1323348Y717641D01*
X1323349Y717604D01*
X1323341Y717550D01*
X1323341Y715010D01*
X1323352Y714945D01*
X1323354Y714879D01*
X1323372Y714836D01*
X1323380Y714789D01*
X1323414Y714732D01*
X1323439Y714672D01*
X1323470Y714637D01*
X1323495Y714596D01*
X1323546Y714555D01*
X1323590Y714506D01*
X1323632Y714484D01*
X1323669Y714455D01*
X1323731Y714434D01*
X1323790Y714403D01*
X1323844Y714395D01*
X1323881Y714383D01*
X1323921Y714384D01*
X1323975Y714376D01*
X1327785Y714376D01*
X1327850Y714387D01*
G37*
G36*
X3438590Y714387D02*
X3438590Y714387D01*
X3438656Y714389D01*
X3438699Y714407D01*
X3438746Y714415D01*
X3438803Y714449D01*
X3438863Y714474D01*
X3438898Y714505D01*
X3438939Y714530D01*
X3438981Y714581D01*
X3439029Y714625D01*
X3439051Y714667D01*
X3439080Y714704D01*
X3439101Y714766D01*
X3439132Y714825D01*
X3439140Y714879D01*
X3439152Y714916D01*
X3439151Y714956D01*
X3439159Y715010D01*
X3439159Y717550D01*
X3439148Y717615D01*
X3439146Y717681D01*
X3439128Y717724D01*
X3439120Y717771D01*
X3439086Y717828D01*
X3439061Y717888D01*
X3439030Y717923D01*
X3439005Y717964D01*
X3438954Y718006D01*
X3438910Y718054D01*
X3438868Y718076D01*
X3438831Y718105D01*
X3438769Y718126D01*
X3438710Y718157D01*
X3438656Y718165D01*
X3438619Y718177D01*
X3438579Y718176D01*
X3438525Y718184D01*
X3434715Y718184D01*
X3434650Y718173D01*
X3434584Y718171D01*
X3434541Y718153D01*
X3434494Y718145D01*
X3434437Y718111D01*
X3434377Y718086D01*
X3434342Y718055D01*
X3434301Y718030D01*
X3434260Y717979D01*
X3434211Y717935D01*
X3434189Y717893D01*
X3434160Y717856D01*
X3434139Y717794D01*
X3434108Y717735D01*
X3434100Y717681D01*
X3434088Y717644D01*
X3434088Y717641D01*
X3434089Y717604D01*
X3434081Y717550D01*
X3434081Y715010D01*
X3434092Y714945D01*
X3434094Y714879D01*
X3434112Y714836D01*
X3434120Y714789D01*
X3434154Y714732D01*
X3434179Y714672D01*
X3434210Y714637D01*
X3434235Y714596D01*
X3434286Y714555D01*
X3434330Y714506D01*
X3434372Y714484D01*
X3434409Y714455D01*
X3434471Y714434D01*
X3434530Y714403D01*
X3434584Y714395D01*
X3434621Y714383D01*
X3434661Y714384D01*
X3434715Y714376D01*
X3438525Y714376D01*
X3438590Y714387D01*
G37*
G36*
X2760410Y714387D02*
X2760410Y714387D01*
X2760476Y714389D01*
X2760519Y714407D01*
X2760566Y714415D01*
X2760623Y714449D01*
X2760683Y714474D01*
X2760718Y714505D01*
X2760759Y714530D01*
X2760801Y714581D01*
X2760849Y714625D01*
X2760871Y714667D01*
X2760900Y714704D01*
X2760921Y714766D01*
X2760952Y714825D01*
X2760960Y714879D01*
X2760972Y714916D01*
X2760971Y714956D01*
X2760979Y715010D01*
X2760979Y717550D01*
X2760968Y717615D01*
X2760966Y717681D01*
X2760948Y717724D01*
X2760940Y717771D01*
X2760906Y717828D01*
X2760881Y717888D01*
X2760850Y717923D01*
X2760825Y717964D01*
X2760774Y718006D01*
X2760730Y718054D01*
X2760688Y718076D01*
X2760651Y718105D01*
X2760589Y718126D01*
X2760530Y718157D01*
X2760476Y718165D01*
X2760439Y718177D01*
X2760399Y718176D01*
X2760345Y718184D01*
X2756535Y718184D01*
X2756470Y718173D01*
X2756404Y718171D01*
X2756361Y718153D01*
X2756314Y718145D01*
X2756257Y718111D01*
X2756197Y718086D01*
X2756162Y718055D01*
X2756121Y718030D01*
X2756080Y717979D01*
X2756031Y717935D01*
X2756009Y717893D01*
X2755980Y717856D01*
X2755959Y717794D01*
X2755928Y717735D01*
X2755920Y717681D01*
X2755908Y717644D01*
X2755908Y717641D01*
X2755909Y717604D01*
X2755901Y717550D01*
X2755901Y715010D01*
X2755912Y714945D01*
X2755914Y714879D01*
X2755932Y714836D01*
X2755940Y714789D01*
X2755974Y714732D01*
X2755999Y714672D01*
X2756030Y714637D01*
X2756055Y714596D01*
X2756106Y714555D01*
X2756150Y714506D01*
X2756192Y714484D01*
X2756229Y714455D01*
X2756291Y714434D01*
X2756350Y714403D01*
X2756404Y714395D01*
X2756441Y714383D01*
X2756481Y714384D01*
X2756535Y714376D01*
X2760345Y714376D01*
X2760410Y714387D01*
G37*
G36*
X573470Y714387D02*
X573470Y714387D01*
X573536Y714389D01*
X573579Y714407D01*
X573626Y714415D01*
X573683Y714449D01*
X573743Y714474D01*
X573778Y714505D01*
X573819Y714530D01*
X573861Y714581D01*
X573909Y714625D01*
X573931Y714667D01*
X573960Y714704D01*
X573981Y714766D01*
X574012Y714825D01*
X574020Y714879D01*
X574032Y714916D01*
X574031Y714956D01*
X574039Y715010D01*
X574039Y717550D01*
X574028Y717615D01*
X574026Y717681D01*
X574008Y717724D01*
X574000Y717771D01*
X573966Y717828D01*
X573941Y717888D01*
X573910Y717923D01*
X573885Y717964D01*
X573834Y718006D01*
X573790Y718054D01*
X573748Y718076D01*
X573711Y718105D01*
X573649Y718126D01*
X573590Y718157D01*
X573536Y718165D01*
X573499Y718177D01*
X573459Y718176D01*
X573405Y718184D01*
X569595Y718184D01*
X569530Y718173D01*
X569464Y718171D01*
X569421Y718153D01*
X569374Y718145D01*
X569317Y718111D01*
X569257Y718086D01*
X569222Y718055D01*
X569181Y718030D01*
X569140Y717979D01*
X569091Y717935D01*
X569069Y717893D01*
X569040Y717856D01*
X569019Y717794D01*
X568988Y717735D01*
X568980Y717681D01*
X568968Y717644D01*
X568968Y717641D01*
X568969Y717604D01*
X568961Y717550D01*
X568961Y715010D01*
X568972Y714945D01*
X568974Y714879D01*
X568992Y714836D01*
X569000Y714789D01*
X569034Y714732D01*
X569059Y714672D01*
X569090Y714637D01*
X569115Y714596D01*
X569166Y714555D01*
X569210Y714506D01*
X569252Y714484D01*
X569289Y714455D01*
X569351Y714434D01*
X569410Y714403D01*
X569464Y714395D01*
X569501Y714383D01*
X569541Y714384D01*
X569595Y714376D01*
X573405Y714376D01*
X573470Y714387D01*
G37*
G36*
X2006030Y714387D02*
X2006030Y714387D01*
X2006096Y714389D01*
X2006139Y714407D01*
X2006186Y714415D01*
X2006243Y714449D01*
X2006303Y714474D01*
X2006338Y714505D01*
X2006379Y714530D01*
X2006421Y714581D01*
X2006469Y714625D01*
X2006491Y714667D01*
X2006520Y714704D01*
X2006541Y714766D01*
X2006572Y714825D01*
X2006580Y714879D01*
X2006592Y714916D01*
X2006591Y714956D01*
X2006599Y715010D01*
X2006599Y717550D01*
X2006588Y717615D01*
X2006586Y717681D01*
X2006568Y717724D01*
X2006560Y717771D01*
X2006526Y717828D01*
X2006501Y717888D01*
X2006470Y717923D01*
X2006445Y717964D01*
X2006394Y718006D01*
X2006350Y718054D01*
X2006308Y718076D01*
X2006271Y718105D01*
X2006209Y718126D01*
X2006150Y718157D01*
X2006096Y718165D01*
X2006059Y718177D01*
X2006019Y718176D01*
X2005965Y718184D01*
X2002155Y718184D01*
X2002090Y718173D01*
X2002024Y718171D01*
X2001981Y718153D01*
X2001934Y718145D01*
X2001877Y718111D01*
X2001817Y718086D01*
X2001782Y718055D01*
X2001741Y718030D01*
X2001700Y717979D01*
X2001651Y717935D01*
X2001629Y717893D01*
X2001600Y717856D01*
X2001579Y717794D01*
X2001548Y717735D01*
X2001540Y717681D01*
X2001528Y717644D01*
X2001528Y717641D01*
X2001529Y717604D01*
X2001521Y717550D01*
X2001521Y715010D01*
X2001532Y714945D01*
X2001534Y714879D01*
X2001552Y714836D01*
X2001560Y714789D01*
X2001594Y714732D01*
X2001619Y714672D01*
X2001650Y714637D01*
X2001675Y714596D01*
X2001726Y714555D01*
X2001770Y714506D01*
X2001812Y714484D01*
X2001849Y714455D01*
X2001911Y714434D01*
X2001970Y714403D01*
X2002024Y714395D01*
X2002061Y714383D01*
X2002101Y714384D01*
X2002155Y714376D01*
X2005965Y714376D01*
X2006030Y714387D01*
G37*
G36*
X2722310Y714387D02*
X2722310Y714387D01*
X2722376Y714389D01*
X2722419Y714407D01*
X2722466Y714415D01*
X2722523Y714449D01*
X2722583Y714474D01*
X2722618Y714505D01*
X2722659Y714530D01*
X2722701Y714581D01*
X2722749Y714625D01*
X2722771Y714667D01*
X2722800Y714704D01*
X2722821Y714766D01*
X2722852Y714825D01*
X2722860Y714879D01*
X2722872Y714916D01*
X2722871Y714956D01*
X2722879Y715010D01*
X2722879Y717550D01*
X2722868Y717615D01*
X2722866Y717681D01*
X2722848Y717724D01*
X2722840Y717771D01*
X2722806Y717828D01*
X2722781Y717888D01*
X2722750Y717923D01*
X2722725Y717964D01*
X2722674Y718006D01*
X2722630Y718054D01*
X2722588Y718076D01*
X2722551Y718105D01*
X2722489Y718126D01*
X2722430Y718157D01*
X2722376Y718165D01*
X2722339Y718177D01*
X2722299Y718176D01*
X2722245Y718184D01*
X2718435Y718184D01*
X2718370Y718173D01*
X2718304Y718171D01*
X2718261Y718153D01*
X2718214Y718145D01*
X2718157Y718111D01*
X2718097Y718086D01*
X2718062Y718055D01*
X2718021Y718030D01*
X2717980Y717979D01*
X2717931Y717935D01*
X2717909Y717893D01*
X2717880Y717856D01*
X2717859Y717794D01*
X2717828Y717735D01*
X2717820Y717681D01*
X2717808Y717644D01*
X2717808Y717641D01*
X2717809Y717604D01*
X2717801Y717550D01*
X2717801Y715010D01*
X2717812Y714945D01*
X2717814Y714879D01*
X2717832Y714836D01*
X2717840Y714789D01*
X2717874Y714732D01*
X2717899Y714672D01*
X2717930Y714637D01*
X2717955Y714596D01*
X2718006Y714555D01*
X2718050Y714506D01*
X2718092Y714484D01*
X2718129Y714455D01*
X2718191Y714434D01*
X2718250Y714403D01*
X2718304Y714395D01*
X2718341Y714383D01*
X2718381Y714384D01*
X2718435Y714376D01*
X2722245Y714376D01*
X2722310Y714387D01*
G37*
G36*
X2044130Y714387D02*
X2044130Y714387D01*
X2044196Y714389D01*
X2044239Y714407D01*
X2044286Y714415D01*
X2044343Y714449D01*
X2044403Y714474D01*
X2044438Y714505D01*
X2044479Y714530D01*
X2044521Y714581D01*
X2044569Y714625D01*
X2044591Y714667D01*
X2044620Y714704D01*
X2044641Y714766D01*
X2044672Y714825D01*
X2044680Y714879D01*
X2044692Y714916D01*
X2044691Y714956D01*
X2044699Y715010D01*
X2044699Y717550D01*
X2044688Y717615D01*
X2044686Y717681D01*
X2044668Y717724D01*
X2044660Y717771D01*
X2044626Y717828D01*
X2044601Y717888D01*
X2044570Y717923D01*
X2044545Y717964D01*
X2044494Y718006D01*
X2044450Y718054D01*
X2044408Y718076D01*
X2044371Y718105D01*
X2044309Y718126D01*
X2044250Y718157D01*
X2044196Y718165D01*
X2044159Y718177D01*
X2044119Y718176D01*
X2044065Y718184D01*
X2040255Y718184D01*
X2040190Y718173D01*
X2040124Y718171D01*
X2040081Y718153D01*
X2040034Y718145D01*
X2039977Y718111D01*
X2039917Y718086D01*
X2039882Y718055D01*
X2039841Y718030D01*
X2039800Y717979D01*
X2039751Y717935D01*
X2039729Y717893D01*
X2039700Y717856D01*
X2039679Y717794D01*
X2039648Y717735D01*
X2039640Y717681D01*
X2039628Y717644D01*
X2039628Y717641D01*
X2039629Y717604D01*
X2039621Y717550D01*
X2039621Y715010D01*
X2039632Y714945D01*
X2039634Y714879D01*
X2039652Y714836D01*
X2039660Y714789D01*
X2039694Y714732D01*
X2039719Y714672D01*
X2039750Y714637D01*
X2039775Y714596D01*
X2039826Y714555D01*
X2039870Y714506D01*
X2039912Y714484D01*
X2039949Y714455D01*
X2040011Y714434D01*
X2040070Y714403D01*
X2040124Y714395D01*
X2040161Y714383D01*
X2040201Y714384D01*
X2040255Y714376D01*
X2044065Y714376D01*
X2044130Y714387D01*
G37*
G36*
X2044130Y125107D02*
X2044130Y125107D01*
X2044196Y125109D01*
X2044239Y125127D01*
X2044286Y125135D01*
X2044343Y125169D01*
X2044403Y125194D01*
X2044438Y125225D01*
X2044479Y125250D01*
X2044521Y125301D01*
X2044569Y125345D01*
X2044591Y125387D01*
X2044620Y125424D01*
X2044641Y125486D01*
X2044672Y125545D01*
X2044680Y125599D01*
X2044692Y125636D01*
X2044691Y125676D01*
X2044699Y125730D01*
X2044699Y128270D01*
X2044688Y128335D01*
X2044686Y128401D01*
X2044668Y128444D01*
X2044660Y128491D01*
X2044626Y128548D01*
X2044601Y128608D01*
X2044570Y128643D01*
X2044545Y128684D01*
X2044494Y128726D01*
X2044450Y128774D01*
X2044408Y128796D01*
X2044371Y128825D01*
X2044309Y128846D01*
X2044250Y128877D01*
X2044196Y128885D01*
X2044159Y128897D01*
X2044119Y128896D01*
X2044065Y128904D01*
X2040255Y128904D01*
X2040190Y128893D01*
X2040124Y128891D01*
X2040081Y128873D01*
X2040034Y128865D01*
X2039977Y128831D01*
X2039917Y128806D01*
X2039882Y128775D01*
X2039841Y128750D01*
X2039800Y128699D01*
X2039751Y128655D01*
X2039729Y128613D01*
X2039700Y128576D01*
X2039679Y128514D01*
X2039648Y128455D01*
X2039640Y128401D01*
X2039628Y128364D01*
X2039628Y128361D01*
X2039629Y128324D01*
X2039621Y128270D01*
X2039621Y125730D01*
X2039632Y125665D01*
X2039634Y125599D01*
X2039652Y125556D01*
X2039660Y125509D01*
X2039694Y125452D01*
X2039719Y125392D01*
X2039750Y125357D01*
X2039775Y125316D01*
X2039826Y125275D01*
X2039870Y125226D01*
X2039912Y125204D01*
X2039949Y125175D01*
X2040011Y125154D01*
X2040070Y125123D01*
X2040124Y125115D01*
X2040161Y125103D01*
X2040201Y125104D01*
X2040255Y125096D01*
X2044065Y125096D01*
X2044130Y125107D01*
G37*
G36*
X2722310Y125107D02*
X2722310Y125107D01*
X2722376Y125109D01*
X2722419Y125127D01*
X2722466Y125135D01*
X2722523Y125169D01*
X2722583Y125194D01*
X2722618Y125225D01*
X2722659Y125250D01*
X2722701Y125301D01*
X2722749Y125345D01*
X2722771Y125387D01*
X2722800Y125424D01*
X2722821Y125486D01*
X2722852Y125545D01*
X2722860Y125599D01*
X2722872Y125636D01*
X2722871Y125676D01*
X2722879Y125730D01*
X2722879Y128270D01*
X2722868Y128335D01*
X2722866Y128401D01*
X2722848Y128444D01*
X2722840Y128491D01*
X2722806Y128548D01*
X2722781Y128608D01*
X2722750Y128643D01*
X2722725Y128684D01*
X2722674Y128726D01*
X2722630Y128774D01*
X2722588Y128796D01*
X2722551Y128825D01*
X2722489Y128846D01*
X2722430Y128877D01*
X2722376Y128885D01*
X2722339Y128897D01*
X2722299Y128896D01*
X2722245Y128904D01*
X2718435Y128904D01*
X2718370Y128893D01*
X2718304Y128891D01*
X2718261Y128873D01*
X2718214Y128865D01*
X2718157Y128831D01*
X2718097Y128806D01*
X2718062Y128775D01*
X2718021Y128750D01*
X2717980Y128699D01*
X2717931Y128655D01*
X2717909Y128613D01*
X2717880Y128576D01*
X2717859Y128514D01*
X2717828Y128455D01*
X2717820Y128401D01*
X2717808Y128364D01*
X2717808Y128361D01*
X2717809Y128324D01*
X2717801Y128270D01*
X2717801Y125730D01*
X2717812Y125665D01*
X2717814Y125599D01*
X2717832Y125556D01*
X2717840Y125509D01*
X2717874Y125452D01*
X2717899Y125392D01*
X2717930Y125357D01*
X2717955Y125316D01*
X2718006Y125275D01*
X2718050Y125226D01*
X2718092Y125204D01*
X2718129Y125175D01*
X2718191Y125154D01*
X2718250Y125123D01*
X2718304Y125115D01*
X2718341Y125103D01*
X2718381Y125104D01*
X2718435Y125096D01*
X2722245Y125096D01*
X2722310Y125107D01*
G37*
G36*
X3476690Y125107D02*
X3476690Y125107D01*
X3476756Y125109D01*
X3476799Y125127D01*
X3476846Y125135D01*
X3476903Y125169D01*
X3476963Y125194D01*
X3476998Y125225D01*
X3477039Y125250D01*
X3477081Y125301D01*
X3477129Y125345D01*
X3477151Y125387D01*
X3477180Y125424D01*
X3477201Y125486D01*
X3477232Y125545D01*
X3477240Y125599D01*
X3477252Y125636D01*
X3477251Y125676D01*
X3477259Y125730D01*
X3477259Y128270D01*
X3477248Y128335D01*
X3477246Y128401D01*
X3477228Y128444D01*
X3477220Y128491D01*
X3477186Y128548D01*
X3477161Y128608D01*
X3477130Y128643D01*
X3477105Y128684D01*
X3477054Y128726D01*
X3477010Y128774D01*
X3476968Y128796D01*
X3476931Y128825D01*
X3476869Y128846D01*
X3476810Y128877D01*
X3476756Y128885D01*
X3476719Y128897D01*
X3476679Y128896D01*
X3476625Y128904D01*
X3472815Y128904D01*
X3472750Y128893D01*
X3472684Y128891D01*
X3472641Y128873D01*
X3472594Y128865D01*
X3472537Y128831D01*
X3472477Y128806D01*
X3472442Y128775D01*
X3472401Y128750D01*
X3472360Y128699D01*
X3472311Y128655D01*
X3472289Y128613D01*
X3472260Y128576D01*
X3472239Y128514D01*
X3472208Y128455D01*
X3472200Y128401D01*
X3472188Y128364D01*
X3472188Y128361D01*
X3472189Y128324D01*
X3472181Y128270D01*
X3472181Y125730D01*
X3472192Y125665D01*
X3472194Y125599D01*
X3472212Y125556D01*
X3472220Y125509D01*
X3472254Y125452D01*
X3472279Y125392D01*
X3472310Y125357D01*
X3472335Y125316D01*
X3472386Y125275D01*
X3472430Y125226D01*
X3472472Y125204D01*
X3472509Y125175D01*
X3472571Y125154D01*
X3472630Y125123D01*
X3472684Y125115D01*
X3472721Y125103D01*
X3472761Y125104D01*
X3472815Y125096D01*
X3476625Y125096D01*
X3476690Y125107D01*
G37*
G36*
X2006030Y125107D02*
X2006030Y125107D01*
X2006096Y125109D01*
X2006139Y125127D01*
X2006186Y125135D01*
X2006243Y125169D01*
X2006303Y125194D01*
X2006338Y125225D01*
X2006379Y125250D01*
X2006421Y125301D01*
X2006469Y125345D01*
X2006491Y125387D01*
X2006520Y125424D01*
X2006541Y125486D01*
X2006572Y125545D01*
X2006580Y125599D01*
X2006592Y125636D01*
X2006591Y125676D01*
X2006599Y125730D01*
X2006599Y128270D01*
X2006588Y128335D01*
X2006586Y128401D01*
X2006568Y128444D01*
X2006560Y128491D01*
X2006526Y128548D01*
X2006501Y128608D01*
X2006470Y128643D01*
X2006445Y128684D01*
X2006394Y128726D01*
X2006350Y128774D01*
X2006308Y128796D01*
X2006271Y128825D01*
X2006209Y128846D01*
X2006150Y128877D01*
X2006096Y128885D01*
X2006059Y128897D01*
X2006019Y128896D01*
X2005965Y128904D01*
X2002155Y128904D01*
X2002090Y128893D01*
X2002024Y128891D01*
X2001981Y128873D01*
X2001934Y128865D01*
X2001877Y128831D01*
X2001817Y128806D01*
X2001782Y128775D01*
X2001741Y128750D01*
X2001700Y128699D01*
X2001651Y128655D01*
X2001629Y128613D01*
X2001600Y128576D01*
X2001579Y128514D01*
X2001548Y128455D01*
X2001540Y128401D01*
X2001528Y128364D01*
X2001528Y128361D01*
X2001529Y128324D01*
X2001521Y128270D01*
X2001521Y125730D01*
X2001532Y125665D01*
X2001534Y125599D01*
X2001552Y125556D01*
X2001560Y125509D01*
X2001594Y125452D01*
X2001619Y125392D01*
X2001650Y125357D01*
X2001675Y125316D01*
X2001726Y125275D01*
X2001770Y125226D01*
X2001812Y125204D01*
X2001849Y125175D01*
X2001911Y125154D01*
X2001970Y125123D01*
X2002024Y125115D01*
X2002061Y125103D01*
X2002101Y125104D01*
X2002155Y125096D01*
X2005965Y125096D01*
X2006030Y125107D01*
G37*
G36*
X1289750Y125107D02*
X1289750Y125107D01*
X1289816Y125109D01*
X1289859Y125127D01*
X1289906Y125135D01*
X1289963Y125169D01*
X1290023Y125194D01*
X1290058Y125225D01*
X1290099Y125250D01*
X1290141Y125301D01*
X1290189Y125345D01*
X1290211Y125387D01*
X1290240Y125424D01*
X1290261Y125486D01*
X1290292Y125545D01*
X1290300Y125599D01*
X1290312Y125636D01*
X1290311Y125676D01*
X1290319Y125730D01*
X1290319Y128270D01*
X1290308Y128335D01*
X1290306Y128401D01*
X1290288Y128444D01*
X1290280Y128491D01*
X1290246Y128548D01*
X1290221Y128608D01*
X1290190Y128643D01*
X1290165Y128684D01*
X1290114Y128726D01*
X1290070Y128774D01*
X1290028Y128796D01*
X1289991Y128825D01*
X1289929Y128846D01*
X1289870Y128877D01*
X1289816Y128885D01*
X1289779Y128897D01*
X1289739Y128896D01*
X1289685Y128904D01*
X1285875Y128904D01*
X1285810Y128893D01*
X1285744Y128891D01*
X1285701Y128873D01*
X1285654Y128865D01*
X1285597Y128831D01*
X1285537Y128806D01*
X1285502Y128775D01*
X1285461Y128750D01*
X1285420Y128699D01*
X1285371Y128655D01*
X1285349Y128613D01*
X1285320Y128576D01*
X1285299Y128514D01*
X1285268Y128455D01*
X1285260Y128401D01*
X1285248Y128364D01*
X1285248Y128361D01*
X1285249Y128324D01*
X1285241Y128270D01*
X1285241Y125730D01*
X1285252Y125665D01*
X1285254Y125599D01*
X1285272Y125556D01*
X1285280Y125509D01*
X1285314Y125452D01*
X1285339Y125392D01*
X1285370Y125357D01*
X1285395Y125316D01*
X1285446Y125275D01*
X1285490Y125226D01*
X1285532Y125204D01*
X1285569Y125175D01*
X1285631Y125154D01*
X1285690Y125123D01*
X1285744Y125115D01*
X1285781Y125103D01*
X1285821Y125104D01*
X1285875Y125096D01*
X1289685Y125096D01*
X1289750Y125107D01*
G37*
G36*
X2760410Y125107D02*
X2760410Y125107D01*
X2760476Y125109D01*
X2760519Y125127D01*
X2760566Y125135D01*
X2760623Y125169D01*
X2760683Y125194D01*
X2760718Y125225D01*
X2760759Y125250D01*
X2760801Y125301D01*
X2760849Y125345D01*
X2760871Y125387D01*
X2760900Y125424D01*
X2760921Y125486D01*
X2760952Y125545D01*
X2760960Y125599D01*
X2760972Y125636D01*
X2760971Y125676D01*
X2760979Y125730D01*
X2760979Y128270D01*
X2760968Y128335D01*
X2760966Y128401D01*
X2760948Y128444D01*
X2760940Y128491D01*
X2760906Y128548D01*
X2760881Y128608D01*
X2760850Y128643D01*
X2760825Y128684D01*
X2760774Y128726D01*
X2760730Y128774D01*
X2760688Y128796D01*
X2760651Y128825D01*
X2760589Y128846D01*
X2760530Y128877D01*
X2760476Y128885D01*
X2760439Y128897D01*
X2760399Y128896D01*
X2760345Y128904D01*
X2756535Y128904D01*
X2756470Y128893D01*
X2756404Y128891D01*
X2756361Y128873D01*
X2756314Y128865D01*
X2756257Y128831D01*
X2756197Y128806D01*
X2756162Y128775D01*
X2756121Y128750D01*
X2756080Y128699D01*
X2756031Y128655D01*
X2756009Y128613D01*
X2755980Y128576D01*
X2755959Y128514D01*
X2755928Y128455D01*
X2755920Y128401D01*
X2755908Y128364D01*
X2755908Y128361D01*
X2755909Y128324D01*
X2755901Y128270D01*
X2755901Y125730D01*
X2755912Y125665D01*
X2755914Y125599D01*
X2755932Y125556D01*
X2755940Y125509D01*
X2755974Y125452D01*
X2755999Y125392D01*
X2756030Y125357D01*
X2756055Y125316D01*
X2756106Y125275D01*
X2756150Y125226D01*
X2756192Y125204D01*
X2756229Y125175D01*
X2756291Y125154D01*
X2756350Y125123D01*
X2756404Y125115D01*
X2756441Y125103D01*
X2756481Y125104D01*
X2756535Y125096D01*
X2760345Y125096D01*
X2760410Y125107D01*
G37*
G36*
X3438590Y125107D02*
X3438590Y125107D01*
X3438656Y125109D01*
X3438699Y125127D01*
X3438746Y125135D01*
X3438803Y125169D01*
X3438863Y125194D01*
X3438898Y125225D01*
X3438939Y125250D01*
X3438981Y125301D01*
X3439029Y125345D01*
X3439051Y125387D01*
X3439080Y125424D01*
X3439101Y125486D01*
X3439132Y125545D01*
X3439140Y125599D01*
X3439152Y125636D01*
X3439151Y125676D01*
X3439159Y125730D01*
X3439159Y128270D01*
X3439148Y128335D01*
X3439146Y128401D01*
X3439128Y128444D01*
X3439120Y128491D01*
X3439086Y128548D01*
X3439061Y128608D01*
X3439030Y128643D01*
X3439005Y128684D01*
X3438954Y128726D01*
X3438910Y128774D01*
X3438868Y128796D01*
X3438831Y128825D01*
X3438769Y128846D01*
X3438710Y128877D01*
X3438656Y128885D01*
X3438619Y128897D01*
X3438579Y128896D01*
X3438525Y128904D01*
X3434715Y128904D01*
X3434650Y128893D01*
X3434584Y128891D01*
X3434541Y128873D01*
X3434494Y128865D01*
X3434437Y128831D01*
X3434377Y128806D01*
X3434342Y128775D01*
X3434301Y128750D01*
X3434260Y128699D01*
X3434211Y128655D01*
X3434189Y128613D01*
X3434160Y128576D01*
X3434139Y128514D01*
X3434108Y128455D01*
X3434100Y128401D01*
X3434088Y128364D01*
X3434088Y128361D01*
X3434089Y128324D01*
X3434081Y128270D01*
X3434081Y125730D01*
X3434092Y125665D01*
X3434094Y125599D01*
X3434112Y125556D01*
X3434120Y125509D01*
X3434154Y125452D01*
X3434179Y125392D01*
X3434210Y125357D01*
X3434235Y125316D01*
X3434286Y125275D01*
X3434330Y125226D01*
X3434372Y125204D01*
X3434409Y125175D01*
X3434471Y125154D01*
X3434530Y125123D01*
X3434584Y125115D01*
X3434621Y125103D01*
X3434661Y125104D01*
X3434715Y125096D01*
X3438525Y125096D01*
X3438590Y125107D01*
G37*
G36*
X1327850Y125107D02*
X1327850Y125107D01*
X1327916Y125109D01*
X1327959Y125127D01*
X1328006Y125135D01*
X1328063Y125169D01*
X1328123Y125194D01*
X1328158Y125225D01*
X1328199Y125250D01*
X1328241Y125301D01*
X1328289Y125345D01*
X1328311Y125387D01*
X1328340Y125424D01*
X1328361Y125486D01*
X1328392Y125545D01*
X1328400Y125599D01*
X1328412Y125636D01*
X1328411Y125676D01*
X1328419Y125730D01*
X1328419Y128270D01*
X1328408Y128335D01*
X1328406Y128401D01*
X1328388Y128444D01*
X1328380Y128491D01*
X1328346Y128548D01*
X1328321Y128608D01*
X1328290Y128643D01*
X1328265Y128684D01*
X1328214Y128726D01*
X1328170Y128774D01*
X1328128Y128796D01*
X1328091Y128825D01*
X1328029Y128846D01*
X1327970Y128877D01*
X1327916Y128885D01*
X1327879Y128897D01*
X1327839Y128896D01*
X1327785Y128904D01*
X1323975Y128904D01*
X1323910Y128893D01*
X1323844Y128891D01*
X1323801Y128873D01*
X1323754Y128865D01*
X1323697Y128831D01*
X1323637Y128806D01*
X1323602Y128775D01*
X1323561Y128750D01*
X1323520Y128699D01*
X1323471Y128655D01*
X1323449Y128613D01*
X1323420Y128576D01*
X1323399Y128514D01*
X1323368Y128455D01*
X1323360Y128401D01*
X1323348Y128364D01*
X1323348Y128361D01*
X1323349Y128324D01*
X1323341Y128270D01*
X1323341Y125730D01*
X1323352Y125665D01*
X1323354Y125599D01*
X1323372Y125556D01*
X1323380Y125509D01*
X1323414Y125452D01*
X1323439Y125392D01*
X1323470Y125357D01*
X1323495Y125316D01*
X1323546Y125275D01*
X1323590Y125226D01*
X1323632Y125204D01*
X1323669Y125175D01*
X1323731Y125154D01*
X1323790Y125123D01*
X1323844Y125115D01*
X1323881Y125103D01*
X1323921Y125104D01*
X1323975Y125096D01*
X1327785Y125096D01*
X1327850Y125107D01*
G37*
G36*
X611570Y125107D02*
X611570Y125107D01*
X611636Y125109D01*
X611679Y125127D01*
X611726Y125135D01*
X611783Y125169D01*
X611843Y125194D01*
X611878Y125225D01*
X611919Y125250D01*
X611961Y125301D01*
X612009Y125345D01*
X612031Y125387D01*
X612060Y125424D01*
X612081Y125486D01*
X612112Y125545D01*
X612120Y125599D01*
X612132Y125636D01*
X612131Y125676D01*
X612139Y125730D01*
X612139Y128270D01*
X612128Y128335D01*
X612126Y128401D01*
X612108Y128444D01*
X612100Y128491D01*
X612066Y128548D01*
X612041Y128608D01*
X612010Y128643D01*
X611985Y128684D01*
X611934Y128726D01*
X611890Y128774D01*
X611848Y128796D01*
X611811Y128825D01*
X611749Y128846D01*
X611690Y128877D01*
X611636Y128885D01*
X611599Y128897D01*
X611559Y128896D01*
X611505Y128904D01*
X607695Y128904D01*
X607630Y128893D01*
X607564Y128891D01*
X607521Y128873D01*
X607474Y128865D01*
X607417Y128831D01*
X607357Y128806D01*
X607322Y128775D01*
X607281Y128750D01*
X607240Y128699D01*
X607191Y128655D01*
X607169Y128613D01*
X607140Y128576D01*
X607119Y128514D01*
X607088Y128455D01*
X607080Y128401D01*
X607068Y128364D01*
X607068Y128361D01*
X607069Y128324D01*
X607061Y128270D01*
X607061Y125730D01*
X607072Y125665D01*
X607074Y125599D01*
X607092Y125556D01*
X607100Y125509D01*
X607134Y125452D01*
X607159Y125392D01*
X607190Y125357D01*
X607215Y125316D01*
X607266Y125275D01*
X607310Y125226D01*
X607352Y125204D01*
X607389Y125175D01*
X607451Y125154D01*
X607510Y125123D01*
X607564Y125115D01*
X607601Y125103D01*
X607641Y125104D01*
X607695Y125096D01*
X611505Y125096D01*
X611570Y125107D01*
G37*
G36*
X573470Y125107D02*
X573470Y125107D01*
X573536Y125109D01*
X573579Y125127D01*
X573626Y125135D01*
X573683Y125169D01*
X573743Y125194D01*
X573778Y125225D01*
X573819Y125250D01*
X573861Y125301D01*
X573909Y125345D01*
X573931Y125387D01*
X573960Y125424D01*
X573981Y125486D01*
X574012Y125545D01*
X574020Y125599D01*
X574032Y125636D01*
X574031Y125676D01*
X574039Y125730D01*
X574039Y128270D01*
X574028Y128335D01*
X574026Y128401D01*
X574008Y128444D01*
X574000Y128491D01*
X573966Y128548D01*
X573941Y128608D01*
X573910Y128643D01*
X573885Y128684D01*
X573834Y128726D01*
X573790Y128774D01*
X573748Y128796D01*
X573711Y128825D01*
X573649Y128846D01*
X573590Y128877D01*
X573536Y128885D01*
X573499Y128897D01*
X573459Y128896D01*
X573405Y128904D01*
X569595Y128904D01*
X569530Y128893D01*
X569464Y128891D01*
X569421Y128873D01*
X569374Y128865D01*
X569317Y128831D01*
X569257Y128806D01*
X569222Y128775D01*
X569181Y128750D01*
X569140Y128699D01*
X569091Y128655D01*
X569069Y128613D01*
X569040Y128576D01*
X569019Y128514D01*
X568988Y128455D01*
X568980Y128401D01*
X568968Y128364D01*
X568968Y128361D01*
X568969Y128324D01*
X568961Y128270D01*
X568961Y125730D01*
X568972Y125665D01*
X568974Y125599D01*
X568992Y125556D01*
X569000Y125509D01*
X569034Y125452D01*
X569059Y125392D01*
X569090Y125357D01*
X569115Y125316D01*
X569166Y125275D01*
X569210Y125226D01*
X569252Y125204D01*
X569289Y125175D01*
X569351Y125154D01*
X569410Y125123D01*
X569464Y125115D01*
X569501Y125103D01*
X569541Y125104D01*
X569595Y125096D01*
X573405Y125096D01*
X573470Y125107D01*
G37*
D10*
X139700Y50800D03*
X660400Y101600D03*
X660400Y381000D03*
X152400Y533400D03*
D11*
X647700Y317500D03*
X647700Y292100D03*
D12*
X660400Y330200D03*
X660400Y304800D03*
X660400Y279400D03*
X635000Y330200D03*
X635000Y304800D03*
X635000Y279400D03*
D13*
X20320Y111760D03*
X66040Y111760D03*
D14*
X49050Y448000D03*
X49050Y390200D03*
D15*
X573911Y132844D02*
X579503Y132844D01*
X579503Y121156D01*
X573911Y121156D01*
X573911Y132844D01*
X573911Y123325D02*
X579503Y123325D01*
X579503Y125494D02*
X573911Y125494D01*
X573911Y127663D02*
X579503Y127663D01*
X579503Y129832D02*
X573911Y129832D01*
X573911Y132001D02*
X579503Y132001D01*
X569089Y132844D02*
X563497Y132844D01*
X569089Y132844D02*
X569089Y121156D01*
X563497Y121156D01*
X563497Y132844D01*
X563497Y123325D02*
X569089Y123325D01*
X569089Y125494D02*
X563497Y125494D01*
X563497Y127663D02*
X569089Y127663D01*
X569089Y129832D02*
X563497Y129832D01*
X563497Y132001D02*
X569089Y132001D01*
X612011Y132844D02*
X617603Y132844D01*
X617603Y121156D01*
X612011Y121156D01*
X612011Y132844D01*
X612011Y123325D02*
X617603Y123325D01*
X617603Y125494D02*
X612011Y125494D01*
X612011Y127663D02*
X617603Y127663D01*
X617603Y129832D02*
X612011Y129832D01*
X612011Y132001D02*
X617603Y132001D01*
X607189Y132844D02*
X601597Y132844D01*
X607189Y132844D02*
X607189Y121156D01*
X601597Y121156D01*
X601597Y132844D01*
X601597Y123325D02*
X607189Y123325D01*
X607189Y125494D02*
X601597Y125494D01*
X601597Y127663D02*
X607189Y127663D01*
X607189Y129832D02*
X601597Y129832D01*
X601597Y132001D02*
X607189Y132001D01*
D16*
X33556Y431996D02*
X4544Y431996D01*
X33556Y431996D02*
X33556Y423984D01*
X4544Y423984D01*
X4544Y431996D01*
X4544Y426130D02*
X33556Y426130D01*
X33556Y428276D02*
X4544Y428276D01*
X4544Y430422D02*
X33556Y430422D01*
X33556Y449776D02*
X4544Y449776D01*
X33556Y449776D02*
X33556Y441764D01*
X4544Y441764D01*
X4544Y449776D01*
X4544Y443910D02*
X33556Y443910D01*
X33556Y446056D02*
X4544Y446056D01*
X4544Y448202D02*
X33556Y448202D01*
X33556Y414216D02*
X4544Y414216D01*
X33556Y414216D02*
X33556Y406204D01*
X4544Y406204D01*
X4544Y414216D01*
X4544Y408350D02*
X33556Y408350D01*
X33556Y410496D02*
X4544Y410496D01*
X4544Y412642D02*
X33556Y412642D01*
X33556Y396436D02*
X4544Y396436D01*
X33556Y396436D02*
X33556Y388424D01*
X4544Y388424D01*
X4544Y396436D01*
X4544Y390570D02*
X33556Y390570D01*
X33556Y392716D02*
X4544Y392716D01*
X4544Y394862D02*
X33556Y394862D01*
D17*
X294400Y177800D03*
X264400Y177800D03*
D18*
X187960Y571500D03*
X213360Y571500D03*
X238760Y571500D03*
X264160Y571500D03*
X289560Y571500D03*
X314960Y571500D03*
X340360Y571500D03*
X365760Y571500D03*
X391160Y571500D03*
X416560Y571500D03*
X457200Y12700D03*
X431800Y12700D03*
X406400Y12700D03*
X381000Y12700D03*
X355600Y12700D03*
X330200Y12700D03*
X304800Y12700D03*
X279400Y12700D03*
X508000Y12700D03*
X533400Y12700D03*
X558800Y12700D03*
X584200Y12700D03*
X609600Y12700D03*
X635000Y12700D03*
X635000Y571500D03*
X609600Y571500D03*
X584200Y571500D03*
X558800Y571500D03*
X533400Y571500D03*
X508000Y571500D03*
X482600Y571500D03*
X457200Y571500D03*
X228600Y12700D03*
X254000Y12700D03*
D19*
X114300Y546100D03*
X660400Y139700D03*
D10*
X855980Y50800D03*
X1376680Y101600D03*
X1376680Y381000D03*
X868680Y533400D03*
D11*
X1363980Y317500D03*
X1363980Y292100D03*
D12*
X1376680Y330200D03*
X1376680Y304800D03*
X1376680Y279400D03*
X1351280Y330200D03*
X1351280Y304800D03*
X1351280Y279400D03*
D13*
X736600Y111760D03*
X782320Y111760D03*
D14*
X765330Y448000D03*
X765330Y390200D03*
D15*
X1290191Y132844D02*
X1295783Y132844D01*
X1295783Y121156D01*
X1290191Y121156D01*
X1290191Y132844D01*
X1290191Y123325D02*
X1295783Y123325D01*
X1295783Y125494D02*
X1290191Y125494D01*
X1290191Y127663D02*
X1295783Y127663D01*
X1295783Y129832D02*
X1290191Y129832D01*
X1290191Y132001D02*
X1295783Y132001D01*
X1285369Y132844D02*
X1279777Y132844D01*
X1285369Y132844D02*
X1285369Y121156D01*
X1279777Y121156D01*
X1279777Y132844D01*
X1279777Y123325D02*
X1285369Y123325D01*
X1285369Y125494D02*
X1279777Y125494D01*
X1279777Y127663D02*
X1285369Y127663D01*
X1285369Y129832D02*
X1279777Y129832D01*
X1279777Y132001D02*
X1285369Y132001D01*
X1328291Y132844D02*
X1333883Y132844D01*
X1333883Y121156D01*
X1328291Y121156D01*
X1328291Y132844D01*
X1328291Y123325D02*
X1333883Y123325D01*
X1333883Y125494D02*
X1328291Y125494D01*
X1328291Y127663D02*
X1333883Y127663D01*
X1333883Y129832D02*
X1328291Y129832D01*
X1328291Y132001D02*
X1333883Y132001D01*
X1323469Y132844D02*
X1317877Y132844D01*
X1323469Y132844D02*
X1323469Y121156D01*
X1317877Y121156D01*
X1317877Y132844D01*
X1317877Y123325D02*
X1323469Y123325D01*
X1323469Y125494D02*
X1317877Y125494D01*
X1317877Y127663D02*
X1323469Y127663D01*
X1323469Y129832D02*
X1317877Y129832D01*
X1317877Y132001D02*
X1323469Y132001D01*
D16*
X749836Y431996D02*
X720824Y431996D01*
X749836Y431996D02*
X749836Y423984D01*
X720824Y423984D01*
X720824Y431996D01*
X720824Y426130D02*
X749836Y426130D01*
X749836Y428276D02*
X720824Y428276D01*
X720824Y430422D02*
X749836Y430422D01*
X749836Y449776D02*
X720824Y449776D01*
X749836Y449776D02*
X749836Y441764D01*
X720824Y441764D01*
X720824Y449776D01*
X720824Y443910D02*
X749836Y443910D01*
X749836Y446056D02*
X720824Y446056D01*
X720824Y448202D02*
X749836Y448202D01*
X749836Y414216D02*
X720824Y414216D01*
X749836Y414216D02*
X749836Y406204D01*
X720824Y406204D01*
X720824Y414216D01*
X720824Y408350D02*
X749836Y408350D01*
X749836Y410496D02*
X720824Y410496D01*
X720824Y412642D02*
X749836Y412642D01*
X749836Y396436D02*
X720824Y396436D01*
X749836Y396436D02*
X749836Y388424D01*
X720824Y388424D01*
X720824Y396436D01*
X720824Y390570D02*
X749836Y390570D01*
X749836Y392716D02*
X720824Y392716D01*
X720824Y394862D02*
X749836Y394862D01*
D17*
X1010680Y177800D03*
X980680Y177800D03*
D18*
X904240Y571500D03*
X929640Y571500D03*
X955040Y571500D03*
X980440Y571500D03*
X1005840Y571500D03*
X1031240Y571500D03*
X1056640Y571500D03*
X1082040Y571500D03*
X1107440Y571500D03*
X1132840Y571500D03*
X1173480Y12700D03*
X1148080Y12700D03*
X1122680Y12700D03*
X1097280Y12700D03*
X1071880Y12700D03*
X1046480Y12700D03*
X1021080Y12700D03*
X995680Y12700D03*
X1224280Y12700D03*
X1249680Y12700D03*
X1275080Y12700D03*
X1300480Y12700D03*
X1325880Y12700D03*
X1351280Y12700D03*
X1351280Y571500D03*
X1325880Y571500D03*
X1300480Y571500D03*
X1275080Y571500D03*
X1249680Y571500D03*
X1224280Y571500D03*
X1198880Y571500D03*
X1173480Y571500D03*
X944880Y12700D03*
X970280Y12700D03*
D19*
X830580Y546100D03*
X1376680Y139700D03*
D10*
X1572260Y50800D03*
X2092960Y101600D03*
X2092960Y381000D03*
X1584960Y533400D03*
D11*
X2080260Y317500D03*
X2080260Y292100D03*
D12*
X2092960Y330200D03*
X2092960Y304800D03*
X2092960Y279400D03*
X2067560Y330200D03*
X2067560Y304800D03*
X2067560Y279400D03*
D13*
X1452880Y111760D03*
X1498600Y111760D03*
D14*
X1481610Y448000D03*
X1481610Y390200D03*
D15*
X2006471Y132844D02*
X2012063Y132844D01*
X2012063Y121156D01*
X2006471Y121156D01*
X2006471Y132844D01*
X2006471Y123325D02*
X2012063Y123325D01*
X2012063Y125494D02*
X2006471Y125494D01*
X2006471Y127663D02*
X2012063Y127663D01*
X2012063Y129832D02*
X2006471Y129832D01*
X2006471Y132001D02*
X2012063Y132001D01*
X2001649Y132844D02*
X1996057Y132844D01*
X2001649Y132844D02*
X2001649Y121156D01*
X1996057Y121156D01*
X1996057Y132844D01*
X1996057Y123325D02*
X2001649Y123325D01*
X2001649Y125494D02*
X1996057Y125494D01*
X1996057Y127663D02*
X2001649Y127663D01*
X2001649Y129832D02*
X1996057Y129832D01*
X1996057Y132001D02*
X2001649Y132001D01*
X2044571Y132844D02*
X2050163Y132844D01*
X2050163Y121156D01*
X2044571Y121156D01*
X2044571Y132844D01*
X2044571Y123325D02*
X2050163Y123325D01*
X2050163Y125494D02*
X2044571Y125494D01*
X2044571Y127663D02*
X2050163Y127663D01*
X2050163Y129832D02*
X2044571Y129832D01*
X2044571Y132001D02*
X2050163Y132001D01*
X2039749Y132844D02*
X2034157Y132844D01*
X2039749Y132844D02*
X2039749Y121156D01*
X2034157Y121156D01*
X2034157Y132844D01*
X2034157Y123325D02*
X2039749Y123325D01*
X2039749Y125494D02*
X2034157Y125494D01*
X2034157Y127663D02*
X2039749Y127663D01*
X2039749Y129832D02*
X2034157Y129832D01*
X2034157Y132001D02*
X2039749Y132001D01*
D16*
X1466116Y431996D02*
X1437104Y431996D01*
X1466116Y431996D02*
X1466116Y423984D01*
X1437104Y423984D01*
X1437104Y431996D01*
X1437104Y426130D02*
X1466116Y426130D01*
X1466116Y428276D02*
X1437104Y428276D01*
X1437104Y430422D02*
X1466116Y430422D01*
X1466116Y449776D02*
X1437104Y449776D01*
X1466116Y449776D02*
X1466116Y441764D01*
X1437104Y441764D01*
X1437104Y449776D01*
X1437104Y443910D02*
X1466116Y443910D01*
X1466116Y446056D02*
X1437104Y446056D01*
X1437104Y448202D02*
X1466116Y448202D01*
X1466116Y414216D02*
X1437104Y414216D01*
X1466116Y414216D02*
X1466116Y406204D01*
X1437104Y406204D01*
X1437104Y414216D01*
X1437104Y408350D02*
X1466116Y408350D01*
X1466116Y410496D02*
X1437104Y410496D01*
X1437104Y412642D02*
X1466116Y412642D01*
X1466116Y396436D02*
X1437104Y396436D01*
X1466116Y396436D02*
X1466116Y388424D01*
X1437104Y388424D01*
X1437104Y396436D01*
X1437104Y390570D02*
X1466116Y390570D01*
X1466116Y392716D02*
X1437104Y392716D01*
X1437104Y394862D02*
X1466116Y394862D01*
D17*
X1726960Y177800D03*
X1696960Y177800D03*
D18*
X1620520Y571500D03*
X1645920Y571500D03*
X1671320Y571500D03*
X1696720Y571500D03*
X1722120Y571500D03*
X1747520Y571500D03*
X1772920Y571500D03*
X1798320Y571500D03*
X1823720Y571500D03*
X1849120Y571500D03*
X1889760Y12700D03*
X1864360Y12700D03*
X1838960Y12700D03*
X1813560Y12700D03*
X1788160Y12700D03*
X1762760Y12700D03*
X1737360Y12700D03*
X1711960Y12700D03*
X1940560Y12700D03*
X1965960Y12700D03*
X1991360Y12700D03*
X2016760Y12700D03*
X2042160Y12700D03*
X2067560Y12700D03*
X2067560Y571500D03*
X2042160Y571500D03*
X2016760Y571500D03*
X1991360Y571500D03*
X1965960Y571500D03*
X1940560Y571500D03*
X1915160Y571500D03*
X1889760Y571500D03*
X1661160Y12700D03*
X1686560Y12700D03*
D19*
X1546860Y546100D03*
X2092960Y139700D03*
D10*
X2288540Y50800D03*
X2809240Y101600D03*
X2809240Y381000D03*
X2301240Y533400D03*
D11*
X2796540Y317500D03*
X2796540Y292100D03*
D12*
X2809240Y330200D03*
X2809240Y304800D03*
X2809240Y279400D03*
X2783840Y330200D03*
X2783840Y304800D03*
X2783840Y279400D03*
D13*
X2169160Y111760D03*
X2214880Y111760D03*
D14*
X2197890Y448000D03*
X2197890Y390200D03*
D15*
X2722751Y132844D02*
X2728343Y132844D01*
X2728343Y121156D01*
X2722751Y121156D01*
X2722751Y132844D01*
X2722751Y123325D02*
X2728343Y123325D01*
X2728343Y125494D02*
X2722751Y125494D01*
X2722751Y127663D02*
X2728343Y127663D01*
X2728343Y129832D02*
X2722751Y129832D01*
X2722751Y132001D02*
X2728343Y132001D01*
X2717929Y132844D02*
X2712337Y132844D01*
X2717929Y132844D02*
X2717929Y121156D01*
X2712337Y121156D01*
X2712337Y132844D01*
X2712337Y123325D02*
X2717929Y123325D01*
X2717929Y125494D02*
X2712337Y125494D01*
X2712337Y127663D02*
X2717929Y127663D01*
X2717929Y129832D02*
X2712337Y129832D01*
X2712337Y132001D02*
X2717929Y132001D01*
X2760851Y132844D02*
X2766443Y132844D01*
X2766443Y121156D01*
X2760851Y121156D01*
X2760851Y132844D01*
X2760851Y123325D02*
X2766443Y123325D01*
X2766443Y125494D02*
X2760851Y125494D01*
X2760851Y127663D02*
X2766443Y127663D01*
X2766443Y129832D02*
X2760851Y129832D01*
X2760851Y132001D02*
X2766443Y132001D01*
X2756029Y132844D02*
X2750437Y132844D01*
X2756029Y132844D02*
X2756029Y121156D01*
X2750437Y121156D01*
X2750437Y132844D01*
X2750437Y123325D02*
X2756029Y123325D01*
X2756029Y125494D02*
X2750437Y125494D01*
X2750437Y127663D02*
X2756029Y127663D01*
X2756029Y129832D02*
X2750437Y129832D01*
X2750437Y132001D02*
X2756029Y132001D01*
D16*
X2182396Y431996D02*
X2153384Y431996D01*
X2182396Y431996D02*
X2182396Y423984D01*
X2153384Y423984D01*
X2153384Y431996D01*
X2153384Y426130D02*
X2182396Y426130D01*
X2182396Y428276D02*
X2153384Y428276D01*
X2153384Y430422D02*
X2182396Y430422D01*
X2182396Y449776D02*
X2153384Y449776D01*
X2182396Y449776D02*
X2182396Y441764D01*
X2153384Y441764D01*
X2153384Y449776D01*
X2153384Y443910D02*
X2182396Y443910D01*
X2182396Y446056D02*
X2153384Y446056D01*
X2153384Y448202D02*
X2182396Y448202D01*
X2182396Y414216D02*
X2153384Y414216D01*
X2182396Y414216D02*
X2182396Y406204D01*
X2153384Y406204D01*
X2153384Y414216D01*
X2153384Y408350D02*
X2182396Y408350D01*
X2182396Y410496D02*
X2153384Y410496D01*
X2153384Y412642D02*
X2182396Y412642D01*
X2182396Y396436D02*
X2153384Y396436D01*
X2182396Y396436D02*
X2182396Y388424D01*
X2153384Y388424D01*
X2153384Y396436D01*
X2153384Y390570D02*
X2182396Y390570D01*
X2182396Y392716D02*
X2153384Y392716D01*
X2153384Y394862D02*
X2182396Y394862D01*
D17*
X2443240Y177800D03*
X2413240Y177800D03*
D18*
X2336800Y571500D03*
X2362200Y571500D03*
X2387600Y571500D03*
X2413000Y571500D03*
X2438400Y571500D03*
X2463800Y571500D03*
X2489200Y571500D03*
X2514600Y571500D03*
X2540000Y571500D03*
X2565400Y571500D03*
X2606040Y12700D03*
X2580640Y12700D03*
X2555240Y12700D03*
X2529840Y12700D03*
X2504440Y12700D03*
X2479040Y12700D03*
X2453640Y12700D03*
X2428240Y12700D03*
X2656840Y12700D03*
X2682240Y12700D03*
X2707640Y12700D03*
X2733040Y12700D03*
X2758440Y12700D03*
X2783840Y12700D03*
X2783840Y571500D03*
X2758440Y571500D03*
X2733040Y571500D03*
X2707640Y571500D03*
X2682240Y571500D03*
X2656840Y571500D03*
X2631440Y571500D03*
X2606040Y571500D03*
X2377440Y12700D03*
X2402840Y12700D03*
D19*
X2263140Y546100D03*
X2809240Y139700D03*
D10*
X3004820Y50800D03*
X3525520Y101600D03*
X3525520Y381000D03*
X3017520Y533400D03*
D11*
X3512820Y317500D03*
X3512820Y292100D03*
D12*
X3525520Y330200D03*
X3525520Y304800D03*
X3525520Y279400D03*
X3500120Y330200D03*
X3500120Y304800D03*
X3500120Y279400D03*
D13*
X2885440Y111760D03*
X2931160Y111760D03*
D14*
X2914170Y448000D03*
X2914170Y390200D03*
D15*
X3439031Y132844D02*
X3444623Y132844D01*
X3444623Y121156D01*
X3439031Y121156D01*
X3439031Y132844D01*
X3439031Y123325D02*
X3444623Y123325D01*
X3444623Y125494D02*
X3439031Y125494D01*
X3439031Y127663D02*
X3444623Y127663D01*
X3444623Y129832D02*
X3439031Y129832D01*
X3439031Y132001D02*
X3444623Y132001D01*
X3434209Y132844D02*
X3428617Y132844D01*
X3434209Y132844D02*
X3434209Y121156D01*
X3428617Y121156D01*
X3428617Y132844D01*
X3428617Y123325D02*
X3434209Y123325D01*
X3434209Y125494D02*
X3428617Y125494D01*
X3428617Y127663D02*
X3434209Y127663D01*
X3434209Y129832D02*
X3428617Y129832D01*
X3428617Y132001D02*
X3434209Y132001D01*
X3477131Y132844D02*
X3482723Y132844D01*
X3482723Y121156D01*
X3477131Y121156D01*
X3477131Y132844D01*
X3477131Y123325D02*
X3482723Y123325D01*
X3482723Y125494D02*
X3477131Y125494D01*
X3477131Y127663D02*
X3482723Y127663D01*
X3482723Y129832D02*
X3477131Y129832D01*
X3477131Y132001D02*
X3482723Y132001D01*
X3472309Y132844D02*
X3466717Y132844D01*
X3472309Y132844D02*
X3472309Y121156D01*
X3466717Y121156D01*
X3466717Y132844D01*
X3466717Y123325D02*
X3472309Y123325D01*
X3472309Y125494D02*
X3466717Y125494D01*
X3466717Y127663D02*
X3472309Y127663D01*
X3472309Y129832D02*
X3466717Y129832D01*
X3466717Y132001D02*
X3472309Y132001D01*
D16*
X2898676Y431996D02*
X2869664Y431996D01*
X2898676Y431996D02*
X2898676Y423984D01*
X2869664Y423984D01*
X2869664Y431996D01*
X2869664Y426130D02*
X2898676Y426130D01*
X2898676Y428276D02*
X2869664Y428276D01*
X2869664Y430422D02*
X2898676Y430422D01*
X2898676Y449776D02*
X2869664Y449776D01*
X2898676Y449776D02*
X2898676Y441764D01*
X2869664Y441764D01*
X2869664Y449776D01*
X2869664Y443910D02*
X2898676Y443910D01*
X2898676Y446056D02*
X2869664Y446056D01*
X2869664Y448202D02*
X2898676Y448202D01*
X2898676Y414216D02*
X2869664Y414216D01*
X2898676Y414216D02*
X2898676Y406204D01*
X2869664Y406204D01*
X2869664Y414216D01*
X2869664Y408350D02*
X2898676Y408350D01*
X2898676Y410496D02*
X2869664Y410496D01*
X2869664Y412642D02*
X2898676Y412642D01*
X2898676Y396436D02*
X2869664Y396436D01*
X2898676Y396436D02*
X2898676Y388424D01*
X2869664Y388424D01*
X2869664Y396436D01*
X2869664Y390570D02*
X2898676Y390570D01*
X2898676Y392716D02*
X2869664Y392716D01*
X2869664Y394862D02*
X2898676Y394862D01*
D17*
X3159520Y177800D03*
X3129520Y177800D03*
D18*
X3053080Y571500D03*
X3078480Y571500D03*
X3103880Y571500D03*
X3129280Y571500D03*
X3154680Y571500D03*
X3180080Y571500D03*
X3205480Y571500D03*
X3230880Y571500D03*
X3256280Y571500D03*
X3281680Y571500D03*
X3322320Y12700D03*
X3296920Y12700D03*
X3271520Y12700D03*
X3246120Y12700D03*
X3220720Y12700D03*
X3195320Y12700D03*
X3169920Y12700D03*
X3144520Y12700D03*
X3373120Y12700D03*
X3398520Y12700D03*
X3423920Y12700D03*
X3449320Y12700D03*
X3474720Y12700D03*
X3500120Y12700D03*
X3500120Y571500D03*
X3474720Y571500D03*
X3449320Y571500D03*
X3423920Y571500D03*
X3398520Y571500D03*
X3373120Y571500D03*
X3347720Y571500D03*
X3322320Y571500D03*
X3093720Y12700D03*
X3119120Y12700D03*
D19*
X2979420Y546100D03*
X3525520Y139700D03*
D10*
X139700Y640080D03*
X660400Y690880D03*
X660400Y970280D03*
X152400Y1122680D03*
D11*
X647700Y906780D03*
X647700Y881380D03*
D12*
X660400Y919480D03*
X660400Y894080D03*
X660400Y868680D03*
X635000Y919480D03*
X635000Y894080D03*
X635000Y868680D03*
D13*
X20320Y701040D03*
X66040Y701040D03*
D14*
X49050Y1037280D03*
X49050Y979480D03*
D15*
X573911Y722124D02*
X579503Y722124D01*
X579503Y710436D01*
X573911Y710436D01*
X573911Y722124D01*
X573911Y712605D02*
X579503Y712605D01*
X579503Y714774D02*
X573911Y714774D01*
X573911Y716943D02*
X579503Y716943D01*
X579503Y719112D02*
X573911Y719112D01*
X573911Y721281D02*
X579503Y721281D01*
X569089Y722124D02*
X563497Y722124D01*
X569089Y722124D02*
X569089Y710436D01*
X563497Y710436D01*
X563497Y722124D01*
X563497Y712605D02*
X569089Y712605D01*
X569089Y714774D02*
X563497Y714774D01*
X563497Y716943D02*
X569089Y716943D01*
X569089Y719112D02*
X563497Y719112D01*
X563497Y721281D02*
X569089Y721281D01*
X612011Y722124D02*
X617603Y722124D01*
X617603Y710436D01*
X612011Y710436D01*
X612011Y722124D01*
X612011Y712605D02*
X617603Y712605D01*
X617603Y714774D02*
X612011Y714774D01*
X612011Y716943D02*
X617603Y716943D01*
X617603Y719112D02*
X612011Y719112D01*
X612011Y721281D02*
X617603Y721281D01*
X607189Y722124D02*
X601597Y722124D01*
X607189Y722124D02*
X607189Y710436D01*
X601597Y710436D01*
X601597Y722124D01*
X601597Y712605D02*
X607189Y712605D01*
X607189Y714774D02*
X601597Y714774D01*
X601597Y716943D02*
X607189Y716943D01*
X607189Y719112D02*
X601597Y719112D01*
X601597Y721281D02*
X607189Y721281D01*
D16*
X33556Y1021276D02*
X4544Y1021276D01*
X33556Y1021276D02*
X33556Y1013264D01*
X4544Y1013264D01*
X4544Y1021276D01*
X4544Y1015410D02*
X33556Y1015410D01*
X33556Y1017556D02*
X4544Y1017556D01*
X4544Y1019702D02*
X33556Y1019702D01*
X33556Y1039056D02*
X4544Y1039056D01*
X33556Y1039056D02*
X33556Y1031044D01*
X4544Y1031044D01*
X4544Y1039056D01*
X4544Y1033190D02*
X33556Y1033190D01*
X33556Y1035336D02*
X4544Y1035336D01*
X4544Y1037482D02*
X33556Y1037482D01*
X33556Y1003496D02*
X4544Y1003496D01*
X33556Y1003496D02*
X33556Y995484D01*
X4544Y995484D01*
X4544Y1003496D01*
X4544Y997630D02*
X33556Y997630D01*
X33556Y999776D02*
X4544Y999776D01*
X4544Y1001922D02*
X33556Y1001922D01*
X33556Y985716D02*
X4544Y985716D01*
X33556Y985716D02*
X33556Y977704D01*
X4544Y977704D01*
X4544Y985716D01*
X4544Y979850D02*
X33556Y979850D01*
X33556Y981996D02*
X4544Y981996D01*
X4544Y984142D02*
X33556Y984142D01*
D17*
X294400Y767080D03*
X264400Y767080D03*
D18*
X187960Y1160780D03*
X213360Y1160780D03*
X238760Y1160780D03*
X264160Y1160780D03*
X289560Y1160780D03*
X314960Y1160780D03*
X340360Y1160780D03*
X365760Y1160780D03*
X391160Y1160780D03*
X416560Y1160780D03*
X457200Y601980D03*
X431800Y601980D03*
X406400Y601980D03*
X381000Y601980D03*
X355600Y601980D03*
X330200Y601980D03*
X304800Y601980D03*
X279400Y601980D03*
X508000Y601980D03*
X533400Y601980D03*
X558800Y601980D03*
X584200Y601980D03*
X609600Y601980D03*
X635000Y601980D03*
X635000Y1160780D03*
X609600Y1160780D03*
X584200Y1160780D03*
X558800Y1160780D03*
X533400Y1160780D03*
X508000Y1160780D03*
X482600Y1160780D03*
X457200Y1160780D03*
X228600Y601980D03*
X254000Y601980D03*
D19*
X114300Y1135380D03*
X660400Y728980D03*
D10*
X855980Y640080D03*
X1376680Y690880D03*
X1376680Y970280D03*
X868680Y1122680D03*
D11*
X1363980Y906780D03*
X1363980Y881380D03*
D12*
X1376680Y919480D03*
X1376680Y894080D03*
X1376680Y868680D03*
X1351280Y919480D03*
X1351280Y894080D03*
X1351280Y868680D03*
D13*
X736600Y701040D03*
X782320Y701040D03*
D14*
X765330Y1037280D03*
X765330Y979480D03*
D15*
X1290191Y722124D02*
X1295783Y722124D01*
X1295783Y710436D01*
X1290191Y710436D01*
X1290191Y722124D01*
X1290191Y712605D02*
X1295783Y712605D01*
X1295783Y714774D02*
X1290191Y714774D01*
X1290191Y716943D02*
X1295783Y716943D01*
X1295783Y719112D02*
X1290191Y719112D01*
X1290191Y721281D02*
X1295783Y721281D01*
X1285369Y722124D02*
X1279777Y722124D01*
X1285369Y722124D02*
X1285369Y710436D01*
X1279777Y710436D01*
X1279777Y722124D01*
X1279777Y712605D02*
X1285369Y712605D01*
X1285369Y714774D02*
X1279777Y714774D01*
X1279777Y716943D02*
X1285369Y716943D01*
X1285369Y719112D02*
X1279777Y719112D01*
X1279777Y721281D02*
X1285369Y721281D01*
X1328291Y722124D02*
X1333883Y722124D01*
X1333883Y710436D01*
X1328291Y710436D01*
X1328291Y722124D01*
X1328291Y712605D02*
X1333883Y712605D01*
X1333883Y714774D02*
X1328291Y714774D01*
X1328291Y716943D02*
X1333883Y716943D01*
X1333883Y719112D02*
X1328291Y719112D01*
X1328291Y721281D02*
X1333883Y721281D01*
X1323469Y722124D02*
X1317877Y722124D01*
X1323469Y722124D02*
X1323469Y710436D01*
X1317877Y710436D01*
X1317877Y722124D01*
X1317877Y712605D02*
X1323469Y712605D01*
X1323469Y714774D02*
X1317877Y714774D01*
X1317877Y716943D02*
X1323469Y716943D01*
X1323469Y719112D02*
X1317877Y719112D01*
X1317877Y721281D02*
X1323469Y721281D01*
D16*
X749836Y1021276D02*
X720824Y1021276D01*
X749836Y1021276D02*
X749836Y1013264D01*
X720824Y1013264D01*
X720824Y1021276D01*
X720824Y1015410D02*
X749836Y1015410D01*
X749836Y1017556D02*
X720824Y1017556D01*
X720824Y1019702D02*
X749836Y1019702D01*
X749836Y1039056D02*
X720824Y1039056D01*
X749836Y1039056D02*
X749836Y1031044D01*
X720824Y1031044D01*
X720824Y1039056D01*
X720824Y1033190D02*
X749836Y1033190D01*
X749836Y1035336D02*
X720824Y1035336D01*
X720824Y1037482D02*
X749836Y1037482D01*
X749836Y1003496D02*
X720824Y1003496D01*
X749836Y1003496D02*
X749836Y995484D01*
X720824Y995484D01*
X720824Y1003496D01*
X720824Y997630D02*
X749836Y997630D01*
X749836Y999776D02*
X720824Y999776D01*
X720824Y1001922D02*
X749836Y1001922D01*
X749836Y985716D02*
X720824Y985716D01*
X749836Y985716D02*
X749836Y977704D01*
X720824Y977704D01*
X720824Y985716D01*
X720824Y979850D02*
X749836Y979850D01*
X749836Y981996D02*
X720824Y981996D01*
X720824Y984142D02*
X749836Y984142D01*
D17*
X1010680Y767080D03*
X980680Y767080D03*
D18*
X904240Y1160780D03*
X929640Y1160780D03*
X955040Y1160780D03*
X980440Y1160780D03*
X1005840Y1160780D03*
X1031240Y1160780D03*
X1056640Y1160780D03*
X1082040Y1160780D03*
X1107440Y1160780D03*
X1132840Y1160780D03*
X1173480Y601980D03*
X1148080Y601980D03*
X1122680Y601980D03*
X1097280Y601980D03*
X1071880Y601980D03*
X1046480Y601980D03*
X1021080Y601980D03*
X995680Y601980D03*
X1224280Y601980D03*
X1249680Y601980D03*
X1275080Y601980D03*
X1300480Y601980D03*
X1325880Y601980D03*
X1351280Y601980D03*
X1351280Y1160780D03*
X1325880Y1160780D03*
X1300480Y1160780D03*
X1275080Y1160780D03*
X1249680Y1160780D03*
X1224280Y1160780D03*
X1198880Y1160780D03*
X1173480Y1160780D03*
X944880Y601980D03*
X970280Y601980D03*
D19*
X830580Y1135380D03*
X1376680Y728980D03*
D10*
X1572260Y640080D03*
X2092960Y690880D03*
X2092960Y970280D03*
X1584960Y1122680D03*
D11*
X2080260Y906780D03*
X2080260Y881380D03*
D12*
X2092960Y919480D03*
X2092960Y894080D03*
X2092960Y868680D03*
X2067560Y919480D03*
X2067560Y894080D03*
X2067560Y868680D03*
D13*
X1452880Y701040D03*
X1498600Y701040D03*
D14*
X1481610Y1037280D03*
X1481610Y979480D03*
D15*
X2006471Y722124D02*
X2012063Y722124D01*
X2012063Y710436D01*
X2006471Y710436D01*
X2006471Y722124D01*
X2006471Y712605D02*
X2012063Y712605D01*
X2012063Y714774D02*
X2006471Y714774D01*
X2006471Y716943D02*
X2012063Y716943D01*
X2012063Y719112D02*
X2006471Y719112D01*
X2006471Y721281D02*
X2012063Y721281D01*
X2001649Y722124D02*
X1996057Y722124D01*
X2001649Y722124D02*
X2001649Y710436D01*
X1996057Y710436D01*
X1996057Y722124D01*
X1996057Y712605D02*
X2001649Y712605D01*
X2001649Y714774D02*
X1996057Y714774D01*
X1996057Y716943D02*
X2001649Y716943D01*
X2001649Y719112D02*
X1996057Y719112D01*
X1996057Y721281D02*
X2001649Y721281D01*
X2044571Y722124D02*
X2050163Y722124D01*
X2050163Y710436D01*
X2044571Y710436D01*
X2044571Y722124D01*
X2044571Y712605D02*
X2050163Y712605D01*
X2050163Y714774D02*
X2044571Y714774D01*
X2044571Y716943D02*
X2050163Y716943D01*
X2050163Y719112D02*
X2044571Y719112D01*
X2044571Y721281D02*
X2050163Y721281D01*
X2039749Y722124D02*
X2034157Y722124D01*
X2039749Y722124D02*
X2039749Y710436D01*
X2034157Y710436D01*
X2034157Y722124D01*
X2034157Y712605D02*
X2039749Y712605D01*
X2039749Y714774D02*
X2034157Y714774D01*
X2034157Y716943D02*
X2039749Y716943D01*
X2039749Y719112D02*
X2034157Y719112D01*
X2034157Y721281D02*
X2039749Y721281D01*
D16*
X1466116Y1021276D02*
X1437104Y1021276D01*
X1466116Y1021276D02*
X1466116Y1013264D01*
X1437104Y1013264D01*
X1437104Y1021276D01*
X1437104Y1015410D02*
X1466116Y1015410D01*
X1466116Y1017556D02*
X1437104Y1017556D01*
X1437104Y1019702D02*
X1466116Y1019702D01*
X1466116Y1039056D02*
X1437104Y1039056D01*
X1466116Y1039056D02*
X1466116Y1031044D01*
X1437104Y1031044D01*
X1437104Y1039056D01*
X1437104Y1033190D02*
X1466116Y1033190D01*
X1466116Y1035336D02*
X1437104Y1035336D01*
X1437104Y1037482D02*
X1466116Y1037482D01*
X1466116Y1003496D02*
X1437104Y1003496D01*
X1466116Y1003496D02*
X1466116Y995484D01*
X1437104Y995484D01*
X1437104Y1003496D01*
X1437104Y997630D02*
X1466116Y997630D01*
X1466116Y999776D02*
X1437104Y999776D01*
X1437104Y1001922D02*
X1466116Y1001922D01*
X1466116Y985716D02*
X1437104Y985716D01*
X1466116Y985716D02*
X1466116Y977704D01*
X1437104Y977704D01*
X1437104Y985716D01*
X1437104Y979850D02*
X1466116Y979850D01*
X1466116Y981996D02*
X1437104Y981996D01*
X1437104Y984142D02*
X1466116Y984142D01*
D17*
X1726960Y767080D03*
X1696960Y767080D03*
D18*
X1620520Y1160780D03*
X1645920Y1160780D03*
X1671320Y1160780D03*
X1696720Y1160780D03*
X1722120Y1160780D03*
X1747520Y1160780D03*
X1772920Y1160780D03*
X1798320Y1160780D03*
X1823720Y1160780D03*
X1849120Y1160780D03*
X1889760Y601980D03*
X1864360Y601980D03*
X1838960Y601980D03*
X1813560Y601980D03*
X1788160Y601980D03*
X1762760Y601980D03*
X1737360Y601980D03*
X1711960Y601980D03*
X1940560Y601980D03*
X1965960Y601980D03*
X1991360Y601980D03*
X2016760Y601980D03*
X2042160Y601980D03*
X2067560Y601980D03*
X2067560Y1160780D03*
X2042160Y1160780D03*
X2016760Y1160780D03*
X1991360Y1160780D03*
X1965960Y1160780D03*
X1940560Y1160780D03*
X1915160Y1160780D03*
X1889760Y1160780D03*
X1661160Y601980D03*
X1686560Y601980D03*
D19*
X1546860Y1135380D03*
X2092960Y728980D03*
D10*
X2288540Y640080D03*
X2809240Y690880D03*
X2809240Y970280D03*
X2301240Y1122680D03*
D11*
X2796540Y906780D03*
X2796540Y881380D03*
D12*
X2809240Y919480D03*
X2809240Y894080D03*
X2809240Y868680D03*
X2783840Y919480D03*
X2783840Y894080D03*
X2783840Y868680D03*
D13*
X2169160Y701040D03*
X2214880Y701040D03*
D14*
X2197890Y1037280D03*
X2197890Y979480D03*
D15*
X2722751Y722124D02*
X2728343Y722124D01*
X2728343Y710436D01*
X2722751Y710436D01*
X2722751Y722124D01*
X2722751Y712605D02*
X2728343Y712605D01*
X2728343Y714774D02*
X2722751Y714774D01*
X2722751Y716943D02*
X2728343Y716943D01*
X2728343Y719112D02*
X2722751Y719112D01*
X2722751Y721281D02*
X2728343Y721281D01*
X2717929Y722124D02*
X2712337Y722124D01*
X2717929Y722124D02*
X2717929Y710436D01*
X2712337Y710436D01*
X2712337Y722124D01*
X2712337Y712605D02*
X2717929Y712605D01*
X2717929Y714774D02*
X2712337Y714774D01*
X2712337Y716943D02*
X2717929Y716943D01*
X2717929Y719112D02*
X2712337Y719112D01*
X2712337Y721281D02*
X2717929Y721281D01*
X2760851Y722124D02*
X2766443Y722124D01*
X2766443Y710436D01*
X2760851Y710436D01*
X2760851Y722124D01*
X2760851Y712605D02*
X2766443Y712605D01*
X2766443Y714774D02*
X2760851Y714774D01*
X2760851Y716943D02*
X2766443Y716943D01*
X2766443Y719112D02*
X2760851Y719112D01*
X2760851Y721281D02*
X2766443Y721281D01*
X2756029Y722124D02*
X2750437Y722124D01*
X2756029Y722124D02*
X2756029Y710436D01*
X2750437Y710436D01*
X2750437Y722124D01*
X2750437Y712605D02*
X2756029Y712605D01*
X2756029Y714774D02*
X2750437Y714774D01*
X2750437Y716943D02*
X2756029Y716943D01*
X2756029Y719112D02*
X2750437Y719112D01*
X2750437Y721281D02*
X2756029Y721281D01*
D16*
X2182396Y1021276D02*
X2153384Y1021276D01*
X2182396Y1021276D02*
X2182396Y1013264D01*
X2153384Y1013264D01*
X2153384Y1021276D01*
X2153384Y1015410D02*
X2182396Y1015410D01*
X2182396Y1017556D02*
X2153384Y1017556D01*
X2153384Y1019702D02*
X2182396Y1019702D01*
X2182396Y1039056D02*
X2153384Y1039056D01*
X2182396Y1039056D02*
X2182396Y1031044D01*
X2153384Y1031044D01*
X2153384Y1039056D01*
X2153384Y1033190D02*
X2182396Y1033190D01*
X2182396Y1035336D02*
X2153384Y1035336D01*
X2153384Y1037482D02*
X2182396Y1037482D01*
X2182396Y1003496D02*
X2153384Y1003496D01*
X2182396Y1003496D02*
X2182396Y995484D01*
X2153384Y995484D01*
X2153384Y1003496D01*
X2153384Y997630D02*
X2182396Y997630D01*
X2182396Y999776D02*
X2153384Y999776D01*
X2153384Y1001922D02*
X2182396Y1001922D01*
X2182396Y985716D02*
X2153384Y985716D01*
X2182396Y985716D02*
X2182396Y977704D01*
X2153384Y977704D01*
X2153384Y985716D01*
X2153384Y979850D02*
X2182396Y979850D01*
X2182396Y981996D02*
X2153384Y981996D01*
X2153384Y984142D02*
X2182396Y984142D01*
D17*
X2443240Y767080D03*
X2413240Y767080D03*
D18*
X2336800Y1160780D03*
X2362200Y1160780D03*
X2387600Y1160780D03*
X2413000Y1160780D03*
X2438400Y1160780D03*
X2463800Y1160780D03*
X2489200Y1160780D03*
X2514600Y1160780D03*
X2540000Y1160780D03*
X2565400Y1160780D03*
X2606040Y601980D03*
X2580640Y601980D03*
X2555240Y601980D03*
X2529840Y601980D03*
X2504440Y601980D03*
X2479040Y601980D03*
X2453640Y601980D03*
X2428240Y601980D03*
X2656840Y601980D03*
X2682240Y601980D03*
X2707640Y601980D03*
X2733040Y601980D03*
X2758440Y601980D03*
X2783840Y601980D03*
X2783840Y1160780D03*
X2758440Y1160780D03*
X2733040Y1160780D03*
X2707640Y1160780D03*
X2682240Y1160780D03*
X2656840Y1160780D03*
X2631440Y1160780D03*
X2606040Y1160780D03*
X2377440Y601980D03*
X2402840Y601980D03*
D19*
X2263140Y1135380D03*
X2809240Y728980D03*
D10*
X3004820Y640080D03*
X3525520Y690880D03*
X3525520Y970280D03*
X3017520Y1122680D03*
D11*
X3512820Y906780D03*
X3512820Y881380D03*
D12*
X3525520Y919480D03*
X3525520Y894080D03*
X3525520Y868680D03*
X3500120Y919480D03*
X3500120Y894080D03*
X3500120Y868680D03*
D13*
X2885440Y701040D03*
X2931160Y701040D03*
D14*
X2914170Y1037280D03*
X2914170Y979480D03*
D15*
X3439031Y722124D02*
X3444623Y722124D01*
X3444623Y710436D01*
X3439031Y710436D01*
X3439031Y722124D01*
X3439031Y712605D02*
X3444623Y712605D01*
X3444623Y714774D02*
X3439031Y714774D01*
X3439031Y716943D02*
X3444623Y716943D01*
X3444623Y719112D02*
X3439031Y719112D01*
X3439031Y721281D02*
X3444623Y721281D01*
X3434209Y722124D02*
X3428617Y722124D01*
X3434209Y722124D02*
X3434209Y710436D01*
X3428617Y710436D01*
X3428617Y722124D01*
X3428617Y712605D02*
X3434209Y712605D01*
X3434209Y714774D02*
X3428617Y714774D01*
X3428617Y716943D02*
X3434209Y716943D01*
X3434209Y719112D02*
X3428617Y719112D01*
X3428617Y721281D02*
X3434209Y721281D01*
X3477131Y722124D02*
X3482723Y722124D01*
X3482723Y710436D01*
X3477131Y710436D01*
X3477131Y722124D01*
X3477131Y712605D02*
X3482723Y712605D01*
X3482723Y714774D02*
X3477131Y714774D01*
X3477131Y716943D02*
X3482723Y716943D01*
X3482723Y719112D02*
X3477131Y719112D01*
X3477131Y721281D02*
X3482723Y721281D01*
X3472309Y722124D02*
X3466717Y722124D01*
X3472309Y722124D02*
X3472309Y710436D01*
X3466717Y710436D01*
X3466717Y722124D01*
X3466717Y712605D02*
X3472309Y712605D01*
X3472309Y714774D02*
X3466717Y714774D01*
X3466717Y716943D02*
X3472309Y716943D01*
X3472309Y719112D02*
X3466717Y719112D01*
X3466717Y721281D02*
X3472309Y721281D01*
D16*
X2898676Y1021276D02*
X2869664Y1021276D01*
X2898676Y1021276D02*
X2898676Y1013264D01*
X2869664Y1013264D01*
X2869664Y1021276D01*
X2869664Y1015410D02*
X2898676Y1015410D01*
X2898676Y1017556D02*
X2869664Y1017556D01*
X2869664Y1019702D02*
X2898676Y1019702D01*
X2898676Y1039056D02*
X2869664Y1039056D01*
X2898676Y1039056D02*
X2898676Y1031044D01*
X2869664Y1031044D01*
X2869664Y1039056D01*
X2869664Y1033190D02*
X2898676Y1033190D01*
X2898676Y1035336D02*
X2869664Y1035336D01*
X2869664Y1037482D02*
X2898676Y1037482D01*
X2898676Y1003496D02*
X2869664Y1003496D01*
X2898676Y1003496D02*
X2898676Y995484D01*
X2869664Y995484D01*
X2869664Y1003496D01*
X2869664Y997630D02*
X2898676Y997630D01*
X2898676Y999776D02*
X2869664Y999776D01*
X2869664Y1001922D02*
X2898676Y1001922D01*
X2898676Y985716D02*
X2869664Y985716D01*
X2898676Y985716D02*
X2898676Y977704D01*
X2869664Y977704D01*
X2869664Y985716D01*
X2869664Y979850D02*
X2898676Y979850D01*
X2898676Y981996D02*
X2869664Y981996D01*
X2869664Y984142D02*
X2898676Y984142D01*
D17*
X3159520Y767080D03*
X3129520Y767080D03*
D18*
X3053080Y1160780D03*
X3078480Y1160780D03*
X3103880Y1160780D03*
X3129280Y1160780D03*
X3154680Y1160780D03*
X3180080Y1160780D03*
X3205480Y1160780D03*
X3230880Y1160780D03*
X3256280Y1160780D03*
X3281680Y1160780D03*
X3322320Y601980D03*
X3296920Y601980D03*
X3271520Y601980D03*
X3246120Y601980D03*
X3220720Y601980D03*
X3195320Y601980D03*
X3169920Y601980D03*
X3144520Y601980D03*
X3373120Y601980D03*
X3398520Y601980D03*
X3423920Y601980D03*
X3449320Y601980D03*
X3474720Y601980D03*
X3500120Y601980D03*
X3500120Y1160780D03*
X3474720Y1160780D03*
X3449320Y1160780D03*
X3423920Y1160780D03*
X3398520Y1160780D03*
X3373120Y1160780D03*
X3347720Y1160780D03*
X3322320Y1160780D03*
X3093720Y601980D03*
X3119120Y601980D03*
D19*
X2979420Y1135380D03*
X3525520Y728980D03*
X-51638Y1146810D03*
X3602558Y1146810D03*
D20*
X-60693Y63500D02*
X-60690Y63722D01*
X-60682Y63944D01*
X-60668Y64166D01*
X-60649Y64388D01*
X-60625Y64608D01*
X-60595Y64829D01*
X-60560Y65048D01*
X-60519Y65267D01*
X-60473Y65484D01*
X-60422Y65700D01*
X-60365Y65915D01*
X-60303Y66129D01*
X-60236Y66340D01*
X-60164Y66551D01*
X-60086Y66759D01*
X-60004Y66965D01*
X-59916Y67169D01*
X-59824Y67372D01*
X-59726Y67571D01*
X-59624Y67768D01*
X-59517Y67963D01*
X-59405Y68155D01*
X-59288Y68344D01*
X-59167Y68531D01*
X-59041Y68714D01*
X-58911Y68894D01*
X-58776Y69071D01*
X-58638Y69244D01*
X-58495Y69414D01*
X-58347Y69581D01*
X-58196Y69744D01*
X-58041Y69903D01*
X-57882Y70058D01*
X-57719Y70209D01*
X-57552Y70357D01*
X-57382Y70500D01*
X-57209Y70638D01*
X-57032Y70773D01*
X-56852Y70903D01*
X-56669Y71029D01*
X-56482Y71150D01*
X-56293Y71267D01*
X-56101Y71379D01*
X-55906Y71486D01*
X-55709Y71588D01*
X-55510Y71686D01*
X-55307Y71778D01*
X-55103Y71866D01*
X-54897Y71948D01*
X-54689Y72026D01*
X-54478Y72098D01*
X-54267Y72165D01*
X-54053Y72227D01*
X-53838Y72284D01*
X-53622Y72335D01*
X-53405Y72381D01*
X-53186Y72422D01*
X-52967Y72457D01*
X-52746Y72487D01*
X-52526Y72511D01*
X-52304Y72530D01*
X-52082Y72544D01*
X-51860Y72552D01*
X-51638Y72555D01*
X-51416Y72552D01*
X-51194Y72544D01*
X-50972Y72530D01*
X-50750Y72511D01*
X-50530Y72487D01*
X-50309Y72457D01*
X-50090Y72422D01*
X-49871Y72381D01*
X-49654Y72335D01*
X-49438Y72284D01*
X-49223Y72227D01*
X-49009Y72165D01*
X-48798Y72098D01*
X-48587Y72026D01*
X-48379Y71948D01*
X-48173Y71866D01*
X-47969Y71778D01*
X-47766Y71686D01*
X-47567Y71588D01*
X-47370Y71486D01*
X-47175Y71379D01*
X-46983Y71267D01*
X-46794Y71150D01*
X-46607Y71029D01*
X-46424Y70903D01*
X-46244Y70773D01*
X-46067Y70638D01*
X-45894Y70500D01*
X-45724Y70357D01*
X-45557Y70209D01*
X-45394Y70058D01*
X-45235Y69903D01*
X-45080Y69744D01*
X-44929Y69581D01*
X-44781Y69414D01*
X-44638Y69244D01*
X-44500Y69071D01*
X-44365Y68894D01*
X-44235Y68714D01*
X-44109Y68531D01*
X-43988Y68344D01*
X-43871Y68155D01*
X-43759Y67963D01*
X-43652Y67768D01*
X-43550Y67571D01*
X-43452Y67372D01*
X-43360Y67169D01*
X-43272Y66965D01*
X-43190Y66759D01*
X-43112Y66551D01*
X-43040Y66340D01*
X-42973Y66129D01*
X-42911Y65915D01*
X-42854Y65700D01*
X-42803Y65484D01*
X-42757Y65267D01*
X-42716Y65048D01*
X-42681Y64829D01*
X-42651Y64608D01*
X-42627Y64388D01*
X-42608Y64166D01*
X-42594Y63944D01*
X-42586Y63722D01*
X-42583Y63500D01*
X-42586Y63278D01*
X-42594Y63056D01*
X-42608Y62834D01*
X-42627Y62612D01*
X-42651Y62392D01*
X-42681Y62171D01*
X-42716Y61952D01*
X-42757Y61733D01*
X-42803Y61516D01*
X-42854Y61300D01*
X-42911Y61085D01*
X-42973Y60871D01*
X-43040Y60660D01*
X-43112Y60449D01*
X-43190Y60241D01*
X-43272Y60035D01*
X-43360Y59831D01*
X-43452Y59628D01*
X-43550Y59429D01*
X-43652Y59232D01*
X-43759Y59037D01*
X-43871Y58845D01*
X-43988Y58656D01*
X-44109Y58469D01*
X-44235Y58286D01*
X-44365Y58106D01*
X-44500Y57929D01*
X-44638Y57756D01*
X-44781Y57586D01*
X-44929Y57419D01*
X-45080Y57256D01*
X-45235Y57097D01*
X-45394Y56942D01*
X-45557Y56791D01*
X-45724Y56643D01*
X-45894Y56500D01*
X-46067Y56362D01*
X-46244Y56227D01*
X-46424Y56097D01*
X-46607Y55971D01*
X-46794Y55850D01*
X-46983Y55733D01*
X-47175Y55621D01*
X-47370Y55514D01*
X-47567Y55412D01*
X-47766Y55314D01*
X-47969Y55222D01*
X-48173Y55134D01*
X-48379Y55052D01*
X-48587Y54974D01*
X-48798Y54902D01*
X-49009Y54835D01*
X-49223Y54773D01*
X-49438Y54716D01*
X-49654Y54665D01*
X-49871Y54619D01*
X-50090Y54578D01*
X-50309Y54543D01*
X-50530Y54513D01*
X-50750Y54489D01*
X-50972Y54470D01*
X-51194Y54456D01*
X-51416Y54448D01*
X-51638Y54445D01*
X-51860Y54448D01*
X-52082Y54456D01*
X-52304Y54470D01*
X-52526Y54489D01*
X-52746Y54513D01*
X-52967Y54543D01*
X-53186Y54578D01*
X-53405Y54619D01*
X-53622Y54665D01*
X-53838Y54716D01*
X-54053Y54773D01*
X-54267Y54835D01*
X-54478Y54902D01*
X-54689Y54974D01*
X-54897Y55052D01*
X-55103Y55134D01*
X-55307Y55222D01*
X-55510Y55314D01*
X-55709Y55412D01*
X-55906Y55514D01*
X-56101Y55621D01*
X-56293Y55733D01*
X-56482Y55850D01*
X-56669Y55971D01*
X-56852Y56097D01*
X-57032Y56227D01*
X-57209Y56362D01*
X-57382Y56500D01*
X-57552Y56643D01*
X-57719Y56791D01*
X-57882Y56942D01*
X-58041Y57097D01*
X-58196Y57256D01*
X-58347Y57419D01*
X-58495Y57586D01*
X-58638Y57756D01*
X-58776Y57929D01*
X-58911Y58106D01*
X-59041Y58286D01*
X-59167Y58469D01*
X-59288Y58656D01*
X-59405Y58845D01*
X-59517Y59037D01*
X-59624Y59232D01*
X-59726Y59429D01*
X-59824Y59628D01*
X-59916Y59831D01*
X-60004Y60035D01*
X-60086Y60241D01*
X-60164Y60449D01*
X-60236Y60660D01*
X-60303Y60871D01*
X-60365Y61085D01*
X-60422Y61300D01*
X-60473Y61516D01*
X-60519Y61733D01*
X-60560Y61952D01*
X-60595Y62171D01*
X-60625Y62392D01*
X-60649Y62612D01*
X-60668Y62834D01*
X-60682Y63056D01*
X-60690Y63278D01*
X-60693Y63500D01*
D21*
X-51638Y63500D03*
M02*
