M48
;GenerationSoftware,Autodesk,EAGLE,9.6.2*%
;CreationDate,2021-05-17T14:16:45Z*%
FMAT,2
ICI,OFF
METRIC,TZ,000.000
T8C0.381
T7C0.400
T6C0.650
T5C0.850
T4C1.016
T3C1.800
T2C2.032
T1C3.048
%
G90
M71
T1
X66040Y69088
X13970Y5080
X66040Y10160
X66040Y38100
X15240Y53340
X280924Y69088
X228854Y64008
X228854Y5080
X280924Y10160
X158496Y112268
X352552Y10160
X301752Y112268
X352552Y69088
X85598Y5080
X137668Y10160
X137668Y38100
X86868Y53340
X301752Y53340
X352552Y38100
X300482Y64008
X300482Y5080
X280924Y38100
X157226Y64008
X209296Y69088
X209296Y97028
X157226Y5080
X209296Y10160
X209296Y38100
X158496Y53340
X352552Y97028
X230124Y53340
X280924Y97028
X13970Y64008
X230124Y112268
X66040Y97028
X15240Y112268
X85598Y64008
X137668Y69088
X137668Y97028
X86868Y112268
T2
X78232Y11176
X216916Y11176
X221488Y11176
X149860Y70104
X288544Y11176
X293116Y11176
X2032Y11176
X6604Y11176
X78232Y70104
X288544Y70104
X73660Y11176
X2032Y70104
X6604Y70104
X73660Y70104
X216916Y70104
X221488Y70104
X293116Y70104
X145288Y11176
X149860Y11176
X145288Y70104
T3
X208026Y88138
X208026Y90678
X208026Y31750
X351282Y90678
X208026Y29210
X64770Y90678
X64770Y88138
X136398Y29210
X136398Y31750
X351282Y31750
X279654Y88138
X351282Y29210
X279654Y29210
X279654Y31750
X351282Y88138
X64770Y29210
X64770Y31750
X136398Y90678
X136398Y88138
X279654Y90678
T4
X255524Y60198
X252984Y60198
X250444Y60198
X247904Y60198
X245364Y60198
X242824Y60198
X265684Y60198
X268224Y60198
X270764Y60198
X273304Y60198
X275844Y60198
X278384Y60198
X278384Y116078
X275844Y116078
X273304Y116078
X270764Y116078
X268224Y116078
X265684Y116078
X263144Y116078
X260604Y116078
X316992Y1270
X237744Y60198
X240284Y60198
X305308Y116078
X307848Y116078
X310388Y116078
X312928Y116078
X315468Y116078
X318008Y116078
X320548Y116078
X323088Y116078
X325628Y116078
X328168Y116078
X332232Y60198
X329692Y60198
X327152Y60198
X324612Y60198
X322072Y60198
X319532Y60198
X316992Y60198
X314452Y60198
X337312Y60198
X339852Y60198
X342392Y60198
X344932Y60198
X18796Y57150
X21336Y57150
X23876Y57150
X26416Y57150
X28956Y57150
X31496Y57150
X34036Y57150
X36576Y57150
X39116Y57150
X41656Y57150
X45720Y1270
X43180Y1270
X40640Y1270
X38100Y1270
X35560Y1270
X33020Y1270
X30480Y1270
X27940Y1270
X50800Y1270
X53340Y1270
X55880Y1270
X58420Y1270
X60960Y1270
X63500Y1270
X63500Y57150
X60960Y57150
X58420Y57150
X55880Y57150
X53340Y57150
X50800Y57150
X48260Y57150
X45720Y57150
X22860Y1270
X25400Y1270
X347472Y60198
X350012Y60198
X350012Y116078
X347472Y116078
X90424Y57150
X92964Y57150
X95504Y57150
X98044Y57150
X100584Y57150
X103124Y57150
X105664Y57150
X108204Y57150
X110744Y57150
X113284Y57150
X117348Y1270
X114808Y1270
X112268Y1270
X109728Y1270
X107188Y1270
X104648Y1270
X102108Y1270
X99568Y1270
X122428Y1270
X124968Y1270
X127508Y1270
X130048Y1270
X132588Y1270
X135128Y1270
X135128Y57150
X132588Y57150
X130048Y57150
X127508Y57150
X124968Y57150
X122428Y57150
X119888Y57150
X117348Y57150
X94488Y1270
X97028Y1270
X344932Y116078
X342392Y116078
X339852Y116078
X337312Y116078
X162052Y57150
X164592Y57150
X167132Y57150
X169672Y57150
X172212Y57150
X174752Y57150
X177292Y57150
X179832Y57150
X182372Y57150
X184912Y57150
X188976Y1270
X186436Y1270
X183896Y1270
X181356Y1270
X178816Y1270
X176276Y1270
X173736Y1270
X171196Y1270
X194056Y1270
X196596Y1270
X199136Y1270
X201676Y1270
X204216Y1270
X206756Y1270
X206756Y57150
X204216Y57150
X201676Y57150
X199136Y57150
X196596Y57150
X194056Y57150
X191516Y57150
X188976Y57150
X166116Y1270
X168656Y1270
X334772Y116078
X332232Y116078
X309372Y60198
X311912Y60198
X233680Y57150
X236220Y57150
X238760Y57150
X241300Y57150
X243840Y57150
X246380Y57150
X248920Y57150
X251460Y57150
X254000Y57150
X256540Y57150
X260604Y1270
X258064Y1270
X255524Y1270
X252984Y1270
X250444Y1270
X247904Y1270
X245364Y1270
X242824Y1270
X265684Y1270
X268224Y1270
X270764Y1270
X273304Y1270
X275844Y1270
X278384Y1270
X278384Y57150
X275844Y57150
X273304Y57150
X270764Y57150
X268224Y57150
X265684Y57150
X263144Y57150
X260604Y57150
X237744Y1270
X240284Y1270
X305308Y57150
X307848Y57150
X310388Y57150
X312928Y57150
X315468Y57150
X318008Y57150
X320548Y57150
X323088Y57150
X325628Y57150
X328168Y57150
X332232Y1270
X329692Y1270
X327152Y1270
X324612Y1270
X322072Y1270
X319532Y1270
X314452Y1270
X337312Y1270
X339852Y1270
X342392Y1270
X344932Y1270
X347472Y1270
X350012Y1270
X350012Y57150
X347472Y57150
X344932Y57150
X342392Y57150
X339852Y57150
X337312Y57150
X334772Y57150
X332232Y57150
X309372Y1270
X311912Y1270
X18796Y116078
X21336Y116078
X23876Y116078
X26416Y116078
X28956Y116078
X31496Y116078
X34036Y116078
X36576Y116078
X39116Y116078
X41656Y116078
X45720Y60198
X43180Y60198
X40640Y60198
X38100Y60198
X35560Y60198
X33020Y60198
X30480Y60198
X27940Y60198
X50800Y60198
X53340Y60198
X55880Y60198
X58420Y60198
X60960Y60198
X63500Y60198
X63500Y116078
X60960Y116078
X58420Y116078
X55880Y116078
X53340Y116078
X50800Y116078
X48260Y116078
X45720Y116078
X22860Y60198
X25400Y60198
X90424Y116078
X92964Y116078
X95504Y116078
X98044Y116078
X100584Y116078
X103124Y116078
X105664Y116078
X108204Y116078
X110744Y116078
X113284Y116078
X117348Y60198
X114808Y60198
X112268Y60198
X109728Y60198
X107188Y60198
X104648Y60198
X102108Y60198
X99568Y60198
X122428Y60198
X124968Y60198
X127508Y60198
X130048Y60198
X132588Y60198
X135128Y60198
X135128Y116078
X132588Y116078
X130048Y116078
X127508Y116078
X124968Y116078
X122428Y116078
X119888Y116078
X117348Y116078
X94488Y60198
X97028Y60198
X162052Y116078
X164592Y116078
X167132Y116078
X169672Y116078
X172212Y116078
X174752Y116078
X177292Y116078
X179832Y116078
X182372Y116078
X184912Y116078
X188976Y60198
X186436Y60198
X183896Y60198
X181356Y60198
X178816Y60198
X176276Y60198
X173736Y60198
X171196Y60198
X194056Y60198
X196596Y60198
X199136Y60198
X201676Y60198
X204216Y60198
X206756Y60198
X206756Y116078
X204216Y116078
X201676Y116078
X199136Y116078
X196596Y116078
X194056Y116078
X191516Y116078
X188976Y116078
X166116Y60198
X168656Y60198
X233680Y116078
X236220Y116078
X238760Y116078
X241300Y116078
X243840Y116078
X246380Y116078
X248920Y116078
X251460Y116078
X254000Y116078
X256540Y116078
X260604Y60198
X258064Y60198
T5
X172696Y17780
X312952Y76708
X29440Y17780
X26440Y17780
X29440Y76708
X26440Y76708
X101068Y17780
X98068Y17780
X101068Y76708
X98068Y76708
X172696Y76708
X169696Y17780
X169696Y76708
X244324Y76708
X244324Y17780
X241324Y17780
X241324Y76708
X315952Y76708
X315952Y17780
X312952Y17780
T6
X4905Y39020
X76533Y44800
X76533Y39020
X148161Y44800
X148161Y39020
X4905Y44800
X219789Y44800
X219789Y39020
X291417Y44800
X291417Y39020
X76533Y97948
X4905Y97948
X219789Y103728
X219789Y97948
X76533Y103728
X148161Y103728
X291417Y103728
X291417Y97948
X148161Y97948
X4905Y103728
T7
X1255Y46228
X1255Y37592
X5435Y37592
X5435Y46228
X72883Y46228
X72883Y37592
X77063Y37592
X77063Y46228
X144511Y46228
X144511Y37592
X148691Y37592
X148691Y46228
X216139Y46228
X216139Y37592
X220319Y37592
X220319Y46228
X5435Y96520
X5435Y105156
X287767Y37592
X291947Y37592
X72883Y105156
X72883Y96520
X144511Y105156
X144511Y96520
X148691Y96520
X148691Y105156
X287767Y105156
X287767Y96520
X291947Y96520
X291947Y105156
X77063Y96520
X77063Y105156
X216139Y105156
X216139Y96520
X220319Y96520
X220319Y105156
X291947Y46228
X287767Y46228
X1255Y105156
X1255Y96520
T8
X287782Y7620
X315722Y46990
X353822Y24130
X304292Y22860
X303911Y17780
X353822Y27940
X293243Y36703
X300482Y32385
X301752Y35560
X299212Y29210
X295402Y52070
X322072Y17780
X325882Y22352
X294132Y46355
X306832Y20320
X309372Y20320
X309372Y21717
X309372Y18542
X306832Y18415
X303657Y24892
X302768Y48260
X290322Y3810
X290322Y7620
X287655Y3556
X308102Y3810
X351282Y15240
X353314Y17780
X330962Y5080
X325882Y5080
X322072Y22479
X320802Y25146
X288417Y39243
X287782Y35560
X293751Y37973
X294005Y37084
X293751Y45593
X294894Y45466
X313182Y45593
X319913Y28575
X320802Y11430
X310642Y22860
X352552Y19050
X315709Y9131
X328409Y9131
X294386Y44323
X294450Y38926
X291465Y5969
X287401Y29083
X334283Y22460
X342392Y25400
X353822Y33020
X327152Y24130
X318008Y26035
X344170Y17780
X312293Y37465
X312103Y30416
X312293Y33655
X299886Y46863
X299403Y35624
X288925Y45593
X291211Y42291
X294513Y40132
X294513Y42672
X348742Y15240
X339852Y17780
X328822Y20809
X318897Y26797
X315722Y27940
X348742Y27940
X338582Y16510
X342392Y24130
X311785Y42799
X320802Y24003
X320802Y18923
X319786Y13843
X312674Y13208
X310515Y11049
X321183Y12827
X313944Y12573
X311531Y10160
X21590Y95885
X62230Y112268
X22733Y98298
X59690Y112268
X43688Y79534
X46990Y86995
X26416Y103632
X59690Y64135
X53340Y75438
X59690Y69088
X25146Y103759
X62230Y64008
X62230Y69088
X39497Y88011
X67310Y89408
X37338Y88900
X62230Y91948
X37617Y86385
X62230Y89408
X2540Y83197
X5080Y85737
X5080Y80657
X2540Y81292
X2540Y85102
X36830Y64008
X17272Y79502
X31750Y64008
X5080Y110998
X64770Y100838
X40640Y79248
X47752Y80010
X41910Y64008
X27686Y112268
X43434Y82423
X49530Y86868
X35687Y86868
X1270Y66548
X29210Y105918
X67310Y83058
X17780Y81788
X17399Y76708
X67310Y86868
X6731Y95631
X13970Y91313
X15240Y94488
X12700Y88138
X8890Y110998
X35560Y76708
X39370Y81280
X7620Y105283
X20320Y79248
X22860Y79248
X22860Y80645
X22860Y77470
X20320Y77343
X17145Y83820
X16256Y107188
X3810Y62738
X3810Y66548
X1143Y62484
X21590Y62738
X64770Y74168
X66802Y76708
X44450Y64008
X39370Y64008
X35560Y81407
X34290Y84074
X1905Y98171
X1270Y94488
X7239Y96901
X7493Y96012
X7239Y104521
X8382Y104394
X26670Y104521
X33401Y87503
X34290Y70358
X24130Y81788
X66040Y77978
X29197Y68059
X41897Y68059
X7874Y103251
X7937Y97853
X4953Y64897
X889Y88011
X47771Y81388
X55880Y84328
X67310Y91948
X40640Y83058
X31496Y84963
X57658Y76708
X25781Y96393
X25590Y89344
X25781Y92583
X13374Y105791
X12890Y94551
X2413Y104521
X4699Y101219
X8001Y99060
X8001Y101600
X62230Y74168
X53340Y76708
X42310Y79737
X32385Y85725
X29210Y86868
X62230Y86868
X52070Y75438
X55880Y83058
X25273Y101727
X34290Y82931
X34290Y77851
X33274Y72771
X26162Y72136
X24003Y69977
X34671Y71755
X27432Y71501
X25019Y69088
X93218Y95885
X133858Y112268
X94361Y98298
X131318Y112268
X115316Y79534
X118618Y86995
X98044Y103632
X131318Y64135
X124968Y75438
X131318Y69088
X96774Y103759
X133858Y64008
X133858Y69088
X111125Y88011
X138938Y89408
X108966Y88900
X133858Y91948
X109245Y86385
X133858Y89408
X74168Y83197
X76708Y85737
X76708Y80657
X74168Y81292
X74168Y85102
X108458Y64008
X88900Y79502
X103378Y64008
X76708Y110998
X136398Y100838
X112268Y79248
X119380Y80010
X113538Y64008
X99314Y112268
X115062Y82423
X121158Y86868
X107315Y86868
X72898Y66548
X100838Y105918
X138938Y83058
X89408Y81788
X89027Y76708
X138938Y86868
X78359Y95631
X85598Y91313
X86868Y94488
X84328Y88138
X80518Y110998
X107188Y76708
X110998Y81280
X79248Y105283
X91948Y79248
X94488Y79248
X94488Y80645
X94488Y77470
X91948Y77343
X88773Y83820
X87884Y107188
X75438Y62738
X75438Y66548
X72771Y62484
X93218Y62738
X136398Y74168
X138430Y76708
X116078Y64008
X110998Y64008
X107188Y81407
X105918Y84074
X73533Y98171
X72898Y94488
X78867Y96901
X79121Y96012
X78867Y104521
X80010Y104394
X98298Y104521
X105029Y87503
X105918Y70358
X95758Y81788
X137668Y77978
X100825Y68059
X113525Y68059
X79502Y103251
X79566Y97853
X76581Y64897
X72517Y88011
X119399Y81388
X127508Y84328
X138938Y91948
X112268Y83058
X103124Y84963
X129286Y76708
X97409Y96393
X97218Y89344
X97409Y92583
X85002Y105791
X84519Y94551
X74041Y104521
X76327Y101219
X79629Y99060
X79629Y101600
X133858Y74168
X124968Y76708
X113938Y79737
X104013Y85725
X100838Y86868
X133858Y86868
X123698Y75438
X127508Y83058
X96901Y101727
X105918Y82931
X105918Y77851
X104902Y72771
X97790Y72136
X95631Y69977
X106299Y71755
X99060Y71501
X96647Y69088
X164846Y95885
X205486Y112268
X165989Y98298
X202946Y112268
X186944Y79534
X190246Y86995
X169672Y103632
X202946Y64135
X196596Y75438
X202946Y69088
X168402Y103759
X205486Y64008
X205486Y69088
X182753Y88011
X210566Y89408
X180594Y88900
X205486Y91948
X180873Y86385
X97218Y30416
X145796Y83197
X148336Y85737
X148336Y80657
X145796Y81292
X145796Y85102
X180086Y64008
X160528Y79502
X175006Y64008
X148336Y110998
X208026Y100838
X183896Y79248
X191008Y80010
X185166Y64008
X170942Y112268
X186690Y82423
X192786Y86868
X178943Y86868
X144526Y66548
X172466Y105918
X210566Y83058
X161036Y81788
X160655Y76708
X210566Y86868
X149987Y95631
X157226Y91313
X158496Y94488
X155956Y88138
X152146Y110998
X178816Y76708
X182626Y81280
X150876Y105283
X163576Y79248
X166116Y79248
X166116Y80645
X166116Y77470
X163576Y77343
X160401Y83820
X159512Y107188
X147066Y62738
X147066Y66548
X144399Y62484
X164846Y62738
X208026Y74168
X210058Y76708
X187706Y64008
X182626Y64008
X178816Y81407
X177546Y84074
X145161Y98171
X144526Y94488
X150495Y96901
X150749Y96012
X150495Y104521
X151638Y104394
X169926Y104521
X176657Y87503
X177546Y70358
X167386Y81788
X209296Y77978
X172453Y68059
X185153Y68059
X151130Y103251
X151194Y97853
X148209Y64897
X144145Y88011
X191027Y81388
X199136Y84328
X210566Y91948
X183896Y83058
X174752Y84963
X200914Y76708
X169037Y96393
X168847Y89344
X169037Y92583
X156630Y105791
X156147Y94551
X145669Y104521
X147955Y101219
X151257Y99060
X151257Y101600
X205486Y74168
X196596Y76708
X185566Y79737
X175641Y85725
X172466Y86868
X205486Y86868
X195326Y75438
X199136Y83058
X168529Y101727
X177546Y82931
X177546Y77851
X176530Y72771
X169418Y72136
X167259Y69977
X177927Y71755
X170688Y71501
X168275Y69088
X236474Y95885
X277114Y112268
X237617Y98298
X274574Y112268
X258572Y79534
X261874Y86995
X241300Y103632
X274574Y64135
X268224Y75438
X274574Y69088
X240030Y103759
X277114Y64008
X277114Y69088
X254381Y88011
X282194Y89408
X252222Y88900
X277114Y91948
X252501Y86385
X277114Y89408
X217424Y83197
X219964Y85737
X219964Y80657
X217424Y81292
X217424Y85102
X251714Y64008
X232156Y79502
X246634Y64008
X219964Y110998
X279654Y100838
X255524Y79248
X262636Y80010
X256794Y64008
X242570Y112268
X258318Y82423
X264414Y86868
X250571Y86868
X216154Y66548
X244094Y105918
X282194Y83058
X232664Y81788
X232283Y76708
X282194Y86868
X221615Y95631
X228854Y91313
X230124Y94488
X227584Y88138
X223774Y110998
X250444Y76708
X254254Y81280
X222504Y105283
X235204Y79248
X237744Y79248
X237744Y80645
X237744Y77470
X235204Y77343
X232029Y83820
X231140Y107188
X218694Y62738
X218694Y66548
X216027Y62484
X236474Y62738
X279654Y74168
X281686Y76708
X259334Y64008
X254254Y64008
X250444Y81407
X249174Y84074
X216789Y98171
X216154Y94488
X222123Y96901
X222377Y96012
X222123Y104521
X223266Y104394
X241554Y104521
X248285Y87503
X249174Y70358
X239014Y81788
X280924Y77978
X244081Y68059
X256781Y68059
X222758Y103251
X222821Y97853
X219837Y64897
X215773Y88011
X262655Y81388
X270764Y84328
X282194Y91948
X255524Y83058
X246380Y84963
X272542Y76708
X240665Y96393
X240474Y89344
X240665Y92583
X228258Y105791
X227774Y94551
X217297Y104521
X219583Y101219
X222885Y99060
X222885Y101600
X277114Y74168
X268224Y76708
X257194Y79737
X247269Y85725
X244094Y86868
X277114Y86868
X266954Y75438
X270764Y83058
X240157Y101727
X249174Y82931
X249174Y77851
X248158Y72771
X241046Y72136
X238887Y69977
X249555Y71755
X242316Y71501
X239903Y69088
X308102Y95885
X348742Y112268
X309245Y98298
X346202Y112268
X330200Y79534
X333502Y86995
X312928Y103632
X346202Y64135
X339852Y75438
X346202Y69088
X311658Y103759
X348742Y64008
X348742Y69088
X326009Y88011
X353822Y89408
X323850Y88900
X348742Y91948
X324129Y86385
X348742Y89408
X289052Y83197
X291592Y85737
X291592Y80657
X289052Y81292
X289052Y85102
X323342Y64008
X303784Y79502
X318262Y64008
X291592Y110998
X351282Y100838
X327152Y79248
X334264Y80010
X328422Y64008
X314198Y112268
X329946Y82423
X336042Y86868
X322199Y86868
X287782Y66548
X315722Y105918
X353822Y83058
X304292Y81788
X303911Y76708
X353822Y86868
X293243Y95631
X300482Y91313
X301752Y94488
X299212Y88138
X295402Y110998
X322072Y76708
X325882Y81280
X294132Y105283
X306832Y79248
X309372Y79248
X309372Y80645
X309372Y77470
X306832Y77343
X303657Y83820
X302768Y107188
X290322Y62738
X290322Y66548
X287655Y62484
X308102Y62738
X351282Y74168
X353314Y76708
X330962Y64008
X325882Y64008
X322072Y81407
X320802Y84074
X288417Y98171
X287782Y94488
X293751Y96901
X294005Y96012
X293751Y104521
X294894Y104394
X313182Y104521
X319913Y87503
X320802Y70358
X310642Y81788
X352552Y77978
X315709Y68059
X328409Y68059
X294386Y103251
X294450Y97853
X291465Y64897
X287401Y88011
X334283Y81388
X342392Y84328
X353822Y91948
X327152Y83058
X318008Y84963
X344170Y76708
X312293Y96393
X312103Y89344
X312293Y92583
X299886Y105791
X299403Y94551
X288925Y104521
X291211Y101219
X294513Y99060
X294513Y101600
X348742Y74168
X339852Y76708
X328822Y79737
X318897Y85725
X315722Y86868
X348742Y86868
X338582Y75438
X342392Y83058
X311785Y101727
X320802Y82931
X320802Y77851
X319786Y72771
X312674Y72136
X310515Y69977
X321183Y71755
X313944Y71501
X311531Y69088
X21590Y36957
X62230Y53340
X22733Y39370
X59690Y53340
X43688Y20606
X46990Y28067
X26416Y44704
X59690Y5207
X53340Y16510
X59690Y10160
X25146Y44831
X62230Y5080
X62230Y10160
X39497Y29083
X67310Y30480
X37338Y29972
X62230Y33020
X37617Y27457
X62230Y30480
X2540Y24269
X5080Y26809
X5080Y21729
X2540Y22364
X2540Y26174
X36830Y5080
X17272Y20574
X31750Y5080
X5080Y52070
X64770Y41910
X40640Y20320
X47752Y21082
X41910Y5080
X27686Y53340
X43434Y23495
X49530Y27940
X35687Y27940
X1270Y7620
X29210Y46990
X67310Y24130
X17780Y22860
X17399Y17780
X67310Y27940
X6731Y36703
X13970Y32385
X15240Y35560
X12700Y29210
X8890Y52070
X35560Y17780
X39370Y22352
X7620Y46355
X20320Y20320
X22860Y20320
X22860Y21717
X22860Y18542
X20320Y18415
X17145Y24892
X16256Y48260
X3810Y3810
X3810Y7620
X1143Y3556
X21590Y3810
X64770Y15240
X66802Y17780
X44450Y5080
X39370Y5080
X35560Y22479
X34290Y25146
X1905Y39243
X1270Y35560
X7239Y37973
X7493Y37084
X7239Y45593
X8382Y45466
X26670Y45593
X33401Y28575
X34290Y11430
X24130Y22860
X66040Y19050
X29197Y9131
X41897Y9131
X7874Y44323
X7937Y38926
X4953Y5969
X889Y29083
X47771Y22460
X55880Y25400
X67310Y33020
X40640Y24130
X31496Y26035
X57658Y17780
X25781Y37465
X25590Y30416
X25781Y33655
X13374Y46863
X12890Y35624
X2413Y45593
X4699Y42291
X8001Y40132
X8001Y42672
X62230Y15240
X53340Y17780
X42310Y20809
X32385Y26797
X29210Y27940
X62230Y27940
X52070Y16510
X55880Y24130
X25273Y42799
X34290Y24003
X34290Y18923
X33274Y13843
X26162Y13208
X24003Y11049
X34671Y12827
X27432Y12573
X25019Y10160
X93218Y36957
X133858Y53340
X94361Y39370
X131318Y53340
X115316Y20606
X118618Y28067
X98044Y44704
X131318Y5207
X124968Y16510
X131318Y10160
X96774Y44831
X133858Y5080
X133858Y10160
X111125Y29083
X138938Y30480
X108966Y29972
X133858Y33020
X109245Y27457
X133858Y30480
X74168Y24269
X76708Y26809
X76708Y21729
X74168Y22364
X74168Y26174
X108458Y5080
X88900Y20574
X103378Y5080
X76708Y52070
X136398Y41910
X112268Y20320
X119380Y21082
X113538Y5080
X99314Y53340
X115062Y23495
X121158Y27940
X107315Y27940
X72898Y7620
X100838Y46990
X138938Y24130
X89408Y22860
X89027Y17780
X138938Y27940
X78359Y36703
X85598Y32385
X86868Y35560
X84328Y29210
X80518Y52070
X107188Y17780
X110998Y22352
X79248Y46355
X91948Y20320
X94488Y20320
X94488Y21717
X94488Y18542
X91948Y18415
X88773Y24892
X87884Y48260
X75438Y3810
X75438Y7620
X72771Y3556
X93218Y3810
X136398Y15240
X138430Y17780
X116078Y5080
X110998Y5080
X107188Y22479
X105918Y25146
X73533Y39243
X72898Y35560
X78867Y37973
X79121Y37084
X78867Y45593
X80010Y45466
X98298Y45593
X105029Y28575
X105918Y11430
X95758Y22860
X137668Y19050
X100825Y9131
X113525Y9131
X79502Y44323
X79566Y38926
X76581Y5969
X72517Y29083
X119399Y22460
X127508Y25400
X138938Y33020
X112268Y24130
X103124Y26035
X129286Y17780
X97409Y37465
X97409Y33655
X85002Y46863
X84519Y35624
X74041Y45593
X76327Y42291
X79629Y40132
X79629Y42672
X133858Y15240
X124968Y17780
X113938Y20809
X104013Y26797
X100838Y27940
X133858Y27940
X123698Y16510
X127508Y24130
X96901Y42799
X105918Y24003
X105918Y18923
X104902Y13843
X97790Y13208
X95631Y11049
X106299Y12827
X99060Y12573
X96647Y10160
X164846Y36957
X205486Y53340
X165989Y39370
X202946Y53340
X186944Y20606
X190246Y28067
X169672Y44704
X202946Y5207
X196596Y16510
X202946Y10160
X168402Y44831
X205486Y5080
X205486Y10160
X182753Y29083
X210566Y30480
X180594Y29972
X205486Y33020
X180873Y27457
X205486Y30480
X145796Y24269
X148336Y26809
X148336Y21729
X145796Y22364
X145796Y26174
X180086Y5080
X160528Y20574
X175006Y5080
X148336Y52070
X208026Y41910
X183896Y20320
X191008Y21082
X185166Y5080
X170942Y53340
X186690Y23495
X192786Y27940
X178943Y27940
X144526Y7620
X172466Y46990
X210566Y24130
X161036Y22860
X160655Y17780
X210566Y27940
X149987Y36703
X157226Y32385
X158496Y35560
X155956Y29210
X152146Y52070
X178816Y17780
X182626Y22352
X150876Y46355
X163576Y20320
X166116Y20320
X166116Y21717
X166116Y18542
X163576Y18415
X160401Y24892
X159512Y48260
X147066Y3810
X147066Y7620
X144399Y3556
X164846Y3810
X205486Y89408
X208026Y15240
X210058Y17780
X187706Y5080
X182626Y5080
X178816Y22479
X177546Y25146
X145161Y39243
X144526Y35560
X150495Y37973
X150749Y37084
X150495Y45593
X151638Y45466
X169926Y45593
X176657Y28575
X177546Y11430
X167386Y22860
X209296Y19050
X172453Y9131
X185153Y9131
X151130Y44323
X151194Y38926
X148209Y5969
X144145Y29083
X191027Y22460
X199136Y25400
X210566Y33020
X183896Y24130
X174752Y26035
X200914Y17780
X169037Y37465
X168847Y30416
X169037Y33655
X156630Y46863
X156147Y35624
X145669Y45593
X147955Y42291
X151257Y40132
X151257Y42672
X205486Y15240
X196596Y17780
X185566Y20809
X175641Y26797
X172466Y27940
X205486Y27940
X195326Y16510
X199136Y24130
X168529Y42799
X177546Y24003
X177546Y18923
X176530Y13843
X169418Y13208
X167259Y11049
X177927Y12827
X170688Y12573
X168275Y10160
X236474Y36957
X277114Y53340
X237617Y39370
X274574Y53340
X258572Y20606
X261874Y28067
X241300Y44704
X274574Y5207
X268224Y16510
X274574Y10160
X240030Y44831
X277114Y5080
X277114Y10160
X254381Y29083
X282194Y30480
X252222Y29972
X277114Y33020
X252501Y27457
X277114Y30480
X217424Y24269
X219964Y26809
X219964Y21729
X217424Y22364
X217424Y26174
X251714Y5080
X232156Y20574
X246634Y5080
X219964Y52070
X279654Y41910
X255524Y20320
X262636Y21082
X256794Y5080
X242570Y53340
X258318Y23495
X264414Y27940
X250571Y27940
X216154Y7620
X244094Y46990
X282194Y24130
X232664Y22860
X232283Y17780
X282194Y27940
X221615Y36703
X228854Y32385
X230124Y35560
X227584Y29210
X223774Y52070
X250444Y17780
X254254Y22352
X222504Y46355
X235204Y20320
X237744Y20320
X237744Y21717
X237744Y18542
X235204Y18415
X232029Y24892
X231140Y48260
X218694Y3810
X218694Y7620
X216027Y3556
X236474Y3810
X279654Y15240
X281686Y17780
X259334Y5080
X254254Y5080
X250444Y22479
X249174Y25146
X216789Y39243
X216154Y35560
X222123Y37973
X222377Y37084
X222123Y45593
X223266Y45466
X241554Y45593
X248285Y28575
X249174Y11430
X239014Y22860
X280924Y19050
X244081Y9131
X256781Y9131
X222758Y44323
X222821Y38926
X219837Y5969
X215773Y29083
X262655Y22460
X270764Y25400
X282194Y33020
X255524Y24130
X246380Y26035
X272542Y17780
X240665Y37465
X240474Y30416
X240665Y33655
X228258Y46863
X227774Y35624
X217297Y45593
X219583Y42291
X222885Y40132
X222885Y42672
X277114Y15240
X268224Y17780
X257194Y20809
X247269Y26797
X244094Y27940
X277114Y27940
X266954Y16510
X270764Y24130
X240157Y42799
X249174Y24003
X249174Y18923
X248158Y13843
X241046Y13208
X238887Y11049
X249555Y12827
X242316Y12573
X239903Y10160
X308102Y36957
X348742Y53340
X309245Y39370
X346202Y53340
X330200Y20606
X333502Y28067
X312928Y44704
X346202Y5207
X339852Y16510
X346202Y10160
X311658Y44831
X348742Y5080
X348742Y10160
X326009Y29083
X353822Y30480
X323850Y29972
X348742Y33020
X324129Y27457
X348742Y30480
X289052Y24269
X291592Y26809
X291592Y21729
X289052Y22364
X289052Y26174
X323342Y5080
X303784Y20574
X318262Y5080
X291592Y52070
X351282Y41910
X327152Y20320
X334264Y21082
X328422Y5080
X314198Y53340
X329946Y23495
X336042Y27940
X322199Y27940
M30