M48
;GenerationSoftware,Autodesk,EAGLE,9.6.2*%
;CreationDate,2021-05-14T16:18:24Z*%
FMAT,2
ICI,OFF
METRIC,TZ,000.000
T8C0.381
T7C0.400
T6C0.650
T5C0.850
T4C1.016
T3C1.800
T2C2.032
T1C3.048
%
G90
M71
T1
X66040Y69088
X13970Y5080
X66040Y10160
X66040Y38100
X15240Y53340
X273304Y69088
X221234Y64008
X221234Y5080
X273304Y10160
X153416Y112268
X342392Y10160
X291592Y112268
X342392Y69088
X83058Y5080
X135128Y10160
X135128Y38100
X84328Y53340
X291592Y53340
X342392Y38100
X290322Y64008
X290322Y5080
X273304Y38100
X152146Y64008
X204216Y69088
X204216Y97028
X152146Y5080
X204216Y10160
X204216Y38100
X153416Y53340
X342392Y97028
X222504Y53340
X273304Y97028
X13970Y64008
X222504Y112268
X66040Y97028
X15240Y112268
X83058Y64008
X135128Y69088
X135128Y97028
X84328Y112268
T2
X75692Y11176
X209296Y11176
X213868Y11176
X144780Y70104
X278384Y11176
X282956Y11176
X2032Y11176
X6604Y11176
X75692Y70104
X278384Y70104
X71120Y11176
X2032Y70104
X6604Y70104
X71120Y70104
X209296Y70104
X213868Y70104
X282956Y70104
X140208Y11176
X144780Y11176
X140208Y70104
T3
X202946Y88138
X202946Y90678
X202946Y31750
X341122Y90678
X202946Y29210
X64770Y90678
X64770Y88138
X133858Y29210
X133858Y31750
X341122Y31750
X272034Y88138
X341122Y29210
X272034Y29210
X272034Y31750
X341122Y88138
X64770Y29210
X64770Y31750
X133858Y90678
X133858Y88138
X272034Y90678
T4
X247904Y60198
X245364Y60198
X242824Y60198
X240284Y60198
X237744Y60198
X235204Y60198
X258064Y60198
X260604Y60198
X263144Y60198
X265684Y60198
X268224Y60198
X270764Y60198
X270764Y116078
X268224Y116078
X265684Y116078
X263144Y116078
X260604Y116078
X258064Y116078
X255524Y116078
X252984Y116078
X306832Y1270
X230124Y60198
X232664Y60198
X295148Y116078
X297688Y116078
X300228Y116078
X302768Y116078
X305308Y116078
X307848Y116078
X310388Y116078
X312928Y116078
X315468Y116078
X318008Y116078
X322072Y60198
X319532Y60198
X316992Y60198
X314452Y60198
X311912Y60198
X309372Y60198
X306832Y60198
X304292Y60198
X327152Y60198
X329692Y60198
X332232Y60198
X334772Y60198
X18796Y57150
X21336Y57150
X23876Y57150
X26416Y57150
X28956Y57150
X31496Y57150
X34036Y57150
X36576Y57150
X39116Y57150
X41656Y57150
X45720Y1270
X43180Y1270
X40640Y1270
X38100Y1270
X35560Y1270
X33020Y1270
X30480Y1270
X27940Y1270
X50800Y1270
X53340Y1270
X55880Y1270
X58420Y1270
X60960Y1270
X63500Y1270
X63500Y57150
X60960Y57150
X58420Y57150
X55880Y57150
X53340Y57150
X50800Y57150
X48260Y57150
X45720Y57150
X22860Y1270
X25400Y1270
X337312Y60198
X339852Y60198
X339852Y116078
X337312Y116078
X87884Y57150
X90424Y57150
X92964Y57150
X95504Y57150
X98044Y57150
X100584Y57150
X103124Y57150
X105664Y57150
X108204Y57150
X110744Y57150
X114808Y1270
X112268Y1270
X109728Y1270
X107188Y1270
X104648Y1270
X102108Y1270
X99568Y1270
X97028Y1270
X119888Y1270
X122428Y1270
X124968Y1270
X127508Y1270
X130048Y1270
X132588Y1270
X132588Y57150
X130048Y57150
X127508Y57150
X124968Y57150
X122428Y57150
X119888Y57150
X117348Y57150
X114808Y57150
X91948Y1270
X94488Y1270
X334772Y116078
X332232Y116078
X329692Y116078
X327152Y116078
X156972Y57150
X159512Y57150
X162052Y57150
X164592Y57150
X167132Y57150
X169672Y57150
X172212Y57150
X174752Y57150
X177292Y57150
X179832Y57150
X183896Y1270
X181356Y1270
X178816Y1270
X176276Y1270
X173736Y1270
X171196Y1270
X168656Y1270
X166116Y1270
X188976Y1270
X191516Y1270
X194056Y1270
X196596Y1270
X199136Y1270
X201676Y1270
X201676Y57150
X199136Y57150
X196596Y57150
X194056Y57150
X191516Y57150
X188976Y57150
X186436Y57150
X183896Y57150
X161036Y1270
X163576Y1270
X324612Y116078
X322072Y116078
X299212Y60198
X301752Y60198
X226060Y57150
X228600Y57150
X231140Y57150
X233680Y57150
X236220Y57150
X238760Y57150
X241300Y57150
X243840Y57150
X246380Y57150
X248920Y57150
X252984Y1270
X250444Y1270
X247904Y1270
X245364Y1270
X242824Y1270
X240284Y1270
X237744Y1270
X235204Y1270
X258064Y1270
X260604Y1270
X263144Y1270
X265684Y1270
X268224Y1270
X270764Y1270
X270764Y57150
X268224Y57150
X265684Y57150
X263144Y57150
X260604Y57150
X258064Y57150
X255524Y57150
X252984Y57150
X230124Y1270
X232664Y1270
X295148Y57150
X297688Y57150
X300228Y57150
X302768Y57150
X305308Y57150
X307848Y57150
X310388Y57150
X312928Y57150
X315468Y57150
X318008Y57150
X322072Y1270
X319532Y1270
X316992Y1270
X314452Y1270
X311912Y1270
X309372Y1270
X304292Y1270
X327152Y1270
X329692Y1270
X332232Y1270
X334772Y1270
X337312Y1270
X339852Y1270
X339852Y57150
X337312Y57150
X334772Y57150
X332232Y57150
X329692Y57150
X327152Y57150
X324612Y57150
X322072Y57150
X299212Y1270
X301752Y1270
X18796Y116078
X21336Y116078
X23876Y116078
X26416Y116078
X28956Y116078
X31496Y116078
X34036Y116078
X36576Y116078
X39116Y116078
X41656Y116078
X45720Y60198
X43180Y60198
X40640Y60198
X38100Y60198
X35560Y60198
X33020Y60198
X30480Y60198
X27940Y60198
X50800Y60198
X53340Y60198
X55880Y60198
X58420Y60198
X60960Y60198
X63500Y60198
X63500Y116078
X60960Y116078
X58420Y116078
X55880Y116078
X53340Y116078
X50800Y116078
X48260Y116078
X45720Y116078
X22860Y60198
X25400Y60198
X87884Y116078
X90424Y116078
X92964Y116078
X95504Y116078
X98044Y116078
X100584Y116078
X103124Y116078
X105664Y116078
X108204Y116078
X110744Y116078
X114808Y60198
X112268Y60198
X109728Y60198
X107188Y60198
X104648Y60198
X102108Y60198
X99568Y60198
X97028Y60198
X119888Y60198
X122428Y60198
X124968Y60198
X127508Y60198
X130048Y60198
X132588Y60198
X132588Y116078
X130048Y116078
X127508Y116078
X124968Y116078
X122428Y116078
X119888Y116078
X117348Y116078
X114808Y116078
X91948Y60198
X94488Y60198
X156972Y116078
X159512Y116078
X162052Y116078
X164592Y116078
X167132Y116078
X169672Y116078
X172212Y116078
X174752Y116078
X177292Y116078
X179832Y116078
X183896Y60198
X181356Y60198
X178816Y60198
X176276Y60198
X173736Y60198
X171196Y60198
X168656Y60198
X166116Y60198
X188976Y60198
X191516Y60198
X194056Y60198
X196596Y60198
X199136Y60198
X201676Y60198
X201676Y116078
X199136Y116078
X196596Y116078
X194056Y116078
X191516Y116078
X188976Y116078
X186436Y116078
X183896Y116078
X161036Y60198
X163576Y60198
X226060Y116078
X228600Y116078
X231140Y116078
X233680Y116078
X236220Y116078
X238760Y116078
X241300Y116078
X243840Y116078
X246380Y116078
X248920Y116078
X252984Y60198
X250444Y60198
T5
X167616Y17780
X302792Y76708
X29440Y17780
X26440Y17780
X29440Y76708
X26440Y76708
X98528Y17780
X95528Y17780
X98528Y76708
X95528Y76708
X167616Y76708
X164616Y17780
X164616Y76708
X236704Y76708
X236704Y17780
X233704Y17780
X233704Y76708
X305792Y76708
X305792Y17780
X302792Y17780
T6
X4905Y39020
X73993Y44800
X73993Y39020
X143081Y44800
X143081Y39020
X4905Y44800
X212169Y44800
X212169Y39020
X281257Y44800
X281257Y39020
X73993Y97948
X4905Y97948
X212169Y103728
X212169Y97948
X73993Y103728
X143081Y103728
X281257Y103728
X281257Y97948
X143081Y97948
X4905Y103728
T7
X1255Y46228
X1255Y37592
X5435Y37592
X5435Y46228
X70343Y46228
X70343Y37592
X74523Y37592
X74523Y46228
X139431Y46228
X139431Y37592
X143611Y37592
X143611Y46228
X208519Y46228
X208519Y37592
X212699Y37592
X212699Y46228
X5435Y96520
X5435Y105156
X277607Y37592
X281787Y37592
X70343Y105156
X70343Y96520
X139431Y105156
X139431Y96520
X143611Y96520
X143611Y105156
X277607Y105156
X277607Y96520
X281787Y96520
X281787Y105156
X74523Y96520
X74523Y105156
X208519Y105156
X208519Y96520
X212699Y96520
X212699Y105156
X281787Y46228
X277607Y46228
X1255Y105156
X1255Y96520
T8
X277622Y7620
X305562Y46990
X343662Y24130
X294132Y22860
X293751Y17780
X343662Y27940
X283083Y36703
X290322Y32385
X291592Y35560
X289052Y29210
X285242Y52070
X311912Y17780
X315722Y22352
X283972Y46355
X296672Y20320
X299212Y20320
X299212Y21717
X299212Y18542
X296672Y18415
X293497Y24892
X292608Y48260
X280162Y3810
X280162Y7620
X277495Y3556
X297942Y3810
X341122Y15240
X343154Y17780
X320802Y5080
X315722Y5080
X311912Y22479
X310642Y25146
X278257Y39243
X277622Y35560
X283591Y37973
X283845Y37084
X283591Y45593
X284734Y45466
X303022Y45593
X309753Y28575
X310642Y11430
X300482Y22860
X342392Y19050
X305549Y9131
X318249Y9131
X284226Y44323
X284290Y38926
X281305Y5969
X277241Y29083
X324123Y22460
X332232Y25400
X343662Y33020
X316992Y24130
X307848Y26035
X334010Y17780
X302133Y37465
X301943Y30416
X302133Y33655
X289726Y46863
X289243Y35624
X278765Y45593
X281051Y42291
X284353Y40132
X284353Y42672
X338582Y15240
X329692Y17780
X318662Y20809
X308737Y26797
X305562Y27940
X338582Y27940
X328422Y16510
X332232Y24130
X301625Y42799
X310642Y24003
X310642Y18923
X309626Y13843
X302514Y13208
X300355Y11049
X311023Y12827
X303784Y12573
X301371Y10160
X21590Y95885
X62230Y112268
X22733Y98298
X59690Y112268
X43688Y79534
X46990Y86995
X26416Y103632
X59690Y64135
X53340Y75438
X59690Y69088
X25146Y103759
X62230Y64008
X62230Y69088
X39497Y88011
X67310Y89408
X37338Y88900
X62230Y91948
X37617Y86385
X62230Y89408
X2540Y83197
X5080Y85737
X5080Y80657
X2540Y81292
X2540Y85102
X36830Y64008
X17272Y79502
X31750Y64008
X5080Y110998
X64770Y100838
X40640Y79248
X47752Y80010
X41910Y64008
X27686Y112268
X43434Y82423
X49530Y86868
X35687Y86868
X1270Y66548
X29210Y105918
X67310Y83058
X17780Y81788
X17399Y76708
X67310Y86868
X6731Y95631
X13970Y91313
X15240Y94488
X12700Y88138
X8890Y110998
X35560Y76708
X39370Y81280
X7620Y105283
X20320Y79248
X22860Y79248
X22860Y80645
X22860Y77470
X20320Y77343
X17145Y83820
X16256Y107188
X3810Y62738
X3810Y66548
X1143Y62484
X21590Y62738
X64770Y74168
X66802Y76708
X44450Y64008
X39370Y64008
X35560Y81407
X34290Y84074
X1905Y98171
X1270Y94488
X7239Y96901
X7493Y96012
X7239Y104521
X8382Y104394
X26670Y104521
X33401Y87503
X34290Y70358
X24130Y81788
X66040Y77978
X29197Y68059
X41897Y68059
X7874Y103251
X7937Y97853
X4953Y64897
X889Y88011
X47771Y81388
X55880Y84328
X67310Y91948
X40640Y83058
X31496Y84963
X57658Y76708
X25781Y96393
X25590Y89344
X25781Y92583
X13374Y105791
X12890Y94551
X2413Y104521
X4699Y101219
X8001Y99060
X8001Y101600
X62230Y74168
X53340Y76708
X42310Y79737
X32385Y85725
X29210Y86868
X62230Y86868
X52070Y75438
X55880Y83058
X25273Y101727
X34290Y82931
X34290Y77851
X33274Y72771
X26162Y72136
X24003Y69977
X34671Y71755
X27432Y71501
X25019Y69088
X90678Y95885
X131318Y112268
X91821Y98298
X128778Y112268
X112776Y79534
X116078Y86995
X95504Y103632
X128778Y64135
X122428Y75438
X128778Y69088
X94234Y103759
X131318Y64008
X131318Y69088
X108585Y88011
X136398Y89408
X106426Y88900
X131318Y91948
X106705Y86385
X131318Y89408
X71628Y83197
X74168Y85737
X74168Y80657
X71628Y81292
X71628Y85102
X105918Y64008
X86360Y79502
X100838Y64008
X74168Y110998
X133858Y100838
X109728Y79248
X116840Y80010
X110998Y64008
X96774Y112268
X112522Y82423
X118618Y86868
X104775Y86868
X70358Y66548
X98298Y105918
X136398Y83058
X86868Y81788
X86487Y76708
X136398Y86868
X75819Y95631
X83058Y91313
X84328Y94488
X81788Y88138
X77978Y110998
X104648Y76708
X108458Y81280
X76708Y105283
X89408Y79248
X91948Y79248
X91948Y80645
X91948Y77470
X89408Y77343
X86233Y83820
X85344Y107188
X72898Y62738
X72898Y66548
X70231Y62484
X90678Y62738
X133858Y74168
X135890Y76708
X113538Y64008
X108458Y64008
X104648Y81407
X103378Y84074
X70993Y98171
X70358Y94488
X76327Y96901
X76581Y96012
X76327Y104521
X77470Y104394
X95758Y104521
X102489Y87503
X103378Y70358
X93218Y81788
X135128Y77978
X98285Y68059
X110985Y68059
X76962Y103251
X77026Y97853
X74041Y64897
X69977Y88011
X116859Y81388
X124968Y84328
X136398Y91948
X109728Y83058
X100584Y84963
X126746Y76708
X94869Y96393
X94678Y89344
X94869Y92583
X82462Y105791
X81979Y94551
X71501Y104521
X73787Y101219
X77089Y99060
X77089Y101600
X131318Y74168
X122428Y76708
X111398Y79737
X101473Y85725
X98298Y86868
X131318Y86868
X121158Y75438
X124968Y83058
X94361Y101727
X103378Y82931
X103378Y77851
X102362Y72771
X95250Y72136
X93091Y69977
X103759Y71755
X96520Y71501
X94107Y69088
X159766Y95885
X200406Y112268
X160909Y98298
X197866Y112268
X181864Y79534
X185166Y86995
X164592Y103632
X197866Y64135
X191516Y75438
X197866Y69088
X163322Y103759
X200406Y64008
X200406Y69088
X177673Y88011
X205486Y89408
X175514Y88900
X200406Y91948
X175793Y86385
X94678Y30416
X140716Y83197
X143256Y85737
X143256Y80657
X140716Y81292
X140716Y85102
X175006Y64008
X155448Y79502
X169926Y64008
X143256Y110998
X202946Y100838
X178816Y79248
X185928Y80010
X180086Y64008
X165862Y112268
X181610Y82423
X187706Y86868
X173863Y86868
X139446Y66548
X167386Y105918
X205486Y83058
X155956Y81788
X155575Y76708
X205486Y86868
X144907Y95631
X152146Y91313
X153416Y94488
X150876Y88138
X147066Y110998
X173736Y76708
X177546Y81280
X145796Y105283
X158496Y79248
X161036Y79248
X161036Y80645
X161036Y77470
X158496Y77343
X155321Y83820
X154432Y107188
X141986Y62738
X141986Y66548
X139319Y62484
X159766Y62738
X202946Y74168
X204978Y76708
X182626Y64008
X177546Y64008
X173736Y81407
X172466Y84074
X140081Y98171
X139446Y94488
X145415Y96901
X145669Y96012
X145415Y104521
X146558Y104394
X164846Y104521
X171577Y87503
X172466Y70358
X162306Y81788
X204216Y77978
X167373Y68059
X180073Y68059
X146050Y103251
X146114Y97853
X143129Y64897
X139065Y88011
X185947Y81388
X194056Y84328
X205486Y91948
X178816Y83058
X169672Y84963
X195834Y76708
X163957Y96393
X163767Y89344
X163957Y92583
X151550Y105791
X151067Y94551
X140589Y104521
X142875Y101219
X146177Y99060
X146177Y101600
X200406Y74168
X191516Y76708
X180486Y79737
X170561Y85725
X167386Y86868
X200406Y86868
X190246Y75438
X194056Y83058
X163449Y101727
X172466Y82931
X172466Y77851
X171450Y72771
X164338Y72136
X162179Y69977
X172847Y71755
X165608Y71501
X163195Y69088
X228854Y95885
X269494Y112268
X229997Y98298
X266954Y112268
X250952Y79534
X254254Y86995
X233680Y103632
X266954Y64135
X260604Y75438
X266954Y69088
X232410Y103759
X269494Y64008
X269494Y69088
X246761Y88011
X274574Y89408
X244602Y88900
X269494Y91948
X244881Y86385
X269494Y89408
X209804Y83197
X212344Y85737
X212344Y80657
X209804Y81292
X209804Y85102
X244094Y64008
X224536Y79502
X239014Y64008
X212344Y110998
X272034Y100838
X247904Y79248
X255016Y80010
X249174Y64008
X234950Y112268
X250698Y82423
X256794Y86868
X242951Y86868
X208534Y66548
X236474Y105918
X274574Y83058
X225044Y81788
X224663Y76708
X274574Y86868
X213995Y95631
X221234Y91313
X222504Y94488
X219964Y88138
X216154Y110998
X242824Y76708
X246634Y81280
X214884Y105283
X227584Y79248
X230124Y79248
X230124Y80645
X230124Y77470
X227584Y77343
X224409Y83820
X223520Y107188
X211074Y62738
X211074Y66548
X208407Y62484
X228854Y62738
X272034Y74168
X274066Y76708
X251714Y64008
X246634Y64008
X242824Y81407
X241554Y84074
X209169Y98171
X208534Y94488
X214503Y96901
X214757Y96012
X214503Y104521
X215646Y104394
X233934Y104521
X240665Y87503
X241554Y70358
X231394Y81788
X273304Y77978
X236461Y68059
X249161Y68059
X215138Y103251
X215201Y97853
X212217Y64897
X208153Y88011
X255035Y81388
X263144Y84328
X274574Y91948
X247904Y83058
X238760Y84963
X264922Y76708
X233045Y96393
X232854Y89344
X233045Y92583
X220638Y105791
X220154Y94551
X209677Y104521
X211963Y101219
X215265Y99060
X215265Y101600
X269494Y74168
X260604Y76708
X249574Y79737
X239649Y85725
X236474Y86868
X269494Y86868
X259334Y75438
X263144Y83058
X232537Y101727
X241554Y82931
X241554Y77851
X240538Y72771
X233426Y72136
X231267Y69977
X241935Y71755
X234696Y71501
X232283Y69088
X297942Y95885
X338582Y112268
X299085Y98298
X336042Y112268
X320040Y79534
X323342Y86995
X302768Y103632
X336042Y64135
X329692Y75438
X336042Y69088
X301498Y103759
X338582Y64008
X338582Y69088
X315849Y88011
X343662Y89408
X313690Y88900
X338582Y91948
X313969Y86385
X338582Y89408
X278892Y83197
X281432Y85737
X281432Y80657
X278892Y81292
X278892Y85102
X313182Y64008
X293624Y79502
X308102Y64008
X281432Y110998
X341122Y100838
X316992Y79248
X324104Y80010
X318262Y64008
X304038Y112268
X319786Y82423
X325882Y86868
X312039Y86868
X277622Y66548
X305562Y105918
X343662Y83058
X294132Y81788
X293751Y76708
X343662Y86868
X283083Y95631
X290322Y91313
X291592Y94488
X289052Y88138
X285242Y110998
X311912Y76708
X315722Y81280
X283972Y105283
X296672Y79248
X299212Y79248
X299212Y80645
X299212Y77470
X296672Y77343
X293497Y83820
X292608Y107188
X280162Y62738
X280162Y66548
X277495Y62484
X297942Y62738
X341122Y74168
X343154Y76708
X320802Y64008
X315722Y64008
X311912Y81407
X310642Y84074
X278257Y98171
X277622Y94488
X283591Y96901
X283845Y96012
X283591Y104521
X284734Y104394
X303022Y104521
X309753Y87503
X310642Y70358
X300482Y81788
X342392Y77978
X305549Y68059
X318249Y68059
X284226Y103251
X284290Y97853
X281305Y64897
X277241Y88011
X324123Y81388
X332232Y84328
X343662Y91948
X316992Y83058
X307848Y84963
X334010Y76708
X302133Y96393
X301943Y89344
X302133Y92583
X289726Y105791
X289243Y94551
X278765Y104521
X281051Y101219
X284353Y99060
X284353Y101600
X338582Y74168
X329692Y76708
X318662Y79737
X308737Y85725
X305562Y86868
X338582Y86868
X328422Y75438
X332232Y83058
X301625Y101727
X310642Y82931
X310642Y77851
X309626Y72771
X302514Y72136
X300355Y69977
X311023Y71755
X303784Y71501
X301371Y69088
X21590Y36957
X62230Y53340
X22733Y39370
X59690Y53340
X43688Y20606
X46990Y28067
X26416Y44704
X59690Y5207
X53340Y16510
X59690Y10160
X25146Y44831
X62230Y5080
X62230Y10160
X39497Y29083
X67310Y30480
X37338Y29972
X62230Y33020
X37617Y27457
X62230Y30480
X2540Y24269
X5080Y26809
X5080Y21729
X2540Y22364
X2540Y26174
X36830Y5080
X17272Y20574
X31750Y5080
X5080Y52070
X64770Y41910
X40640Y20320
X47752Y21082
X41910Y5080
X27686Y53340
X43434Y23495
X49530Y27940
X35687Y27940
X1270Y7620
X29210Y46990
X67310Y24130
X17780Y22860
X17399Y17780
X67310Y27940
X6731Y36703
X13970Y32385
X15240Y35560
X12700Y29210
X8890Y52070
X35560Y17780
X39370Y22352
X7620Y46355
X20320Y20320
X22860Y20320
X22860Y21717
X22860Y18542
X20320Y18415
X17145Y24892
X16256Y48260
X3810Y3810
X3810Y7620
X1143Y3556
X21590Y3810
X64770Y15240
X66802Y17780
X44450Y5080
X39370Y5080
X35560Y22479
X34290Y25146
X1905Y39243
X1270Y35560
X7239Y37973
X7493Y37084
X7239Y45593
X8382Y45466
X26670Y45593
X33401Y28575
X34290Y11430
X24130Y22860
X66040Y19050
X29197Y9131
X41897Y9131
X7874Y44323
X7937Y38926
X4953Y5969
X889Y29083
X47771Y22460
X55880Y25400
X67310Y33020
X40640Y24130
X31496Y26035
X57658Y17780
X25781Y37465
X25590Y30416
X25781Y33655
X13374Y46863
X12890Y35624
X2413Y45593
X4699Y42291
X8001Y40132
X8001Y42672
X62230Y15240
X53340Y17780
X42310Y20809
X32385Y26797
X29210Y27940
X62230Y27940
X52070Y16510
X55880Y24130
X25273Y42799
X34290Y24003
X34290Y18923
X33274Y13843
X26162Y13208
X24003Y11049
X34671Y12827
X27432Y12573
X25019Y10160
X90678Y36957
X131318Y53340
X91821Y39370
X128778Y53340
X112776Y20606
X116078Y28067
X95504Y44704
X128778Y5207
X122428Y16510
X128778Y10160
X94234Y44831
X131318Y5080
X131318Y10160
X108585Y29083
X136398Y30480
X106426Y29972
X131318Y33020
X106705Y27457
X131318Y30480
X71628Y24269
X74168Y26809
X74168Y21729
X71628Y22364
X71628Y26174
X105918Y5080
X86360Y20574
X100838Y5080
X74168Y52070
X133858Y41910
X109728Y20320
X116840Y21082
X110998Y5080
X96774Y53340
X112522Y23495
X118618Y27940
X104775Y27940
X70358Y7620
X98298Y46990
X136398Y24130
X86868Y22860
X86487Y17780
X136398Y27940
X75819Y36703
X83058Y32385
X84328Y35560
X81788Y29210
X77978Y52070
X104648Y17780
X108458Y22352
X76708Y46355
X89408Y20320
X91948Y20320
X91948Y21717
X91948Y18542
X89408Y18415
X86233Y24892
X85344Y48260
X72898Y3810
X72898Y7620
X70231Y3556
X90678Y3810
X133858Y15240
X135890Y17780
X113538Y5080
X108458Y5080
X104648Y22479
X103378Y25146
X70993Y39243
X70358Y35560
X76327Y37973
X76581Y37084
X76327Y45593
X77470Y45466
X95758Y45593
X102489Y28575
X103378Y11430
X93218Y22860
X135128Y19050
X98285Y9131
X110985Y9131
X76962Y44323
X77026Y38926
X74041Y5969
X69977Y29083
X116859Y22460
X124968Y25400
X136398Y33020
X109728Y24130
X100584Y26035
X126746Y17780
X94869Y37465
X94869Y33655
X82462Y46863
X81979Y35624
X71501Y45593
X73787Y42291
X77089Y40132
X77089Y42672
X131318Y15240
X122428Y17780
X111398Y20809
X101473Y26797
X98298Y27940
X131318Y27940
X121158Y16510
X124968Y24130
X94361Y42799
X103378Y24003
X103378Y18923
X102362Y13843
X95250Y13208
X93091Y11049
X103759Y12827
X96520Y12573
X94107Y10160
X159766Y36957
X200406Y53340
X160909Y39370
X197866Y53340
X181864Y20606
X185166Y28067
X164592Y44704
X197866Y5207
X191516Y16510
X197866Y10160
X163322Y44831
X200406Y5080
X200406Y10160
X177673Y29083
X205486Y30480
X175514Y29972
X200406Y33020
X175793Y27457
X200406Y30480
X140716Y24269
X143256Y26809
X143256Y21729
X140716Y22364
X140716Y26174
X175006Y5080
X155448Y20574
X169926Y5080
X143256Y52070
X202946Y41910
X178816Y20320
X185928Y21082
X180086Y5080
X165862Y53340
X181610Y23495
X187706Y27940
X173863Y27940
X139446Y7620
X167386Y46990
X205486Y24130
X155956Y22860
X155575Y17780
X205486Y27940
X144907Y36703
X152146Y32385
X153416Y35560
X150876Y29210
X147066Y52070
X173736Y17780
X177546Y22352
X145796Y46355
X158496Y20320
X161036Y20320
X161036Y21717
X161036Y18542
X158496Y18415
X155321Y24892
X154432Y48260
X141986Y3810
X141986Y7620
X139319Y3556
X159766Y3810
X200406Y89408
X202946Y15240
X204978Y17780
X182626Y5080
X177546Y5080
X173736Y22479
X172466Y25146
X140081Y39243
X139446Y35560
X145415Y37973
X145669Y37084
X145415Y45593
X146558Y45466
X164846Y45593
X171577Y28575
X172466Y11430
X162306Y22860
X204216Y19050
X167373Y9131
X180073Y9131
X146050Y44323
X146114Y38926
X143129Y5969
X139065Y29083
X185947Y22460
X194056Y25400
X205486Y33020
X178816Y24130
X169672Y26035
X195834Y17780
X163957Y37465
X163767Y30416
X163957Y33655
X151550Y46863
X151067Y35624
X140589Y45593
X142875Y42291
X146177Y40132
X146177Y42672
X200406Y15240
X191516Y17780
X180486Y20809
X170561Y26797
X167386Y27940
X200406Y27940
X190246Y16510
X194056Y24130
X163449Y42799
X172466Y24003
X172466Y18923
X171450Y13843
X164338Y13208
X162179Y11049
X172847Y12827
X165608Y12573
X163195Y10160
X228854Y36957
X269494Y53340
X229997Y39370
X266954Y53340
X250952Y20606
X254254Y28067
X233680Y44704
X266954Y5207
X260604Y16510
X266954Y10160
X232410Y44831
X269494Y5080
X269494Y10160
X246761Y29083
X274574Y30480
X244602Y29972
X269494Y33020
X244881Y27457
X269494Y30480
X209804Y24269
X212344Y26809
X212344Y21729
X209804Y22364
X209804Y26174
X244094Y5080
X224536Y20574
X239014Y5080
X212344Y52070
X272034Y41910
X247904Y20320
X255016Y21082
X249174Y5080
X234950Y53340
X250698Y23495
X256794Y27940
X242951Y27940
X208534Y7620
X236474Y46990
X274574Y24130
X225044Y22860
X224663Y17780
X274574Y27940
X213995Y36703
X221234Y32385
X222504Y35560
X219964Y29210
X216154Y52070
X242824Y17780
X246634Y22352
X214884Y46355
X227584Y20320
X230124Y20320
X230124Y21717
X230124Y18542
X227584Y18415
X224409Y24892
X223520Y48260
X211074Y3810
X211074Y7620
X208407Y3556
X228854Y3810
X272034Y15240
X274066Y17780
X251714Y5080
X246634Y5080
X242824Y22479
X241554Y25146
X209169Y39243
X208534Y35560
X214503Y37973
X214757Y37084
X214503Y45593
X215646Y45466
X233934Y45593
X240665Y28575
X241554Y11430
X231394Y22860
X273304Y19050
X236461Y9131
X249161Y9131
X215138Y44323
X215201Y38926
X212217Y5969
X208153Y29083
X255035Y22460
X263144Y25400
X274574Y33020
X247904Y24130
X238760Y26035
X264922Y17780
X233045Y37465
X232854Y30416
X233045Y33655
X220638Y46863
X220154Y35624
X209677Y45593
X211963Y42291
X215265Y40132
X215265Y42672
X269494Y15240
X260604Y17780
X249574Y20809
X239649Y26797
X236474Y27940
X269494Y27940
X259334Y16510
X263144Y24130
X232537Y42799
X241554Y24003
X241554Y18923
X240538Y13843
X233426Y13208
X231267Y11049
X241935Y12827
X234696Y12573
X232283Y10160
X297942Y36957
X338582Y53340
X299085Y39370
X336042Y53340
X320040Y20606
X323342Y28067
X302768Y44704
X336042Y5207
X329692Y16510
X336042Y10160
X301498Y44831
X338582Y5080
X338582Y10160
X315849Y29083
X343662Y30480
X313690Y29972
X338582Y33020
X313969Y27457
X338582Y30480
X278892Y24269
X281432Y26809
X281432Y21729
X278892Y22364
X278892Y26174
X313182Y5080
X293624Y20574
X308102Y5080
X281432Y52070
X341122Y41910
X316992Y20320
X324104Y21082
X318262Y5080
X304038Y53340
X319786Y23495
X325882Y27940
X312039Y27940
M30